<?xml version="1.0" encoding="UTF-8" standalone="no"?>
<!DOCTYPE svg PUBLIC "-//W3C//DTD SVG 1.1//EN" "http://www.w3.org/Graphics/SVG/1.1/DTD/svg11.dtd">
<svg xmlns="http://www.w3.org/2000/svg" xmlns:xlink="http://www.w3.org/1999/xlink" version="1.1" width="595.22pt" height="842pt" viewBox="0 0 595.22 842">
<g enable-background="new">
<text fill="#231f20" xml:space="preserve" transform="matrix(1 0 -0 1 0 842)" font-size="9.9999" font-family="TimesNewRomanPSMT"><tspan y="-785.9041" x="221.9539 227.69385 234.41379 238.76274 243.7627 250.98262 258.20256 262.7955 267.23545">&#x0411;&#x044b;&#x043a;&#x043e;&#x0432;&#x0418;&#x0432;&#x0430;&#x043d;</tspan><tspan y="-774.8292" x="221.9539 227.81385 232.2538 237.25376 241.69371 246.13367 251.13362 255.85358 261.20353">&#x0422;&#x0430;&#x0440;&#x0430;&#x0441;&#x043e;&#x0432;&#x0438;&#x0447;</tspan></text>
<text fill="#231f20" xml:space="preserve" transform="matrix(1 0 -0 1 0 842)" font-size="7.9998" font-family="TimesNewRomanPSMT"><tspan y="-765.5363" x="221.9539 225.9538 230.23369 234.2336 238.23349 242.23339 244.23334 248.23323 252.23313 254.23308 258.23298 262.23289 264.23283 268.23274 272.23265 274.23258 278.23249">&#x0443;&#x043f;.79,81,82,86,87</tspan></text>
<text fill="#231f20" xml:space="preserve" transform="matrix(1 0 -0 1 0 842)" font-size="9.9999" font-family="TimesNewRomanPSMT"><tspan y="-741.0419" x="226.9956 232.73555 239.45549 243.80445 248.8044 256.02433 263.24427 267.6842 272.17716">&#x0411;&#x044b;&#x043a;&#x043e;&#x0432;&#x041f;&#x0435;&#x0442;&#x0440;</tspan><tspan y="-729.967" x="226.9956 232.85555 237.2955 242.29546 246.73542 251.17537 256.17533 260.89527 266.2452">&#x0422;&#x0430;&#x0440;&#x0430;&#x0441;&#x043e;&#x0432;&#x0438;&#x0447;</tspan><tspan y="-718.8921" x="232.40555 237.4055 226.9956">57~</tspan></text>
<text fill="#231f20" xml:space="preserve" transform="matrix(1 0 -0 1 0 842)" font-size="7.9998" font-family="TimesNewRomanPSMT"><tspan y="-709.5991" x="226.9956 230.9955 235.27539 239.2753 243.27519 247.27509 249.27504 253.27494">&#x0443;&#x043f;.83,90</tspan></text>
<text fill="#231f20" xml:space="preserve" transform="matrix(1 0 -0 1 0 842)" font-size="9.9999" font-family="TimesNewRomanPSMT"><tspan y="-309.3576" x="207.9286 213.66855 220.38849 224.73744 229.7374 234.32735 241.26628 244.59626 251.26619 256.25614 263.72608 268.58604 273.93598 279.28593 283.72587">&#x0411;&#x044b;&#x043a;&#x043e;&#x0432;&#x0430;(&#x041a;&#x043b;&#x044e;&#x043a;&#x0438;&#x043d;&#x0430;)</tspan><tspan y="-298.2827" x="207.9286 213.88054 218.87049 223.43044 228.0304 233.38034 238.73029 245.83022 253.05014 257.49009 262.08204 267.072 272.07194 276.79188 282.1418">&#x0423;&#x043b;&#x044c;&#x044f;&#x043d;&#x0438;&#x044f;&#x041f;&#x0430;&#x0432;&#x043b;&#x043e;&#x0432;&#x043d;&#x0430;</tspan><tspan y="-287.20783" x="207.9286 212.92856">68</tspan><tspan y="-640.0813" x="212.38356 218.1235 222.30547 226.67542 233.39536 238.39531 242.83527 247.42122 254.36016 257.69013 263.43006 270.15 274.49897 279.4989 284.08885 288.52879">&#x0411;&#x0430;&#x0442;&#x044b;&#x0440;&#x0435;&#x0432;&#x0430;(&#x0411;&#x044b;&#x043a;&#x043e;&#x0432;&#x0430;)</tspan><tspan y="-629.0064" x="212.38356 218.3355 223.32544 227.88539 232.48535 237.8353 244.77523 250.63516 255.07512 260.07508 264.515 268.95497 273.9549 278.67485 284.02479">&#x0423;&#x043b;&#x044c;&#x044f;&#x043d;&#x0430;&#x0422;&#x0430;&#x0440;&#x0430;&#x0441;&#x043e;&#x0432;&#x043d;&#x0430;</tspan><tspan y="-617.9315" x="212.38356 217.7935 222.79346">~67</tspan></text>
<text fill="#231f20" xml:space="preserve" transform="matrix(1 0 -0 1 0 842)" font-size="7.9998" font-family="TimesNewRomanPSMT"><tspan y="-608.6381" x="212.3836 216.3835 220.66339 224.6633 228.6632 232.66309 234.66304 238.66294 242.66283 244.66278 248.66268 252.66257 254.66252 258.6624">&#x0443;&#x043f;.83,84,86,87</tspan></text>
<text fill="#231f20" xml:space="preserve" transform="matrix(1 0 -0 1 0 842)" font-size="9.9999" font-family="TimesNewRomanPSMT"><tspan y="-540.9433" x="208.8527 216.07263 221.07259 226.07254 230.7905 235.16046 240.25041 245.60036 250.9503 257.89024 261.22019 266.9601 273.68006 278.02903 283.02897 287.6189 292.05885">&#x041f;&#x0440;&#x043e;&#x043a;&#x0443;&#x0434;&#x0438;&#x043d;&#x0430;(&#x0411;&#x044b;&#x043a;&#x043e;&#x0432;&#x0430;)</tspan><tspan y="-529.8684" x="208.8527 216.07263 220.51259 225.50254 229.94249 233.91045 238.3504 245.45034 251.30828 255.74823 260.74818 265.1881 269.62806 274.628 279.34794 284.69789">&#x041f;&#x0435;&#x043b;&#x0430;&#x0433;&#x0435;&#x044f;&#x0422;&#x0430;&#x0440;&#x0430;&#x0441;&#x043e;&#x0432;&#x043d;&#x0430;</tspan></text>
<text fill="#231f20" xml:space="preserve" transform="matrix(1 0 -0 1 0 842)" font-size="7.9998" font-family="TimesNewRomanPSMT"><tspan y="-520.5756" x="208.8527 212.85341 217.13411 221.134 225.13391">&#x0443;&#x043f;.79</tspan></text>
<path transform="matrix(1,0,0,-1,293.098,69.22998)" stroke-width="1" stroke-linecap="butt" stroke-miterlimit="22.926" stroke-linejoin="miter" fill="none" stroke="#231f20" d="M 0 0 L 3.991 0 "/>
<path transform="matrix(1,0,0,-1,293.098,77.33998)" stroke-width="1" stroke-linecap="butt" stroke-miterlimit="22.926" stroke-linejoin="miter" fill="none" stroke="#231f20" d="M 0 0 L 3.991 0 "/>
<path transform="matrix(1,0,0,-1,297.089,73.28498)" stroke-width="1" stroke-linecap="butt" stroke-miterlimit="22.926" stroke-linejoin="miter" fill="none" stroke="#231f20" d="M 0 0 L 3.991 0 "/>
<path transform="matrix(1,0,0,-1,297.089,69.22998)" stroke-width="1" stroke-linecap="butt" stroke-miterlimit="22.926" stroke-linejoin="miter" fill="none" stroke="#231f20" d="M 0 0 L 0 -8.11 "/>
<path transform="matrix(1,0,0,-1,301.14399,69.22998)" stroke-width="1" stroke-linecap="butt" stroke-miterlimit="22.926" stroke-linejoin="miter" fill="none" stroke="#231f20" d="M 0 0 L 0 -8.11 "/>
<path transform="matrix(1,0,0,-1,301.20799,69.22998)" stroke-width="1" stroke-linecap="butt" stroke-miterlimit="22.926" stroke-linejoin="miter" fill="none" stroke="#231f20" d="M 0 0 L 3.991 0 "/>
<path transform="matrix(1,0,0,-1,301.20799,77.33998)" stroke-width="1" stroke-linecap="butt" stroke-miterlimit="22.926" stroke-linejoin="miter" fill="none" stroke="#231f20" d="M 0 0 L 3.991 0 "/>
<text fill="#231f20" xml:space="preserve" transform="matrix(1 0 -0 1 0 842)" font-size="9.9999" font-family="TimesNewRomanPSMT"><tspan y="-364.443" x="214.7448 220.48474 227.20468 231.55364 236.55359 243.77352 249.94646 254.94641 260.29637 264.7363 269.22727 273.6672 279.01716 283.38713 288.73707">&#x0411;&#x044b;&#x043a;&#x043e;&#x0432;&#x041a;&#x043e;&#x043d;&#x0441;&#x0442;&#x0430;&#x043d;&#x0442;&#x0438;&#x043d;</tspan><tspan y="-353.3681" x="214.7448 220.60474 225.0447 230.04465 234.4846 238.92456 243.92452 248.64447 253.99442">&#x0422;&#x0430;&#x0440;&#x0430;&#x0441;&#x043e;&#x0432;&#x0438;&#x0447;</tspan><tspan y="-342.2932" x="214.7448 219.74475 224.7447 229.74466">1865</tspan></text>
<text fill="#231f20" xml:space="preserve" transform="matrix(1 0 -0 1 0 842)" font-size="7.9998" font-family="TimesNewRomanPSMT"><tspan y="-333.0002" x="214.7448 218.7455 223.0262 227.0261 231.026">&#x0443;&#x043f;.86</tspan></text>
<text fill="#231f20" xml:space="preserve" transform="matrix(1 0 -0 1 0 842)" font-size="9.9999" font-family="TimesNewRomanPSMT"><tspan y="-454.7041" x="223.0404 228.78035 235.50029 239.84925 244.8492 252.06912 259.96907 265.319 270.30897 275.6589">&#x0411;&#x044b;&#x043a;&#x043e;&#x0432;&#x0424;&#x0438;&#x043b;&#x0438;&#x043f;</tspan><tspan y="-443.6292" x="223.0404 228.90035 233.3403 238.34026 242.78022 247.22017 252.22013 256.94007 262.29">&#x0422;&#x0430;&#x0440;&#x0430;&#x0441;&#x043e;&#x0432;&#x0438;&#x0447;</tspan></text>
<text fill="#231f20" xml:space="preserve" transform="matrix(1 0 -0 1 0 842)" font-size="7.9998" font-family="TimesNewRomanPSMT"><tspan y="-434.3363" x="223.0404 227.0411 231.32181 235.3217 239.32161">&#x0443;&#x043f;.82</tspan></text>
<text fill="#231f20" xml:space="preserve" transform="matrix(1 0 -0 1 0 842)" font-size="9.9999" font-family="TimesNewRomanPSMT"><tspan y="-340.1651" x="370.55 377.38993 383.86988 388.8698 394.21977 398.6597 403.09965 408.4496 416.3005 421.30046 426.30039 428.80036 433.8003 438.80024 441.3002 446.30015">&#x0410;&#x0444;&#x043e;&#x043d;&#x0430;&#x0441;&#x0438;&#x0439;05.10.91</tspan><tspan y="-497.90455" x="210.3996 217.61952 222.61948 227.61943 232.33739 236.70735 241.7973 247.14725">&#x041f;&#x0440;&#x043e;&#x043a;&#x0443;&#x0434;&#x0438;&#x043d;</tspan><tspan y="-486.82966" x="210.3996 218.29952 222.60648 227.69643 232.69638 240.1963 245.34626 250.3462 255.69615 259.55113 264.55107 269.551 274.11097 278.5509 283.27085 288.6208">&#x0424;&#x0435;&#x0434;&#x043e;&#x0440;&#x0413;&#x0440;&#x0438;&#x0433;&#x043e;&#x0440;&#x044c;&#x0435;&#x0432;&#x0438;&#x0447;</tspan></text>
<text fill="#231f20" xml:space="preserve" transform="matrix(1 0 -0 1 0 842)" font-size="7.9998" font-family="TimesNewRomanPSMT"><tspan y="-477.5363" x="210.3993 214.40001 218.68071 222.6806 226.68051">&#x0443;&#x043f;.79</tspan></text>
<text fill="#231f20" xml:space="preserve" transform="matrix(1 0 -0 1 0 842)" font-size="9.9999" font-family="TimesNewRomanPSMT"><tspan y="-606.2085" x="374.0338 380.14375 384.6147 389.70463 394.70457 399.5645 404.91447 412.0124 417.01234 422.01228 424.51225 429.51219 434.51213 437.0121 442.01203">&#x0415;&#x0432;&#x0434;&#x043e;&#x043a;&#x0438;&#x044f;13.02.82</tspan><tspan y="-498.20857" x="373.11885 380.33879 384.77873 389.86866 394.3086 401.21855 406.30848 413.2414 417.86933 422.86927 425.36924 430.36918 435.3691 437.86909 442.86903">&#x041d;&#x0430;&#x0434;&#x0435;&#x0436;&#x0434;&#x0430;11.09.90</tspan><tspan y="-628.25827" x="370.17189 376.8418 381.83177 386.2717 391.36164 396.71159 403.0415 408.39146 415.88838 420.8883 425.88825 428.3882 433.38816 438.3881 440.88807 445.888">&#x0412;&#x043b;&#x0430;&#x0434;&#x0438;&#x043c;&#x0438;&#x0440;14.07.79</tspan><tspan y="-411.2514" x="197.3656 203.10555 209.82549 214.17444 219.1744 223.76435 230.70427 237.9242 243.27414 248.62409 253.49504 258.485 263.83494 269.18489 273.62483 278.62477 283.9747">&#x0411;&#x044b;&#x043a;&#x043e;&#x0432;&#x0430;&#x0410;&#x043f;&#x043f;&#x043e;&#x043b;&#x0438;&#x043d;&#x0430;&#x0440;&#x0438;&#x044f;</tspan><tspan y="-400.1765" x="197.3656 204.58553 209.57547 214.01543 218.62538 223.18534 227.62529 232.06525 236.7852 242.13515">&#x0410;&#x043b;&#x0435;&#x043a;&#x0441;&#x0435;&#x0435;&#x0432;&#x043d;&#x0430;</tspan></text>
<text fill="#231f20" xml:space="preserve" transform="matrix(1 0 -0 1 0 842)" font-size="7.9998" font-family="TimesNewRomanPSMT"><tspan y="-390.8835" x="197.3651 201.3658 205.6465 209.6464 213.6463">&#x0443;&#x043f;.88</tspan></text>
<text fill="#231f20" xml:space="preserve" transform="matrix(1 0 -0 1 0 842)" font-size="9.9999" font-family="TimesNewRomanPSMT"><tspan y="-425.7232" x="361.9006 370.79054 376.14048 381.0114 385.45137 390.8013 398.29124 402.91917 407.9191 410.41908 415.419 420.41896 423.7489 428.74885 433.74879 436.24876 441.2487 446.24864 448.7486 453.74855">&#x041c;&#x0438;&#x0445;&#x0430;&#x0438;&#x043b;11.79-23.04.90</tspan><tspan y="-404.0504" x="355.20567 362.4256 367.41557 371.8555 376.46546 381.0254 385.46534 393.31526 398.3152 403.31513 405.8151 410.81504 415.81498 418.31495 423.31489 428.31483 431.64479 436.6447 441.64466 444.14463 449.14457 454.1445 456.64448 461.6444">&#x0410;&#x043b;&#x0435;&#x043a;&#x0441;&#x0435;&#x0439;10.02.91-01.08.91</tspan><tspan y="-526.70419" x="59.660615 65.40056 72.12049 76.46945 81.4694">&#x0411;&#x044b;&#x043a;&#x043e;&#x0432;</tspan><tspan y="-515.6293" x="59.660615 65.52055 69.96051 74.96046 79.40041 86.34035 93.56027 98.00023 102.48618 107.48613 112.48608 117.20603 122.55598">&#x0422;&#x0430;&#x0440;&#x0430;&#x0441;&#x041f;&#x0435;&#x0442;&#x0440;&#x043e;&#x0432;&#x0438;&#x0447;</tspan></text>
<text fill="#231f20" xml:space="preserve" transform="matrix(1 0 -0 1 0 842)" font-size="7.9998" font-family="TimesNewRomanPSMT"><tspan y="-506.3363" x="59.6611 63.661798 67.94249 71.94239 75.94229">&#x0443;&#x043f;.88</tspan></text>
<path transform="matrix(1,0,0,-1,0,842)" stroke-width="1" stroke-linecap="butt" stroke-miterlimit="22.926" stroke-linejoin="miter" fill="none" stroke="#231f20" d="M 194.317 752.968 L 309.517 752.968 L 309.517 702.568 L 194.317 702.568 Z "/>
<text fill="#231f20" xml:space="preserve" transform="matrix(1 0 -0 1 0 842)" font-size="9.9999" font-family="TimesNewRomanPSMT"><tspan y="-381.0418" x="57.8495 63.58944 70.30937 74.65833 79.65828">&#x0411;&#x044b;&#x043a;&#x043e;&#x0432;</tspan><tspan y="-369.96693" x="57.8495 64.640438 69.08039 75.410327 79.85028 87.7002 94.92013 99.50809 103.948047 109.29799 114.297939 119.01789 124.367839">&#x0421;&#x0435;&#x043c;&#x0435;&#x043d;&#x0418;&#x0432;&#x0430;&#x043d;&#x043e;&#x0432;&#x0438;&#x0447;</tspan><tspan y="-358.89204" x="63.259447 68.25939 73.25934 76.5893 81.58925 86.589199 89.08917 94.08912 99.089069 101.58904 106.58899 57.8495">23-06.04.83~</tspan></text>
<text fill="#231f20" xml:space="preserve" transform="matrix(1 0 -0 1 0 842)" font-size="7.9998" font-family="TimesNewRomanPSMT"><tspan y="-349.599" x="57.8495 61.850198 66.13089">&#x0443;&#x043f;.</tspan></text>
<path transform="matrix(1,0,0,-1,194.317,45.83197)" stroke-width="1" stroke-linecap="butt" stroke-miterlimit="22.926" stroke-linejoin="miter" fill="none" stroke="#231f20" d="M 0 0 L 115.2 0 L 115.2 -36 L 0 -36 Z "/>
<path transform="matrix(1,0,0,-1,35.917009,305.03199)" stroke-width="1" stroke-linecap="butt" stroke-miterlimit="22.926" stroke-linejoin="miter" fill="none" stroke="#231f20" d="M 0 0 L 115.2 0 L 115.2 -36 L 0 -36 Z "/>
<path transform="matrix(1,0,0,-1,151.117,320.50898)" stroke-width="1" stroke-linecap="butt" stroke-miterlimit="22.926" stroke-linejoin="miter" fill="none" stroke="#231f20" d="M 0 0 L 28.8 0 "/>
<path transform="matrix(1,0,0,-1,179.917,111.70897)" stroke-width="1" stroke-linecap="butt" stroke-miterlimit="22.926" stroke-linejoin="miter" fill="none" stroke="#231f20" d="M 0 0 L 14.4 0 "/>
<path transform="matrix(1,0,0,-1,179.917,61.308969)" stroke-width="1" stroke-linecap="butt" stroke-miterlimit="22.926" stroke-linejoin="miter" fill="none" stroke="#231f20" d="M 0 0 L 0 -424.8 "/>
<path transform="matrix(1,0,0,-1,179.917,306.10899)" stroke-width="1" stroke-linecap="butt" stroke-miterlimit="22.926" stroke-linejoin="miter" fill="none" stroke="#231f20" d="M 0 0 L 14.4 0 "/>
<path transform="matrix(1,0,0,-1,179.917,399.70899)" stroke-width="1" stroke-linecap="butt" stroke-miterlimit="22.926" stroke-linejoin="miter" fill="none" stroke="#231f20" d="M 0 0 L 14.4 0 "/>
<path transform="matrix(1,0,0,-1,194.317,146.63199)" stroke-width="1" stroke-linecap="butt" stroke-miterlimit="22.926" stroke-linejoin="miter" fill="none" stroke="#231f20" d="M 0 0 L 115.2 0 L 115.2 -36 L 0 -36 Z "/>
<text fill="#231f20" xml:space="preserve" transform="matrix(1 0 -0 1 0 842)" font-size="9.9999" font-family="TimesNewRomanPSMT"><tspan y="-584.4005" x="211.7458 217.48575 221.66771 226.03766 232.7576 237.75756 242.19751">&#x0411;&#x0430;&#x0442;&#x044b;&#x0440;&#x0435;&#x0432;</tspan><tspan y="-573.3256" x="211.7458 217.85575 224.33568 229.68563 238.51554 245.73546 251.0854 256.17536 261.1753 265.61524 270.05519 274.77513 280.12507">&#x0415;&#x0444;&#x0438;&#x043c;&#x0410;&#x043d;&#x0434;&#x0440;&#x0435;&#x0435;&#x0432;&#x0438;&#x0447;</tspan><tspan y="-562.25076" x="217.15575 222.1557 211.7458">66~</tspan></text>
<path transform="matrix(1,0,0,-1,179.917,61.30902)" stroke-width="1" stroke-linecap="butt" stroke-miterlimit="22.926" stroke-linejoin="miter" fill="none" stroke="#231f20" d="M 0 0 L 14.4 0 "/>
<path transform="matrix(1,0,0,-1,179.917,205.30902)" stroke-width="1" stroke-linecap="butt" stroke-miterlimit="22.926" stroke-linejoin="miter" fill="none" stroke="#231f20" d="M 0 0 L 14.4 0 "/>
<path transform="matrix(1,0,0,-1,323.917,111.70902)" stroke-width="1" stroke-linecap="butt" stroke-miterlimit="22.926" stroke-linejoin="miter" fill="none" stroke="#231f20" d="M 0 0 L 0 -43.2 "/>
<path transform="matrix(1,0,0,-1,309.517,111.70902)" stroke-width="1" stroke-linecap="butt" stroke-miterlimit="22.926" stroke-linejoin="miter" fill="none" stroke="#231f20" d="M 0 0 L 14.4 0 "/>
<path transform="matrix(1,0,0,-1,309.517,154.90903)" stroke-width="1" stroke-linecap="butt" stroke-miterlimit="22.926" stroke-linejoin="miter" fill="none" stroke="#231f20" d="M 0 0 L 14.4 0 "/>
<path transform="matrix(1,0,0,-1,323.917,126.109027)" stroke-width="1" stroke-linecap="butt" stroke-miterlimit="22.926" stroke-linejoin="miter" fill="none" stroke="#231f20" d="M 0 0 L 28.8 0 "/>
<text fill="#231f20" xml:space="preserve" transform="matrix(.0000400004 -1 1 .0000400004 0 842)" font-size="9.9999" font-family="TimesNewRomanPSMT"><tspan y="320.51634" x="691.9557 696.9556">30</tspan><tspan y="320.51637" x="701.95559 704.45559">.1</tspan><tspan y="320.5164" x="709.0835 714.08346 716.58346 721.5834">1.83</tspan></text>
<text fill="#231f20" xml:space="preserve" transform="matrix(1 0 -0 1 0 842)" font-size="9.9999" font-family="TimesNewRomanPSMT"><tspan y="-713.6501" x="380.5577 386.97966 391.53959 395.97953 401.32948 406.6794 413.78135 418.78129 423.78123 426.2812 431.28114 436.28108 438.78105 443.78099">&#x041a;&#x0441;&#x0435;&#x043d;&#x0438;&#x044f;21.01.88</tspan></text>
<path transform="matrix(1,0,0,-1,352.717,117.83197)" stroke-width="1" stroke-linecap="butt" stroke-miterlimit="22.926" stroke-linejoin="miter" fill="none" stroke="#231f20" d="M 0 0 L 115.2 0 L 115.2 -14.4 L 0 -14.4 Z "/>
<path transform="matrix(1,0,0,-1,194.31702,189.83197)" stroke-width="1" stroke-linecap="butt" stroke-miterlimit="22.926" stroke-linejoin="miter" fill="none" stroke="#231f20" d="M 0 0 L 115.2 0 L 115.2 -50.4 L 0 -50.4 Z "/>
<path transform="matrix(1,0,0,-1,194.31702,247.43198)" stroke-width="1" stroke-linecap="butt" stroke-miterlimit="22.926" stroke-linejoin="miter" fill="none" stroke="#231f20" d="M 0 0 L 115.2 0 L 115.2 -36 L 0 -36 Z "/>
<path transform="matrix(1,0,0,-1,323.91703,212.50897)" stroke-width="1" stroke-linecap="butt" stroke-miterlimit="22.926" stroke-linejoin="miter" fill="none" stroke="#231f20" d="M 0 0 L 0 -43.2 "/>
<path transform="matrix(1,0,0,-1,309.51704,212.50897)" stroke-width="1" stroke-linecap="butt" stroke-miterlimit="22.926" stroke-linejoin="miter" fill="none" stroke="#231f20" d="M 0 0 L 14.4 0 "/>
<path transform="matrix(1,0,0,-1,309.51704,255.70897)" stroke-width="1" stroke-linecap="butt" stroke-miterlimit="22.926" stroke-linejoin="miter" fill="none" stroke="#231f20" d="M 0 0 L 14.4 0 "/>
<text fill="#231f20" xml:space="preserve" transform="matrix(.0000400004 -1 1 .0000400004 0 842)" font-size="9.9999" font-family="TimesNewRomanPSMT"><tspan y="320.52037" x="591.1557">2</tspan><tspan y="320.5204" x="596.15567 601.1556 603.6556 608.6555">6.05</tspan><tspan y="320.52043" x="613.65548">.</tspan><tspan y="320.5204" x="616.15548">8</tspan><tspan y="320.52043" x="621.1554">7</tspan></text>
<path transform="matrix(1,0,0,-1,194.317,333.832)" stroke-width="1" stroke-linecap="butt" stroke-miterlimit="22.926" stroke-linejoin="miter" fill="none" stroke="#231f20" d="M 0 0 L 115.2 0 L 115.2 -36 L 0 -36 Z "/>
<path transform="matrix(1,0,0,-1,194.317,290.632)" stroke-width="1" stroke-linecap="butt" stroke-miterlimit="22.926" stroke-linejoin="miter" fill="none" stroke="#231f20" d="M 0 0 L 115.2 0 L 115.2 -36 L 0 -36 Z "/>
<path transform="matrix(1,0,0,-1,323.917,306.10899)" stroke-width="1" stroke-linecap="butt" stroke-miterlimit="22.926" stroke-linejoin="miter" fill="none" stroke="#231f20" d="M 0 0 L 0 -43.2 "/>
<path transform="matrix(1,0,0,-1,309.517,306.10899)" stroke-width="1" stroke-linecap="butt" stroke-miterlimit="22.926" stroke-linejoin="miter" fill="none" stroke="#231f20" d="M 0 0 L 14.4 0 "/>
<path transform="matrix(1,0,0,-1,309.517,349.309)" stroke-width="1" stroke-linecap="butt" stroke-miterlimit="22.926" stroke-linejoin="miter" fill="none" stroke="#231f20" d="M 0 0 L 14.4 0 "/>
<path transform="matrix(1,0,0,-1,352.717,247.43199)" stroke-width="1" stroke-linecap="butt" stroke-miterlimit="22.926" stroke-linejoin="miter" fill="none" stroke="#231f20" d="M 0 0 L 115.2 0 L 115.2 -14.4 L 0 -14.4 Z "/>
<path transform="matrix(1,0,0,-1,352.717,269.03199)" stroke-width="1" stroke-linecap="butt" stroke-miterlimit="22.926" stroke-linejoin="miter" fill="none" stroke="#231f20" d="M 0 0 L 115.2 0 L 115.2 -14.4 L 0 -14.4 Z "/>
<path transform="matrix(1,0,0,-1,352.717,290.632)" stroke-width="1" stroke-linecap="butt" stroke-miterlimit="22.926" stroke-linejoin="miter" fill="none" stroke="#231f20" d="M 0 0 L 115.2 0 L 115.2 -14.4 L 0 -14.4 Z "/>
<path transform="matrix(1,0,0,-1,352.717,312.232)" stroke-width="1" stroke-linecap="butt" stroke-miterlimit="22.926" stroke-linejoin="miter" fill="none" stroke="#231f20" d="M 0 0 L 115.2 0 L 115.2 -14.4 L 0 -14.4 Z "/>
<path transform="matrix(1,0,0,-1,338.31703,255.709)" stroke-width="1" stroke-linecap="butt" stroke-miterlimit="22.926" stroke-linejoin="miter" fill="none" stroke="#231f20" d="M 0 0 L 14.4 0 "/>
<path transform="matrix(1,0,0,-1,338.31703,212.509)" stroke-width="1" stroke-linecap="butt" stroke-miterlimit="22.926" stroke-linejoin="miter" fill="none" stroke="#231f20" d="M 0 0 L 0 -151.2 "/>
<path transform="matrix(1,0,0,-1,338.31703,277.30903)" stroke-width="1" stroke-linecap="butt" stroke-miterlimit="22.926" stroke-linejoin="miter" fill="none" stroke="#231f20" d="M 0 0 L 14.4 0 "/>
<path transform="matrix(1,0,0,-1,338.31703,320.50904)" stroke-width="1" stroke-linecap="butt" stroke-miterlimit="22.926" stroke-linejoin="miter" fill="none" stroke="#231f20" d="M 0 0 L 14.4 0 "/>
<path transform="matrix(1,0,0,-1,323.91703,320.50904)" stroke-width="1" stroke-linecap="butt" stroke-miterlimit="22.926" stroke-linejoin="miter" fill="none" stroke="#231f20" d="M 0 0 L 14.4 0 "/>
<text fill="#231f20" xml:space="preserve" transform="matrix(1 0 -0 1 0 842)" font-size="9.9999" font-family="TimesNewRomanPSMT"><tspan y="-477.0578" x="372.3318 377.48374 382.48368 387.83363 391.68858 396.6885 401.68846 407.0384 414.8913 419.89125 424.89118 427.39115 432.01908 437.019 439.51899 444.51893">&#x0413;&#x0440;&#x0438;&#x0433;&#x043e;&#x0440;&#x0438;&#x0439;20.11.91</tspan><tspan y="-520.2574" x="371.8248 376.97676 381.97669 387.32664 391.18159 396.18153 401.18147 406.5314 414.3843 419.38426 424.3842 426.88417 431.8841 436.88404 439.384 444.38395">&#x0413;&#x0440;&#x0438;&#x0433;&#x043e;&#x0440;&#x0438;&#x0439;21.04.88</tspan><tspan y="-540.8572" x="379.10273 386.32267 391.31263 395.8726 399.97254 406.91346 411.9134 416.91334 419.4133 424.41325 429.41319 431.91316 436.9131">&#x041e;&#x043b;&#x044c;&#x0433;&#x0430;02.07.86</tspan><tspan y="-563.457" x="378.15074 387.04066 391.4806 396.48054 401.0405 408.1394 413.13935 418.13929 420.63926 425.6392 430.63914 433.1391 438.13905">&#x041c;&#x0430;&#x0440;&#x044c;&#x044f;21.01.85</tspan><tspan y="-585.05679" x="378.23674 387.12666 391.5666 396.56654 401.1265 408.2254 413.22535 418.22529 420.72526 425.7252 430.72514 433.2251 438.22505">&#x041c;&#x0430;&#x0440;&#x044c;&#x044f;10.02.83</tspan></text>
<path transform="matrix(1,0,0,-1,352.717,225.83197)" stroke-width="1" stroke-linecap="butt" stroke-miterlimit="22.926" stroke-linejoin="miter" fill="none" stroke="#231f20" d="M 0 0 L 115.2 0 L 115.2 -14.4 L 0 -14.4 Z "/>
<path transform="matrix(1,0,0,-1,338.31703,234.10898)" stroke-width="1" stroke-linecap="butt" stroke-miterlimit="22.926" stroke-linejoin="miter" fill="none" stroke="#231f20" d="M 0 0 L 14.4 0 "/>
<path transform="matrix(1,0,0,-1,352.717,355.43199)" stroke-width="1" stroke-linecap="butt" stroke-miterlimit="22.926" stroke-linejoin="miter" fill="none" stroke="#231f20" d="M 0 0 L 115.2 0 L 115.2 -14.4 L 0 -14.4 Z "/>
<path transform="matrix(1,0,0,-1,338.31703,363.70899)" stroke-width="1" stroke-linecap="butt" stroke-miterlimit="22.926" stroke-linejoin="miter" fill="none" stroke="#231f20" d="M 0 0 L 14.4 0 "/>
<path transform="matrix(1,0,0,-1,352.717,204.23198)" stroke-width="1" stroke-linecap="butt" stroke-miterlimit="22.926" stroke-linejoin="miter" fill="none" stroke="#231f20" d="M 0 0 L 115.2 0 L 115.2 -14.4 L 0 -14.4 Z "/>
<path transform="matrix(1,0,0,-1,338.31703,212.50897)" stroke-width="1" stroke-linecap="butt" stroke-miterlimit="22.926" stroke-linejoin="miter" fill="none" stroke="#231f20" d="M 0 0 L 14.4 0 "/>
<path transform="matrix(1,0,0,-1,352.717,333.83198)" stroke-width="1" stroke-linecap="butt" stroke-miterlimit="22.926" stroke-linejoin="miter" fill="none" stroke="#231f20" d="M 0 0 L 115.2 0 L 115.2 -14.4 L 0 -14.4 Z "/>
<path transform="matrix(1,0,0,-1,338.31703,342.10899)" stroke-width="1" stroke-linecap="butt" stroke-miterlimit="22.926" stroke-linejoin="miter" fill="none" stroke="#231f20" d="M 0 0 L 14.4 0 "/>
<path transform="matrix(1,0,0,-1,338.31703,298.90898)" stroke-width="1" stroke-linecap="butt" stroke-miterlimit="22.926" stroke-linejoin="miter" fill="none" stroke="#231f20" d="M 0 0 L 14.4 0 "/>
<text fill="#231f20" xml:space="preserve" transform="matrix(1 0 -0 1 0 842)" font-size="9.9999" font-family="TimesNewRomanPSMT"><tspan y="-685.0394" x="211.4648 217.20475 223.92469 228.27364 233.27359 237.86354 244.80248 248.13245 253.85939 258.72737 263.7273 271.42723 276.77717 282.1271 286.56706">&#x0411;&#x044b;&#x043a;&#x043e;&#x0432;&#x0430;(&#x0422;&#x0440;&#x0443;&#x0448;&#x0438;&#x043d;&#x0430;)</tspan><tspan y="-673.96456" x="211.4648 218.68473 224.03467 229.38462 236.32454 243.16747 249.6474 254.64736 259.9973 264.43727 268.8772 273.43717 277.8771 282.59706 287.947">&#x0410;&#x043d;&#x043d;&#x0430;&#x0410;&#x0444;&#x043e;&#x043d;&#x0430;&#x0441;&#x044c;&#x0435;&#x0432;&#x043d;&#x0430;</tspan><tspan y="-662.88967" x="211.4648 216.87474 221.8747">~59</tspan></text>
<path transform="matrix(1,0,0,-1,194.317,377.032)" stroke-width="1" stroke-linecap="butt" stroke-miterlimit="22.926" stroke-linejoin="miter" fill="none" stroke="#231f20" d="M 0 0 L 115.2 0 L 115.2 -36 L 0 -36 Z "/>
<path transform="matrix(1,0,0,-1,194.317,420.23204)" stroke-width="1" stroke-linecap="butt" stroke-miterlimit="22.926" stroke-linejoin="miter" fill="none" stroke="#231f20" d="M 0 0 L 115.2 0 L 115.2 -36 L 0 -36 Z "/>
<path transform="matrix(1,0,0,-1,323.917,392.50904)" stroke-width="1" stroke-linecap="butt" stroke-miterlimit="22.926" stroke-linejoin="miter" fill="none" stroke="#231f20" d="M 0 0 L 0 -43.2 "/>
<path transform="matrix(1,0,0,-1,309.517,392.50904)" stroke-width="1" stroke-linecap="butt" stroke-miterlimit="22.926" stroke-linejoin="miter" fill="none" stroke="#231f20" d="M 0 0 L 14.4 0 "/>
<path transform="matrix(1,0,0,-1,309.517,435.70906)" stroke-width="1" stroke-linecap="butt" stroke-miterlimit="22.926" stroke-linejoin="miter" fill="none" stroke="#231f20" d="M 0 0 L 14.4 0 "/>
<path transform="matrix(1,0,0,-1,352.717,405.83204)" stroke-width="1" stroke-linecap="butt" stroke-miterlimit="22.926" stroke-linejoin="miter" fill="none" stroke="#231f20" d="M 0 0 L 115.2 0 L 115.2 -14.4 L 0 -14.4 Z "/>
<path transform="matrix(1,0,0,-1,338.31703,414.10905)" stroke-width="1" stroke-linecap="butt" stroke-miterlimit="22.926" stroke-linejoin="miter" fill="none" stroke="#231f20" d="M 0 0 L 14.4 0 "/>
<path transform="matrix(1,0,0,-1,352.717,427.43205)" stroke-width="1" stroke-linecap="butt" stroke-miterlimit="22.926" stroke-linejoin="miter" fill="none" stroke="#231f20" d="M 0 0 L 115.2 0 L 115.2 -14.4 L 0 -14.4 Z "/>
<text fill="#231f20" xml:space="preserve" transform="matrix(1 0 -0 1 0 842)" font-size="9.9999" font-family="TimesNewRomanPSMT"><tspan y="-447.3232" x="361.9006 369.12055 374.1105 378.55046 383.1604 387.72035 392.16029 397.51023 402.60017 410.09809 415.09803 420.09797 422.59794 427.59788 432.5978 435.09779 440.09773">&#x0410;&#x043b;&#x0435;&#x043a;&#x0441;&#x0430;&#x043d;&#x0434;&#x0440;14.10.88</tspan></text>
<path transform="matrix(1,0,0,-1,352.717,384.232)" stroke-width="1" stroke-linecap="butt" stroke-miterlimit="22.926" stroke-linejoin="miter" fill="none" stroke="#231f20" d="M 0 0 L 115.2 0 L 115.2 -14.4 L 0 -14.4 Z "/>
<path transform="matrix(1,0,0,-1,338.31703,435.70899)" stroke-width="1" stroke-linecap="butt" stroke-miterlimit="22.926" stroke-linejoin="miter" fill="none" stroke="#231f20" d="M 0 0 L 14.4 0 "/>
<path transform="matrix(1,0,0,-1,338.31703,392.50898)" stroke-width="1" stroke-linecap="butt" stroke-miterlimit="22.926" stroke-linejoin="miter" fill="none" stroke="#231f20" d="M 0 0 L 14.4 0 "/>
<path transform="matrix(1,0,0,-1,338.31703,392.50898)" stroke-width="1" stroke-linecap="butt" stroke-miterlimit="22.926" stroke-linejoin="miter" fill="none" stroke="#231f20" d="M 0 0 L 0 -43.2 "/>
<path transform="matrix(1,0,0,-1,323.91703,414.10899)" stroke-width="1" stroke-linecap="butt" stroke-miterlimit="22.926" stroke-linejoin="miter" fill="none" stroke="#231f20" d="M 0 0 L 14.4 0 "/>
<path transform="matrix(1,0,0,-1,194.31702,521.032)" stroke-width="1" stroke-linecap="butt" stroke-miterlimit="22.926" stroke-linejoin="miter" fill="none" stroke="#231f20" d="M 0 0 L 115.2 0 L 115.2 -36 L 0 -36 Z "/>
<path transform="matrix(1,0,0,-1,323.91703,478.909)" stroke-width="1" stroke-linecap="butt" stroke-miterlimit="22.926" stroke-linejoin="miter" fill="none" stroke="#231f20" d="M 0 0 L 0 -57.6 "/>
<path transform="matrix(1,0,0,-1,309.51704,478.909)" stroke-width="1" stroke-linecap="butt" stroke-miterlimit="22.926" stroke-linejoin="miter" fill="none" stroke="#231f20" d="M 0 0 L 14.4 0 "/>
<path transform="matrix(1,0,0,-1,309.51704,536.509)" stroke-width="1" stroke-linecap="butt" stroke-miterlimit="22.926" stroke-linejoin="miter" fill="none" stroke="#231f20" d="M 0 0 L 14.4 0 "/>
<path transform="matrix(1,0,0,-1,338.31703,500.50898)" stroke-width="1" stroke-linecap="butt" stroke-miterlimit="22.926" stroke-linejoin="miter" fill="none" stroke="#231f20" d="M 0 0 L 14.4 0 "/>
<path transform="matrix(1,0,0,-1,323.91703,500.50898)" stroke-width="1" stroke-linecap="butt" stroke-miterlimit="22.926" stroke-linejoin="miter" fill="none" stroke="#231f20" d="M 0 0 L 14.4 0 "/>
<path transform="matrix(1,0,0,-1,352.717,492.23197)" stroke-width="1" stroke-linecap="butt" stroke-miterlimit="22.926" stroke-linejoin="miter" fill="none" stroke="#231f20" d="M 0 0 L 115.2 0 L 115.2 -14.4 L 0 -14.4 Z "/>
<path transform="matrix(1,0,0,-1,194.31702,463.43199)" stroke-width="1" stroke-linecap="butt" stroke-miterlimit="22.926" stroke-linejoin="miter" fill="none" stroke="#231f20" d="M 0 0 L 115.2 0 L 115.2 -50.4 L 0 -50.4 Z "/>
<path transform="matrix(1,0,0,-1,35.917024,449.03199)" stroke-width="1" stroke-linecap="butt" stroke-miterlimit="22.926" stroke-linejoin="miter" fill="none" stroke="#231f20" d="M 0 0 L 115.2 0 L 115.2 -50.4 L 0 -50.4 Z "/>
<path transform="matrix(1,0,0,-1,179.91703,486.10899)" stroke-width="1" stroke-linecap="butt" stroke-miterlimit="22.926" stroke-linejoin="miter" fill="none" stroke="#231f20" d="M 0 0 L 14.4 0 "/>
</g>
</svg>
