<?xml version="1.0" encoding="UTF-8" standalone="no"?>
<!DOCTYPE svg PUBLIC "-//W3C//DTD SVG 1.1//EN" "http://www.w3.org/Graphics/SVG/1.1/DTD/svg11.dtd">
<svg xmlns="http://www.w3.org/2000/svg" xmlns:xlink="http://www.w3.org/1999/xlink" version="1.1" width="595.22pt" height="842pt" viewBox="0 0 595.22 842">
<g enable-background="new">
<text fill="#231f20" xml:space="preserve" transform="matrix(1 0 -0 1 0 842)" font-size="9.9999" font-family="TimesNewRomanPSMT"><tspan y="-750.604" x="58.428 65.20793 69.64789 74.73784 78.6878 84.03774 89.38769 96.32662 99.656589 105.013538 110.01348 115.36343 119.80338 124.24334 128.83129 133.27124">&#x041b;&#x0430;&#x0431;&#x0437;&#x0438;&#x043d;&#x0430;(&#x0422;&#x043e;&#x043d;&#x0435;&#x0435;&#x0432;&#x0430;)</tspan><tspan y="-739.5291" x="58.428 65.64793 70.99787 76.34782 83.28775 89.95769 94.397647 98.8376 104.187549 109.1775 113.73745 118.17741 122.89736 128.24732">&#x0410;&#x043d;&#x043d;&#x0430;&#x0412;&#x0430;&#x0441;&#x0438;&#x043b;&#x044c;&#x0435;&#x0432;&#x043d;&#x0430;</tspan></text>
<text fill="#231f20" xml:space="preserve" transform="matrix(1 0 -0 1 0 842)" font-size="7.9998" font-family="TimesNewRomanPSMT"><tspan y="-719.1611" x="58.428 62.428705 66.7094 70.7093 74.7092">&#x0443;&#x043f;.79</tspan></text>
<text fill="#231f20" xml:space="preserve" transform="matrix(1 0 -0 1 0 842)" font-size="9.9999" font-family="TimesNewRomanPSMT"><tspan y="-808.2039" x="63.1123 69.892238 74.33219 79.42214 83.3721 88.722049 96.57197 105.46188 110.81183 115.68378 120.12373 125.47368">&#x041b;&#x0430;&#x0431;&#x0437;&#x0438;&#x043d;&#x041c;&#x0438;&#x0445;&#x0430;&#x0438;&#x043b;</tspan><tspan y="-797.129" x="63.1123 70.33223 74.77219 79.263149 84.26309 89.26304 93.982997 99.33294">&#x041f;&#x0435;&#x0442;&#x0440;&#x043e;&#x0432;&#x0438;&#x0447;</tspan></text>
<text fill="#231f20" xml:space="preserve" transform="matrix(1 0 -0 1 0 842)" font-size="7.9998" font-family="TimesNewRomanPSMT"><tspan y="-776.7611" x="63.1123 67.1122 71.39209 75.39198 79.391887 83.391788 85.39173 89.39163">&#x0443;&#x043f;.83,86</tspan></text>
<text fill="#231f20" xml:space="preserve" transform="matrix(1 0 -0 1 0 842)" font-size="9.9999" font-family="TimesNewRomanPSMT"><tspan y="-742.4569" x="370.1914 379.08134 384.43128 389.30223 393.74217 399.0921 406.58204 411.58198 416.5819 419.08189 423.7098 428.70976 431.20973 436.20967 441.2096 444.53956 449.5395 454.53944 457.0394 462.03935 467.03929 469.53926 474.53919">&#x041c;&#x0438;&#x0445;&#x0430;&#x0438;&#x043b;17.11.81-24.02.82</tspan></text>
<text fill="#00b04c" xml:space="preserve" transform="matrix(1 0 -0 1 0 842)" font-size="9.9999" font-family="TimesNewRomanPSMT"><tspan y="-350.04286" x="75.37735 82.15728 86.59724 91.68719 95.637149 100.98709 108.83701 116.05694 121.40688 126.49683 131.49678 135.93674">&#x041b;&#x0430;&#x0431;&#x0437;&#x0438;&#x043d;&#x0410;&#x043d;&#x0434;&#x0440;&#x0435;&#x0439;</tspan><tspan y="-338.96797" x="75.37735 82.597278 87.03723 91.52819 96.52814 101.52808 106.24804 111.597988">&#x041f;&#x0435;&#x0442;&#x0440;&#x043e;&#x0432;&#x0438;&#x0447;</tspan><tspan y="-327.89308" x="75.37735 80.3773 85.37724 90.37719">1871</tspan></text>
<text fill="#00b04c" xml:space="preserve" transform="matrix(1 0 -0 1 0 842)" font-size="7.9998" font-family="TimesNewRomanPSMT"><tspan y="-318.6002" x="75.3775 79.3774 83.657299 87.65719 90.32112 94.60101 98.880908 102.376819 105.92873 109.92863 114.20852 117.76043 121.25634">&#x0443;&#x043f;.(&#x0438;&#x043d;&#x0442;&#x0435;&#x0440;&#x043d;&#x0435;&#x0442;)</tspan></text>
<text fill="#231f20" xml:space="preserve" transform="matrix(1 0 -0 1 0 842)" font-size="9.9999" font-family="TimesNewRomanPSMT"><tspan y="-416.8808" x="68.3266 75.10653 79.546489 84.63644 88.586399 93.93634 99.286289 106.22522 109.55518 113.99514">&#x041b;&#x0430;&#x0431;&#x0437;&#x0438;&#x043d;&#x0430;(?)</tspan><tspan y="-405.8059" x="68.3266 74.278537 79.268489 83.82844 88.42839 93.778339 100.71827 108.61819 112.92415 118.0141 123.014049 128.01399 133.01395 137.7339 143.08385">&#x0423;&#x043b;&#x044c;&#x044f;&#x043d;&#x0430;&#x0424;&#x0435;&#x0434;&#x043e;&#x0440;&#x043e;&#x0432;&#x043d;&#x0430;</tspan><tspan y="-394.73103" x="73.73654 78.73649 83.736438 88.73638 93.73633 97.06629 102.06624 107.066188 109.56616 114.56611 119.566059 122.06603 127.06598 68.3266">1840-08.08.85~</tspan></text>
<text fill="#231f20" xml:space="preserve" transform="matrix(1 0 -0 1 0 842)" font-size="7.9998" font-family="TimesNewRomanPSMT"><tspan y="-385.438" x="68.3266 72.3273 76.607997">&#x0443;&#x043f;.</tspan></text>
<text fill="#231f20" xml:space="preserve" transform="matrix(1 0 -0 1 0 842)" font-size="9.9999" font-family="TimesNewRomanPSMT"><tspan y="-425.6569" x="220.2389 227.45883 232.80878 237.16175 242.0297 247.01964 251.4596 264.71946 269.7194 274.71934 278.0493 283.04924 288.04917 290.54914 295.54908 300.549 303.04899 308.04893 259.31053">&#x041d;&#x0438;&#x043a;&#x043e;&#x043b;&#x0430;&#x0439;78-19.08.85~</tspan></text>
<text fill="#231f20" xml:space="preserve" transform="matrix(1 0 -0 1 0 842)" font-size="8.9999" font-family="TimesNewRomanPSMT"><tspan y="-404.388" x="213.9395 221.94042 226.75536 231.1401 235.13607 239.951 248.94281 253.44277 257.94273 260.1927 264.69264 269.19258 271.44255 275.94248 282.69239 287.93934 292.43928 296.9392 299.18919 303.68913 308.18907 310.43904 314.93898">&#x041c;&#x0438;&#x0445;&#x0430;&#x0438;&#x043b;20.05.82-24.08.83</tspan></text>
<text fill="#231f20" xml:space="preserve" transform="matrix(1 0 -0 1 0 842)" font-size="9.9999" font-family="TimesNewRomanPSMT"><tspan y="-481.6808" x="71.9496 78.72953 83.16949 88.25944 92.2094 97.55934 105.40926 112.229198 118.55913 123.90907 128.40203 133.40198 138.75193">&#x041b;&#x0430;&#x0431;&#x0437;&#x0438;&#x043d;&#x0414;&#x043c;&#x0438;&#x0442;&#x0440;&#x0438;&#x0439;</tspan><tspan y="-470.6059" x="71.9496 79.169528 83.60948 88.10044 93.10039 98.100337 102.82029 108.170238">&#x041f;&#x0435;&#x0442;&#x0440;&#x043e;&#x0432;&#x0438;&#x0447;</tspan><tspan y="-459.531" x="71.9496 76.81755 81.30851 85.74847 89.36443 94.36439 98.804347 103.671298 108.66125 113.7512 117.92915">&#x043e;&#x0442;&#x0441;&#x0442;.&#x0441;&#x043e;&#x043b;&#x0434;&#x0430;&#x0442;</tspan></text>
<text fill="#231f20" xml:space="preserve" transform="matrix(1 0 -0 1 0 842)" font-size="7.9998" font-family="TimesNewRomanPSMT"><tspan y="-450.238" x="71.9496 75.9503 80.230998 84.230899 88.2308">&#x0443;&#x043f;.79</tspan></text>
<text fill="#231f20" xml:space="preserve" transform="matrix(1 0 -0 1 0 842)" font-size="9.9999" font-family="TimesNewRomanPSMT"><tspan y="-476.3041" x="241.1121 246.85205 253.57199 257.92097 262.9209 270.1408 277.36076 281.9537 286.39366">&#x0411;&#x044b;&#x043a;&#x043e;&#x0432;&#x0418;&#x0432;&#x0430;&#x043d;</tspan><tspan y="-465.22923" x="241.1121 246.97205 251.412 256.41197 260.8519 265.29185 270.29179 275.01173 280.36167">&#x0422;&#x0430;&#x0440;&#x0430;&#x0441;&#x043e;&#x0432;&#x0438;&#x0447;</tspan></text>
<text fill="#231f20" xml:space="preserve" transform="matrix(1 0 -0 1 0 842)" font-size="7.9998" font-family="TimesNewRomanPSMT"><tspan y="-455.9363" x="241.1121 245.112 249.39189 253.3918 257.3917 261.3916 263.39155 267.39146">&#x0443;&#x043f;.79,81</tspan></text>
<text fill="#231f20" xml:space="preserve" transform="matrix(1 0 -0 1 0 842)" font-size="9.9999" font-family="TimesNewRomanPSMT"><tspan y="-530.043" x="227.2643 233.00424 239.72418 244.07314 249.07309 253.66304 260.60197 263.93193 270.71186 275.1518 280.24174 284.19169 289.54164 294.89158 299.3315">&#x0411;&#x044b;&#x043a;&#x043e;&#x0432;&#x0430;(&#x041b;&#x0430;&#x0431;&#x0437;&#x0438;&#x043d;&#x0430;)</tspan><tspan y="-518.96817" x="227.2643 234.48423 239.83417 245.18412 252.12404 261.01396 266.3639 271.23783 275.67778 281.0277 286.01768 291.0176 295.73756 301.0875">&#x0410;&#x043d;&#x043d;&#x0430;&#x041c;&#x0438;&#x0445;&#x0430;&#x0439;&#x043b;&#x043e;&#x0432;&#x043d;&#x0430;</tspan><tspan y="-507.89326" x="227.2643 232.67424 237.6742 242.67415 246.00412 251.00408 256.00404 261.00398">~45-1947</tspan></text>
<text fill="#231f20" xml:space="preserve" transform="matrix(1 0 -0 1 0 842)" font-size="8.9999" font-family="TimesNewRomanPSMT"><tspan y="-507.8929" x="268.5041 314.50529 271.50108 275.05604 279.87098 283.94703 288.43797 294.68388 300.3169 304.31285 310.00978">()&#x0437;&#x043d;&#x0430;&#x043b;&#x0430;&#x043c;&#x0430;&#x043c;&#x0443;</tspan></text>
<text fill="#231f20" xml:space="preserve" transform="matrix(1 0 -0 1 0 842)" font-size="7.9998" font-family="TimesNewRomanPSMT"><tspan y="-498.6002" x="227.2643 231.26419 235.54409 239.54399 243.54389 247.54378 249.54373 253.54363">&#x0443;&#x043f;.80,87</tspan></text>
<text fill="#231f20" xml:space="preserve" transform="matrix(1 0 -0 1 0 842)" font-size="9.9999" font-family="TimesNewRomanPSMT"><tspan y="-634.6397" x="222.1554 228.82534 233.81528 240.53522 244.88318 249.88314 254.47309 261.412 264.74195 271.52189 275.96183 281.05177 285.0017 290.35166 295.7016 300.14155">&#x041a;&#x043b;&#x044b;&#x043a;&#x043e;&#x0432;&#x0430;(&#x041b;&#x0430;&#x0431;&#x0437;&#x0438;&#x043d;&#x0430;)</tspan><tspan y="-623.5648" x="222.1554 229.37532 234.36527 238.80522 243.41518 247.97513 252.41509 257.76506 262.85499 267.85493 274.79484 283.68476 289.0347 293.90266 298.3426 303.69255 308.6825">&#x0410;&#x043b;&#x0435;&#x043a;&#x0441;&#x0430;&#x043d;&#x0434;&#x0440;&#x0430;&#x041c;&#x0438;&#x0445;&#x0430;&#x0439;&#x043b;.</tspan><tspan y="-612.4899" x="227.56534 232.56529 237.56525 242.5652 222.1554">1857~</tspan><tspan y="-589.80319" x="229.26033 235.93027 240.92021 247.64015 251.98812 256.98808">&#x041a;&#x043b;&#x044b;&#x043a;&#x043e;&#x0432;</tspan><tspan y="-578.7283" x="229.26033 235.79827 240.16822 244.60817 249.95812 254.39807 262.248 269.46794 273.90788 278.4968 283.48677 288.4867 293.20664 298.55659">&#x0421;&#x0442;&#x0435;&#x043f;&#x0430;&#x043d;&#x041f;&#x0430;&#x0432;&#x043b;&#x043e;&#x0432;&#x0438;&#x0447;</tspan><tspan y="-567.6534" x="234.67028 239.67023 244.67018 249.67014 229.26033">1856~</tspan></text>
<text fill="#231f20" xml:space="preserve" transform="matrix(1 0 -0 1 0 842)" font-size="7.9998" font-family="TimesNewRomanPSMT"><tspan y="-558.3599" x="229.2599 233.2606 237.5413 241.5412 245.5411">&#x0443;&#x043f;.80</tspan></text>
<text fill="#231f20" xml:space="preserve" transform="matrix(.0000400004 -1 1 .0000400004 0 842)" font-size="9.9999" font-family="TimesNewRomanPSMT"><tspan y="335.41389" x="583.244 588.24398 593.2439 595.7439">05.1</tspan><tspan y="335.4139" x="600.74386 605.7438 608.2438 613.2437">0.80</tspan></text>
<text fill="#231f20" xml:space="preserve" transform="matrix(1 0 -0 1 0 842)" font-size="9.9999" font-family="TimesNewRomanPSMT"><tspan y="-592.2513" x="372.0132 378.80415 383.24409 388.24403 392.21199 396.65193 404.50184 409.50178 414.5017 417.00169 422.00163 427.00157 429.50154 434.50148 439.5014 442.83137 447.8313 452.83125 455.3312 460.33116 465.3311 467.83106 472.831">&#x0421;&#x0435;&#x0440;&#x0433;&#x0435;&#x0439;05.07.82-18.07.82</tspan><tspan y="-764.05056" x="383.79609 391.01603 396.36598 400.8059 405.24586 409.73683 414.17677 418.6167 423.96665 431.06459 436.0645 441.06446 443.56443 448.56437 453.5643 456.06428 461.0642">&#x0410;&#x043d;&#x0430;&#x0441;&#x0442;&#x0430;&#x0441;&#x0438;&#x044f;22.10.79</tspan><tspan y="-800.1432" x="225.71067 232.93059 237.53055 241.9005 246.76045 252.1104 257.46037 264.40129 267.73124 274.51118 278.9511 284.04106 287.991 293.34095 298.6909 303.13084">&#x041f;&#x044f;&#x0442;&#x043a;&#x0438;&#x043d;&#x0430;(&#x041b;&#x0430;&#x0431;&#x0437;&#x0438;&#x043d;&#x0430;)</tspan><tspan y="-789.0683" x="225.71067 231.8206 236.81055 241.2505 246.60045 253.54038 262.4303 267.78025 272.6472 277.08714 282.43708 287.42704 292.42698 297.1469 302.49687">&#x0415;&#x043b;&#x0435;&#x043d;&#x0430;&#x041c;&#x0438;&#x0445;&#x0430;&#x0439;&#x043b;&#x043e;&#x0432;&#x043d;&#x0430;</tspan></text>
<text fill="#231f20" xml:space="preserve" transform="matrix(1 0 -0 1 0 842)" font-size="7.9998" font-family="TimesNewRomanPSMT"><tspan y="-779.7756" x="225.7106 229.7105 233.99039 237.9903 241.99019 245.99008 247.99004 251.98993 255.98983 257.98979 261.9897">&#x0443;&#x043f;.79,81,90</tspan></text>
<text fill="#231f20" xml:space="preserve" transform="matrix(1 0 -0 1 0 842)" font-size="9.9999" font-family="TimesNewRomanPSMT"><tspan y="-742.7043" x="218.2975 225.51743 230.11739 234.48734 239.34729 244.69724">&#x041f;&#x044f;&#x0442;&#x043a;&#x0438;&#x043d;</tspan><tspan y="-731.6294" x="218.2975 224.83544 229.20539 233.64534 238.99529 243.43524 251.28516 257.95509 263.30503 268.65498 273.6549 279.00486 284.0948 289.09474 294.44468 299.4446 304.16456 309.5145">&#x0421;&#x0442;&#x0435;&#x043f;&#x0430;&#x043d;&#x0421;&#x043f;&#x0438;&#x0440;&#x0438;&#x0434;&#x043e;&#x043d;&#x043e;&#x0432;&#x0438;&#x0447;</tspan></text>
<text fill="#231f20" xml:space="preserve" transform="matrix(1 0 -0 1 0 842)" font-size="7.9998" font-family="TimesNewRomanPSMT"><tspan y="-722.3367" x="218.2975 222.2974 226.57729 230.5772 234.57709 238.57698 240.57694 244.57683 248.57672 250.57668 254.57657 258.57649 260.57643 264.57633 268.57624 270.57618 274.57609 278.576 280.57594 284.57585">&#x0443;&#x043f;.79,80,81,86,90,91</tspan></text>
<text fill="#231f20" xml:space="preserve" transform="matrix(1 0 -0 1 0 842)" font-size="9.9999" font-family="TimesNewRomanPSMT"><tspan y="-721.8578" x="384.7893 390.89924 395.6042 399.78413 404.15409 408.59403 413.59397 418.9439 424.29386 431.23277 436.2327 441.23265 443.7326 448.36054 453.36048 455.86045 460.86039">&#x0415;&#x043a;&#x0430;&#x0442;&#x0435;&#x0440;&#x0438;&#x043d;&#x0430;17.11.81</tspan><tspan y="-382.45719" x="236.77478 243.9947 248.99466 253.43462 261.28556 266.2855 271.28544 273.7854 278.78535 283.78529 286.28526 291.2852">&#x0418;&#x043e;&#x0430;&#x043d;21.01.79</tspan><tspan y="-677.65029" x="375.84138 383.0613 388.41127 393.7612 400.7041 405.70405 410.70399 413.20396 418.2039 423.20384 425.7038 430.70375 435.70368 439.03364 444.03358 449.0335 451.53349 456.53343 461.53337 464.03334 469.03327">&#x0410;&#x043d;&#x043d;&#x0430;08.09.87-19.12.87</tspan><tspan y="-657.0575" x="392.5412 400.44114 404.74809 409.838 414.83796 422.33589 427.33583 432.33576 434.83573 439.83567 444.8356 447.33558 452.3355">&#x0424;&#x0435;&#x0434;&#x043e;&#x0440;08.09.87</tspan><tspan y="-457.4635" x="388.77824 394.51817 401.2381 405.58708 410.587 415.17695">&#x0411;&#x044b;&#x043a;&#x043e;&#x0432;&#x0430;</tspan><tspan y="-446.3886" x="388.77824 397.66816 402.1081 407.10804 412.45799 419.5579 426.77784 431.36979 435.80973 441.15968 446.1596 450.87956 456.2295">&#x041c;&#x0430;&#x0440;&#x0438;&#x044f;&#x0418;&#x0432;&#x0430;&#x043d;&#x043e;&#x0432;&#x043d;&#x0430;</tspan><tspan y="-419.4579" x="392.4972 400.39714 404.70408 409.794 414.79396 422.29188 427.2918 432.29176 434.79173 439.79167 444.7916 447.29158 452.2915">&#x0424;&#x0435;&#x0434;&#x043e;&#x0440;01.02.80</tspan></text>
<path transform="matrix(1,0,0,-1,303.2,118.859989)" stroke-width="1" stroke-linecap="butt" stroke-miterlimit="22.926" stroke-linejoin="miter" fill="none" stroke="#231f20" d="M 0 0 L 3.991 0 "/>
<path transform="matrix(1,0,0,-1,303.2,126.969989)" stroke-width="1" stroke-linecap="butt" stroke-miterlimit="22.926" stroke-linejoin="miter" fill="none" stroke="#231f20" d="M 0 0 L 3.991 0 "/>
<path transform="matrix(1,0,0,-1,307.191,122.914989)" stroke-width="1" stroke-linecap="butt" stroke-miterlimit="22.926" stroke-linejoin="miter" fill="none" stroke="#231f20" d="M 0 0 L 3.991 0 "/>
<path transform="matrix(1,0,0,-1,307.191,118.859989)" stroke-width="1" stroke-linecap="butt" stroke-miterlimit="22.926" stroke-linejoin="miter" fill="none" stroke="#231f20" d="M 0 0 L 0 -8.11 "/>
<path transform="matrix(1,0,0,-1,311.246,118.859989)" stroke-width="1" stroke-linecap="butt" stroke-miterlimit="22.926" stroke-linejoin="miter" fill="none" stroke="#231f20" d="M 0 0 L 0 -8.11 "/>
<path transform="matrix(1,0,0,-1,311.31,118.859989)" stroke-width="1" stroke-linecap="butt" stroke-miterlimit="22.926" stroke-linejoin="miter" fill="none" stroke="#231f20" d="M 0 0 L 3.991 0 "/>
<path transform="matrix(1,0,0,-1,311.31,126.969989)" stroke-width="1" stroke-linecap="butt" stroke-miterlimit="22.926" stroke-linejoin="miter" fill="none" stroke="#231f20" d="M 0 0 L 3.991 0 "/>
<text fill="#231f20" xml:space="preserve" transform="matrix(1 0 -0 1 0 842)" font-size="9.9999" font-family="TimesNewRomanPSMT"><tspan y="-683.9666" x="218.0441 221.37407 228.154 232.59397 237.68392 241.63388 246.98383 252.33377 256.7737">(&#x041b;&#x0430;&#x0431;&#x0437;&#x0438;&#x043d;&#x0430;)</tspan><tspan y="-672.8917" x="218.0441 224.15404 230.63397 235.63393 240.87989 245.31984 250.66979 256.01976 260.5797 267.67964 276.56956 281.9195 286.79246 291.2324 296.58235 301.5723 306.57225 311.29219 316.64213">&#x0415;&#x0444;&#x0440;&#x043e;&#x0441;&#x0438;&#x043d;&#x044c;&#x044f;&#x041c;&#x0438;&#x0445;&#x0430;&#x0439;&#x043b;&#x043e;&#x0432;&#x043d;&#x0430;</tspan></text>
<text fill="#231f20" xml:space="preserve" transform="matrix(1 0 -0 1 0 842)" font-size="7.9998" font-family="TimesNewRomanPSMT"><tspan y="-663.5988" x="218.0441 222.0448 226.3255 230.3254 234.3253">&#x0443;&#x043f;.90</tspan></text>
<path transform="matrix(1,0,0,-1,304.095,377.066)" stroke-width="1" stroke-linecap="butt" stroke-miterlimit="22.926" stroke-linejoin="miter" fill="none" stroke="#231f20" d="M 0 0 L 3.991 0 "/>
<path transform="matrix(1,0,0,-1,304.095,385.176)" stroke-width="1" stroke-linecap="butt" stroke-miterlimit="22.926" stroke-linejoin="miter" fill="none" stroke="#231f20" d="M 0 0 L 3.991 0 "/>
<path transform="matrix(1,0,0,-1,308.086,381.121)" stroke-width="1" stroke-linecap="butt" stroke-miterlimit="22.926" stroke-linejoin="miter" fill="none" stroke="#231f20" d="M 0 0 L 3.991 0 "/>
<path transform="matrix(1,0,0,-1,308.086,377.066)" stroke-width="1" stroke-linecap="butt" stroke-miterlimit="22.926" stroke-linejoin="miter" fill="none" stroke="#231f20" d="M 0 0 L 0 -8.11 "/>
<path transform="matrix(1,0,0,-1,312.141,377.066)" stroke-width="1" stroke-linecap="butt" stroke-miterlimit="22.926" stroke-linejoin="miter" fill="none" stroke="#231f20" d="M 0 0 L 0 -8.11 "/>
<path transform="matrix(1,0,0,-1,312.205,377.066)" stroke-width="1" stroke-linecap="butt" stroke-miterlimit="22.926" stroke-linejoin="miter" fill="none" stroke="#231f20" d="M 0 0 L 3.991 0 "/>
<path transform="matrix(1,0,0,-1,312.205,385.176)" stroke-width="1" stroke-linecap="butt" stroke-miterlimit="22.926" stroke-linejoin="miter" fill="none" stroke="#231f20" d="M 0 0 L 3.991 0 "/>
<text fill="#231f20" xml:space="preserve" transform="matrix(1 0 -0 1 0 842)" font-size="9.9999" font-family="TimesNewRomanPSMT"><tspan y="-612.8503" x="368.6289 375.84886 380.7088 386.05876 391.0487 396.39866 401.7486 408.6915 413.69145 418.69139 421.19136 426.19129 431.19123 433.6912 438.69114 443.69108 447.02104 452.02098 457.0209 459.52088 464.5208 469.52076 472.02073 477.02067">&#x0410;&#x043a;&#x0438;&#x043b;&#x0438;&#x043d;&#x0430;13.07.91-13.07.91</tspan><tspan y="-807.50436" x="381.19078 388.4107 393.01066 397.3806 402.24058 407.5905 412.94047">&#x041f;&#x044f;&#x0442;&#x043a;&#x0438;&#x043d;&#x0430;</tspan><tspan y="-796.42947" x="381.19078 388.4107 392.59266 397.08363 401.61058 406.60054 411.1605 418.2604 424.79835 429.1683 433.60826 438.9582 443.39814 448.74809 453.74803 458.46797 463.8179">&#x041d;&#x0430;&#x0442;&#x0430;&#x043b;&#x044c;&#x044f;&#x0421;&#x0442;&#x0435;&#x043f;&#x0430;&#x043d;&#x043e;&#x0432;&#x043d;&#x0430;</tspan></text>
<text fill="#231f20" xml:space="preserve" transform="matrix(1 0 -0 1 0 842)" font-size="7.9998" font-family="TimesNewRomanPSMT"><tspan y="-787.1366" x="381.191 385.1917 389.4724 393.47233 397.47224">&#x0443;&#x043f;.91</tspan></text>
<text fill="#231f20" xml:space="preserve" transform="matrix(1 0 -0 1 0 842)" font-size="9.9999" font-family="TimesNewRomanPSMT"><tspan y="-570.6512" x="388.9151 393.92506 398.365 403.23094 407.67088 412.6708 418.02076 425.87269 430.87263 435.87257 438.37254 443.37248 448.3724 450.87239 455.8723">&#x0417;&#x0430;&#x0445;&#x0430;&#x0440;&#x0438;&#x0439;05.09.90</tspan><tspan y="-548.3044" x="391.92308 397.663 404.38294 408.7319 413.73185">&#x0411;&#x044b;&#x043a;&#x043e;&#x0432;</tspan><tspan y="-537.2295" x="391.92308 399.143 403.73497 408.1749 416.0248 423.24476 427.8357 432.27565 437.62559 442.62553 447.34547 452.6954">&#x0418;&#x0432;&#x0430;&#x043d;&#x0418;&#x0432;&#x0430;&#x043d;&#x043e;&#x0432;&#x0438;&#x0447;</tspan></text>
<text fill="#231f20" xml:space="preserve" transform="matrix(1 0 -0 1 0 842)" font-size="7.9998" font-family="TimesNewRomanPSMT"><tspan y="-527.9363" x="391.9226 395.92253 400.20243 404.2023 408.2022 412.20213 414.20207 418.20198">&#x0443;&#x043f;.90,91</tspan></text>
<text fill="#231f20" xml:space="preserve" transform="matrix(1 0 -0 1 0 842)" font-size="9.9999" font-family="TimesNewRomanPSMT"><tspan y="-505.1041" x="392.1477 397.88764 404.60758 408.95655 413.95649">&#x0411;&#x044b;&#x043a;&#x043e;&#x0432;</tspan><tspan y="-494.0292" x="392.1477 399.36766 403.8076 408.29856 415.79847 423.0184 427.60935 432.0493 437.39924 442.39918 447.1191 452.46907">&#x041f;&#x0435;&#x0442;&#x0440;&#x0418;&#x0432;&#x0430;&#x043d;&#x043e;&#x0432;&#x0438;&#x0447;</tspan></text>
<text fill="#231f20" xml:space="preserve" transform="matrix(1 0 -0 1 0 842)" font-size="7.9998" font-family="TimesNewRomanPSMT"><tspan y="-484.7363" x="392.1477 396.1484 400.4291 404.42903 408.42893">&#x0443;&#x043f;.90</tspan></text>
<path transform="matrix(1,0,0,-1,143.689,114.422)" stroke-width="1" stroke-linecap="butt" stroke-miterlimit="22.926" stroke-linejoin="miter" fill="none" stroke="#231f20" d="M 0 0 L 3.991 0 "/>
<path transform="matrix(1,0,0,-1,143.689,122.532)" stroke-width="1" stroke-linecap="butt" stroke-miterlimit="22.926" stroke-linejoin="miter" fill="none" stroke="#231f20" d="M 0 0 L 3.991 0 "/>
<path transform="matrix(1,0,0,-1,147.68,118.477)" stroke-width="1" stroke-linecap="butt" stroke-miterlimit="22.926" stroke-linejoin="miter" fill="none" stroke="#231f20" d="M 0 0 L 3.991 0 "/>
<path transform="matrix(1,0,0,-1,147.68,114.422)" stroke-width="1" stroke-linecap="butt" stroke-miterlimit="22.926" stroke-linejoin="miter" fill="none" stroke="#231f20" d="M 0 0 L 0 -8.11 "/>
<path transform="matrix(1,0,0,-1,151.73499,114.422)" stroke-width="1" stroke-linecap="butt" stroke-miterlimit="22.926" stroke-linejoin="miter" fill="none" stroke="#231f20" d="M 0 0 L 0 -8.11 "/>
<path transform="matrix(1,0,0,-1,151.79898,114.422)" stroke-width="1" stroke-linecap="butt" stroke-miterlimit="22.926" stroke-linejoin="miter" fill="none" stroke="#231f20" d="M 0 0 L 3.991 0 "/>
<path transform="matrix(1,0,0,-1,151.79898,122.532)" stroke-width="1" stroke-linecap="butt" stroke-miterlimit="22.926" stroke-linejoin="miter" fill="none" stroke="#231f20" d="M 0 0 L 3.991 0 "/>
<path transform="matrix(1,0,0,-1,367.11698,67.432)" stroke-width="1" stroke-linecap="butt" stroke-miterlimit="22.926" stroke-linejoin="miter" fill="none" stroke="#231f20" d="M 0 0 L 115.2 0 L 115.2 -14.4 L 0 -14.4 Z "/>
<path transform="matrix(1,0,0,-1,367.11698,89.032)" stroke-width="1" stroke-linecap="butt" stroke-miterlimit="22.926" stroke-linejoin="miter" fill="none" stroke="#231f20" d="M 0 0 L 115.2 0 L 115.2 -14.4 L 0 -14.4 Z "/>
<path transform="matrix(1,0,0,-1,367.11698,110.631999)" stroke-width="1" stroke-linecap="butt" stroke-miterlimit="22.926" stroke-linejoin="miter" fill="none" stroke="#231f20" d="M 0 0 L 115.2 0 L 115.2 -14.4 L 0 -14.4 Z "/>
<path transform="matrix(1,0,0,-1,367.11698,132.232)" stroke-width="1" stroke-linecap="butt" stroke-miterlimit="22.926" stroke-linejoin="miter" fill="none" stroke="#231f20" d="M 0 0 L 115.2 0 L 115.2 -14.4 L 0 -14.4 Z "/>
<text fill="#231f20" xml:space="preserve" transform="matrix(1 0 -0 1 0 842)" font-size="9.9999" font-family="TimesNewRomanPSMT"><tspan y="-700.2578" x="392.3946 401.28453 405.72447 410.7244 415.28437 422.38328 427.3832 432.38316 434.88313 439.88307 444.883 447.38298 452.3829">&#x041c;&#x0430;&#x0440;&#x044c;&#x044f;18.08.84</tspan></text>
<path transform="matrix(1,0,0,-1,367.117,153.83197)" stroke-width="1" stroke-linecap="butt" stroke-miterlimit="22.926" stroke-linejoin="miter" fill="none" stroke="#231f20" d="M 0 0 L 115.2 0 L 115.2 -14.4 L 0 -14.4 Z "/>
<path transform="matrix(1,0,0,-1,367.117,175.43198)" stroke-width="1" stroke-linecap="butt" stroke-miterlimit="22.926" stroke-linejoin="miter" fill="none" stroke="#231f20" d="M 0 0 L 115.2 0 L 115.2 -14.4 L 0 -14.4 Z "/>
<text fill="#231f20" xml:space="preserve" transform="matrix(1 0 -0 1 0 842)" font-size="9.9999" font-family="TimesNewRomanPSMT"><tspan y="-635.0085" x="373.7123 381.61225 385.9192 391.00914 395.87608 402.746 407.74595 412.74589 415.24586 420.2458 425.24574 427.7457 432.74565 437.74559 441.07554 446.07548 451.0754 453.57539 458.57533 463.57527 466.07524 471.07518">&#x0424;&#x0435;&#x0434;&#x043e;&#x0442;04.06.90-21.07.90</tspan></text>
<path transform="matrix(1,0,0,-1,367.117,197.03199)" stroke-width="1" stroke-linecap="butt" stroke-miterlimit="22.926" stroke-linejoin="miter" fill="none" stroke="#231f20" d="M 0 0 L 115.2 0 L 115.2 -14.4 L 0 -14.4 Z "/>
<path transform="matrix(1,0,0,-1,367.117,218.63199)" stroke-width="1" stroke-linecap="butt" stroke-miterlimit="22.926" stroke-linejoin="miter" fill="none" stroke="#231f20" d="M 0 0 L 115.2 0 L 115.2 -14.4 L 0 -14.4 Z "/>
<path transform="matrix(1,0,0,-1,367.117,24.231995)" stroke-width="1" stroke-linecap="butt" stroke-miterlimit="22.926" stroke-linejoin="miter" fill="none" stroke="#231f20" d="M 0 0 L 115.2 0 L 115.2 -36 L 0 -36 Z "/>
<path transform="matrix(1,0,0,-1,50.317018,24.231995)" stroke-width="1" stroke-linecap="butt" stroke-miterlimit="22.926" stroke-linejoin="miter" fill="none" stroke="#231f20" d="M 0 0 L 115.2 0 L 115.2 -50.4 L 0 -50.4 Z "/>
<path transform="matrix(1,0,0,-1,50.317018,81.83199)" stroke-width="1" stroke-linecap="butt" stroke-miterlimit="22.926" stroke-linejoin="miter" fill="none" stroke="#231f20" d="M 0 0 L 115.2 0 L 115.2 -50.4 L 0 -50.4 Z "/>
<path transform="matrix(1,0,0,-1,208.71701,24.231995)" stroke-width="1" stroke-linecap="butt" stroke-miterlimit="22.926" stroke-linejoin="miter" fill="none" stroke="#231f20" d="M 0 0 L 115.2 0 L 115.2 -50.4 L 0 -50.4 Z "/>
<path transform="matrix(1,0,0,-1,194.31702,46.908998)" stroke-width="1" stroke-linecap="butt" stroke-miterlimit="22.926" stroke-linejoin="miter" fill="none" stroke="#231f20" d="M 0 0 L 14.4 0 "/>
<path transform="matrix(1,0,0,-1,165.51702,46.908998)" stroke-width="1" stroke-linecap="butt" stroke-miterlimit="22.926" stroke-linejoin="miter" fill="none" stroke="#231f20" d="M 0 0 L 14.4 0 "/>
<path transform="matrix(1,0,0,-1,165.51702,104.508998)" stroke-width="1" stroke-linecap="butt" stroke-miterlimit="22.926" stroke-linejoin="miter" fill="none" stroke="#231f20" d="M 0 0 L 14.4 0 "/>
<path transform="matrix(1,0,0,-1,179.917,75.709)" stroke-width="1" stroke-linecap="butt" stroke-miterlimit="22.926" stroke-linejoin="miter" fill="none" stroke="#231f20" d="M 0 0 L 14.4 0 "/>
<path transform="matrix(1,0,0,-1,194.317,46.909)" stroke-width="1" stroke-linecap="butt" stroke-miterlimit="22.926" stroke-linejoin="miter" fill="none" stroke="#231f20" d="M 0 0 L 0 -273.6 "/>
<path transform="matrix(1,0,0,-1,208.717,81.832)" stroke-width="1" stroke-linecap="butt" stroke-miterlimit="22.926" stroke-linejoin="miter" fill="none" stroke="#231f20" d="M 0 0 L 115.2 0 L 115.2 -50.4 L 0 -50.4 Z "/>
<path transform="matrix(1,0,0,-1,194.317,162.10901)" stroke-width="1" stroke-linecap="butt" stroke-miterlimit="22.926" stroke-linejoin="miter" fill="none" stroke="#231f20" d="M 0 0 L 14.4 0 "/>
<path transform="matrix(1,0,0,-1,352.71699,46.90901)" stroke-width="1" stroke-linecap="butt" stroke-miterlimit="22.926" stroke-linejoin="miter" fill="none" stroke="#231f20" d="M 0 0 L 14.4 0 "/>
<path transform="matrix(1,0,0,-1,323.917,46.90901)" stroke-width="1" stroke-linecap="butt" stroke-miterlimit="22.926" stroke-linejoin="miter" fill="none" stroke="#231f20" d="M 0 0 L 14.4 0 "/>
<path transform="matrix(1,0,0,-1,323.917,104.50901)" stroke-width="1" stroke-linecap="butt" stroke-miterlimit="22.926" stroke-linejoin="miter" fill="none" stroke="#231f20" d="M 0 0 L 14.4 0 "/>
<path transform="matrix(1,0,0,-1,338.317,46.90901)" stroke-width="1" stroke-linecap="butt" stroke-miterlimit="22.926" stroke-linejoin="miter" fill="none" stroke="#231f20" d="M 0 0 L 0 -57.6 "/>
<path transform="matrix(1,0,0,-1,338.317,75.709018)" stroke-width="1" stroke-linecap="butt" stroke-miterlimit="22.926" stroke-linejoin="miter" fill="none" stroke="#231f20" d="M 0 0 L 14.4 0 "/>
<path transform="matrix(1,0,0,-1,352.71699,46.909017)" stroke-width="1" stroke-linecap="butt" stroke-miterlimit="22.926" stroke-linejoin="miter" fill="none" stroke="#231f20" d="M 0 0 L 0 -180 "/>
<path transform="matrix(1,0,0,-1,352.71699,75.709018)" stroke-width="1" stroke-linecap="butt" stroke-miterlimit="22.926" stroke-linejoin="miter" fill="none" stroke="#231f20" d="M 0 0 L 14.4 0 "/>
<path transform="matrix(1,0,0,-1,352.71699,97.30901)" stroke-width="1" stroke-linecap="butt" stroke-miterlimit="22.926" stroke-linejoin="miter" fill="none" stroke="#231f20" d="M 0 0 L 14.4 0 "/>
<path transform="matrix(1,0,0,-1,352.71699,118.90901)" stroke-width="1" stroke-linecap="butt" stroke-miterlimit="22.926" stroke-linejoin="miter" fill="none" stroke="#231f20" d="M 0 0 L 14.4 0 "/>
<path transform="matrix(1,0,0,-1,352.71699,140.50902)" stroke-width="1" stroke-linecap="butt" stroke-miterlimit="22.926" stroke-linejoin="miter" fill="none" stroke="#231f20" d="M 0 0 L 14.4 0 "/>
<path transform="matrix(1,0,0,-1,352.71699,162.10903)" stroke-width="1" stroke-linecap="butt" stroke-miterlimit="22.926" stroke-linejoin="miter" fill="none" stroke="#231f20" d="M 0 0 L 14.4 0 "/>
<path transform="matrix(1,0,0,-1,352.71699,183.70903)" stroke-width="1" stroke-linecap="butt" stroke-miterlimit="22.926" stroke-linejoin="miter" fill="none" stroke="#231f20" d="M 0 0 L 14.4 0 "/>
<path transform="matrix(1,0,0,-1,352.71699,205.30904)" stroke-width="1" stroke-linecap="butt" stroke-miterlimit="22.926" stroke-linejoin="miter" fill="none" stroke="#231f20" d="M 0 0 L 14.4 0 "/>
<path transform="matrix(1,0,0,-1,352.71699,226.90904)" stroke-width="1" stroke-linecap="butt" stroke-miterlimit="22.926" stroke-linejoin="miter" fill="none" stroke="#231f20" d="M 0 0 L 14.4 0 "/>
<path transform="matrix(1,0,0,-1,208.71698,240.23204)" stroke-width="1" stroke-linecap="butt" stroke-miterlimit="22.926" stroke-linejoin="miter" fill="none" stroke="#231f20" d="M 0 0 L 115.2 0 L 115.2 -50.4 L 0 -50.4 Z "/>
<path transform="matrix(1,0,0,-1,367.11698,283.43205)" stroke-width="1" stroke-linecap="butt" stroke-miterlimit="22.926" stroke-linejoin="miter" fill="none" stroke="#231f20" d="M 0 0 L 115.2 0 L 115.2 -36 L 0 -36 Z "/>
<path transform="matrix(1,0,0,-1,194.31697,212.50904)" stroke-width="1" stroke-linecap="butt" stroke-miterlimit="22.926" stroke-linejoin="miter" fill="none" stroke="#231f20" d="M 0 0 L 14.4 0 "/>
<path transform="matrix(1,0,0,-1,194.31697,320.50904)" stroke-width="1" stroke-linecap="butt" stroke-miterlimit="22.926" stroke-linejoin="miter" fill="none" stroke="#231f20" d="M 0 0 L 14.4 0 "/>
<path transform="matrix(1,0,0,-1,352.71699,248.50904)" stroke-width="1" stroke-linecap="butt" stroke-miterlimit="22.926" stroke-linejoin="miter" fill="none" stroke="#231f20" d="M 0 0 L 14.4 0 "/>
<path transform="matrix(1,0,0,-1,323.917,212.50904)" stroke-width="1" stroke-linecap="butt" stroke-miterlimit="22.926" stroke-linejoin="miter" fill="none" stroke="#231f20" d="M 0 0 L 14.4 0 "/>
<path transform="matrix(1,0,0,-1,323.917,262.90904)" stroke-width="1" stroke-linecap="butt" stroke-miterlimit="22.926" stroke-linejoin="miter" fill="none" stroke="#231f20" d="M 0 0 L 14.4 0 "/>
<path transform="matrix(1,0,0,-1,338.317,212.50904)" stroke-width="1" stroke-linecap="butt" stroke-miterlimit="22.926" stroke-linejoin="miter" fill="none" stroke="#231f20" d="M 0 0 L 0 -50.4 "/>
<path transform="matrix(1,0,0,-1,338.317,255.70903)" stroke-width="1" stroke-linecap="butt" stroke-miterlimit="22.926" stroke-linejoin="miter" fill="none" stroke="#231f20" d="M 0 0 L 14.4 0 "/>
<path transform="matrix(1,0,0,-1,352.71699,270.10905)" stroke-width="1" stroke-linecap="butt" stroke-miterlimit="22.926" stroke-linejoin="miter" fill="none" stroke="#231f20" d="M 0 0 L 14.4 0 "/>
<path transform="matrix(1,0,0,-1,352.71699,248.50904)" stroke-width="1" stroke-linecap="butt" stroke-miterlimit="22.926" stroke-linejoin="miter" fill="none" stroke="#231f20" d="M 0 0 L 0 -21.6 "/>
<path transform="matrix(1,0,0,-1,367.11698,240.23203)" stroke-width="1" stroke-linecap="butt" stroke-miterlimit="22.926" stroke-linejoin="miter" fill="none" stroke="#231f20" d="M 0 0 L 115.2 0 L 115.2 -14.4 L 0 -14.4 Z "/>
<path transform="matrix(1,0,0,-1,367.11698,261.83204)" stroke-width="1" stroke-linecap="butt" stroke-miterlimit="22.926" stroke-linejoin="miter" fill="none" stroke="#231f20" d="M 0 0 L 115.2 0 L 115.2 -14.4 L 0 -14.4 Z "/>
<path transform="matrix(1,0,0,-1,352.71699,342.10905)" stroke-width="1" stroke-linecap="butt" stroke-miterlimit="22.926" stroke-linejoin="miter" fill="none" stroke="#231f20" d="M 0 0 L 14.4 0 "/>
<path transform="matrix(1,0,0,-1,323.917,320.50904)" stroke-width="1" stroke-linecap="butt" stroke-miterlimit="22.926" stroke-linejoin="miter" fill="none" stroke="#231f20" d="M 0 0 L 14.4 0 "/>
<path transform="matrix(1,0,0,-1,323.917,378.10905)" stroke-width="1" stroke-linecap="butt" stroke-miterlimit="22.926" stroke-linejoin="miter" fill="none" stroke="#231f20" d="M 0 0 L 14.4 0 "/>
<path transform="matrix(1,0,0,-1,338.317,320.50904)" stroke-width="1" stroke-linecap="butt" stroke-miterlimit="22.926" stroke-linejoin="miter" fill="none" stroke="#231f20" d="M 0 0 L 0 -57.6 "/>
<path transform="matrix(1,0,0,-1,338.317,349.30903)" stroke-width="1" stroke-linecap="butt" stroke-miterlimit="22.926" stroke-linejoin="miter" fill="none" stroke="#231f20" d="M 0 0 L 14.4 0 "/>
<path transform="matrix(1,0,0,-1,352.71699,385.30903)" stroke-width="1" stroke-linecap="butt" stroke-miterlimit="22.926" stroke-linejoin="miter" fill="none" stroke="#231f20" d="M 0 0 L 14.4 0 "/>
<path transform="matrix(1,0,0,-1,352.71699,298.90904)" stroke-width="1" stroke-linecap="butt" stroke-miterlimit="22.926" stroke-linejoin="miter" fill="none" stroke="#231f20" d="M 0 0 L 0 -187.2 "/>
<path transform="matrix(1,0,0,-1,367.11698,434.63203)" stroke-width="1" stroke-linecap="butt" stroke-miterlimit="22.926" stroke-linejoin="miter" fill="none" stroke="#231f20" d="M 0 0 L 115.2 0 L 115.2 -14.4 L 0 -14.4 Z "/>
<path transform="matrix(1,0,0,-1,367.11698,413.032)" stroke-width="1" stroke-linecap="butt" stroke-miterlimit="22.926" stroke-linejoin="miter" fill="none" stroke="#231f20" d="M 0 0 L 115.2 0 L 115.2 -14.4 L 0 -14.4 Z "/>
<path transform="matrix(1,0,0,-1,367.11698,477.83204)" stroke-width="1" stroke-linecap="butt" stroke-miterlimit="22.926" stroke-linejoin="miter" fill="none" stroke="#231f20" d="M 0 0 L 115.2 0 L 115.2 -14.4 L 0 -14.4 Z "/>
<path transform="matrix(1,0,0,-1,367.11698,456.23204)" stroke-width="1" stroke-linecap="butt" stroke-miterlimit="22.926" stroke-linejoin="miter" fill="none" stroke="#231f20" d="M 0 0 L 115.2 0 L 115.2 -14.4 L 0 -14.4 Z "/>
<path transform="matrix(1,0,0,-1,208.71698,297.83204)" stroke-width="1" stroke-linecap="butt" stroke-miterlimit="22.926" stroke-linejoin="miter" fill="none" stroke="#231f20" d="M 0 0 L 115.2 0 L 115.2 -50.4 L 0 -50.4 Z "/>
<text fill="#231f20" xml:space="preserve" transform="matrix(1 0 -0 1 0 842)" font-size="9.9999" font-family="TimesNewRomanPSMT"><tspan y="-353.6569" x="393.3785 400.59846 405.0384 409.70133 414.14128 421.6302 426.63014 431.63008 434.13005 439.12998 444.1299 446.62989 451.62983">&#x041f;&#x0430;&#x0432;&#x0435;&#x043b;12.08.88</tspan></text>
<path transform="matrix(1,0,0,-1,367.117,326.63203)" stroke-width="1" stroke-linecap="butt" stroke-miterlimit="22.926" stroke-linejoin="miter" fill="none" stroke="#231f20" d="M 0 0 L 115.2 0 L 115.2 -36 L 0 -36 Z "/>
<path transform="matrix(1,0,0,-1,208.71701,355.432)" stroke-width="1" stroke-linecap="butt" stroke-miterlimit="22.926" stroke-linejoin="miter" fill="none" stroke="#231f20" d="M 0 0 L 115.2 0 L 115.2 -36 L 0 -36 Z "/>
<text fill="#231f20" xml:space="preserve" transform="matrix(1 0 -0 1 0 842)" font-size="9.9999" font-family="TimesNewRomanPSMT"><tspan y="-396.8569" x="374.1474 381.36735 385.80729 390.4702 394.91017 402.39909 407.39903 412.39897 414.89894 419.89888 424.8988 427.39878 432.3987 437.39866 440.7286 445.72856 450.7285 453.22846 458.2284 463.22834 465.7283 470.72825">&#x041f;&#x0430;&#x0432;&#x0435;&#x043b;27.03.83-05.01.87</tspan><tspan y="-376.25813" x="373.2484 382.13835 386.57829 391.57823 396.13819 403.2371 408.23704 413.23698 415.73695 420.73689 425.73683 428.2368 433.23674 438.23667 441.56663 446.56657 451.5665 454.06648 459.0664 464.06636 466.5663 471.56626">&#x041c;&#x0430;&#x0440;&#x044c;&#x044f;18.01.86-28.07.86</tspan></text>
<path transform="matrix(1,0,0,-1,352.717,298.909)" stroke-width="1" stroke-linecap="butt" stroke-miterlimit="22.926" stroke-linejoin="miter" fill="none" stroke="#231f20" d="M 0 0 L 14.4 0 "/>
<path transform="matrix(1,0,0,-1,352.717,421.309)" stroke-width="1" stroke-linecap="butt" stroke-miterlimit="22.926" stroke-linejoin="miter" fill="none" stroke="#231f20" d="M 0 0 L 14.4 0 "/>
<path transform="matrix(1,0,0,-1,352.717,442.909)" stroke-width="1" stroke-linecap="butt" stroke-miterlimit="22.926" stroke-linejoin="miter" fill="none" stroke="#231f20" d="M 0 0 L 14.4 0 "/>
<path transform="matrix(1,0,0,-1,352.717,464.509)" stroke-width="1" stroke-linecap="butt" stroke-miterlimit="22.926" stroke-linejoin="miter" fill="none" stroke="#231f20" d="M 0 0 L 14.4 0 "/>
<path transform="matrix(1,0,0,-1,352.717,486.109)" stroke-width="1" stroke-linecap="butt" stroke-miterlimit="22.926" stroke-linejoin="miter" fill="none" stroke="#231f20" d="M 0 0 L 14.4 0 "/>
<text fill="#231f20" xml:space="preserve" transform="matrix(1 0 -0 1 0 842)" font-size="9.9999" font-family="TimesNewRomanPSMT"><tspan y="-328.443" x="387.8402 393.58015 400.30009 404.64906 409.649">&#x0411;&#x044b;&#x043a;&#x043e;&#x0432;</tspan><tspan y="-317.3681" x="387.8402 395.06016 400.4101 404.76307 409.763 415.11296 420.11289 427.6128 434.83274 439.4257 443.86564 449.21559 454.2155 458.93547 464.2854">&#x041d;&#x0438;&#x043a;&#x043e;&#x043d;&#x043e;&#x0440;&#x0418;&#x0432;&#x0430;&#x043d;&#x043e;&#x0432;&#x0438;&#x0447;</tspan><tspan y="-306.2932" x="393.25016 398.2501 387.8402">57~</tspan></text>
<text fill="#231f20" xml:space="preserve" transform="matrix(1 0 -0 1 0 842)" font-size="7.9998" font-family="TimesNewRomanPSMT"><tspan y="-297.0002" x="387.8402 391.8409 396.1216 400.12153 404.12144">&#x0443;&#x043f;.83</tspan></text>
<text fill="#231f20" xml:space="preserve" transform="matrix(1 0 -0 1 0 842)" font-size="9.9999" font-family="TimesNewRomanPSMT"><tspan y="-231.5041" x="392.1477 397.88764 404.60758 408.95655 413.95649">&#x0411;&#x044b;&#x043a;&#x043e;&#x0432;</tspan><tspan y="-220.42922" x="392.1477 401.03764 406.38758 411.2585 415.69847 421.0484 428.53834 435.75828 440.3492 444.78916 450.1391 455.13905 459.85899 465.20893">&#x041c;&#x0438;&#x0445;&#x0430;&#x0438;&#x043b;&#x0418;&#x0432;&#x0430;&#x043d;&#x043e;&#x0432;&#x0438;&#x0447;</tspan></text>
<text fill="#231f20" xml:space="preserve" transform="matrix(1 0 -0 1 0 842)" font-size="7.9998" font-family="TimesNewRomanPSMT"><tspan y="-211.1364" x="392.1477 396.1484 400.4291 404.42903 408.42893">&#x0443;&#x043f;.85</tspan></text>
<path transform="matrix(1,0,0,-1,367.117,600.232)" stroke-width="1" stroke-linecap="butt" stroke-miterlimit="22.926" stroke-linejoin="miter" fill="none" stroke="#231f20" d="M 0 0 L 115.2 0 L 115.2 -36 L 0 -36 Z "/>
<path transform="matrix(1,0,0,-1,367.117,499.432)" stroke-width="1" stroke-linecap="butt" stroke-miterlimit="22.926" stroke-linejoin="miter" fill="none" stroke="#231f20" d="M 0 0 L 115.2 0 L 115.2 -50.4 L 0 -50.4 Z "/>
<path transform="matrix(1,0,0,-1,367.117,557.032)" stroke-width="1" stroke-linecap="butt" stroke-miterlimit="22.926" stroke-linejoin="miter" fill="none" stroke="#231f20" d="M 0 0 L 115.2 0 L 115.2 -36 L 0 -36 Z "/>
<text fill="#231f20" xml:space="preserve" transform="matrix(1 0 -0 1 0 842)" font-size="9.9999" font-family="TimesNewRomanPSMT"><tspan y="-272.4939" x="378.286 385.50596 389.6059 394.60585 399.95579 405.30574 410.65568 416.0056 422.94554 430.16548 435.5154 439.87538 444.74333 449.73329 454.17323 458.61317 463.3331 468.68305">&#x0410;&#x0433;&#x0440;&#x0438;&#x043f;&#x0438;&#x043d;&#x0430;&#x041d;&#x0438;&#x043a;&#x043e;&#x043b;&#x0430;&#x0435;&#x0432;&#x043d;&#x0430;</tspan><tspan y="-261.419" x="378.286 383.69596 388.6959">~62</tspan></text>
<path transform="matrix(1,0,0,-1,482.317,522.11)" stroke-width="1" stroke-linecap="butt" stroke-miterlimit="22.926" stroke-linejoin="miter" fill="none" stroke="#231f20" d="M 0 0 L 14.4 0 "/>
<path transform="matrix(1,0,0,-1,482.317,579.70999)" stroke-width="1" stroke-linecap="butt" stroke-miterlimit="22.926" stroke-linejoin="miter" fill="none" stroke="#231f20" d="M 0 0 L 14.4 0 "/>
<path transform="matrix(1,0,0,-1,496.71699,522.11)" stroke-width="1" stroke-linecap="butt" stroke-miterlimit="22.926" stroke-linejoin="miter" fill="none" stroke="#231f20" d="M 0 0 L 0 -57.6 "/>
<text fill="#231f20" xml:space="preserve" transform="matrix(.0000400004 -1 1 .0000400004 0 842)" font-size="9.9999" font-family="TimesNewRomanPSMT"><tspan y="493.82624" x="273.65037 278.6503">28</tspan><tspan y="493.8262" x="291.15019 303.65007">94</tspan><tspan y="493.82624" x="283.65028 286.15025">.0</tspan><tspan y="493.82627" x="296.15013 298.6501">.8</tspan></text>
<path transform="matrix(1,0,0,-1,50.317,348.232)" stroke-width="1" stroke-linecap="butt" stroke-miterlimit="22.926" stroke-linejoin="miter" fill="none" stroke="#231f20" d="M 0 0 L 115.2 0 L 115.2 -50.4 L 0 -50.4 Z "/>
<path transform="matrix(1,0,0,-1,50.317,413.03199)" stroke-width="1" stroke-linecap="butt" stroke-miterlimit="22.926" stroke-linejoin="miter" fill="none" stroke="#231f20" d="M 0 0 L 115.2 0 L 115.2 -50.4 L 0 -50.4 Z "/>
<path transform="matrix(1,0,0,-1,194.317,414.10899)" stroke-width="1" stroke-linecap="butt" stroke-miterlimit="22.926" stroke-linejoin="miter" fill="none" stroke="#231f20" d="M 0 0 L 14.4 0 "/>
<path transform="matrix(1,0,0,-1,165.517,378.10899)" stroke-width="1" stroke-linecap="butt" stroke-miterlimit="22.926" stroke-linejoin="miter" fill="none" stroke="#231f20" d="M 0 0 L 14.4 0 "/>
<path transform="matrix(1,0,0,-1,165.517,435.70899)" stroke-width="1" stroke-linecap="butt" stroke-miterlimit="22.926" stroke-linejoin="miter" fill="none" stroke="#231f20" d="M 0 0 L 14.4 0 "/>
<path transform="matrix(1,0,0,-1,179.91699,378.10899)" stroke-width="1" stroke-linecap="butt" stroke-miterlimit="22.926" stroke-linejoin="miter" fill="none" stroke="#231f20" d="M 0 0 L 0 -57.6 "/>
<path transform="matrix(1,0,0,-1,179.91699,421.309)" stroke-width="1" stroke-linecap="butt" stroke-miterlimit="22.926" stroke-linejoin="miter" fill="none" stroke="#231f20" d="M 0 0 L 14.4 0 "/>
<path transform="matrix(1,0,0,-1,194.31699,414.10899)" stroke-width="1" stroke-linecap="butt" stroke-miterlimit="22.926" stroke-linejoin="miter" fill="none" stroke="#231f20" d="M 0 0 L 0 -43.2 "/>
<path transform="matrix(1,0,0,-1,194.31699,435.70899)" stroke-width="1" stroke-linecap="butt" stroke-miterlimit="22.926" stroke-linejoin="miter" fill="none" stroke="#231f20" d="M 0 0 L 14.4 0 "/>
<path transform="matrix(1,0,0,-1,194.31699,457.309)" stroke-width="1" stroke-linecap="butt" stroke-miterlimit="22.926" stroke-linejoin="miter" fill="none" stroke="#231f20" d="M 0 0 L 14.4 0 "/>
<path transform="matrix(1,0,0,-1,208.71698,449.03199)" stroke-width="1" stroke-linecap="butt" stroke-miterlimit="22.926" stroke-linejoin="miter" fill="none" stroke="#231f20" d="M 0 0 L 115.2 0 L 115.2 -14.4 L 0 -14.4 Z "/>
<path transform="matrix(1,0,0,-1,50.316987,477.83198)" stroke-width="1" stroke-linecap="butt" stroke-miterlimit="22.926" stroke-linejoin="miter" fill="none" stroke="#231f20" d="M 0 0 L 115.2 0 L 115.2 -50.4 L 0 -50.4 Z "/>
<path transform="matrix(1,0,0,-1,35.916986,46.908967)" stroke-width="1" stroke-linecap="butt" stroke-miterlimit="22.926" stroke-linejoin="miter" fill="none" stroke="#231f20" d="M 0 0 L 14.4 0 "/>
<path transform="matrix(1,0,0,-1,179.91699,46.908967)" stroke-width="1" stroke-linecap="butt" stroke-miterlimit="22.926" stroke-linejoin="miter" fill="none" stroke="#231f20" d="M 0 0 L 0 -57.6 "/>
<path transform="matrix(1,0,0,-1,35.916994,370.90898)" stroke-width="1" stroke-linecap="butt" stroke-miterlimit="22.926" stroke-linejoin="miter" fill="none" stroke="#231f20" d="M 0 0 L 14.4 0 "/>
<path transform="matrix(1,0,0,-1,35.916994,500.50898)" stroke-width="1" stroke-linecap="butt" stroke-miterlimit="22.926" stroke-linejoin="miter" fill="none" stroke="#231f20" d="M 0 0 L 14.4 0 "/>
<path transform="matrix(1,0,0,-1,208.717,197.03199)" stroke-width="1" stroke-linecap="butt" stroke-miterlimit="22.926" stroke-linejoin="miter" fill="none" stroke="#231f20" d="M 0 0 L 115.2 0 L 115.2 -36 L 0 -36 Z "/>
<path transform="matrix(1,0,0,-1,208.717,146.63199)" stroke-width="1" stroke-linecap="butt" stroke-miterlimit="22.926" stroke-linejoin="miter" fill="none" stroke="#231f20" d="M 0 0 L 115.2 0 L 115.2 -36 L 0 -36 Z "/>
<path transform="matrix(1,0,0,-1,367.117,369.83198)" stroke-width="1" stroke-linecap="butt" stroke-miterlimit="22.926" stroke-linejoin="miter" fill="none" stroke="#231f20" d="M 0 0 L 115.2 0 L 115.2 -36 L 0 -36 Z "/>
<path transform="matrix(1,0,0,-1,208.71701,405.83198)" stroke-width="1" stroke-linecap="butt" stroke-miterlimit="22.926" stroke-linejoin="miter" fill="none" stroke="#231f20" d="M 0 0 L 115.2 0 L 115.2 -14.4 L 0 -14.4 Z "/>
<path transform="matrix(1,0,0,-1,208.71701,427.43199)" stroke-width="1" stroke-linecap="butt" stroke-miterlimit="22.926" stroke-linejoin="miter" fill="none" stroke="#231f20" d="M 0 0 L 115.2 0 L 115.2 -14.4 L 0 -14.4 Z "/>
<path transform="matrix(1,0,0,-1,35.917009,46.908967)" stroke-width="1" stroke-linecap="butt" stroke-miterlimit="22.926" stroke-linejoin="miter" fill="none" stroke="#231f20" d="M 0 0 L 0 -453.6 "/>
<text fill="#231f20" xml:space="preserve" transform="matrix(.000033334168 -1 1 .000033334168 0 842)" font-size="11.9997" font-family="TimesNewRomanPSMT"><tspan y="26.389866" x="496.05848">&#x041b;</tspan><tspan y="26.389864" x="504.19429 509.52217">&#x0430;&#x0431;</tspan><tspan y="26.389866" x="515.62997 520.3698">&#x0437;&#x0438;</tspan><tspan y="26.389864" x="526.7897 536.2095">&#x043d;&#x041f;</tspan><tspan y="26.389863" x="544.8732 550.2011">&#x0435;&#x0442;</tspan><tspan y="26.389864" x="555.5925">&#x0440;</tspan></text>
<text fill="#00b04c" xml:space="preserve" transform="matrix(.000033334168 -1 1 .000033334168 0 842)" font-size="11.9997" font-family="TimesNewRomanPSMT"><tspan y="26.389864" x="564.5923">&#x041c;</tspan><tspan y="26.389863" x="575.26 581.6799 587.5261 592.854 599.27389 605.2617 611.2616 616.9255 623.34536">&#x0438;&#x0445;&#x0430;&#x0439;&#x043b;&#x043e;&#x0432;&#x0438;&#x0447;</tspan><tspan y="26.38986" x="632.3811 638.381">&#x0443;&#x043f;</tspan><tspan y="26.389864" x="644.8067 650.8066 656.8064">.86</tspan></text>
</g>
</svg>
