<?xml version="1.0" encoding="UTF-8" standalone="no"?>
<!DOCTYPE svg PUBLIC "-//W3C//DTD SVG 1.1//EN" "http://www.w3.org/Graphics/SVG/1.1/DTD/svg11.dtd">
<svg xmlns="http://www.w3.org/2000/svg" xmlns:xlink="http://www.w3.org/1999/xlink" version="1.1" width="595.22pt" height="842pt" viewBox="0 0 595.22 842">
<g enable-background="new">
<path transform="matrix(1,0,0,-1,0,842)" stroke-width="1" stroke-linecap="butt" stroke-miterlimit="22.926" stroke-linejoin="miter" fill="none" stroke="#231f20" d="M 35.917 371.368 L 149.30301 371.368 L 149.30301 326.014 L 35.917 326.014 Z "/>
<text fill="#231f20" xml:space="preserve" transform="matrix(1 0 -0 1 0 842)" font-size="9.9999" font-family="TimesNewRomanPSMT"><tspan y="-361.8041" x="59.0448 65.82473 70.26469 75.35464 79.304599 84.65454 90.004489 96.94442 105.834339 110.27429 115.27424 121.75417">&#x041b;&#x0430;&#x0431;&#x0437;&#x0438;&#x043d;&#x0430;&#x041c;&#x0430;&#x0440;&#x0444;&#x0430;</tspan><tspan y="-350.72923" x="59.0448 66.264728 70.85668 75.29664 80.64658 85.64653 90.366489 95.71643">&#x0418;&#x0432;&#x0430;&#x043d;&#x043e;&#x0432;&#x043d;&#x0430;</tspan><tspan y="-339.65434" x="64.45474 69.45469 74.454639 79.45458 84.45453 87.78449 92.78444 97.784389 100.28436 105.28431 110.284259 112.78423 117.78418 59.044797">1808-28.04.80~</tspan></text>
<text fill="#231f20" xml:space="preserve" transform="matrix(1 0 -0 1 0 842)" font-size="7.9998" font-family="TimesNewRomanPSMT"><tspan y="-330.3613" x="59.0448 63.0455 67.326198">&#x0443;&#x043f;.</tspan></text>
<text fill="#231f20" xml:space="preserve" transform="matrix(1 0 -0 1 0 842)" font-size="9.9999" font-family="TimesNewRomanPSMT"><tspan y="-599.5564" x="54.9936 61.81353 66.68348 71.67343 75.77339 80.77334 88.47326 93.823207 101.67313 107.84907 112.849018 116.79897 121.358928 127.61886">&#x0414;&#x043e;&#x043b;&#x0433;&#x0443;&#x0448;&#x0438;&#x043d;&#x041a;&#x043e;&#x0437;&#x044c;&#x043c;&#x0430;</tspan><tspan y="-588.4815" x="54.9936 60.853544 66.20349 71.20344 76.55338 81.55333 86.273288 91.62323">&#x0422;&#x0438;&#x0445;&#x043d;&#x043e;&#x0432;&#x0438;&#x0447;</tspan><tspan y="-577.4066" x="54.9936 60.403547 65.403499 70.40344">~62,</tspan></text>
<text fill="#231f20" xml:space="preserve" transform="matrix(1 0 -0 1 0 842)" font-size="7.9998" font-family="TimesNewRomanPSMT"><tspan y="-577.4063" x="75.4035 79.404209 83.6849 87.6848 91.6847">&#x0443;&#x043f;.90</tspan></text>
<text fill="#231f20" xml:space="preserve" transform="matrix(1 0 -0 1 0 842)" font-size="9.9999" font-family="TimesNewRomanPSMT"><tspan y="-554.5723" x="39.3469 46.166833 51.036787 56.026735 60.126695 65.12664 72.82656 78.176509 83.52645 90.46938">&#x0414;&#x043e;&#x043b;&#x0433;&#x0443;&#x0448;&#x0438;&#x043d;&#x0430;(</tspan><tspan y="-543.49746" x="129.008">)</tspan><tspan y="-532.42257" x="39.346895 45.884828 50.254785 54.69474 60.044687 64.48464 69.83459 75.18453 80.27448 87.21442 93.75036 98.120319 102.56027 107.91022 112.350177 117.70012 122.700069 127.42002 132.76998">&#x0421;&#x0442;&#x0435;&#x043f;&#x0430;&#x043d;&#x0438;&#x0434;&#x0430;&#x0421;&#x0442;&#x0435;&#x043f;&#x0430;&#x043d;&#x043e;&#x0432;&#x043d;&#x0430;</tspan></text>
<text fill="#231f20" xml:space="preserve" transform="matrix(1 0 -0 1 0 842)" font-size="8.9999" font-family="TimesNewRomanPSMT"><tspan y="-554.5723" x="93.8004 97.795459 104.29248 108.791538 112.78659 119.715618 124.52966 129.3437 133.26316 137.7622 141.89316 145.88822">?&#x041e;&#x0440;&#x0435;&#x0448;&#x043d;&#x0438;&#x043a;&#x043e;&#x0432;&#x0430;,</tspan><tspan y="-543.4971" x="39.346509 43.342466 52.59436 59.524286 65.157329 69.15328 73.96823 78.78318 82.77914 86.910999 93.15603 97.150188 103.25212 107.24808 111.829029 115.38399 120.19894 125.013889">?&#x042e;&#x0448;&#x043c;&#x0430;&#x043d;&#x0446;&#x0435;&#x0432;&#x0430;?&#x041b;&#x0430;&#x0431;&#x0437;&#x0438;&#x043d;&#x0430;</tspan></text>
<text fill="#231f20" xml:space="preserve" transform="matrix(1 0 -0 1 0 842)" font-size="9.9999" font-family="TimesNewRomanPSMT"><tspan y="-521.3472" x="39.3469 44.756849 49.756799 54.75675">~61,</tspan></text>
<text fill="#231f20" xml:space="preserve" transform="matrix(1 0 -0 1 0 842)" font-size="7.9998" font-family="TimesNewRomanPSMT"><tspan y="-521.3472" x="59.7569 63.7576 68.03829 72.03819 76.03809">&#x0443;&#x043f;.90</tspan></text>
<text fill="#231f20" xml:space="preserve" transform="matrix(1 0 -0 1 0 842)" font-size="9.9999" font-family="TimesNewRomanPSMT"><tspan y="-585.0513" x="212.26 219.47992 223.57988 228.57984 233.92978 239.27973 244.62967 249.97962 256.92756 261.9275 266.92744 269.4274 274.42735 279.42729 281.92726 286.9272">&#x0410;&#x0433;&#x0440;&#x0438;&#x043f;&#x0438;&#x043d;&#x0430;20.06.90</tspan><tspan y="-814.54299" x="55.933565 62.713499 67.15345 72.2434 76.19336 81.543308 89.39323 96.61315 101.4841 106.47405 111.824 116.53195 120.97191 125.971858">&#x041b;&#x0430;&#x0431;&#x0437;&#x0438;&#x043d;&#x041f;&#x043e;&#x043b;&#x0438;&#x043a;&#x0430;&#x0440;&#x043f;</tspan><tspan y="-803.4681" x="55.933565 62.471498 66.84145 71.28141 76.631359 81.07131 86.42126 91.4212 96.14116 101.491107">&#x0421;&#x0442;&#x0435;&#x043f;&#x0430;&#x043d;&#x043e;&#x0432;&#x0438;&#x0447;</tspan></text>
<text fill="#231f20" xml:space="preserve" transform="matrix(1 0 -0 1 0 842)" font-size="7.9998" font-family="TimesNewRomanPSMT"><tspan y="-794.1757" x="55.9332 59.9331 64.213 68.21289 72.21279 76.21269 78.21264 82.21254 86.21244 88.21239 92.21229 96.21219 98.212139 102.212039 106.21194 108.21188 112.211788">&#x0443;&#x043f;.80,87,88,90,91</tspan></text>
<text fill="#231f20" xml:space="preserve" transform="matrix(1 0 -0 1 0 842)" font-size="9.9999" font-family="TimesNewRomanPSMT"><tspan y="-814.6397" x="202.216 208.07595 213.42589 219.68784 224.12779 230.90473 235.34468 239.93264 246.87157 250.20154 256.98149 261.42143 266.51136 270.4613 275.81126 281.1612 285.60115">&#x0422;&#x0438;&#x043c;&#x0430;&#x0436;&#x0435;&#x0432;&#x0430;(&#x041b;&#x0430;&#x0431;&#x0437;&#x0438;&#x043d;&#x0430;)</tspan><tspan y="-803.5648" x="202.216 208.32595 212.7969 217.88686 222.88681 227.74677 233.09671 240.19664 247.41657 252.28452 257.27449 262.62443 267.33238 271.7723 276.77226 282.1222 287.12214 291.84208 297.19203">&#x0415;&#x0432;&#x0434;&#x043e;&#x043a;&#x0438;&#x044f;&#x041f;&#x043e;&#x043b;&#x0438;&#x043a;&#x0430;&#x0440;&#x043f;&#x043e;&#x0432;&#x043d;&#x0430;</tspan><tspan y="-792.4899" x="202.216 207.62595 212.6259 217.62586 222.62581">~1871</tspan><tspan y="-771.5911" x="217.30886 223.1688 228.51874 234.78069 239.22064 245.99758 250.43753 257.65748 264.4374 268.87736 272.8273 277.26725 282.26719">&#x0422;&#x0438;&#x043c;&#x0430;&#x0436;&#x0435;&#x0432;&#x041b;&#x0430;&#x0437;&#x0430;&#x0440;&#x044c;</tspan><tspan y="-760.51626" x="217.30886 224.52878 228.96874 233.55869 238.54863 243.54859 248.26854 253.61849">&#x041f;&#x0430;&#x0432;&#x043b;&#x043e;&#x0432;&#x0438;&#x0447;</tspan><tspan y="-749.44137" x="217.30886 222.7188 227.71875 232.7187 237.71866">~1865</tspan></text>
<text fill="#231f20" xml:space="preserve" transform="matrix(.0000400004 -1 1 .0000400004 0 842)" font-size="9.9999" font-family="TimesNewRomanPSMT"><tspan y="320.69255" x="764.42636">2</tspan><tspan y="320.69258" x="769.4263 774.4262 776.9262 781.92617">2.01</tspan><tspan y="320.6926" x="786.9261">.</tspan><tspan y="320.69258" x="789.4261">9</tspan><tspan y="320.6926" x="794.426">0</tspan></text>
<text fill="#231f20" xml:space="preserve" transform="matrix(1 0 -0 1 0 842)" font-size="9.9999" font-family="TimesNewRomanPSMT"><tspan y="-712.0813" x="57.4926 64.27253 68.71249 73.80244 77.752399 83.10234 90.95226 96.8132 102.16315 108.49309 113.493038 119.97297 124.412929">&#x041b;&#x0430;&#x0431;&#x0437;&#x0438;&#x043d;&#x0422;&#x0438;&#x043c;&#x043e;&#x0444;&#x0435;&#x0439;</tspan><tspan y="-701.0064" x="57.4926 64.03054 68.4005 72.840457 78.1904 82.630359 87.9803 92.98025 97.7002 103.05015">&#x0421;&#x0442;&#x0435;&#x043f;&#x0430;&#x043d;&#x043e;&#x0432;&#x0438;&#x0447;</tspan><tspan y="-689.9315" x="57.4926 62.58255 67.932498 72.92245 77.9224 82.36236 87.22931 92.21926 97.30921 101.48717">&#x0431;&#x0438;&#x043b;.&#x0441;&#x043e;&#x043b;&#x0434;&#x0430;&#x0442;</tspan></text>
<text fill="#231f20" xml:space="preserve" transform="matrix(1 0 -0 1 0 842)" font-size="7.9998" font-family="TimesNewRomanPSMT"><tspan y="-680.6385" x="57.4926 61.4925 65.77239 69.772289 73.77219 77.77209 79.77203 83.771938 87.771839 89.77178 93.77168 97.77158 99.77153 103.77143">&#x0443;&#x043f;.85,87,88,90</tspan></text>
<text fill="#231f20" xml:space="preserve" transform="matrix(1 0 -0 1 0 842)" font-size="9.9999" font-family="TimesNewRomanPSMT"><tspan y="-654.481" x="47.6218 54.401735 58.84169 63.93164 67.8816 73.231548 78.58149 85.520427 88.85039 95.67032 100.54027 105.53022 109.63018 114.63013 122.33005 127.67999 133.02994 137.4699">&#x041b;&#x0430;&#x0431;&#x0437;&#x0438;&#x043d;&#x0430;(&#x0414;&#x043e;&#x043b;&#x0433;&#x0443;&#x0448;&#x0438;&#x043d;&#x0430;)</tspan><tspan y="-643.4061" x="47.6218 53.481744 57.6617 62.03166 66.59161 71.19157 76.54151">&#x0422;&#x0430;&#x0442;&#x044c;&#x044f;&#x043d;&#x0430;</tspan><tspan y="-632.33126" x="47.6218 53.481744 58.831689 63.45164 68.45159 73.80154 78.80148 83.52144 88.87138">&#x0422;&#x0438;&#x0445;&#x043e;&#x043d;&#x043e;&#x0432;&#x043d;&#x0430;</tspan></text>
<text fill="#231f20" xml:space="preserve" transform="matrix(1 0 -0 1 0 842)" font-size="7.9998" font-family="TimesNewRomanPSMT"><tspan y="-623.0382" x="47.6218 51.6217 55.901594 67.90129 69.90124 73.90114 77.90104 79.900989 83.90089 59.90309 63.902994">&#x0443;&#x043f;.,87,9085</tspan></text>
<text fill="#231f20" xml:space="preserve" transform="matrix(1 0 -0 1 0 842)" font-size="9.9999" font-family="TimesNewRomanPSMT"><tspan y="-685.8578" x="213.5443 218.69625 223.6962 229.04615 232.90111 237.90106 242.90102 248.25096 256.10389 261.10383 266.10377 268.60374 273.23167 278.2316 280.73158 285.7315">&#x0413;&#x0440;&#x0438;&#x0433;&#x043e;&#x0440;&#x0438;&#x0439;20.11.87</tspan><tspan y="-664.141" x="217.23326 224.1762 228.61615 234.94609 239.50605 244.106 251.95392 256.95387 261.9538 264.45378 269.4537 274.45365 276.9536 281.95356">&#x0414;&#x0435;&#x043c;&#x044c;&#x044f;&#x043d;31.10.90</tspan><tspan y="-642.6582" x="195.09348 203.98339 208.42334 213.4233 218.77324 224.12319 231.06412 236.06407 241.06403 243.564 248.56395 253.5639 256.06388 261.0638 268.56373 274.39366 279.3936 284.39353 286.8935 291.89344 296.89338 299.39335 304.39329">&#x041c;&#x0430;&#x0440;&#x0438;&#x043d;&#x0430;13.07.85-01.08.85</tspan><tspan y="-497.74366" x="66.09677 72.8767 77.31666 82.40661 86.35657 91.70651 99.556438 106.77636 111.36832 115.80827">&#x041b;&#x0430;&#x0431;&#x0437;&#x0438;&#x043d;&#x0418;&#x0432;&#x0430;&#x043d;</tspan><tspan y="-486.66877" x="66.09677 72.63471 77.00467 81.444629 86.79457 91.23453 96.58447 101.58442 106.304378 111.65432">&#x0421;&#x0442;&#x0435;&#x043f;&#x0430;&#x043d;&#x043e;&#x0432;&#x0438;&#x0447;</tspan></text>
<text fill="#231f20" xml:space="preserve" transform="matrix(1 0 -0 1 0 842)" font-size="7.9998" font-family="TimesNewRomanPSMT"><tspan y="-477.3758" x="66.0969 70.0968 74.37669 78.37659 82.37649 86.37639 88.376338 92.376239 96.37614 98.37608 102.375988">&#x0443;&#x043f;.88,90,91</tspan></text>
<text fill="#231f20" xml:space="preserve" transform="matrix(1 0 -0 1 0 842)" font-size="9.9999" font-family="TimesNewRomanPSMT"><tspan y="-452.7095" x="59.1069 65.88683 70.32679 75.41674 79.3667 84.716648 92.56657 99.78649 104.22645 109.57639 114.43635 119.436298 123.61626">&#x041b;&#x0430;&#x0431;&#x0437;&#x0438;&#x043d;&#x041f;&#x0430;&#x043d;&#x043a;&#x0440;&#x0430;&#x0442;</tspan><tspan y="-441.6346" x="59.1069 65.64484 70.01479 74.45475 79.804698 84.24465 89.5946 94.59454 99.3145 104.664447">&#x0421;&#x0442;&#x0435;&#x043f;&#x0430;&#x043d;&#x043e;&#x0432;&#x0438;&#x0447;</tspan><tspan y="-454.4575" x="212.01638 218.68631 223.12627 227.56623 232.12218 239.06111 244.06107 251.56099 257.39094 262.39088 267.3908 269.89079 274.89073 279.89067 282.39064 287.39057">&#x0412;&#x0430;&#x0441;&#x0441;&#x0430;87-20.09.88</tspan></text>
<path transform="matrix(1,0,0,-1,0,842)" stroke-width="1" stroke-linecap="butt" stroke-miterlimit="22.926" stroke-linejoin="miter" fill="none" stroke="#231f20" d="M 35.917 313.768 L 149.30301 313.768 L 149.30301 268.414 L 35.917 268.414 Z "/>
<text fill="#231f20" xml:space="preserve" transform="matrix(1 0 -0 1 0 842)" font-size="9.9999" font-family="TimesNewRomanPSMT"><tspan y="-304.2039" x="50.1335 56.913434 61.35339 66.44334 70.393299 75.74324 81.093189 88.03212 91.36208 95.80204 101.63098 110.52089 114.960849 119.96079 125.31074 130.66069">&#x041b;&#x0430;&#x0431;&#x0437;&#x0438;&#x043d;&#x0430;(?)&#x041c;&#x0430;&#x0440;&#x0438;&#x043d;&#x0430;</tspan><tspan y="-293.129" x="50.1335 56.803434 62.153379 67.50333 72.50327 77.85322 82.94317 87.943119 93.29306 98.29301 103.01296 108.36291">&#x0421;&#x043f;&#x0438;&#x0440;&#x0438;&#x0434;&#x043e;&#x043d;&#x043e;&#x0432;&#x043d;&#x0430;</tspan><tspan y="-282.0541" x="55.543447 60.543397 65.54334 70.54329 78.04321 83.87315 88.8731 93.87305 96.373027 101.37297 106.37292 108.872898 113.87284 50.1335">1820-19.03.85~</tspan></text>
<text fill="#231f20" xml:space="preserve" transform="matrix(1 0 -0 1 0 842)" font-size="7.9998" font-family="TimesNewRomanPSMT"><tspan y="-272.761" x="50.1335 54.1334 58.413293 62.413194 65.077129 70.60499">&#x0443;&#x043f;.(&#x0436;)</tspan></text>
<text fill="#231f20" xml:space="preserve" transform="matrix(1 0 -0 1 0 842)" font-size="9.9999" font-family="TimesNewRomanPSMT"><tspan y="-540.8503" x="222.7802 230.00012 235.35007 240.70001 247.64295 252.6429 257.64286 260.14283 264.77076 269.7707 272.27067 277.2706">&#x0410;&#x043d;&#x043d;&#x0430;20.11.91</tspan><tspan y="-728.3044" x="214.90628 220.76622 226.11617 232.37812 236.81807 243.595 248.03496 255.25489 264.1448 269.49476 274.3657 278.80564 284.15559">&#x0422;&#x0438;&#x043c;&#x0430;&#x0436;&#x0435;&#x0432;&#x041c;&#x0438;&#x0445;&#x0430;&#x0438;&#x043b;</tspan><tspan y="-717.2295" x="214.90628 222.1262 226.56616 231.15612 236.14606 241.14601 245.86597 251.21591">&#x041f;&#x0430;&#x0432;&#x043b;&#x043e;&#x0432;&#x0438;&#x0447;</tspan></text>
<text fill="#231f20" xml:space="preserve" transform="matrix(1 0 -0 1 0 842)" font-size="7.9998" font-family="TimesNewRomanPSMT"><tspan y="-707.9366" x="217.4059 221.4066 225.6873 229.6872 233.6871">&#x0443;&#x043f;.90</tspan></text>
<path transform="matrix(1,0,0,-1,21.517,39.708986)" stroke-width="1" stroke-linecap="butt" stroke-miterlimit="22.926" stroke-linejoin="miter" fill="none" stroke="#231f20" d="M 0 0 L 14.4 0 "/>
<path transform="matrix(1,0,0,-1,35.917,377.03199)" stroke-width="1" stroke-linecap="butt" stroke-miterlimit="22.926" stroke-linejoin="miter" fill="none" stroke="#231f20" d="M 0 0 L 115.2 0 L 115.2 -28.8 L 0 -28.8 Z "/>
<text fill="#231f20" xml:space="preserve" transform="matrix(.0000400004 -1 1 .0000400004 0 842)" font-size="9.9999" font-family="TimesNewRomanPSMT"><tspan y="18.39331" x="654.72787 661.50778 665.9477 671.03768 674.9876 680.3376 688.18759 694.72848">&#x041b;&#x0430;&#x0431;&#x0437;&#x0438;&#x043d;&#x0421;&#x0442;</tspan><tspan y="18.393313" x="699.0984 703.5383">&#x0435;&#x043f;</tspan><tspan y="18.39331" x="708.8883 713.32827">&#x0430;&#x043d;</tspan></text>
<path transform="matrix(1,0,0,-1,35.917,233.03199)" stroke-width="1" stroke-linecap="butt" stroke-miterlimit="22.926" stroke-linejoin="miter" fill="none" stroke="#231f20" d="M 0 0 L 115.2 0 L 115.2 -36 L 0 -36 Z "/>
<path transform="matrix(1,0,0,-1,35.917,276.232)" stroke-width="1" stroke-linecap="butt" stroke-miterlimit="22.926" stroke-linejoin="miter" fill="none" stroke="#231f20" d="M 0 0 L 115.2 0 L 115.2 -50.4 L 0 -50.4 Z "/>
<path transform="matrix(1,0,0,-1,179.91699,255.709)" stroke-width="1" stroke-linecap="butt" stroke-miterlimit="22.926" stroke-linejoin="miter" fill="none" stroke="#231f20" d="M 0 0 L 14.4 0 "/>
<path transform="matrix(1,0,0,-1,151.11699,255.709)" stroke-width="1" stroke-linecap="butt" stroke-miterlimit="22.926" stroke-linejoin="miter" fill="none" stroke="#231f20" d="M 0 0 L 14.4 0 "/>
<path transform="matrix(1,0,0,-1,151.11699,298.909)" stroke-width="1" stroke-linecap="butt" stroke-miterlimit="22.926" stroke-linejoin="miter" fill="none" stroke="#231f20" d="M 0 0 L 14.4 0 "/>
<path transform="matrix(1,0,0,-1,165.51699,255.709)" stroke-width="1" stroke-linecap="butt" stroke-miterlimit="22.926" stroke-linejoin="miter" fill="none" stroke="#231f20" d="M 0 0 L 0 -43.2 "/>
<path transform="matrix(1,0,0,-1,165.51699,284.509)" stroke-width="1" stroke-linecap="butt" stroke-miterlimit="22.926" stroke-linejoin="miter" fill="none" stroke="#231f20" d="M 0 0 L 14.4 0 "/>
<path transform="matrix(1,0,0,-1,194.31699,247.432)" stroke-width="1" stroke-linecap="butt" stroke-miterlimit="22.926" stroke-linejoin="miter" fill="none" stroke="#231f20" d="M 0 0 L 115.2 0 L 115.2 -14.4 L 0 -14.4 Z "/>
<path transform="matrix(1,0,0,-1,194.31699,290.63203)" stroke-width="1" stroke-linecap="butt" stroke-miterlimit="22.926" stroke-linejoin="miter" fill="none" stroke="#231f20" d="M 0 0 L 115.2 0 L 115.2 -14.4 L 0 -14.4 Z "/>
<path transform="matrix(1,0,0,-1,179.91699,298.90904)" stroke-width="1" stroke-linecap="butt" stroke-miterlimit="22.926" stroke-linejoin="miter" fill="none" stroke="#231f20" d="M 0 0 L 14.4 0 "/>
<path transform="matrix(1,0,0,-1,179.91699,255.70903)" stroke-width="1" stroke-linecap="butt" stroke-miterlimit="22.926" stroke-linejoin="miter" fill="none" stroke="#231f20" d="M 0 0 L 0 -43.2 "/>
<path transform="matrix(1,0,0,-1,35.916994,17.032029)" stroke-width="1" stroke-linecap="butt" stroke-miterlimit="22.926" stroke-linejoin="miter" fill="none" stroke="#231f20" d="M 0 0 L 115.2 0 L 115.2 -36 L 0 -36 Z "/>
<path transform="matrix(1,0,0,-1,35.916994,60.23203)" stroke-width="1" stroke-linecap="butt" stroke-miterlimit="22.926" stroke-linejoin="miter" fill="none" stroke="#231f20" d="M 0 0 L 115.2 0 L 115.2 -14.4 L 0 -14.4 Z "/>
<path transform="matrix(1,0,0,-1,21.516993,39.70903)" stroke-width="1" stroke-linecap="butt" stroke-miterlimit="22.926" stroke-linejoin="miter" fill="none" stroke="#231f20" d="M 0 0 L 0 -293.081 "/>
<path transform="matrix(1,0,0,-1,194.317,17.03203)" stroke-width="1" stroke-linecap="butt" stroke-miterlimit="22.926" stroke-linejoin="miter" fill="none" stroke="#231f20" d="M 0 0 L 115.2 0 L 115.2 -36 L 0 -36 Z "/>
<path transform="matrix(1,0,0,-1,179.917,32.50903)" stroke-width="1" stroke-linecap="butt" stroke-miterlimit="22.926" stroke-linejoin="miter" fill="none" stroke="#231f20" d="M 0 0 L 14.4 0 "/>
<path transform="matrix(1,0,0,-1,151.117,32.50903)" stroke-width="1" stroke-linecap="butt" stroke-miterlimit="22.926" stroke-linejoin="miter" fill="none" stroke="#231f20" d="M 0 0 L 14.4 0 "/>
<path transform="matrix(1,0,0,-1,151.117,68.50903)" stroke-width="1" stroke-linecap="butt" stroke-miterlimit="22.926" stroke-linejoin="miter" fill="none" stroke="#231f20" d="M 0 0 L 14.4 0 "/>
<path transform="matrix(1,0,0,-1,165.517,32.509035)" stroke-width="1" stroke-linecap="butt" stroke-miterlimit="22.926" stroke-linejoin="miter" fill="none" stroke="#231f20" d="M 0 0 L 0 -36 "/>
<path transform="matrix(1,0,0,-1,165.517,54.10903)" stroke-width="1" stroke-linecap="butt" stroke-miterlimit="22.926" stroke-linejoin="miter" fill="none" stroke="#231f20" d="M 0 0 L 14.4 0 "/>
<path transform="matrix(1,0,0,-1,179.91699,32.509035)" stroke-width="1" stroke-linecap="butt" stroke-miterlimit="22.926" stroke-linejoin="miter" fill="none" stroke="#231f20" d="M 0 0 L 0 -21.6 "/>
<path transform="matrix(1,0,0,-1,194.31699,60.232034)" stroke-width="1" stroke-linecap="butt" stroke-miterlimit="22.926" stroke-linejoin="miter" fill="none" stroke="#231f20" d="M 0 0 L 115.2 0 L 115.2 -36 L 0 -36 Z "/>
<path transform="matrix(1,0,0,-1,309.51698,39.710035)" stroke-width="1" stroke-linecap="butt" stroke-miterlimit="22.926" stroke-linejoin="miter" fill="none" stroke="#231f20" d="M 0 0 L 14.4 0 "/>
<path transform="matrix(1,0,0,-1,309.51698,82.910037)" stroke-width="1" stroke-linecap="butt" stroke-miterlimit="22.926" stroke-linejoin="miter" fill="none" stroke="#231f20" d="M 0 0 L 14.4 0 "/>
<path transform="matrix(1,0,0,-1,323.91697,39.710035)" stroke-width="1" stroke-linecap="butt" stroke-miterlimit="22.926" stroke-linejoin="miter" fill="none" stroke="#231f20" d="M 0 0 L 0 -43.2 "/>
<text fill="#231f20" xml:space="preserve" transform="matrix(.0000400004 -1 1 .0000400004 0 842)" font-size="9.9999" font-family="TimesNewRomanPSMT"><tspan y="162.30126" x="548.42 553.4199 558.41989">27.</tspan><tspan y="162.30127" x="560.91989">0</tspan><tspan y="162.30126" x="565.9198 570.91976">1.</tspan><tspan y="162.30127" x="573.41976 578.4197">80</tspan></text>
<path transform="matrix(1,0,0,-1,194.317,103.43201)" stroke-width="1" stroke-linecap="butt" stroke-miterlimit="22.926" stroke-linejoin="miter" fill="none" stroke="#231f20" d="M 0 0 L 115.2 0 L 115.2 -36 L 0 -36 Z "/>
<path transform="matrix(1,0,0,-1,179.917,75.70901)" stroke-width="1" stroke-linecap="butt" stroke-miterlimit="22.926" stroke-linejoin="miter" fill="none" stroke="#231f20" d="M 0 0 L 14.4 0 "/>
<path transform="matrix(1,0,0,-1,179.917,118.90901)" stroke-width="1" stroke-linecap="butt" stroke-miterlimit="22.926" stroke-linejoin="miter" fill="none" stroke="#231f20" d="M 0 0 L 14.4 0 "/>
<path transform="matrix(1,0,0,-1,179.917,75.709018)" stroke-width="1" stroke-linecap="butt" stroke-miterlimit="22.926" stroke-linejoin="miter" fill="none" stroke="#231f20" d="M 0 0 L 0 -43.2 "/>
<text fill="#231f20" xml:space="preserve" transform="matrix(1 0 -0 1 0 842)" font-size="9.9999" font-family="TimesNewRomanPSMT"><tspan y="-563.4512" x="212.26 218.92993 223.36989 227.80985 233.15979 238.14974 243.49968 251.3506 254.68058 259.6805 264.68046 267.18043 271.80836 276.8083 279.30827 284.3082">&#x0412;&#x0430;&#x0441;&#x0438;&#x043b;&#x0438;&#x0439;-26.11.87</tspan></text>
<path transform="matrix(1,0,0,-1,179.917,277.30903)" stroke-width="1" stroke-linecap="butt" stroke-miterlimit="22.926" stroke-linejoin="miter" fill="none" stroke="#231f20" d="M 0 0 L 14.4 0 "/>
<path transform="matrix(1,0,0,-1,194.317,269.032)" stroke-width="1" stroke-linecap="butt" stroke-miterlimit="22.926" stroke-linejoin="miter" fill="none" stroke="#231f20" d="M 0 0 L 115.2 0 L 115.2 -14.4 L 0 -14.4 Z "/>
<path transform="matrix(1,0,0,-1,35.917009,117.832019)" stroke-width="1" stroke-linecap="butt" stroke-miterlimit="22.926" stroke-linejoin="miter" fill="none" stroke="#231f20" d="M 0 0 L 115.2 0 L 115.2 -50.4 L 0 -50.4 Z "/>
<path transform="matrix(1,0,0,-1,35.917009,175.432)" stroke-width="1" stroke-linecap="butt" stroke-miterlimit="22.926" stroke-linejoin="miter" fill="none" stroke="#231f20" d="M 0 0 L 115.2 0 L 115.2 -50.4 L 0 -50.4 Z "/>
<path transform="matrix(1,0,0,-1,28.717007,198.10901)" stroke-width="1" stroke-linecap="butt" stroke-miterlimit="22.926" stroke-linejoin="miter" fill="none" stroke="#231f20" d="M 0 0 L 7.2 0 "/>
<path transform="matrix(1,0,0,-1,28.717007,241.309)" stroke-width="1" stroke-linecap="butt" stroke-miterlimit="22.926" stroke-linejoin="miter" fill="none" stroke="#231f20" d="M 0 0 L 7.2 0 "/>
<path transform="matrix(1,0,0,-1,28.717007,198.10901)" stroke-width="1" stroke-linecap="butt" stroke-miterlimit="22.926" stroke-linejoin="miter" fill="none" stroke="#231f20" d="M 0 0 L 0 -43.2 "/>
<path transform="matrix(1,0,0,-1,179.917,154.90901)" stroke-width="1" stroke-linecap="butt" stroke-miterlimit="22.926" stroke-linejoin="miter" fill="none" stroke="#231f20" d="M 0 0 L 14.4 0 "/>
<path transform="matrix(1,0,0,-1,151.117,154.90901)" stroke-width="1" stroke-linecap="butt" stroke-miterlimit="22.926" stroke-linejoin="miter" fill="none" stroke="#231f20" d="M 0 0 L 14.4 0 "/>
<path transform="matrix(1,0,0,-1,151.117,190.90901)" stroke-width="1" stroke-linecap="butt" stroke-miterlimit="22.926" stroke-linejoin="miter" fill="none" stroke="#231f20" d="M 0 0 L 14.4 0 "/>
<path transform="matrix(1,0,0,-1,165.517,154.90901)" stroke-width="1" stroke-linecap="butt" stroke-miterlimit="22.926" stroke-linejoin="miter" fill="none" stroke="#231f20" d="M 0 0 L 0 -36 "/>
<path transform="matrix(1,0,0,-1,165.517,176.50902)" stroke-width="1" stroke-linecap="butt" stroke-miterlimit="22.926" stroke-linejoin="miter" fill="none" stroke="#231f20" d="M 0 0 L 14.4 0 "/>
<path transform="matrix(1,0,0,-1,179.91699,154.90901)" stroke-width="1" stroke-linecap="butt" stroke-miterlimit="22.926" stroke-linejoin="miter" fill="none" stroke="#231f20" d="M 0 0 L 0 -43.2 L 14.4 -43.2 "/>
<path transform="matrix(1,0,0,-1,194.31699,146.63202)" stroke-width="1" stroke-linecap="butt" stroke-miterlimit="22.926" stroke-linejoin="miter" fill="none" stroke="#231f20" d="M 0 0 L 115.2 0 L 115.2 -14.4 L 0 -14.4 Z "/>
<path transform="matrix(1,0,0,-1,194.31699,168.23203)" stroke-width="1" stroke-linecap="butt" stroke-miterlimit="22.926" stroke-linejoin="miter" fill="none" stroke="#231f20" d="M 0 0 L 115.2 0 L 115.2 -14.4 L 0 -14.4 Z "/>
<path transform="matrix(1,0,0,-1,194.31699,189.83203)" stroke-width="1" stroke-linecap="butt" stroke-miterlimit="22.926" stroke-linejoin="miter" fill="none" stroke="#231f20" d="M 0 0 L 115.2 0 L 115.2 -14.4 L 0 -14.4 Z "/>
<path transform="matrix(1,0,0,-1,21.516983,140.50904)" stroke-width="1" stroke-linecap="butt" stroke-miterlimit="22.926" stroke-linejoin="miter" fill="none" stroke="#231f20" d="M 0 0 L 14.4 0 "/>
<path transform="matrix(1,0,0,-1,35.916986,333.83204)" stroke-width="1" stroke-linecap="butt" stroke-miterlimit="22.926" stroke-linejoin="miter" fill="none" stroke="#231f20" d="M 0 0 L 115.2 0 L 115.2 -36 L 0 -36 Z "/>
<path transform="matrix(1,0,0,-1,21.516985,349.30903)" stroke-width="1" stroke-linecap="butt" stroke-miterlimit="22.926" stroke-linejoin="miter" fill="none" stroke="#231f20" d="M 0 0 L 14.4 0 "/>
<path transform="matrix(1,0,0,-1,21.516985,392.50904)" stroke-width="1" stroke-linecap="butt" stroke-miterlimit="22.926" stroke-linejoin="miter" fill="none" stroke="#231f20" d="M 0 0 L 14.4 0 "/>
<path transform="matrix(1,0,0,-1,35.916986,413.03205)" stroke-width="1" stroke-linecap="butt" stroke-miterlimit="22.926" stroke-linejoin="miter" fill="none" stroke="#231f20" d="M 0 0 L 115.2 0 L 115.2 -14.4 L 0 -14.4 Z "/>
<path transform="matrix(1,0,0,-1,179.91699,385.30906)" stroke-width="1" stroke-linecap="butt" stroke-miterlimit="22.926" stroke-linejoin="miter" fill="none" stroke="#231f20" d="M 0 0 L 14.4 0 "/>
<path transform="matrix(1,0,0,-1,151.11699,385.30906)" stroke-width="1" stroke-linecap="butt" stroke-miterlimit="22.926" stroke-linejoin="miter" fill="none" stroke="#231f20" d="M 0 0 L 14.4 0 "/>
<path transform="matrix(1,0,0,-1,151.11699,421.30906)" stroke-width="1" stroke-linecap="butt" stroke-miterlimit="22.926" stroke-linejoin="miter" fill="none" stroke="#231f20" d="M 0 0 L 14.4 0 "/>
<path transform="matrix(1,0,0,-1,165.51699,385.30906)" stroke-width="1" stroke-linecap="butt" stroke-miterlimit="22.926" stroke-linejoin="miter" fill="none" stroke="#231f20" d="M 0 0 L 0 -36 "/>
<path transform="matrix(1,0,0,-1,165.51699,406.90907)" stroke-width="1" stroke-linecap="butt" stroke-miterlimit="22.926" stroke-linejoin="miter" fill="none" stroke="#231f20" d="M 0 0 L 14.4 0 "/>
<path transform="matrix(1,0,0,-1,179.91698,385.30906)" stroke-width="1" stroke-linecap="butt" stroke-miterlimit="22.926" stroke-linejoin="miter" fill="none" stroke="#231f20" d="M 0 0 L 0 -21.6 "/>
<path transform="matrix(1,0,0,-1,194.31697,377.03205)" stroke-width="1" stroke-linecap="butt" stroke-miterlimit="22.926" stroke-linejoin="miter" fill="none" stroke="#231f20" d="M 0 0 L 115.2 0 L 115.2 -14.4 L 0 -14.4 Z "/>
<path transform="matrix(1,0,0,-1,0,842)" stroke-width="1" stroke-linecap="butt" stroke-dasharray="2.0001,1.0001" stroke-miterlimit="22.926" stroke-linejoin="miter" fill="none" stroke="#231f20" d="M 21.517 509.21 L 21.517 449.491 "/>
<text fill="#231f20" xml:space="preserve" transform="matrix(1 0 -0 1 0 842)" font-size="9.9999" font-family="TimesNewRomanPSMT"><tspan y="-497.432" x="211.6182 218.39813 222.83809 227.92804 231.878 237.22795 245.07787 251.8978 258.22773 263.57768 268.07063 273.07057 278.4205">&#x041b;&#x0430;&#x0431;&#x0437;&#x0438;&#x043d;&#x0414;&#x043c;&#x0438;&#x0442;&#x0440;&#x0438;&#x0439;</tspan><tspan y="-486.35713" x="211.6182 218.83812 223.43007 227.87003 233.21997 238.21993 242.93988 248.28983">&#x0418;&#x0432;&#x0430;&#x043d;&#x043e;&#x0432;&#x0438;&#x0447;</tspan><tspan y="-475.28224" x="211.6182 216.61815 221.6181 226.61806 231.61801 237.44795 242.4479 247.44786 249.94783 254.94779 259.94773 262.4477 267.44764 272.44758 277.4475">1907-01.09.1943</tspan></text>
<path transform="matrix(1,0,0,-1,194.317,333.832)" stroke-width="1" stroke-linecap="butt" stroke-miterlimit="22.926" stroke-linejoin="miter" fill="none" stroke="#231f20" d="M 0 0 L 115.2 0 L 115.2 -36 L 0 -36 Z "/>
<path transform="matrix(1,0,0,-1,151.117,349.309)" stroke-width="1" stroke-linecap="butt" stroke-miterlimit="22.926" stroke-linejoin="miter" fill="none" stroke="#231f20" d="M 0 0 L 43.2 0 "/>
</g>
</svg>
