<?xml version="1.0" encoding="UTF-8" standalone="no"?>
<!DOCTYPE svg PUBLIC "-//W3C//DTD SVG 1.1//EN" "http://www.w3.org/Graphics/SVG/1.1/DTD/svg11.dtd">
<svg xmlns="http://www.w3.org/2000/svg" xmlns:xlink="http://www.w3.org/1999/xlink" version="1.1" width="595pt" height="1168.094pt" viewBox="0 0 595 1168.094">
<g enable-background="new">
<text fill="#231f20" xml:space="preserve" transform="matrix(.000031915575 -1 1 .000031915575 0 1684)" font-size="9.3998" font-family="TimesNewRomanPSMT"><tspan y="17.815649" x="1308.195 1314.568">&#x041b;&#x0430;</tspan><tspan y="17.81565" x="1318.7415 1323.526">&#x0431;&#x0437;</tspan><tspan y="17.815649" x="1327.2389 1332.2678 1339.6467 1345.1569">&#x0438;&#x043d;&#x0422;&#x0438;</tspan><tspan y="17.815648" x="1350.1858">&#x043c;</tspan><tspan y="17.815649" x="1356.1359 1360.8358 1366.9269 1371.1004">&#x043e;&#x0444;&#x0435;&#x0439;</tspan></text>
<text fill="#231f20" xml:space="preserve" transform="matrix(1 0 -0 1 0 1684)" font-size="9.3998" font-family="TimesNewRomanPSMT"><tspan y="-1617.3942" x="57.6048 64.39146 68.71536 72.823078 77.39138 82.42027 89.79912 96.58578 101.276279 105.44978 109.78686 114.07317 118.24669">&#x041f;&#x044f;&#x0442;&#x043a;&#x0438;&#x043d;&#x0410;&#x043b;&#x0435;&#x043a;&#x0441;&#x0435;&#x0439;</tspan><tspan y="-1606.9839" x="57.6048 64.39146 69.42035 73.988658 79.01755 85.10862 89.80852 94.508419 99.20831 103.64502 108.67391">&#x041d;&#x0438;&#x043a;&#x0438;&#x0444;&#x043e;&#x0440;&#x043e;&#x0432;&#x0438;&#x0447;</tspan></text>
<text fill="#231f20" xml:space="preserve" transform="matrix(1 0 -0 1 0 1684)" font-size="7.5197" font-family="TimesNewRomanPSMT"><tspan y="-1598.2488" x="57.6048 61.36465 65.38769 78.54792 82.30777 86.06762 87.94755 91.7074 95.46725 97.347179 101.107028 69.14905 72.9089 76.66875">&#x0443;&#x043f;.81,84,9080,</tspan></text>
<text fill="#231f20" xml:space="preserve" transform="matrix(1 0 -0 1 0 1684)" font-size="9.3998" font-family="TimesNewRomanPSMT"><tspan y="-1657.9209" x="48.454 55.240655 59.564565 63.672277 68.24058 73.26947 78.29836 84.82371 87.95384 94.326908 98.50041 103.28491 106.99783 112.026729 117.05562 121.229129">&#x041f;&#x044f;&#x0442;&#x043a;&#x0438;&#x043d;&#x0430;(&#x041b;&#x0430;&#x0431;&#x0437;&#x0438;&#x043d;&#x0430;)</tspan><tspan y="-1647.5106" x="48.454 54.197278 60.28835 65.317249 71.26732 76.29621 82.97007 88.479297 93.50819 99.45826 104.15816 110.24923 114.422748 118.59625 123.03296 128.06186">&#x0415;&#x0444;&#x0438;&#x043c;&#x0438;&#x044f;&#x0422;&#x0438;&#x043c;&#x043e;&#x0444;&#x0435;&#x0435;&#x0432;&#x043d;&#x0430;</tspan></text>
<text fill="#231f20" xml:space="preserve" transform="matrix(1 0 -0 1 0 1684)" font-size="7.5197" font-family="TimesNewRomanPSMT"><tspan y="-1638.7754" x="48.454 52.21385 56.23689 59.99674 63.756589 67.51644 69.39637 73.15622 76.91607 78.796 82.55585 86.3157 88.195629 91.955478 95.715328 97.59525 101.3551">&#x0443;&#x043f;.80,81,84,87,90</tspan></text>
<text fill="#231f20" xml:space="preserve" transform="matrix(1 0 -0 1 0 1684)" font-size="9.3998" font-family="TimesNewRomanPSMT"><tspan y="-1630.7681" x="208.9073 215.17697 219.26589 223.96579 230.75434 235.45424 240.15415 242.50409 247.204 251.9039 254.25385 258.95375">&#x042f;&#x043a;&#x043e;&#x0432;26.04.84</tspan><tspan y="-1258.613" x="49.705705 56.49236 61.52125 66.089557 71.11845 75.22616 80.25505 85.28394 91.81305 94.943187 101.316249 105.48976 110.27426 113.98718 119.016078 124.04497 128.21848">&#x041d;&#x0438;&#x043a;&#x0438;&#x0442;&#x0438;&#x043d;&#x0430;(&#x041b;&#x0430;&#x0431;&#x0437;&#x0438;&#x043d;&#x0430;)</tspan><tspan y="-1248.2028" x="49.705705 55.975374 60.148885 64.322399 68.60589 75.12841 80.636699 85.66559 91.61566 96.31556 102.40663 106.58014 110.75365 115.19035 120.219249">&#x0412;&#x0430;&#x0441;&#x0441;&#x0430;&#x0422;&#x0438;&#x043c;&#x043e;&#x0444;&#x0435;&#x0435;&#x0432;&#x043d;&#x0430;</tspan></text>
<text fill="#231f20" xml:space="preserve" transform="matrix(1 0 -0 1 0 1684)" font-size="7.5197" font-family="TimesNewRomanPSMT"><tspan y="-1239.4686" x="49.7055 53.46535 57.48839 61.24824 65.008098 68.767948 70.64787 74.40772">&#x0443;&#x043f;.80,85</tspan></text>
<text fill="#231f20" xml:space="preserve" transform="matrix(1 0 -0 1 0 1684)" font-size="9.3998" font-family="TimesNewRomanPSMT"><tspan y="-1460.0889" x="60.2376 66.610668 70.78418 75.56868 79.2816 84.31049 91.68934 97.43262 102.123119 107.15201 111.44113 115.61464">&#x041b;&#x0430;&#x0431;&#x0437;&#x0438;&#x043d;&#x0415;&#x043b;&#x0438;&#x0441;&#x0435;&#x0439;</tspan><tspan y="-1449.6786" x="60.2376 65.74588 70.77477 76.724849 81.42474 87.515819 91.68933 95.86284 100.299549 105.32844">&#x0422;&#x0438;&#x043c;&#x043e;&#x0444;&#x0435;&#x0435;&#x0432;&#x0438;&#x0447;</tspan><tspan y="-1439.2683" x="65.32289 70.02279 74.72269 60.2376 79.42259">185~3</tspan></text>
<text fill="#231f20" xml:space="preserve" transform="matrix(1 0 -0 1 0 1684)" font-size="7.5197" font-family="TimesNewRomanPSMT"><tspan y="-1430.5331" x="60.2376 63.997449 68.020488 71.78034 75.54019 79.30004 81.17997 84.93982 88.69967 90.5796 94.33945 98.0993 99.979228 103.739078">&#x0443;&#x043f;.80,81,83,91</tspan></text>
<text fill="#231f20" xml:space="preserve" transform="matrix(1 0 -0 1 0 1684)" font-size="9.3998" font-family="TimesNewRomanPSMT"><tspan y="-1611.399" x="188.5455 195.33216 200.36106 205.14556 209.84546 214.01897 221.40064 226.10054 230.80045 233.15039 237.8503 242.5502 244.90015 249.60005 254.29996 257.43009 262.12998 266.82987 269.1798 273.8797 278.5796 280.92955 285.62944">&#x0410;&#x043d;&#x0434;&#x0440;&#x0435;&#x0439;13.08.87-07.09.87</tspan></text>
<text fill="#231f20" xml:space="preserve" transform="matrix(1 0 -0 1 0 1684)" font-size="8.4598" font-family="TimesNewRomanPSMT"><tspan y="-1462.7225" x="189.4667 195.57468 199.0432 203.2731 207.79909 212.32508 216.85106 221.37705 235.71726 246.29199 227.25579 231.48569 237.83054 242.06044 248.40529 252.6352 256.86509 259.6822 263.91209 268.14198 270.25694 274.48683 278.7167 280.83168 285.06156">&#x0410;&#x0433;&#x0440;&#x0438;&#x043f;&#x0438;&#x043d;&#x0430;..190680-04.10.80</tspan><tspan y="-1338.663" x="187.66138 192.83032 196.81066 200.34685 204.04378 207.79993 212.02983 216.55582 221.0818 226.95459 231.1845 235.4144 237.52935 241.44539 245.6753 247.79024 252.02014 258.365 263.29707 267.52696 271.75685 273.8718 278.10169 282.33158 284.44654 288.67643">&#x0415;&#x043a;&#x0430;&#x0442;&#x0435;&#x0440;&#x0438;&#x043d;&#x0430;07.11.81-28.01.86</tspan></text>
<text fill="#231f20" xml:space="preserve" transform="matrix(1 0 -0 1 0 1684)" font-size="9.3998" font-family="TimesNewRomanPSMT"><tspan y="-1381.2897" x="204.0862 210.87285 215.45056 219.55828 223.73178 229.68186 234.71076 242.0896 246.7895 251.48941 253.83936 258.53926 263.23915 265.58909 270.28898">&#x0410;&#x0440;&#x0442;&#x0435;&#x043c;&#x0438;&#x0439;19.10.85</tspan><tspan y="-1503.0679" x="47.600206 53.97327 58.146783 62.931283 66.6442 71.673099 76.70199 83.226398 86.35653 90.530048">&#x041b;&#x0430;&#x0431;&#x0437;&#x0438;&#x043d;&#x0430;(?)</tspan><tspan y="-1492.6576" x="47.600206 54.38686 59.415754 64.44465 70.96812 77.237789 81.4113 85.58481 90.6137 95.3042 99.59051 103.76402 108.20073 113.22962">&#x0410;&#x043d;&#x043d;&#x0430;&#x0412;&#x0430;&#x0441;&#x0438;&#x043b;&#x044c;&#x0435;&#x0432;&#x043d;&#x0430;</tspan><tspan y="-1482.2473" x="47.600206 52.685499 57.3854 62.0853 66.7852 71.4851 74.615238 79.31513 84.01503 86.36498 91.06488 95.76478 98.11473 102.81463">~1849-22.06.79</tspan></text>
<text fill="#231f20" xml:space="preserve" transform="matrix(.000035461836 -1 1 .000035461836 0 1684)" font-size="8.4598" font-family="TimesNewRomanPSMT"><tspan y="155.31258" x="1407.9437 1412.1736 1416.4035 1418.5184">04.1</tspan><tspan y="155.31259" x="1422.7483 1426.9782 1429.0932 1433.323">0.79</tspan></text>
<text fill="#231f20" xml:space="preserve" transform="matrix(1 0 -0 1 0 1684)" font-size="9.3998" font-family="TimesNewRomanPSMT"><tspan y="-1405.9453" x="47.1737 53.546766 57.720277 62.504777 66.2177 71.24659 76.27548 82.79988 85.930019 94.05426 98.63008 103.32058 107.74976 112.53426 117.563159 122.263057 126.57756 130.75107">&#x041b;&#x0430;&#x0431;&#x0437;&#x0438;&#x043d;&#x0430;(&#x041c;&#x043e;&#x043b;&#x043e;&#x0434;&#x0446;&#x043e;&#x0432;&#x0430;)</tspan><tspan y="-1395.535" x="47.1737 53.960355 58.133867 62.833768 67.00728 71.180789 75.51128 79.684787 83.99835 90.52181 97.30847 101.48198 105.70249 110.40239 115.10229 119.538997 124.56789">&#x041f;&#x0435;&#x0440;&#x0430;&#x0441;&#x043a;&#x0435;&#x0432;&#x0430;&#x041f;&#x0435;&#x0442;&#x0440;&#x043e;&#x0432;&#x043d;&#x0430;</tspan><tspan y="-1385.1248" x="47.1737 52.25899 56.958894 61.658796 66.358699">~1857</tspan></text>
<text fill="#231f20" xml:space="preserve" transform="matrix(1 0 -0 1 0 1684)" font-size="7.5197" font-family="TimesNewRomanPSMT"><tspan y="-1376.3895" x="47.1737 50.933549 54.95659 58.71644 62.476289 66.23614 68.116069 71.875919 75.635768 77.51569 81.27554">&#x0443;&#x043f;.80,81,83</tspan></text>
<text fill="#231f20" xml:space="preserve" transform="matrix(1 0 -0 1 0 1684)" font-size="9.3998" font-family="TimesNewRomanPSMT"><tspan y="-1360.0515" x="212.2066 218.47628 222.56519 227.26509 234.05364 238.75354 243.45345 245.80339 250.5033 255.2032 257.55317 262.25306">&#x042f;&#x043a;&#x043e;&#x0432;19.10.85</tspan><tspan y="-1442.2077" x="209.33966 215.71273 219.88623 224.67073 228.38365 233.41255 240.7914 248.21724 252.26856 257.05305 261.75294">&#x041b;&#x0430;&#x0431;&#x0437;&#x0438;&#x043d;&#x0424;&#x0435;&#x0434;&#x043e;&#x0440;</tspan><tspan y="-1431.7974" x="209.33966 215.08293 219.77344 224.80234 229.08864 233.26215 237.43566 241.87236 246.90126">&#x0415;&#x043b;&#x0438;&#x0441;&#x0435;&#x0435;&#x0432;&#x0438;&#x0447;</tspan><tspan y="-1421.3871" x="209.33966 218.73947 221.08942 225.44058 230.14049 232.49044 237.19034">0.11.83</tspan></text>
<text fill="#00b04c" xml:space="preserve" transform="matrix(1 0 -0 1 0 1684)" font-size="9.3998" font-family="TimesNewRomanPSMT"><tspan y="-1421.3871" x="214.03957">9</tspan></text>
<text fill="#231f20" xml:space="preserve" transform="matrix(1 0 -0 1 0 1684)" font-size="9.3998" font-family="TimesNewRomanPSMT"><tspan y="-1258.5337" x="209.86794 215.6112 220.30171 224.47522 229.50412 236.02477 240.72467 245.42458 247.77452 252.47443 257.17433 259.52427 264.22416">&#x0415;&#x043b;&#x0435;&#x043d;&#x0430;16.05.80</tspan><tspan y="-1218.0075" x="55.72719 62.513845 67.54274 72.111049 77.13994 81.24765 86.27654 93.65539 99.92506 104.624958 110.71603 115.415927 120.11582">&#x041d;&#x0438;&#x043a;&#x0438;&#x0442;&#x0438;&#x043d;&#x0421;&#x043e;&#x0444;&#x0440;&#x043e;&#x043d;</tspan><tspan y="-1207.5972" x="55.72719 62.513845 67.204349 71.37785 75.71117 79.997478 84.17099 89.19988 93.98438 98.68428 103.38418 107.820888 112.84978">&#x0410;&#x043b;&#x0435;&#x043a;&#x0441;&#x0430;&#x043d;&#x0434;&#x0440;&#x043e;&#x0432;&#x0438;&#x0447;</tspan></text>
<text fill="#231f20" xml:space="preserve" transform="matrix(1 0 -0 1 0 1684)" font-size="7.5197" font-family="TimesNewRomanPSMT"><tspan y="-1198.8611" x="55.7274 59.48725 63.510293 67.27015 71.03 74.78985 76.66978 80.42963 84.189479 86.069408 89.829257">&#x0443;&#x043f;.79,80,84</tspan></text>
<text fill="#231f20" xml:space="preserve" transform="matrix(1 0 -0 1 0 1684)" font-size="9.3998" font-family="TimesNewRomanPSMT"><tspan y="-1441.438" x="353.9957 360.36878 364.5423 369.32679 373.0397 378.0686 385.44746 391.7171 395.89064 400.06416 405.09306 409.78355 414.81245">&#x041b;&#x0430;&#x0431;&#x0437;&#x0438;&#x043d;&#x0412;&#x0430;&#x0441;&#x0438;&#x043b;&#x0438;&#x0439;</tspan><tspan y="-1431.0277" x="353.9957 361.42155 365.47004 370.25453 374.9544 379.6543 384.3542 388.7909 393.8198">&#x0424;&#x0435;&#x0434;&#x043e;&#x0440;&#x043e;&#x0432;&#x0438;&#x0447;</tspan><tspan y="-1420.6174" x="353.9957 358.34593 363.0458 365.39576 370.09565 374.79554 377.14549 381.84538 386.54527 389.67539 394.37528 399.07518 401.4251 406.125 410.8249 413.17485 417.87474">11.04.07-28.02.64</tspan><tspan y="-1400.8308" x="350.75465 356.9002 361.07374 365.77363 370.80253 375.5024 379.81694 386.33946 389.46958 395.84266 400.01618 404.80067 408.51359 413.54249 418.57139 422.7449">&#x041a;&#x0430;&#x0440;&#x043f;&#x043e;&#x0432;&#x0430;(&#x041b;&#x0430;&#x0431;&#x0437;&#x0438;&#x043d;&#x0430;)</tspan><tspan y="-1390.4205" x="350.75465 358.18049 362.22898 367.01347 371.71336 376.41325 382.9367 389.72337 394.03694 398.21046 403.23936 407.93925 412.37596 417.40486">&#x0424;&#x0435;&#x0434;&#x043e;&#x0440;&#x0430;&#x0418;&#x0432;&#x0430;&#x043d;&#x043e;&#x0432;&#x043d;&#x0430;</tspan><tspan y="-1380.0103" x="350.75465 355.45454 360.15443 362.50437 367.20426 371.90415 374.2541 378.95399 383.65388 386.784 391.4839 396.18379 398.53373 403.2336 407.9335 410.28346 414.98335">13.09.07-05.09.67</tspan><tspan y="-1441.4389" x="499.3307 505.70378 509.8773 514.6618 518.37478 523.4036 528.4325 534.956 541.7427 546.77157 550.7599 555.4598 560.48867 565.5175 570.5464">&#x041b;&#x0430;&#x0431;&#x0437;&#x0438;&#x043d;&#x0430;&#x0410;&#x043d;&#x0442;&#x043e;&#x043d;&#x0438;&#x043d;&#x0430;</tspan><tspan y="-1431.0286" x="499.3307 505.60035 509.77388 513.9474 518.97628 523.66677 527.95309 532.1266 536.5633 541.59219">&#x0412;&#x0430;&#x0441;&#x0438;&#x043b;&#x044c;&#x0435;&#x0432;&#x043d;&#x0430;</tspan><tspan y="-1420.6183" x="499.3307 504.03059 508.73048 513.43038">1928</tspan><tspan y="-1395.6261" x="499.9727 506.34577 510.5193 515.3038 519.0167 524.0456 531.42446 538.2111 542.9016 547.07516 551.41128 555.6976 559.8711 564.89999 569.68447">&#x041b;&#x0430;&#x0431;&#x0437;&#x0438;&#x043d;&#x0410;&#x043b;&#x0435;&#x043a;&#x0441;&#x0430;&#x043d;&#x0434;&#x0440;</tspan><tspan y="-1385.2158" x="499.9727 506.24235 510.41587 514.58938 519.6182 524.3087 529.3376 533.5111 537.9478 542.9767">&#x0412;&#x0430;&#x0441;&#x0438;&#x043b;&#x0438;&#x0435;&#x0432;&#x0438;&#x0447;</tspan><tspan y="-1355.0189" x="506.88719 513.26028 517.4338 522.21829 525.93118 530.96 538.33889 544.6085 549.6374 554.0844 558.06808 562.76797">&#x041b;&#x0430;&#x0431;&#x0437;&#x0438;&#x043d;&#x0412;&#x0438;&#x043a;&#x0442;&#x043e;&#x0440;</tspan><tspan y="-1344.6087" x="506.88719 513.15689 517.3304 521.5039 526.5328 531.22329 536.25216 540.42568 544.86239 549.89126">&#x0412;&#x0430;&#x0441;&#x0438;&#x043b;&#x0438;&#x0435;&#x0432;&#x0438;&#x0447;</tspan><tspan y="-1314.4118" x="502.1027 508.47578 512.6493 517.4338 521.1467 526.1756 533.55447 539.8241 544.0813 548.7718 552.9453 557.9742 562.0819 567.1108">&#x041b;&#x0430;&#x0431;&#x0437;&#x0438;&#x043d;&#x0412;&#x0430;&#x043b;&#x0435;&#x043d;&#x0442;&#x0438;&#x043d;</tspan><tspan y="-1304.0015" x="502.1027 508.37236 512.54586 516.71939 521.7482 526.4387 531.4676 535.6411 540.0778 545.1067">&#x0412;&#x0430;&#x0441;&#x0438;&#x043b;&#x0438;&#x0435;&#x0432;&#x0438;&#x0447;</tspan><tspan y="-1273.8046" x="501.13829 507.51136 511.68489 516.46939 520.18228 525.2111 532.58999 538.8596 543.5501 547.72366 552.5081 557.537 563.48709 568.5159">&#x041b;&#x0430;&#x0431;&#x0437;&#x0438;&#x043d;&#x0412;&#x043b;&#x0430;&#x0434;&#x0438;&#x043c;&#x0438;&#x0440;</tspan><tspan y="-1263.3943" x="501.13829 507.40794 511.58146 515.75497 520.7838 525.4743 530.5032 534.6767 539.1134 544.1423">&#x0412;&#x0430;&#x0441;&#x0438;&#x043b;&#x0438;&#x0435;&#x0432;&#x0438;&#x0447;</tspan><tspan y="-1238.4021" x="492.48576 498.7554 503.0107 507.7012 513.6513 518.6802 523.70907 530.23348 533.3636 539.73666 543.91018 548.69467 552.4076 557.43649 562.46536 566.63888">&#x0421;&#x0430;&#x043b;&#x043c;&#x0438;&#x043d;&#x0430;(&#x041b;&#x0430;&#x0431;&#x0437;&#x0438;&#x043d;&#x0430;)</tspan><tspan y="-1227.9918" x="492.48576 498.22904 502.91954 507.94844 511.66136 515.83486 520.21707 524.39059 528.6111 535.1346 541.40426 545.57778 549.7513 554.78018 559.47067 563.75698 567.9305 572.3672 577.39608">&#x0415;&#x043b;&#x0438;&#x0437;&#x0430;&#x0432;&#x0435;&#x0442;&#x0430;&#x0412;&#x0430;&#x0441;&#x0438;&#x043b;&#x044c;&#x0435;&#x0432;&#x043d;&#x0430;</tspan><tspan y="-1217.5816" x="492.48576 497.18565 501.88554 506.58543">1933</tspan><tspan y="-1040.4799" x="56.525819 62.898885 67.072399 71.856899 75.56982 80.59871 87.977558 94.38822 100.338298 105.36719 109.59334 114.293239 119.32213">&#x041b;&#x0430;&#x0431;&#x0437;&#x0438;&#x043d;&#x0414;&#x043c;&#x0438;&#x0442;&#x0440;&#x0438;&#x0439;</tspan><tspan y="-1030.0696" x="56.525819 62.0341 67.062999 73.01307 77.71297 83.80404 87.977558 92.15106 96.58777 101.61666">&#x0422;&#x0438;&#x043c;&#x043e;&#x0444;&#x0435;&#x0435;&#x0432;&#x0438;&#x0447;</tspan><tspan y="-1019.6593" x="61.61111 66.31101 71.01091 75.71081 56.525819">1840~</tspan></text>
<text fill="#231f20" xml:space="preserve" transform="matrix(1 0 -0 1 0 1684)" font-size="7.5197" font-family="TimesNewRomanPSMT"><tspan y="-1010.9222" x="56.5265 60.2871 64.31089 68.07074 71.83059">&#x0443;&#x043f;.90</tspan></text>
<text fill="#231f20" xml:space="preserve" transform="matrix(1 0 -0 1 0 1684)" font-size="9.3998" font-family="TimesNewRomanPSMT"><tspan y="-984.4192" x="202.8637 209.23676 213.41027 218.19477 221.90769 226.93659 231.96549 238.48989 241.62001 248.40666 252.10266 256.67848 262.62855 267.32844 271.64106 275.81459">&#x041b;&#x0430;&#x0431;&#x0437;&#x0438;&#x043d;&#x0430;(&#x041d;&#x0430;&#x0443;&#x043c;&#x043e;&#x0432;&#x0430;)</tspan><tspan y="-974.0089" x="202.8637 208.60697 212.81056 217.59506 222.29497 226.86327 231.89217 238.56603 244.3657 249.06562 252.77854 257.06486 263.01493 268.04383 273.07273">&#x0415;&#x0432;&#x0434;&#x043e;&#x043a;&#x0438;&#x044f;&#x041a;&#x043e;&#x0437;&#x044c;&#x043c;&#x0438;&#x043d;&#x0430;</tspan><tspan y="-963.59866" x="202.8637 207.94899 212.6489 217.3488 222.0487">~1864</tspan></text>
<text fill="#231f20" xml:space="preserve" transform="matrix(1 0 -0 1 0 1684)" font-size="7.5197" font-family="TimesNewRomanPSMT"><tspan y="-954.8633" x="202.8637 206.62355 210.64659 212.52652 216.28638 220.04624 221.92617 225.68602">&#x0443;&#x043f;.83,86</tspan></text>
<text fill="#231f20" xml:space="preserve" transform="matrix(1 0 -0 1 0 1684)" font-size="9.3998" font-family="TimesNewRomanPSMT"><tspan y="-1040.478" x="206.6558 213.02887 217.20238 221.98688 225.6998 230.7287 238.10755 243.49268 248.19258 252.89249 258.98356 264.01246">&#x041b;&#x0430;&#x0431;&#x0437;&#x0438;&#x043d;&#x0422;&#x0440;&#x043e;&#x0444;&#x0438;&#x043c;</tspan><tspan y="-1030.0678" x="206.6558 213.06647 219.01654 224.04544 228.26877 232.96868 237.99758 242.17108 246.60779 251.63669">&#x0414;&#x043c;&#x0438;&#x0442;&#x0440;&#x0438;&#x0435;&#x0432;&#x0438;&#x0447;</tspan><tspan y="-1019.6575" x="206.6558 211.7411 216.44101 221.14092 225.84082">~1861</tspan></text>
<text fill="#231f20" xml:space="preserve" transform="matrix(1 0 -0 1 0 1684)" font-size="7.5197" font-family="TimesNewRomanPSMT"><tspan y="-1010.9222" x="206.6558 210.41567 214.4387 218.19857 221.95842 225.71828 227.5982 231.35807 235.11792 236.99785 240.7577 244.51757 246.39749 250.15735 253.9172 255.79714 259.55699 263.31684 265.19676 268.9566">&#x0443;&#x043f;.81,83,85,86,90,91</tspan></text>
<text fill="#231f20" xml:space="preserve" transform="matrix(.000031915575 -1 1 .000031915575 0 1684)" font-size="9.3998" font-family="TimesNewRomanPSMT"><tspan y="303.22108" x="987.576 992.2759 996.97579 999.32577 1003.6769 1008.3768 1010.72677 1015.42666">06.11.83</tspan></text>
<text fill="#231f20" xml:space="preserve" transform="matrix(1 0 -0 1 0 1684)" font-size="9.3998" font-family="TimesNewRomanPSMT"><tspan y="-615.6622" x="192.9865 199.35956 203.53307 208.31757 212.03049 217.05939 222.08829">&#x041b;&#x0430;&#x0431;&#x0437;&#x0438;&#x043d;&#x0430;</tspan><tspan y="-605.2519" x="192.9865 199.77315 203.94666 208.64656 212.82007 216.99358 221.32407 225.49758 229.81114 236.3346 242.74526 248.69533 253.72423 257.94664 262.6465 267.6754 271.84895 276.28565 281.31455">&#x041f;&#x0435;&#x0440;&#x0430;&#x0441;&#x043a;&#x0435;&#x0432;&#x0430;&#x0414;&#x043c;&#x0438;&#x0442;&#x0440;&#x0438;&#x0435;&#x0432;&#x043d;&#x0430;</tspan></text>
<text fill="#231f20" xml:space="preserve" transform="matrix(1 0 -0 1 0 1684)" font-size="7.5197" font-family="TimesNewRomanPSMT"><tspan y="-596.5168" x="192.9865 196.74636 200.7694 204.52925 208.28911 212.04897 213.9289 217.68875 221.44861 223.32854 227.0884 230.84825 234.60811 238.36797">&#x0443;&#x043f;.84,85,87,90</tspan></text>
<text fill="#231f20" xml:space="preserve" transform="matrix(1 0 -0 1 0 1684)" font-size="9.3998" font-family="TimesNewRomanPSMT"><tspan y="-574.2647" x="194.3995 200.77257 204.94608 209.73058 213.4435 218.4724 225.85124 232.12091 236.29442 240.46793 245.49683 250.18733 255.21623">&#x041b;&#x0430;&#x0431;&#x0437;&#x0438;&#x043d;&#x0412;&#x0430;&#x0441;&#x0438;&#x043b;&#x0438;&#x0439;</tspan><tspan y="-563.85446" x="194.3995 200.81017 206.76024 211.78914 216.01247 220.71237 225.74127 229.91478 234.35149 239.38039">&#x0414;&#x043c;&#x0438;&#x0442;&#x0440;&#x0438;&#x0435;&#x0432;&#x0438;&#x0447;</tspan></text>
<text fill="#231f20" xml:space="preserve" transform="matrix(1 0 -0 1 0 1684)" font-size="7.5197" font-family="TimesNewRomanPSMT"><tspan y="-563.8542" x="255.8624 259.62226 263.6453 267.40513 271.16499 274.92485 276.80476 280.5646">&#x0443;&#x043f;.88,90</tspan></text>
<text fill="#231f20" xml:space="preserve" transform="matrix(1 0 -0 1 0 1684)" font-size="8.4598" font-family="TimesNewRomanPSMT"><tspan y="-1043.1117" x="336.3733 342.48127 345.94978 350.17967 354.70567 359.23167 363.75767 368.28367 374.16325 378.39314 382.62303 384.73799 388.96788 393.19776 395.3127 399.5426 405.88746 410.81953 415.0494 419.2793 421.39427 425.62416 429.85404 431.969 436.19889">&#x0410;&#x0433;&#x0440;&#x0438;&#x043f;&#x0438;&#x043d;&#x0430;10.06.85-02.08.85</tspan><tspan y="-981.35348" x="337.66764 343.7756 348.3016 352.05778 355.81394 359.61494 363.3711 367.12727 371.65327 377.65888 381.88877 386.11866 388.2336 392.14964 396.37953 398.49449 402.72438 409.0692 414.00129 418.23118 420.34614 424.263 428.4929 430.60786 434.83775">&#x0410;&#x043d;&#x0430;&#x0441;&#x0442;&#x0430;&#x0441;&#x0438;&#x044f;01.11.88-7.11.88</tspan></text>
<text fill="#231f20" xml:space="preserve" transform="matrix(1 0 -0 1 0 1684)" font-size="9.3998" font-family="TimesNewRomanPSMT"><tspan y="-866.0007" x="356.6168 362.21156 366.90205 371.18836 375.51228 380.54118 387.06559 391.76548 396.46537 398.8153 403.5152 408.2151 410.56504 415.26493">&#x0423;&#x043b;&#x044c;&#x044f;&#x043d;&#x0430;13.12.90</tspan><tspan y="-1002.2931" x="357.41484 365.77125 369.94477 374.64466 379.67356 386.3493 391.0492 395.74909 398.09904 402.79893 407.4988 409.84877">&#x041c;&#x0430;&#x0440;&#x0438;&#x044f;06.06.8</tspan></text>
<text fill="#00b04c" xml:space="preserve" transform="matrix(1 0 -0 1 0 1684)" font-size="9.3998" font-family="TimesNewRomanPSMT"><tspan y="-1002.2931" x="414.5487">7</tspan></text>
<text fill="#231f20" xml:space="preserve" transform="matrix(1 0 -0 1 0 1684)" font-size="9.3998" font-family="TimesNewRomanPSMT"><tspan y="-864.5127" x="195.92816 202.71482 207.41472 212.44362 218.76029 223.32859 228.35749 233.38639 239.91266 243.04279 249.41585 253.58936 258.37385 262.08677 267.11567 272.14457 276.31809">&#x041f;&#x0443;&#x043f;&#x044b;&#x043a;&#x0438;&#x043d;&#x0430;(&#x041b;&#x0430;&#x0431;&#x0437;&#x0438;&#x043d;&#x0430;)</tspan><tspan y="-854.1024" x="195.92816 204.28459 208.21559 212.43704 217.13695 221.83686 226.86576 233.3892 239.79987 245.74994 250.77884 255.00312 259.703 264.7319 268.90544 273.34214 278.37104">&#x041c;&#x0430;&#x0442;&#x0440;&#x043e;&#x043d;&#x0430;&#x0414;&#x043c;&#x0438;&#x0442;&#x0440;&#x0438;&#x0435;&#x0432;&#x043d;&#x0430;</tspan><tspan y="-843.69216" x="201.01346 205.71337 210.41327 215.11318 195.92816">1870~</tspan></text>
<text fill="#231f20" xml:space="preserve" transform="matrix(1 0 -0 1 0 1684)" font-size="7.5197" font-family="TimesNewRomanPSMT"><tspan y="-834.9564" x="195.929 199.6896 203.7134 207.47324 211.2331">&#x0443;&#x043f;.90</tspan></text>
<text fill="#231f20" xml:space="preserve" transform="matrix(1 0 -0 1 0 1684)" font-size="9.3998" font-family="TimesNewRomanPSMT"><tspan y="-808.4534" x="211.3006 218.08725 222.78716 227.81606 234.13272 238.70102 243.72992 251.10877 257.89543 262.06895 266.2951">&#x041f;&#x0443;&#x043f;&#x044b;&#x043a;&#x0438;&#x043d;&#x041f;&#x0435;&#x0442;&#x0440;</tspan><tspan y="-798.04318" x="211.3006 217.57027 221.74378 226.77268 230.82117 235.60567 240.63457 245.07785 249.06148 253.76139 258.1981 263.227">&#x0412;&#x0435;&#x043d;&#x0435;&#x0434;&#x0438;&#x043a;&#x0442;&#x043e;&#x0432;&#x0438;&#x0447;</tspan><tspan y="-787.6329" x="216.3859 221.0858 225.7857 230.48561 211.3006">1867~</tspan></text>
<text fill="#231f20" xml:space="preserve" transform="matrix(1 0 -0 1 0 1684)" font-size="7.5197" font-family="TimesNewRomanPSMT"><tspan y="-778.8976" x="211.3006 215.0612 219.08499 222.84484 226.60469">&#x0443;&#x043f;.90</tspan></text>
<text fill="#231f20" xml:space="preserve" transform="matrix(.000031915575 -1 1 .000031915575 0 1684)" font-size="9.3998" font-family="TimesNewRomanPSMT"><tspan y="304.24037" x="809.8754 814.5753 819.2752 821.6252 826.3251 831.02499">29.01.</tspan><tspan y="304.24034" x="833.37496">9</tspan><tspan y="304.24037" x="838.0748">0</tspan></text>
<text fill="#231f20" xml:space="preserve" transform="matrix(1 0 -0 1 0 1684)" font-size="9.3998" font-family="TimesNewRomanPSMT"><tspan y="-756.2256" x="210.8338 217.20687 221.38037 226.16487 229.87779 234.9067 242.28554 249.71138 253.7627 258.54719 263.24708">&#x041b;&#x0430;&#x0431;&#x0437;&#x0438;&#x043d;&#x0424;&#x0435;&#x0434;&#x043e;&#x0440;</tspan><tspan y="-745.8153" x="210.8338 217.24446 223.19454 228.22344 232.44676 237.14667 242.17557 246.34908 250.78578 255.81468">&#x0414;&#x043c;&#x0438;&#x0442;&#x0440;&#x0438;&#x0435;&#x0432;&#x0438;&#x0447;</tspan><tspan y="-735.405" x="210.8338 215.9191 220.619 225.31891 230.01882">~1870</tspan></text>
<text fill="#231f20" xml:space="preserve" transform="matrix(1 0 -0 1 0 1684)" font-size="7.5197" font-family="TimesNewRomanPSMT"><tspan y="-726.6698" x="210.8338 214.5944 218.6182">&#x0443;&#x043f;.</tspan></text>
<text fill="#231f20" xml:space="preserve" transform="matrix(1 0 -0 1 0 1684)" font-size="9.3998" font-family="TimesNewRomanPSMT"><tspan y="-702.0823" x="197.0934 203.46646 207.63997 212.42447 216.13739 221.16629 226.19519 232.71959 235.84972 242.11939 247.14829 253.09836 257.79826 262.82716 267.52705 271.8434 276.01695">&#x041b;&#x0430;&#x0431;&#x0437;&#x0438;&#x043d;&#x0430;(&#x0421;&#x0438;&#x043c;&#x043e;&#x043d;&#x043e;&#x0432;&#x0430;)</tspan><tspan y="-691.672" x="197.0934 203.88005 208.05356 212.83806 217.01157 223.50684 228.29134 234.81479 240.011 244.18451 248.62122 253.32112 258.35 263.0405 267.7404 272.1771 277.206">&#x041d;&#x0430;&#x0434;&#x0435;&#x0436;&#x0434;&#x0430;&#x0413;&#x0430;&#x0432;&#x0440;&#x0438;&#x043b;&#x043e;&#x0432;&#x043d;&#x0430;</tspan><tspan y="-681.2617" x="197.0934 202.1787 206.8786 211.5785 216.27841">~1872</tspan></text>
<text fill="#231f20" xml:space="preserve" transform="matrix(1 0 -0 1 0 1684)" font-size="7.5197" font-family="TimesNewRomanPSMT"><tspan y="-672.5265" x="197.0934 200.854 204.87779">&#x0443;&#x043f;.</tspan></text>
<text fill="#231f20" xml:space="preserve" transform="matrix(.000031915575 -1 1 .000031915575 0 1684)" font-size="9.3998" font-family="TimesNewRomanPSMT"><tspan y="303.71653" x="700.8253 705.5252 710.2251 712.5751 717.27499 721.97488 724.3248 729.0247">15.02.88</tspan></text>
<text fill="#231f20" xml:space="preserve" transform="matrix(1 0 -0 1 0 1684)" font-size="9.3998" font-family="TimesNewRomanPSMT"><tspan y="-932.7704" x="204.9175 211.70415 215.40015 219.97597 225.92604 230.62595 234.93952 241.46297 249.8194 253.9929 258.6928 264.78388">&#x041d;&#x0430;&#x0443;&#x043c;&#x043e;&#x0432;&#x0430;&#x041c;&#x0430;&#x0440;&#x0444;&#x0430;</tspan><tspan y="-922.3601" x="204.9175 210.71906 215.41896 219.13188 223.4182 229.36827 234.39717 239.42607">&#x041a;&#x043e;&#x0437;&#x044c;&#x043c;&#x0438;&#x043d;&#x0430;</tspan></text>
<text fill="#231f20" xml:space="preserve" transform="matrix(1 0 -0 1 0 1684)" font-size="7.5197" font-family="TimesNewRomanPSMT"><tspan y="-922.36" x="245.9496 249.70946 253.7325 257.49235 261.2522 265.01206 267.5161 271.34364">&#x0443;&#x043f;.88(&#x0434;)</tspan></text>
<text fill="#231f20" xml:space="preserve" transform="matrix(1 0 -0 1 0 1684)" font-size="9.3998" font-family="TimesNewRomanPSMT"><tspan y="-1022.5966" x="357.8505 365.27635 369.32484 374.1093 378.8092 385.8581 390.55799 395.25788 397.60783 402.3077 407.0076 409.35755 414.05744">&#x0424;&#x0435;&#x0434;&#x043e;&#x0440;16.05.86</tspan><tspan y="-899.275" x="196.56685 203.3535 207.0495 211.62532 217.5754 222.2753 226.58792">&#x041d;&#x0430;&#x0443;&#x043c;&#x043e;&#x0432;&#x0430;</tspan><tspan y="-888.86477" x="196.56685 202.31012 208.40119 213.10109 218.03318 222.20668 227.23558 232.26448 236.5508 243.22466 249.02809 253.728 257.44093 261.72724 267.6773 272.7062 277.7351">&#x0415;&#x0444;&#x0440;&#x043e;&#x0441;&#x0438;&#x043d;&#x044c;&#x044f;&#x041a;&#x043e;&#x0437;&#x044c;&#x043c;&#x0438;&#x043d;&#x0430;</tspan><tspan y="-1652.013" x="194.03737 200.82402 204.99753 209.21993 216.26978 220.96968 225.66959 228.01953 232.71944 237.41934 239.76929 244.4692 249.1691 252.29923 256.9991 261.699 264.04896 268.74885 273.44874 275.79869 280.49858">&#x041f;&#x0435;&#x0442;&#x0440;24.06.81-27.07.83</tspan><tspan y="-1591.1013" x="208.47922 216.83565 221.00916 225.70906 230.73796 237.41371 242.11362 246.81352 249.16347 253.86338 258.56327 260.9132 265.6131">&#x041c;&#x0430;&#x0440;&#x0438;&#x044f;26.03.90</tspan><tspan y="-1353.5158" x="57.77034 65.894588 70.470409 75.160907 79.59009 84.37459 89.40348 94.10338">&#x041c;&#x043e;&#x043b;&#x043e;&#x0434;&#x0446;&#x043e;&#x0432;</tspan><tspan y="-1343.1055" x="57.77034 64.557 68.730518 73.114589 77.2881 84.32855 91.11521 95.28873 99.51018 104.210079 108.90997 113.34668 118.37557">&#x041f;&#x0430;&#x0432;&#x0435;&#x043b;&#x041f;&#x0435;&#x0442;&#x0440;&#x043e;&#x0432;&#x0438;&#x0447;</tspan></text>
<text fill="#231f20" xml:space="preserve" transform="matrix(1 0 -0 1 0 1684)" font-size="7.5197" font-family="TimesNewRomanPSMT"><tspan y="-1334.3705" x="57.7703 61.53015 65.55319 69.31305 73.0729 76.83275 78.71268 82.47253 86.232379 88.112308 91.872158 95.632 97.51193 101.27178">&#x0443;&#x043f;.80,81,83,85</tspan></text>
<text fill="#231f20" xml:space="preserve" transform="matrix(1 0 -0 1 0 1684)" font-size="9.3998" font-family="TimesNewRomanPSMT"><tspan y="-1311.346" x="50.2384 58.362649 62.938474 67.628978 72.05816 76.84266 81.87155 86.57145 90.885959">&#x041c;&#x043e;&#x043b;&#x043e;&#x0434;&#x0446;&#x043e;&#x0432;&#x0430;</tspan><tspan y="-1300.9357" x="50.2384 57.025056 60.878976 65.57887 70.607769 75.63666 80.66555 85.69444 92.2179 99.00456 103.17807 107.40892 112.10882 116.808719 121.24542 126.274318">&#x0410;&#x0433;&#x0440;&#x0438;&#x043f;&#x0438;&#x043d;&#x0430;&#x041f;&#x0435;&#x0442;&#x0440;&#x043e;&#x0432;&#x043d;&#x0430;</tspan><tspan y="-1290.5254" x="50.2384 55.323694 60.023595 64.723499 69.42339">~1857</tspan></text>
<text fill="#231f20" xml:space="preserve" transform="matrix(1 0 -0 1 0 1684)" font-size="7.5197" font-family="TimesNewRomanPSMT"><tspan y="-1281.79" x="50.2384 53.999 58.022794 61.782644 65.54249">&#x0443;&#x043f;.83</tspan></text>
<text fill="#231f20" xml:space="preserve" transform="matrix(1 0 -0 1 0 1684)" font-size="9.3998" font-family="TimesNewRomanPSMT"><tspan y="-1576.8573" x="54.0839 60.870557 65.194469 69.30218 73.87048 78.899379 86.27822 92.54789 97.23839 101.411899 106.196399 111.22529 117.17536 122.204257">&#x041f;&#x044f;&#x0442;&#x043a;&#x0438;&#x043d;&#x0412;&#x043b;&#x0430;&#x0434;&#x0438;&#x043c;&#x0438;&#x0440;</tspan><tspan y="-1566.447" x="54.0839 60.870557 65.89945 70.46776 75.49665 81.58772 86.28762 90.98752 95.687419 100.12412 105.153018">&#x041d;&#x0438;&#x043a;&#x0438;&#x0444;&#x043e;&#x0440;&#x043e;&#x0432;&#x0438;&#x0447;</tspan></text>
<text fill="#231f20" xml:space="preserve" transform="matrix(1 0 -0 1 0 1684)" font-size="7.5197" font-family="TimesNewRomanPSMT"><tspan y="-1557.7119" x="54.0839 57.8445 61.868295 93.827777 97.58762 65.62814 69.38799 73.14784 75.02777 78.78762 82.54747 84.4274 88.18725 91.9471">&#x0443;&#x043f;.9083,87,88,</tspan></text>
<text fill="#231f20" xml:space="preserve" transform="matrix(1 0 -0 1 0 1684)" font-size="9.3998" font-family="TimesNewRomanPSMT"><tspan y="-1238.4614" x="210.6758 217.46245 222.49135 227.05965 232.08855 236.19626 241.22516 248.604 254.87368 258.96919 263.66908">&#x041d;&#x0438;&#x043a;&#x0438;&#x0442;&#x0438;&#x043d;&#x042f;&#x043a;&#x043e;&#x0432;</tspan><tspan y="-1228.0512" x="210.6758 216.94547 221.64537 227.73644 232.43634 237.13625 242.16515 246.86505 251.30176 256.33067">&#x0421;&#x043e;&#x0444;&#x0440;&#x043e;&#x043d;&#x043e;&#x0432;&#x0438;&#x0447;</tspan></text>
<text fill="#231f20" xml:space="preserve" transform="matrix(1 0 -0 1 0 1684)" font-size="7.5197" font-family="TimesNewRomanPSMT"><tspan y="-1219.3159" x="210.6758 214.43566 218.4587 220.33863 224.09848 227.85834 229.73827 233.49813">&#x0443;&#x043f;.79,80</tspan></text>
<text fill="#231f20" xml:space="preserve" transform="matrix(1 0 -0 1 0 1684)" font-size="9.3998" font-family="TimesNewRomanPSMT"><tspan y="-845.8521" x="339.2369 346.02357 350.72346 355.75236 362.06904 366.63734 371.66624 376.69514 383.2186 390.00526 393.85917 398.55906 403.58796 408.61686 413.64576 418.67466 423.37455 427.81126 432.84016">&#x041f;&#x0443;&#x043f;&#x044b;&#x043a;&#x0438;&#x043d;&#x0430;&#x0410;&#x0433;&#x0440;&#x0438;&#x043f;&#x0438;&#x043d;&#x043e;&#x0432;&#x043d;&#x0430;</tspan><tspan y="-835.44186" x="339.2369 345.50657 349.68009 354.70899 358.75749 363.54197 368.57087 373.01414 376.99778 381.69767 386.13438 391.16328">&#x0412;&#x0435;&#x043d;&#x0435;&#x0434;&#x0438;&#x043a;&#x0442;&#x043e;&#x0432;&#x043d;&#x0430;</tspan></text>
<text fill="#231f20" xml:space="preserve" transform="matrix(1 0 -0 1 0 1684)" font-size="7.5197" font-family="TimesNewRomanPSMT"><tspan y="-826.7066" x="339.2369 342.99678 347.0198 350.77964 354.5395 358.29936 360.17927 363.93913">&#x0443;&#x043f;.84,90</tspan></text>
<text fill="#231f20" xml:space="preserve" transform="matrix(1 0 -0 1 0 1684)" font-size="9.3998" font-family="TimesNewRomanPSMT"><tspan y="-804.3738" x="338.4079 345.19456 349.51847 353.6262 358.1945 363.2234 368.2523 374.77766 377.90779 384.69444 389.39433 394.42323 400.7399 405.3082 410.3371 415.366 419.53953">&#x041f;&#x044f;&#x0442;&#x043a;&#x0438;&#x043d;&#x0430;(&#x041f;&#x0443;&#x043f;&#x044b;&#x043a;&#x0438;&#x043d;&#x0430;)</tspan><tspan y="-793.9635" x="338.4079 345.19456 349.36808 354.06797 358.2415 362.415 366.74549 370.919 375.23258 381.75605 388.0257 392.19923 397.22813 401.2757 406.06019 411.08909 415.53236 419.516 424.21589 428.6526 433.6815">&#x041f;&#x0435;&#x0440;&#x0430;&#x0441;&#x043a;&#x0435;&#x0432;&#x0430;&#x0412;&#x0435;&#x043d;&#x0435;&#x0434;&#x0438;&#x043a;&#x0442;&#x043e;&#x0432;&#x043d;&#x0430;</tspan><tspan y="-702.8014" x="345.72377 352.5104 357.2103 362.2392 368.55589 373.12419 378.15309 385.53193 391.80158 395.9751 400.14863 405.17753 409.868 414.8969">&#x041f;&#x0443;&#x043f;&#x044b;&#x043a;&#x0438;&#x043d;&#x0412;&#x0430;&#x0441;&#x0438;&#x043b;&#x0438;&#x0439;</tspan><tspan y="-692.3911" x="345.72377 351.9934 356.16694 361.19584 365.24433 370.0288 375.0577 379.50099 383.48463 388.1845 392.62123 397.65013">&#x0412;&#x0435;&#x043d;&#x0435;&#x0434;&#x0438;&#x043a;&#x0442;&#x043e;&#x0432;&#x0438;&#x0447;</tspan></text>
<text fill="#231f20" xml:space="preserve" transform="matrix(1 0 -0 1 0 1684)" font-size="7.5197" font-family="TimesNewRomanPSMT"><tspan y="-692.3914" x="409.4316 413.19148 417.2145 420.97434 424.7342 428.49406 430.37397 434.13383">&#x0443;&#x043f;.79,84</tspan></text>
<text fill="#231f20" xml:space="preserve" transform="matrix(1 0 -0 1 0 1684)" font-size="9.3998" font-family="TimesNewRomanPSMT"><tspan y="-669.1666" x="338.5539 345.34056 350.04045 355.06935 361.38603 365.9543 370.98323 376.01213">&#x041f;&#x0443;&#x043f;&#x044b;&#x043a;&#x0438;&#x043d;&#x0430;</tspan><tspan y="-658.75637" x="338.5539 346.9103 351.08384 355.78373 361.8748 368.39826 375.8241 380.853 385.5435 390.5724 395.6013 400.30119 404.73789 409.76679">&#x041c;&#x0430;&#x0440;&#x0444;&#x0430;&#x0424;&#x0438;&#x043b;&#x0438;&#x043f;&#x043e;&#x0432;&#x043d;&#x0430;</tspan></text>
<text fill="#231f20" xml:space="preserve" transform="matrix(1 0 -0 1 0 1684)" font-size="8.4598" font-family="TimesNewRomanPSMT"><tspan y="-669.1666" x="382.5377 385.3548 391.46278 395.10813 399.41416 403.64405 407.87394 411.73078 415.0724 418.82856 423.35456 427.58445 431.46833 435.2245">(&#x041d;&#x0435;&#x0434;&#x043e;&#x0440;&#x0435;&#x0437;&#x0430;&#x043d;&#x043e;&#x0432;&#x0430;)</tspan></text>
<text fill="#231f20" xml:space="preserve" transform="matrix(1 0 -0 1 0 1684)" font-size="9.3998" font-family="TimesNewRomanPSMT"><tspan y="-648.3457" x="338.5539 343.6392 348.33909 353.03898 356.1691 360.869 365.56889 367.91883 372.6187 377.3186 379.66856 384.36845">~59-27.01.86</tspan></text>
<text fill="#231f20" xml:space="preserve" transform="matrix(1 0 -0 1 0 1684)" font-size="7.5197" font-family="TimesNewRomanPSMT"><tspan y="-639.6107" x="338.5539 342.31449 346.3383 350.09815 353.85798">&#x0443;&#x043f;.79</tspan></text>
<text fill="#231f20" xml:space="preserve" transform="matrix(1 0 -0 1 0 1684)" font-size="9.3998" font-family="TimesNewRomanPSMT"><tspan y="-615.0233" x="345.8116 352.59828 356.64866 361.43315 366.13304 370.83293 375.1183 378.8312 383.00474 388.03364 392.73353">&#x041d;&#x0435;&#x0434;&#x043e;&#x0440;&#x0435;&#x0437;&#x0430;&#x043d;&#x043e;&#x0432;</tspan><tspan y="-604.61306" x="345.8116 352.2223 358.17237 363.20127 367.42463 372.1245 377.1534 384.53227 391.9581 396.987 401.6775 406.7064 411.7353 416.43519 420.8719 425.9008">&#x0414;&#x043c;&#x0438;&#x0442;&#x0440;&#x0438;&#x0439;&#x0424;&#x0438;&#x043b;&#x0438;&#x043f;&#x043e;&#x0432;&#x0438;&#x0447;</tspan><tspan y="-683.26028" x="506.7343 513.521 518.2209 522.3944 527.4233 534.80587 539.50576 544.2056 546.5556 551.2555 555.9554 558.30538 563.00527">&#x0418;&#x043e;&#x0430;&#x043d;&#x043d;25.08.79</tspan></text>
<path transform="matrix(1,0,0,-1,22.656,30.82898)" stroke-width=".94" stroke-linecap="butt" stroke-miterlimit="22.926" stroke-linejoin="miter" fill="none" stroke="#231f20" d="M 0 0 L 13.536 0 "/>
<path transform="matrix(1,0,0,-1,29.424,71.43698)" stroke-width=".94" stroke-linecap="butt" stroke-miterlimit="22.926" stroke-linejoin="miter" fill="none" stroke="#231f20" d="M 0 0 L 0 -40.607 "/>
<path transform="matrix(1,0,0,-1,144.479,78.20498)" stroke-width=".94" stroke-linecap="butt" stroke-miterlimit="22.926" stroke-linejoin="miter" fill="none" stroke="#231f20" d="M 0 0 L 13.536 0 "/>
<path transform="matrix(1,0,0,-1,144.479,30.829979)" stroke-width=".94" stroke-linecap="butt" stroke-miterlimit="22.926" stroke-linejoin="miter" fill="none" stroke="#231f20" d="M 0 0 L 13.536 0 "/>
<path transform="matrix(1,0,0,-1,158.015,30.829979)" stroke-width=".94" stroke-linecap="butt" stroke-miterlimit="22.926" stroke-linejoin="miter" fill="none" stroke="#231f20" d="M 0 0 L 0 -47.375 "/>
<path transform="matrix(1,0,0,-1,36.193,138.10398)" stroke-width=".94" stroke-linecap="butt" stroke-miterlimit="22.926" stroke-linejoin="miter" fill="none" stroke="#231f20" d="M 0 0 L 108.287 0 L 108.287 -27.072 L 0 -27.072 Z "/>
<path transform="matrix(1,0,0,-1,36.193,16.281975)" stroke-width=".94" stroke-linecap="butt" stroke-miterlimit="22.926" stroke-linejoin="miter" fill="none" stroke="#231f20" d="M 0 0 L 108.287 0 L 108.287 -33.839 L 0 -33.839 Z "/>
<path transform="matrix(1,0,0,-1,36.193,320.83799)" stroke-width=".94" stroke-linecap="butt" stroke-miterlimit="22.926" stroke-linejoin="miter" fill="none" stroke="#231f20" d="M 0 0 L 108.287 0 L 108.287 -33.839 L 0 -33.839 Z "/>
<path transform="matrix(1,0,0,-1,36.193,56.888978)" stroke-width=".94" stroke-linecap="butt" stroke-miterlimit="22.926" stroke-linejoin="miter" fill="none" stroke="#231f20" d="M 0 0 L 108.287 0 L 108.287 -33.84 L 0 -33.84 Z "/>
<path transform="matrix(1,0,0,-1,29.425002,71.43698)" stroke-width=".94" stroke-linecap="butt" stroke-miterlimit="22.926" stroke-linejoin="miter" fill="none" stroke="#231f20" d="M 0 0 L 6.768 0 "/>
<path transform="matrix(1,0,0,-1,29.425002,112.043979)" stroke-width=".94" stroke-linecap="butt" stroke-miterlimit="22.926" stroke-linejoin="miter" fill="none" stroke="#231f20" d="M 0 0 L 6.768 0 "/>
<path transform="matrix(1,0,0,-1,36.193,97.49597)" stroke-width=".94" stroke-linecap="butt" stroke-miterlimit="22.926" stroke-linejoin="miter" fill="none" stroke="#231f20" d="M 0 0 L 108.287 0 L 108.287 -33.84 L 0 -33.84 Z "/>
<path transform="matrix(1,0,0,-1,22.657002,30.829972)" stroke-width=".94" stroke-linecap="butt" stroke-miterlimit="22.926" stroke-linejoin="miter" fill="none" stroke="#231f20" d="M 0 0 L 0 -622.648 "/>
<path transform="matrix(1,0,0,-1,158.015,51.132974)" stroke-width=".94" stroke-linecap="butt" stroke-miterlimit="22.926" stroke-linejoin="miter" fill="none" stroke="#231f20" d="M 0 0 L 13.536 0 "/>
<path transform="matrix(1,0,0,-1,171.551,30.829974)" stroke-width=".94" stroke-linecap="butt" stroke-miterlimit="22.926" stroke-linejoin="miter" fill="none" stroke="#231f20" d="M 0 0 L 0 -60.911 "/>
<path transform="matrix(1,0,0,-1,171.551,30.829974)" stroke-width=".94" stroke-linecap="butt" stroke-miterlimit="22.926" stroke-linejoin="miter" fill="none" stroke="#231f20" d="M 0 0 L 13.536 0 "/>
<path transform="matrix(1,0,0,-1,171.551,51.133974)" stroke-width=".94" stroke-linecap="butt" stroke-miterlimit="22.926" stroke-linejoin="miter" fill="none" stroke="#231f20" d="M 0 0 L 13.536 0 "/>
<path transform="matrix(1,0,0,-1,171.551,71.43797)" stroke-width=".94" stroke-linecap="butt" stroke-miterlimit="22.926" stroke-linejoin="miter" fill="none" stroke="#231f20" d="M 0 0 L 13.536 0 "/>
<path transform="matrix(1,0,0,-1,171.551,91.741977)" stroke-width=".94" stroke-linecap="butt" stroke-miterlimit="22.926" stroke-linejoin="miter" fill="none" stroke="#231f20" d="M 0 0 L 13.536 0 "/>
<text fill="#231f20" xml:space="preserve" transform="matrix(1 0 -0 1 0 1684)" font-size="9.3998" font-family="TimesNewRomanPSMT"><tspan y="-1536.2499" x="54.0839 60.870557 65.194469 69.30218 73.87048 78.899379 83.92827 90.453609 93.58374">&#x041f;&#x044f;&#x0442;&#x043a;&#x0438;&#x043d;&#x0430;()</tspan><tspan y="-1525.8396" x="54.0839 62.440324 66.61383 71.31373 76.34262 83.01648 89.38954 93.56305 97.999759 102.69965 106.87317 111.90206 116.00977 120.29608 124.46959 128.9063 133.9352">&#x041c;&#x0430;&#x0440;&#x0438;&#x044f;&#x041b;&#x0430;&#x0432;&#x0440;&#x0435;&#x043d;&#x0442;&#x044c;&#x0435;&#x0432;&#x043d;&#x0430;</tspan></text>
<path transform="matrix(1,0,0,-1,144.478,159.41895)" stroke-width=".94" stroke-linecap="butt" stroke-miterlimit="22.926" stroke-linejoin="miter" fill="none" stroke="#231f20" d="M 0 0 L 13.536 0 "/>
<path transform="matrix(1,0,0,-1,144.478,112.043949)" stroke-width=".94" stroke-linecap="butt" stroke-miterlimit="22.926" stroke-linejoin="miter" fill="none" stroke="#231f20" d="M 0 0 L 13.536 0 "/>
<path transform="matrix(1,0,0,-1,158.01399,112.043949)" stroke-width=".94" stroke-linecap="butt" stroke-miterlimit="22.926" stroke-linejoin="miter" fill="none" stroke="#231f20" d="M 0 0 L 0 -47.375 "/>
<path transform="matrix(1,0,0,-1,185.086,23.047944)" stroke-width=".94" stroke-linecap="butt" stroke-miterlimit="22.926" stroke-linejoin="miter" fill="none" stroke="#231f20" d="M 0 0 L 108.287 0 L 108.287 -13.536 L 0 -13.536 Z "/>
<path transform="matrix(1,0,0,-1,185.086,43.351945)" stroke-width=".94" stroke-linecap="butt" stroke-miterlimit="22.926" stroke-linejoin="miter" fill="none" stroke="#231f20" d="M 0 0 L 108.287 0 L 108.287 -13.536 L 0 -13.536 Z "/>
<path transform="matrix(1,0,0,-1,185.086,63.655946)" stroke-width=".94" stroke-linecap="butt" stroke-miterlimit="22.926" stroke-linejoin="miter" fill="none" stroke="#231f20" d="M 0 0 L 108.287 0 L 108.287 -13.536 L 0 -13.536 Z "/>
<path transform="matrix(1,0,0,-1,185.086,83.959949)" stroke-width=".94" stroke-linecap="butt" stroke-miterlimit="22.926" stroke-linejoin="miter" fill="none" stroke="#231f20" d="M 0 0 L 108.287 0 L 108.287 -13.536 L 0 -13.536 Z "/>
<text fill="#231f20" xml:space="preserve" transform="matrix(1 0 -0 1 0 1684)" font-size="9.3998" font-family="TimesNewRomanPSMT"><tspan y="-1563.0889" x="186.7328 193.00247 197.17598 201.34949 206.37839 211.0689 216.0978 223.47946 228.17937 232.87928 235.22922 239.92913 244.62903 246.97898 251.67888 256.37879 259.5089 263.86009 268.55998 270.9099 275.6098 280.3097 282.65965 287.35954">&#x0412;&#x0430;&#x0441;&#x0438;&#x043b;&#x0438;&#x0439;26.01.80-11.08.80</tspan></text>
<path transform="matrix(1,0,0,-1,171.55,118.81201)" stroke-width=".94" stroke-linecap="butt" stroke-miterlimit="22.926" stroke-linejoin="miter" fill="none" stroke="#231f20" d="M 0 0 L 13.536 0 "/>
<path transform="matrix(1,0,0,-1,185.086,111.03101)" stroke-width=".94" stroke-linecap="butt" stroke-miterlimit="22.926" stroke-linejoin="miter" fill="none" stroke="#231f20" d="M 0 0 L 108.287 0 L 108.287 -13.536 L 0 -13.536 Z "/>
<path transform="matrix(1,0,0,-1,158.01399,118.81201)" stroke-width=".94" stroke-linecap="butt" stroke-miterlimit="22.926" stroke-linejoin="miter" fill="none" stroke="#231f20" d="M 0 0 L 13.536 0 "/>
<path transform="matrix(1,0,0,-1,36.191995,171.94301)" stroke-width=".94" stroke-linecap="butt" stroke-miterlimit="22.926" stroke-linejoin="miter" fill="none" stroke="#231f20" d="M 0 0 L 108.287 0 L 108.287 -33.839 L 0 -33.839 Z "/>
<path transform="matrix(1,0,0,-1,144.479,186.49102)" stroke-width=".94" stroke-linecap="butt" stroke-miterlimit="22.926" stroke-linejoin="miter" fill="none" stroke="#231f20" d="M 0 0 L 13.536 0 "/>
<path transform="matrix(1,0,0,-1,36.192,212.55002)" stroke-width=".94" stroke-linecap="butt" stroke-miterlimit="22.926" stroke-linejoin="miter" fill="none" stroke="#231f20" d="M 0 0 L 108.287 0 L 108.287 -47.375 L 0 -47.375 Z "/>
<path transform="matrix(1,0,0,-1,22.656002,233.86602)" stroke-width=".94" stroke-linecap="butt" stroke-miterlimit="22.926" stroke-linejoin="miter" fill="none" stroke="#231f20" d="M 0 0 L 13.536 0 "/>
<path transform="matrix(1,0,0,-1,36.192,266.69303)" stroke-width=".94" stroke-linecap="butt" stroke-miterlimit="22.926" stroke-linejoin="miter" fill="none" stroke="#231f20" d="M 0 0 L 108.287 0 L 108.287 -47.375 L 0 -47.375 Z "/>
<path transform="matrix(1,0,0,-1,144.479,233.86603)" stroke-width=".94" stroke-linecap="butt" stroke-miterlimit="22.926" stroke-linejoin="miter" fill="none" stroke="#231f20" d="M 0 0 L 13.536 0 "/>
<path transform="matrix(1,0,0,-1,144.479,288.00904)" stroke-width=".94" stroke-linecap="butt" stroke-miterlimit="22.926" stroke-linejoin="miter" fill="none" stroke="#231f20" d="M 0 0 L 13.536 0 "/>
<path transform="matrix(1,0,0,-1,158.015,186.49103)" stroke-width=".94" stroke-linecap="butt" stroke-miterlimit="22.926" stroke-linejoin="miter" fill="none" stroke="#231f20" d="M 0 0 L 0 -101.518 "/>
<path transform="matrix(1,0,0,-1,158.015,247.40203)" stroke-width=".94" stroke-linecap="butt" stroke-miterlimit="22.926" stroke-linejoin="miter" fill="none" stroke="#231f20" d="M 0 0 L 13.536 0 "/>
<path transform="matrix(1,0,0,-1,171.551,220.33002)" stroke-width=".94" stroke-linecap="butt" stroke-miterlimit="22.926" stroke-linejoin="miter" fill="none" stroke="#231f20" d="M 0 0 L 0 -121.822 "/>
<path transform="matrix(1,0,0,-1,171.551,220.33002)" stroke-width=".94" stroke-linecap="butt" stroke-miterlimit="22.926" stroke-linejoin="miter" fill="none" stroke="#231f20" d="M 0 0 L 13.536 0 "/>
<path transform="matrix(1,0,0,-1,171.551,342.152)" stroke-width=".94" stroke-linecap="butt" stroke-miterlimit="22.926" stroke-linejoin="miter" fill="none" stroke="#231f20" d="M 0 0 L 13.536 0 "/>
<path transform="matrix(1,0,0,-1,171.551,240.63301)" stroke-width=".94" stroke-linecap="butt" stroke-miterlimit="22.926" stroke-linejoin="miter" fill="none" stroke="#231f20" d="M 0 0 L 13.536 0 "/>
<path transform="matrix(1,0,0,-1,171.551,301.544)" stroke-width=".94" stroke-linecap="butt" stroke-miterlimit="22.926" stroke-linejoin="miter" fill="none" stroke="#231f20" d="M 0 0 L 13.536 0 "/>
<path transform="matrix(1,0,0,-1,185.08699,212.54901)" stroke-width=".94" stroke-linecap="butt" stroke-miterlimit="22.926" stroke-linejoin="miter" fill="none" stroke="#231f20" d="M 0 0 L 108.287 0 L 108.287 -13.536 L 0 -13.536 Z "/>
<path transform="matrix(1,0,0,-1,185.08699,334.371)" stroke-width=".94" stroke-linecap="butt" stroke-miterlimit="22.926" stroke-linejoin="miter" fill="none" stroke="#231f20" d="M 0 0 L 108.287 0 L 108.287 -13.536 L 0 -13.536 Z "/>
<path transform="matrix(1,0,0,-1,185.08699,273.46)" stroke-width=".94" stroke-linecap="butt" stroke-miterlimit="22.926" stroke-linejoin="miter" fill="none" stroke="#231f20" d="M 0 0 L 108.287 0 L 108.287 -13.536 L 0 -13.536 Z "/>
<path transform="matrix(1,0,0,-1,185.08699,293.76399)" stroke-width=".94" stroke-linecap="butt" stroke-miterlimit="22.926" stroke-linejoin="miter" fill="none" stroke="#231f20" d="M 0 0 L 108.287 0 L 108.287 -13.536 L 0 -13.536 Z "/>
<path transform="matrix(1,0,0,-1,185.08699,314.068)" stroke-width=".94" stroke-linecap="butt" stroke-miterlimit="22.926" stroke-linejoin="miter" fill="none" stroke="#231f20" d="M 0 0 L 108.287 0 L 108.287 -13.536 L 0 -13.536 Z "/>
<path transform="matrix(1,0,0,-1,171.551,321.848)" stroke-width=".94" stroke-linecap="butt" stroke-miterlimit="22.926" stroke-linejoin="miter" fill="none" stroke="#231f20" d="M 0 0 L 13.536 0 "/>
<path transform="matrix(1,0,0,-1,293.373,281.241)" stroke-width=".94" stroke-linecap="butt" stroke-miterlimit="22.926" stroke-linejoin="miter" fill="none" stroke="#231f20" d="M 0 0 L 13.536 0 "/>
<path transform="matrix(1,0,0,-1,293.373,240.633)" stroke-width=".94" stroke-linecap="butt" stroke-miterlimit="22.926" stroke-linejoin="miter" fill="none" stroke="#231f20" d="M 0 0 L 13.536 0 "/>
<path transform="matrix(1,0,0,-1,306.909,240.633)" stroke-width=".94" stroke-linecap="butt" stroke-miterlimit="22.926" stroke-linejoin="miter" fill="none" stroke="#231f20" d="M 0 0 L 0 -40.607 "/>
<path transform="matrix(1,0,0,-1,320.445,247.401)" stroke-width=".94" stroke-linecap="butt" stroke-miterlimit="22.926" stroke-linejoin="miter" fill="none" stroke="#231f20" d="M 0 0 L 13.536 0 "/>
<path transform="matrix(1,0,0,-1,306.909,247.401)" stroke-width=".94" stroke-linecap="butt" stroke-miterlimit="22.926" stroke-linejoin="miter" fill="none" stroke="#231f20" d="M 0 0 L 13.536 0 "/>
<path transform="matrix(1,0,0,-1,185.087,232.853)" stroke-width=".94" stroke-linecap="butt" stroke-miterlimit="22.926" stroke-linejoin="miter" fill="none" stroke="#231f20" d="M 0 0 L 108.287 0 L 108.287 -33.84 L 0 -33.84 Z "/>
<path transform="matrix(1,0,0,-1,333.98103,232.853)" stroke-width=".94" stroke-linecap="butt" stroke-miterlimit="22.926" stroke-linejoin="miter" fill="none" stroke="#231f20" d="M 0 0 L 108.287 0 L 108.287 -33.84 L 0 -33.84 Z "/>
<path transform="matrix(1,0,0,-1,333.98103,273.461)" stroke-width=".94" stroke-linecap="butt" stroke-miterlimit="22.926" stroke-linejoin="miter" fill="none" stroke="#231f20" d="M 0 0 L 108.287 0 L 108.287 -33.84 L 0 -33.84 Z "/>
<path transform="matrix(1,0,0,-1,442.268,294.777)" stroke-width=".94" stroke-linecap="butt" stroke-miterlimit="22.926" stroke-linejoin="miter" fill="none" stroke="#231f20" d="M 0 0 L 13.536 0 "/>
<path transform="matrix(1,0,0,-1,442.268,247.40201)" stroke-width=".94" stroke-linecap="butt" stroke-miterlimit="22.926" stroke-linejoin="miter" fill="none" stroke="#231f20" d="M 0 0 L 13.536 0 "/>
<path transform="matrix(1,0,0,-1,455.80403,247.40201)" stroke-width=".94" stroke-linecap="butt" stroke-miterlimit="22.926" stroke-linejoin="miter" fill="none" stroke="#231f20" d="M 0 0 L 0 -47.375 "/>
<path transform="matrix(1,0,0,-1,455.80403,267.70503)" stroke-width=".94" stroke-linecap="butt" stroke-miterlimit="22.926" stroke-linejoin="miter" fill="none" stroke="#231f20" d="M 0 0 L 13.536 0 "/>
<path transform="matrix(1,0,0,-1,469.34004,247.40203)" stroke-width=".94" stroke-linecap="butt" stroke-miterlimit="22.926" stroke-linejoin="miter" fill="none" stroke="#231f20" d="M 0 0 L 0 -203.037 "/>
<path transform="matrix(1,0,0,-1,469.34004,247.40203)" stroke-width=".94" stroke-linecap="butt" stroke-miterlimit="22.926" stroke-linejoin="miter" fill="none" stroke="#231f20" d="M 0 0 L 13.536 0 "/>
<path transform="matrix(1,0,0,-1,469.34004,288.00904)" stroke-width=".94" stroke-linecap="butt" stroke-miterlimit="22.926" stroke-linejoin="miter" fill="none" stroke="#231f20" d="M 0 0 L 13.536 0 "/>
<path transform="matrix(1,0,0,-1,469.34004,369.22404)" stroke-width=".94" stroke-linecap="butt" stroke-miterlimit="22.926" stroke-linejoin="miter" fill="none" stroke="#231f20" d="M 0 0 L 13.536 0 "/>
<path transform="matrix(1,0,0,-1,469.34004,328.61705)" stroke-width=".94" stroke-linecap="butt" stroke-miterlimit="22.926" stroke-linejoin="miter" fill="none" stroke="#231f20" d="M 0 0 L 13.536 0 "/>
<path transform="matrix(1,0,0,-1,482.87605,232.85404)" stroke-width=".94" stroke-linecap="butt" stroke-miterlimit="22.926" stroke-linejoin="miter" fill="none" stroke="#231f20" d="M 0 0 L 108.287 0 L 108.287 -33.84 L 0 -33.84 Z "/>
<path transform="matrix(1,0,0,-1,482.87605,273.46205)" stroke-width=".94" stroke-linecap="butt" stroke-miterlimit="22.926" stroke-linejoin="miter" fill="none" stroke="#231f20" d="M 0 0 L 108.287 0 L 108.287 -33.84 L 0 -33.84 Z "/>
<path transform="matrix(1,0,0,-1,482.87605,314.07005)" stroke-width=".94" stroke-linecap="butt" stroke-miterlimit="22.926" stroke-linejoin="miter" fill="none" stroke="#231f20" d="M 0 0 L 108.287 0 L 108.287 -33.839 L 0 -33.839 Z "/>
<path transform="matrix(1,0,0,-1,482.87605,354.67704)" stroke-width=".94" stroke-linecap="butt" stroke-miterlimit="22.926" stroke-linejoin="miter" fill="none" stroke="#231f20" d="M 0 0 L 108.287 0 L 108.287 -33.84 L 0 -33.84 Z "/>
<path transform="matrix(1,0,0,-1,482.87605,395.28504)" stroke-width=".94" stroke-linecap="butt" stroke-miterlimit="22.926" stroke-linejoin="miter" fill="none" stroke="#231f20" d="M 0 0 L 108.287 0 L 108.287 -33.84 L 0 -33.84 Z "/>
<path transform="matrix(1,0,0,-1,482.87605,435.89204)" stroke-width=".94" stroke-linecap="butt" stroke-miterlimit="22.926" stroke-linejoin="miter" fill="none" stroke="#231f20" d="M 0 0 L 108.287 0 L 108.287 -33.84 L 0 -33.84 Z "/>
<path transform="matrix(1,0,0,-1,469.34004,409.83305)" stroke-width=".94" stroke-linecap="butt" stroke-miterlimit="22.926" stroke-linejoin="miter" fill="none" stroke="#231f20" d="M 0 0 L 13.536 0 "/>
<path transform="matrix(1,0,0,-1,469.34004,450.44004)" stroke-width=".94" stroke-linecap="butt" stroke-miterlimit="22.926" stroke-linejoin="miter" fill="none" stroke="#231f20" d="M 0 0 L 13.536 0 "/>
<path transform="matrix(1,0,0,-1,36.193025,361.44505)" stroke-width=".94" stroke-linecap="butt" stroke-miterlimit="22.926" stroke-linejoin="miter" fill="none" stroke="#231f20" d="M 0 0 L 108.287 0 L 108.287 -47.375 L 0 -47.375 Z "/>
<path transform="matrix(1,0,0,-1,29.425024,288.01106)" stroke-width=".94" stroke-linecap="butt" stroke-miterlimit="22.926" stroke-linejoin="miter" fill="none" stroke="#231f20" d="M 0 0 L 0 -94.75 "/>
<path transform="matrix(1,0,0,-1,29.425024,288.01106)" stroke-width=".94" stroke-linecap="butt" stroke-miterlimit="22.926" stroke-linejoin="miter" fill="none" stroke="#231f20" d="M 0 0 L 6.768 0 "/>
<path transform="matrix(1,0,0,-1,29.425024,335.38606)" stroke-width=".94" stroke-linecap="butt" stroke-miterlimit="22.926" stroke-linejoin="miter" fill="none" stroke="#231f20" d="M 0 0 L 6.768 0 "/>
<path transform="matrix(1,0,0,-1,29.425024,382.76106)" stroke-width=".94" stroke-linecap="butt" stroke-miterlimit="22.926" stroke-linejoin="miter" fill="none" stroke="#231f20" d="M 0 0 L 6.768 0 "/>
<path transform="matrix(1,0,0,-1,36.193025,415.58805)" stroke-width=".94" stroke-linecap="butt" stroke-miterlimit="22.926" stroke-linejoin="miter" fill="none" stroke="#231f20" d="M 0 0 L 108.287 0 L 108.287 -33.84 L 0 -33.84 Z "/>
<path transform="matrix(1,0,0,-1,22.657025,430.13606)" stroke-width=".94" stroke-linecap="butt" stroke-miterlimit="22.926" stroke-linejoin="miter" fill="none" stroke="#231f20" d="M 0 0 L 13.536 0 "/>
<path transform="matrix(1,0,0,-1,144.47902,436.90406)" stroke-width=".94" stroke-linecap="butt" stroke-miterlimit="22.926" stroke-linejoin="miter" fill="none" stroke="#231f20" d="M 0 0 L 13.536 0 "/>
<path transform="matrix(1,0,0,-1,144.47902,470.74305)" stroke-width=".94" stroke-linecap="butt" stroke-miterlimit="22.926" stroke-linejoin="miter" fill="none" stroke="#231f20" d="M 0 0 L 13.536 0 "/>
<path transform="matrix(1,0,0,-1,36.192018,456.19505)" stroke-width=".94" stroke-linecap="butt" stroke-miterlimit="22.926" stroke-linejoin="miter" fill="none" stroke="#231f20" d="M 0 0 L 108.287 0 L 108.287 -33.84 L 0 -33.84 Z "/>
<path transform="matrix(1,0,0,-1,158.014,436.90406)" stroke-width=".94" stroke-linecap="butt" stroke-miterlimit="22.926" stroke-linejoin="miter" fill="none" stroke="#231f20" d="M 0 0 L 0 -33.839 "/>
<path transform="matrix(1,0,0,-1,158.014,450.44007)" stroke-width=".94" stroke-linecap="butt" stroke-miterlimit="22.926" stroke-linejoin="miter" fill="none" stroke="#231f20" d="M 0 0 L 13.536 0 "/>
<path transform="matrix(1,0,0,-1,171.55,382.76106)" stroke-width=".94" stroke-linecap="butt" stroke-miterlimit="22.926" stroke-linejoin="miter" fill="none" stroke="#231f20" d="M 0 0 L 0 -182.734 "/>
<path transform="matrix(1,0,0,-1,185.086,415.58805)" stroke-width=".94" stroke-linecap="butt" stroke-miterlimit="22.926" stroke-linejoin="miter" fill="none" stroke="#231f20" d="M 0 0 L 108.287 0 L 108.287 -13.536 L 0 -13.536 Z "/>
<path transform="matrix(1,0,0,-1,171.55,423.36805)" stroke-width=".94" stroke-linecap="butt" stroke-miterlimit="22.926" stroke-linejoin="miter" fill="none" stroke="#231f20" d="M 0 0 L 13.536 0 "/>
<path transform="matrix(1,0,0,-1,185.086,435.89106)" stroke-width=".94" stroke-linecap="butt" stroke-miterlimit="22.926" stroke-linejoin="miter" fill="none" stroke="#231f20" d="M 0 0 L 108.287 0 L 108.287 -33.84 L 0 -33.84 Z "/>
<text fill="#231f20" xml:space="preserve" transform="matrix(1 0 -0 1 0 1684)" font-size="9.3998" font-family="TimesNewRomanPSMT"><tspan y="-1278.8366" x="209.8679 215.61118 220.30168 224.47519 229.50409 236.02474 239.15486 243.85477 248.55467 250.90462 255.60453 260.3044 262.65437 267.35426">&#x0415;&#x043b;&#x0435;&#x043d;&#x0430;-22.04.80</tspan></text>
<path transform="matrix(1,0,0,-1,185.086,395.28297)" stroke-width=".94" stroke-linecap="butt" stroke-miterlimit="22.926" stroke-linejoin="miter" fill="none" stroke="#231f20" d="M 0 0 L 108.287 0 L 108.287 -13.536 L 0 -13.536 Z "/>
<path transform="matrix(1,0,0,-1,171.55,403.06297)" stroke-width=".94" stroke-linecap="butt" stroke-miterlimit="22.926" stroke-linejoin="miter" fill="none" stroke="#231f20" d="M 0 0 L 13.536 0 "/>
<text fill="#231f20" xml:space="preserve" transform="matrix(1 0 -0 1 0 1684)" font-size="9.3998" font-family="TimesNewRomanPSMT"><tspan y="-1299.1403" x="209.8679 218.22434 223.25324 227.83283 232.00634 237.03524 244.07663 248.77654 253.47644 256.60658 261.30647 266.00636 268.3563 273.05619 277.75608 280.10603 284.8059">&#x041c;&#x0438;&#x0445;&#x0430;&#x0438;&#x043b;76-02.08.79</tspan></text>
<path transform="matrix(1,0,0,-1,185.086,374.97999)" stroke-width=".94" stroke-linecap="butt" stroke-miterlimit="22.926" stroke-linejoin="miter" fill="none" stroke="#231f20" d="M 0 0 L 108.287 0 L 108.287 -13.536 L 0 -13.536 Z "/>
<path transform="matrix(1,0,0,-1,171.55,382.75999)" stroke-width=".94" stroke-linecap="butt" stroke-miterlimit="22.926" stroke-linejoin="miter" fill="none" stroke="#231f20" d="M 0 0 L 13.536 0 "/>
<text fill="#231f20" xml:space="preserve" transform="matrix(1 0 -0 1 0 1684)" font-size="9.3998" font-family="TimesNewRomanPSMT"><tspan y="-1164.0143" x="210.6758 217.46245 222.49135 227.05965 232.08855 236.19626 241.22516 248.604 254.75711 258.86485 263.03837 268.06727 272.24079">&#x041d;&#x0438;&#x043a;&#x0438;&#x0442;&#x0438;&#x043d;&#x0421;&#x0442;&#x0435;&#x043f;&#x0430;&#x043d;</tspan><tspan y="-1153.604" x="210.6758 216.94547 221.64537 227.73644 232.43634 237.13625 242.16515 246.86505 251.30176 256.33067">&#x0421;&#x043e;&#x0444;&#x0440;&#x043e;&#x043d;&#x043e;&#x0432;&#x0438;&#x0447;</tspan><tspan y="-1130.175" x="210.6758 217.46245 222.49135 227.05965 232.08855 236.19626 241.22516 248.604 255.39066 259.56419 263.79316">&#x041d;&#x0438;&#x043a;&#x0438;&#x0442;&#x0438;&#x043d;&#x041f;&#x0435;&#x0442;&#x0440;</tspan><tspan y="-1119.7648" x="210.6758 216.94547 221.64537 227.73644 232.43634 237.13625 242.16515 246.86505 251.30176 256.33067">&#x0421;&#x043e;&#x0444;&#x0440;&#x043e;&#x043d;&#x043e;&#x0432;&#x0438;&#x0447;</tspan><tspan y="-1109.3545" x="210.6758 215.7611 220.461">~57</tspan></text>
<path transform="matrix(1,0,0,-1,0,1684)" stroke-width=".94" stroke-linecap="butt" stroke-miterlimit="22.926" stroke-linejoin="miter" fill="none" stroke="#231f20" d="M 185.086 1139.823 L 293.373 1139.823 L 293.373 1105.983 L 185.086 1105.983 Z "/>
<text fill="#231f20" xml:space="preserve" transform="matrix(1 0 -0 1 0 1684)" font-size="9.3998" font-family="TimesNewRomanPSMT"><tspan y="-1090.4846" x="195.9852 202.77185 207.80075 212.36905 217.39795 221.50566 226.53456 231.56346 238.09256 241.22269 247.49236 252.19226 256.36579 261.15028 265.85017 270.17408 274.26017 278.96006 283.27458 287.4481">&#x041d;&#x0438;&#x043a;&#x0438;&#x0442;&#x0438;&#x043d;&#x0430;(&#x0421;&#x0440;&#x0435;&#x0431;&#x0440;&#x044f;&#x043a;&#x043e;&#x0432;&#x0430;)</tspan><tspan y="-1080.0744" x="195.9852 202.77185 207.80075 212.82965 219.3531 226.13976 230.4599 234.6334 239.66231 244.36222 248.79892 253.82782">&#x0410;&#x043d;&#x043d;&#x0430;&#x0418;&#x0432;&#x0430;&#x043d;&#x043e;&#x0432;&#x043d;&#x0430;</tspan><tspan y="-1069.6641" x="201.0705 205.7704 195.9852">62~</tspan></text>
<path transform="matrix(1,0,0,-1,0,1684)" stroke-width=".94" stroke-linecap="butt" stroke-miterlimit="22.926" stroke-linejoin="miter" fill="none" stroke="#231f20" d="M 185.086 1099.215 L 293.373 1099.215 L 293.373 1065.375 L 185.086 1065.375 Z "/>
<text fill="#231f20" xml:space="preserve" transform="matrix(.000035461836 -1 1 .000035461836 0 1684)" font-size="8.4598" font-family="TimesNewRomanPSMT"><tspan y="304.21797" x="1089.8569 1093.7721 1098.002 1100.117 1104.033 1108.2628 1110.3778 1114.6077">11.11.83</tspan></text>
<path transform="matrix(1,0,0,-1,293.373,558.72598)" stroke-width=".94" stroke-linecap="butt" stroke-miterlimit="22.926" stroke-linejoin="miter" fill="none" stroke="#231f20" d="M 0 0 L 13.536 0 "/>
<path transform="matrix(1,0,0,-1,293.373,599.334)" stroke-width=".94" stroke-linecap="butt" stroke-miterlimit="22.926" stroke-linejoin="miter" fill="none" stroke="#231f20" d="M 0 0 L 13.536 0 "/>
<path transform="matrix(1,0,0,-1,306.909,558.727)" stroke-width=".94" stroke-linecap="butt" stroke-miterlimit="22.926" stroke-linejoin="miter" fill="none" stroke="#231f20" d="M 0 0 L 0 -40.607 "/>
<text fill="#231f20" xml:space="preserve" transform="matrix(1 0 -0 1 0 1684)" font-size="9.3998" font-family="TimesNewRomanPSMT"><tspan y="-1116.4066" x="358.7621 364.2704 368.19953 372.30726 376.59358 380.91749 385.94639 392.46986 397.16975 401.86964 404.21958 408.91947 413.61936 415.9693 420.6692">&#x0422;&#x0430;&#x0442;&#x044c;&#x044f;&#x043d;&#x0430;12.01.86</tspan></text>
<path transform="matrix(1,0,0,-1,333.98,557.713)" stroke-width=".94" stroke-linecap="butt" stroke-miterlimit="22.926" stroke-linejoin="miter" fill="none" stroke="#231f20" d="M 0 0 L 108.287 0 L 108.287 -13.536 L 0 -13.536 Z "/>
<path transform="matrix(1,0,0,-1,320.444,565.49307)" stroke-width=".94" stroke-linecap="butt" stroke-miterlimit="22.926" stroke-linejoin="miter" fill="none" stroke="#231f20" d="M 0 0 L 13.536 0 "/>
<path transform="matrix(1,0,0,-1,306.908,565.49307)" stroke-width=".94" stroke-linecap="butt" stroke-miterlimit="22.926" stroke-linejoin="miter" fill="none" stroke="#231f20" d="M 0 0 L 13.536 0 "/>
<path transform="matrix(1,0,0,-1,171.54999,450.43806)" stroke-width=".94" stroke-linecap="butt" stroke-miterlimit="22.926" stroke-linejoin="miter" fill="none" stroke="#231f20" d="M 0 0 L 13.536 0 "/>
<path transform="matrix(1,0,0,-1,171.54999,524.8851)" stroke-width=".94" stroke-linecap="butt" stroke-miterlimit="22.926" stroke-linejoin="miter" fill="none" stroke="#231f20" d="M 0 0 L 13.536 0 "/>
<path transform="matrix(1,0,0,-1,171.54999,565.49307)" stroke-width=".94" stroke-linecap="butt" stroke-miterlimit="22.926" stroke-linejoin="miter" fill="none" stroke="#231f20" d="M 0 0 L 13.536 0 "/>
<path transform="matrix(1,0,0,-1,185.08599,476.49806)" stroke-width=".94" stroke-linecap="butt" stroke-miterlimit="22.926" stroke-linejoin="miter" fill="none" stroke="#231f20" d="M 0 0 L 108.287 0 L 108.287 -27.072 L 0 -27.072 Z "/>
<text fill="#231f20" xml:space="preserve" transform="matrix(1 0 -0 1 0 1684)" font-size="9.3998" font-family="TimesNewRomanPSMT"><tspan y="-1196.9129" x="195.573 202.35965 207.38855 211.95685 216.98575 221.09346 226.12236 231.15126 237.68036 240.81049">&#x041d;&#x0438;&#x043a;&#x0438;&#x0442;&#x0438;&#x043d;&#x0430;()</tspan><tspan y="-1186.5026" x="195.573 201.31627 207.40734 212.10724 217.03932 221.21283 226.24173 231.27063 235.55695 242.2308 246.94011 251.11362 255.69039 259.8639 264.56379 269.26368 273.70039 278.72929">&#x0415;&#x0444;&#x0440;&#x043e;&#x0441;&#x0438;&#x043d;&#x044c;&#x044f;&#x0417;&#x0430;&#x0445;&#x0430;&#x0440;&#x043e;&#x0432;&#x043d;&#x0430;</tspan></text>
<path transform="matrix(1,0,0,-1,185.086,510.338)" stroke-width=".94" stroke-linecap="butt" stroke-miterlimit="22.926" stroke-linejoin="miter" fill="none" stroke="#231f20" d="M 0 0 L 108.287 0 L 108.287 -27.072 L 0 -27.072 Z "/>
<path transform="matrix(1,0,0,-1,293.373,450.43904)" stroke-width=".94" stroke-linecap="butt" stroke-miterlimit="22.926" stroke-linejoin="miter" fill="none" stroke="#231f20" d="M 0 0 L 13.536 0 "/>
<path transform="matrix(1,0,0,-1,293.373,491.04704)" stroke-width=".94" stroke-linecap="butt" stroke-miterlimit="22.926" stroke-linejoin="miter" fill="none" stroke="#231f20" d="M 0 0 L 13.536 0 "/>
<path transform="matrix(1,0,0,-1,306.909,450.44004)" stroke-width=".94" stroke-linecap="butt" stroke-miterlimit="22.926" stroke-linejoin="miter" fill="none" stroke="#231f20" d="M 0 0 L 0 -40.607 "/>
<text fill="#231f20" xml:space="preserve" transform="matrix(1 0 -0 1 0 1684)" font-size="9.3998" font-family="TimesNewRomanPSMT"><tspan y="-1190.8536" x="358.7621 367.1185 371.29203 375.62535 379.79887 384.82777 393.12684 397.82673 402.5266 404.87657 409.57646 414.27635 416.62629 421.32618">&#x041c;&#x0430;&#x043a;&#x0441;&#x0438;&#x043c;13.08.88</tspan></text>
<path transform="matrix(1,0,0,-1,333.98,483.266)" stroke-width=".94" stroke-linecap="butt" stroke-miterlimit="22.926" stroke-linejoin="miter" fill="none" stroke="#231f20" d="M 0 0 L 108.287 0 L 108.287 -13.536 L 0 -13.536 Z "/>
<path transform="matrix(1,0,0,-1,320.444,491.047)" stroke-width=".94" stroke-linecap="butt" stroke-miterlimit="22.926" stroke-linejoin="miter" fill="none" stroke="#231f20" d="M 0 0 L 13.536 0 "/>
<text fill="#231f20" xml:space="preserve" transform="matrix(1 0 -0 1 0 1684)" font-size="9.3998" font-family="TimesNewRomanPSMT"><tspan y="-1211.1574" x="358.7621 367.1185 371.29203 375.9919 381.0208 387.69657 392.39646 397.09635 399.4463 404.14619 408.84608 411.196 415.8959">&#x041c;&#x0430;&#x0440;&#x0438;&#x044f;14.01.80</tspan></text>
<path transform="matrix(1,0,0,-1,333.98,462.963)" stroke-width=".94" stroke-linecap="butt" stroke-miterlimit="22.926" stroke-linejoin="miter" fill="none" stroke="#231f20" d="M 0 0 L 108.287 0 L 108.287 -13.536 L 0 -13.536 Z "/>
<path transform="matrix(1,0,0,-1,320.444,470.743)" stroke-width=".94" stroke-linecap="butt" stroke-miterlimit="22.926" stroke-linejoin="miter" fill="none" stroke="#231f20" d="M 0 0 L 13.536 0 "/>
<text fill="#231f20" xml:space="preserve" transform="matrix(1 0 -0 1 0 1684)" font-size="9.3998" font-family="TimesNewRomanPSMT"><tspan y="-1231.4612" x="358.7621 364.50538 368.92799 372.85713 376.96485 381.13838 385.83827 390.86717 395.89607 402.42048 407.12037 411.82026 414.1702 418.52137 423.22126 425.5712 430.2711">&#x0415;&#x043a;&#x0430;&#x0442;&#x0435;&#x0440;&#x0438;&#x043d;&#x0430;10.11.84</tspan></text>
<path transform="matrix(1,0,0,-1,333.98,442.65907)" stroke-width=".94" stroke-linecap="butt" stroke-miterlimit="22.926" stroke-linejoin="miter" fill="none" stroke="#231f20" d="M 0 0 L 108.287 0 L 108.287 -13.536 L 0 -13.536 Z "/>
<path transform="matrix(1,0,0,-1,320.444,450.43907)" stroke-width=".94" stroke-linecap="butt" stroke-miterlimit="22.926" stroke-linejoin="miter" fill="none" stroke="#231f20" d="M 0 0 L 13.536 0 "/>
<path transform="matrix(1,0,0,-1,306.908,470.74305)" stroke-width=".94" stroke-linecap="butt" stroke-miterlimit="22.926" stroke-linejoin="miter" fill="none" stroke="#231f20" d="M 0 0 L 13.536 0 "/>
<path transform="matrix(1,0,0,-1,320.444,450.44004)" stroke-width=".94" stroke-linecap="butt" stroke-miterlimit="22.926" stroke-linejoin="miter" fill="none" stroke="#231f20" d="M 0 0 L 0 -40.607 "/>
<path transform="matrix(1,0,0,-1,36.191987,632.161)" stroke-width=".94" stroke-linecap="butt" stroke-miterlimit="22.926" stroke-linejoin="miter" fill="none" stroke="#231f20" d="M 0 0 L 108.287 0 L 108.287 -47.375 L 0 -47.375 Z "/>
<path transform="matrix(1,0,0,-1,22.655987,653.477)" stroke-width=".94" stroke-linecap="butt" stroke-miterlimit="22.926" stroke-linejoin="miter" fill="none" stroke="#231f20" d="M 0 0 L 13.536 0 "/>
<path transform="matrix(1,0,0,-1,144.47798,667.013)" stroke-width=".94" stroke-linecap="butt" stroke-miterlimit="22.926" stroke-linejoin="miter" fill="none" stroke="#231f20" d="M 0 0 L 13.536 0 "/>
<path transform="matrix(1,0,0,-1,144.47798,700.853)" stroke-width=".94" stroke-linecap="butt" stroke-miterlimit="22.926" stroke-linejoin="miter" fill="none" stroke="#231f20" d="M 0 0 L 13.536 0 "/>
<path transform="matrix(1,0,0,-1,36.19098,686.30508)" stroke-width=".94" stroke-linecap="butt" stroke-miterlimit="22.926" stroke-linejoin="miter" fill="none" stroke="#231f20" d="M 0 0 L 108.287 0 L 108.287 -33.84 L 0 -33.84 Z "/>
<path transform="matrix(1,0,0,-1,158.01297,667.01406)" stroke-width=".94" stroke-linecap="butt" stroke-miterlimit="22.926" stroke-linejoin="miter" fill="none" stroke="#231f20" d="M 0 0 L 0 -33.839 "/>
<path transform="matrix(1,0,0,-1,158.01297,680.55007)" stroke-width=".94" stroke-linecap="butt" stroke-miterlimit="22.926" stroke-linejoin="miter" fill="none" stroke="#231f20" d="M 0 0 L 13.536 0 "/>
<path transform="matrix(1,0,0,-1,185.08498,632.16207)" stroke-width=".94" stroke-linecap="butt" stroke-miterlimit="22.926" stroke-linejoin="miter" fill="none" stroke="#231f20" d="M 0 0 L 108.287 0 L 108.287 -47.375 L 0 -47.375 Z "/>
<path transform="matrix(1,0,0,-1,171.54898,653.478)" stroke-width=".94" stroke-linecap="butt" stroke-miterlimit="22.926" stroke-linejoin="miter" fill="none" stroke="#231f20" d="M 0 0 L 13.536 0 "/>
<path transform="matrix(1,0,0,-1,171.54898,653.478)" stroke-width=".94" stroke-linecap="butt" stroke-miterlimit="22.926" stroke-linejoin="miter" fill="none" stroke="#231f20" d="M 0 0 L 0 -460.218 "/>
<path transform="matrix(1,0,0,-1,185.08498,686.30508)" stroke-width=".94" stroke-linecap="butt" stroke-miterlimit="22.926" stroke-linejoin="miter" fill="none" stroke="#231f20" d="M 0 0 L 108.287 0 L 108.287 -47.375 L 0 -47.375 Z "/>
<path transform="matrix(1,0,0,-1,293.37199,653.478)" stroke-width=".94" stroke-linecap="butt" stroke-miterlimit="22.926" stroke-linejoin="miter" fill="none" stroke="#231f20" d="M 0 0 L 13.536 0 "/>
<path transform="matrix(1,0,0,-1,293.37199,707.62106)" stroke-width=".94" stroke-linecap="butt" stroke-miterlimit="22.926" stroke-linejoin="miter" fill="none" stroke="#231f20" d="M 0 0 L 13.536 0 "/>
<path transform="matrix(1,0,0,-1,306.908,653.478)" stroke-width=".94" stroke-linecap="butt" stroke-miterlimit="22.926" stroke-linejoin="miter" fill="none" stroke="#231f20" d="M 0 0 L 0 -54.143 "/>
<path transform="matrix(1,0,0,-1,306.908,667.01406)" stroke-width=".94" stroke-linecap="butt" stroke-miterlimit="22.926" stroke-linejoin="miter" fill="none" stroke="#231f20" d="M 0 0 L 13.536 0 "/>
<path transform="matrix(1,0,0,-1,333.97999,652.46609)" stroke-width=".94" stroke-linecap="butt" stroke-miterlimit="22.926" stroke-linejoin="miter" fill="none" stroke="#231f20" d="M 0 0 L 108.287 0 L 108.287 -13.536 L 0 -13.536 Z "/>
<path transform="matrix(1,0,0,-1,320.44398,660.2461)" stroke-width=".94" stroke-linecap="butt" stroke-miterlimit="22.926" stroke-linejoin="miter" fill="none" stroke="#231f20" d="M 0 0 L 13.536 0 "/>
<path transform="matrix(1,0,0,-1,333.97999,672.7691)" stroke-width=".94" stroke-linecap="butt" stroke-miterlimit="22.926" stroke-linejoin="miter" fill="none" stroke="#231f20" d="M 0 0 L 108.287 0 L 108.287 -13.536 L 0 -13.536 Z "/>
<path transform="matrix(1,0,0,-1,320.44398,680.54916)" stroke-width=".94" stroke-linecap="butt" stroke-miterlimit="22.926" stroke-linejoin="miter" fill="none" stroke="#231f20" d="M 0 0 L 13.536 0 "/>
<path transform="matrix(1,0,0,-1,333.97999,693.07217)" stroke-width=".94" stroke-linecap="butt" stroke-miterlimit="22.926" stroke-linejoin="miter" fill="none" stroke="#231f20" d="M 0 0 L 108.287 0 L 108.287 -13.536 L 0 -13.536 Z "/>
<path transform="matrix(1,0,0,-1,320.44398,700.8522)" stroke-width=".94" stroke-linecap="butt" stroke-miterlimit="22.926" stroke-linejoin="miter" fill="none" stroke="#231f20" d="M 0 0 L 13.536 0 "/>
<path transform="matrix(1,0,0,-1,333.97999,632.16018)" stroke-width=".94" stroke-linecap="butt" stroke-miterlimit="22.926" stroke-linejoin="miter" fill="none" stroke="#231f20" d="M 0 0 L 108.287 0 L 108.287 -13.536 L 0 -13.536 Z "/>
<path transform="matrix(1,0,0,-1,320.44398,639.9402)" stroke-width=".94" stroke-linecap="butt" stroke-miterlimit="22.926" stroke-linejoin="miter" fill="none" stroke="#231f20" d="M 0 0 L 13.536 0 "/>
<path transform="matrix(1,0,0,-1,320.44398,639.9402)" stroke-width=".94" stroke-linecap="butt" stroke-miterlimit="22.926" stroke-linejoin="miter" fill="none" stroke="#231f20" d="M 0 0 L 0 -81.215 "/>
<path transform="matrix(1,0,0,-1,185.08597,740.44619)" stroke-width=".94" stroke-linecap="butt" stroke-miterlimit="22.926" stroke-linejoin="miter" fill="none" stroke="#231f20" d="M 0 0 L 108.287 0 L 108.287 -27.072 L 0 -27.072 Z "/>
<path transform="matrix(1,0,0,-1,185.08597,774.2862)" stroke-width=".94" stroke-linecap="butt" stroke-miterlimit="22.926" stroke-linejoin="miter" fill="none" stroke="#231f20" d="M 0 0 L 108.287 0 L 108.287 -27.072 L 0 -27.072 Z "/>
<path transform="matrix(1,0,0,-1,178.31797,754.9952)" stroke-width=".94" stroke-linecap="butt" stroke-miterlimit="22.926" stroke-linejoin="miter" fill="none" stroke="#231f20" d="M 0 0 L 6.768 0 "/>
<path transform="matrix(1,0,0,-1,178.31797,788.8352)" stroke-width=".94" stroke-linecap="butt" stroke-miterlimit="22.926" stroke-linejoin="miter" fill="none" stroke="#231f20" d="M 0 0 L 6.768 0 "/>
<path transform="matrix(1,0,0,-1,178.31797,707.62026)" stroke-width=".94" stroke-linecap="butt" stroke-miterlimit="22.926" stroke-linejoin="miter" fill="none" stroke="#231f20" d="M 0 0 L 6.768 0 "/>
<path transform="matrix(1,0,0,-1,178.31797,707.62026)" stroke-width=".94" stroke-linecap="butt" stroke-miterlimit="22.926" stroke-linejoin="miter" fill="none" stroke="#231f20" d="M 0 0 L 0 -81.215 "/>
<path transform="matrix(1,0,0,-1,185.08597,808.1262)" stroke-width=".94" stroke-linecap="butt" stroke-miterlimit="22.926" stroke-linejoin="miter" fill="none" stroke="#231f20" d="M 0 0 L 108.287 0 L 108.287 -47.375 L 0 -47.375 Z "/>
<path transform="matrix(1,0,0,-1,293.373,829.4422)" stroke-width=".94" stroke-linecap="butt" stroke-miterlimit="22.926" stroke-linejoin="miter" fill="none" stroke="#231f20" d="M 0 0 L 13.536 0 "/>
<path transform="matrix(1,0,0,-1,293.373,883.5852)" stroke-width=".94" stroke-linecap="butt" stroke-miterlimit="22.926" stroke-linejoin="miter" fill="none" stroke="#231f20" d="M 0 0 L 13.536 0 "/>
<path transform="matrix(1,0,0,-1,306.909,829.4422)" stroke-width=".94" stroke-linecap="butt" stroke-miterlimit="22.926" stroke-linejoin="miter" fill="none" stroke="#231f20" d="M 0 0 L 0 -54.143 "/>
<path transform="matrix(1,0,0,-1,185.087,862.2692)" stroke-width=".94" stroke-linecap="butt" stroke-miterlimit="22.926" stroke-linejoin="miter" fill="none" stroke="#231f20" d="M 0 0 L 108.287 0 L 108.287 -47.375 L 0 -47.375 Z "/>
<path transform="matrix(1,0,0,-1,171.55101,829.4422)" stroke-width=".94" stroke-linecap="butt" stroke-miterlimit="22.926" stroke-linejoin="miter" fill="none" stroke="#231f20" d="M 0 0 L 13.536 0 "/>
<path transform="matrix(1,0,0,-1,333.98103,808.1262)" stroke-width=".94" stroke-linecap="butt" stroke-miterlimit="22.926" stroke-linejoin="miter" fill="none" stroke="#231f20" d="M 0 0 L 108.287 0 L 108.287 -13.536 L 0 -13.536 Z "/>
<path transform="matrix(1,0,0,-1,320.445,815.90628)" stroke-width=".94" stroke-linecap="butt" stroke-miterlimit="22.926" stroke-linejoin="miter" fill="none" stroke="#231f20" d="M 0 0 L 13.536 0 "/>
<path transform="matrix(1,0,0,-1,306.909,836.21029)" stroke-width=".94" stroke-linecap="butt" stroke-miterlimit="22.926" stroke-linejoin="miter" fill="none" stroke="#231f20" d="M 0 0 L 13.536 0 "/>
<path transform="matrix(1,0,0,-1,333.981,869.0373)" stroke-width=".94" stroke-linecap="butt" stroke-miterlimit="22.926" stroke-linejoin="miter" fill="none" stroke="#231f20" d="M 0 0 L 108.287 0 L 108.287 -27.072 L 0 -27.072 Z "/>
<path transform="matrix(1,0,0,-1,333.981,970.5563)" stroke-width=".94" stroke-linecap="butt" stroke-miterlimit="22.926" stroke-linejoin="miter" fill="none" stroke="#231f20" d="M 0 0 L 108.287 0 L 108.287 -27.072 L 0 -27.072 Z "/>
<path transform="matrix(1,0,0,-1,333.981,936.71627)" stroke-width=".94" stroke-linecap="butt" stroke-miterlimit="22.926" stroke-linejoin="miter" fill="none" stroke="#231f20" d="M 0 0 L 108.287 0 L 108.287 -27.072 L 0 -27.072 Z "/>
<path transform="matrix(1,0,0,-1,333.981,1058.5382)" stroke-width=".94" stroke-linecap="butt" stroke-miterlimit="22.926" stroke-linejoin="miter" fill="none" stroke="#231f20" d="M 0 0 L 108.287 0 L 108.287 -27.072 L 0 -27.072 Z "/>
<path transform="matrix(1,0,0,-1,0,1684)" stroke-width=".94" stroke-linecap="butt" stroke-dasharray="1.8801,.94004" stroke-miterlimit="22.926" stroke-linejoin="miter" fill="none" stroke="#231f20" d="M 293.373 786.878 L 306.908 786.878 "/>
<path transform="matrix(1,0,0,-1,320.444,849.746)" stroke-width=".94" stroke-linecap="butt" stroke-miterlimit="22.926" stroke-linejoin="miter" fill="none" stroke="#231f20" d="M 0 0 L 13.536 0 "/>
<path transform="matrix(1,0,0,-1,320.444,883.586)" stroke-width=".94" stroke-linecap="butt" stroke-miterlimit="22.926" stroke-linejoin="miter" fill="none" stroke="#231f20" d="M 0 0 L 13.536 0 "/>
<path transform="matrix(1,0,0,-1,320.444,985.105)" stroke-width=".94" stroke-linecap="butt" stroke-miterlimit="22.926" stroke-linejoin="miter" fill="none" stroke="#231f20" d="M 0 0 L 13.536 0 "/>
<path transform="matrix(1,0,0,-1,327.212,1018.945)" stroke-width=".94" stroke-linecap="butt" stroke-miterlimit="22.926" stroke-linejoin="miter" fill="none" stroke="#231f20" d="M 0 0 L 6.768 0 "/>
<path transform="matrix(1,0,0,-1,442.266,1018.945)" stroke-width=".94" stroke-linecap="butt" stroke-miterlimit="22.926" stroke-linejoin="miter" fill="none" stroke="#231f20" d="M 0 0 L 13.536 0 "/>
<path transform="matrix(1,0,0,-1,0,1684)" stroke-width=".94" stroke-linecap="butt" stroke-dasharray="1.8801,.94004" stroke-miterlimit="22.926" stroke-linejoin="miter" fill="none" stroke="#231f20" d="M 320.444 834.254 L 320.444 543.234 M 306.908 786.878 L 320.444 786.878 "/>
<path transform="matrix(1,0,0,-1,442.267,985.104)" stroke-width=".94" stroke-linecap="butt" stroke-miterlimit="22.926" stroke-linejoin="miter" fill="none" stroke="#231f20" d="M 0 0 L 13.536 0 "/>
<path transform="matrix(1,0,0,-1,455.803,985.104)" stroke-width=".94" stroke-linecap="butt" stroke-miterlimit="22.926" stroke-linejoin="miter" fill="none" stroke="#231f20" d="M 0 0 L 0 -33.839 "/>
<path transform="matrix(1,0,0,-1,482.875,990.859)" stroke-width=".94" stroke-linecap="butt" stroke-miterlimit="22.926" stroke-linejoin="miter" fill="none" stroke="#231f20" d="M 0 0 L 108.287 0 L 108.287 -13.536 L 0 -13.536 Z "/>
<path transform="matrix(1,0,0,-1,469.339,998.63906)" stroke-width=".94" stroke-linecap="butt" stroke-miterlimit="22.926" stroke-linejoin="miter" fill="none" stroke="#231f20" d="M 0 0 L 13.536 0 "/>
<path transform="matrix(1,0,0,-1,455.80299,998.63906)" stroke-width=".94" stroke-linecap="butt" stroke-miterlimit="22.926" stroke-linejoin="miter" fill="none" stroke="#231f20" d="M 0 0 L 13.536 0 "/>
<path transform="matrix(1,0,0,-1,185.08597,916.41207)" stroke-width=".94" stroke-linecap="butt" stroke-miterlimit="22.926" stroke-linejoin="miter" fill="none" stroke="#231f20" d="M 0 0 L 108.287 0 L 108.287 -47.375 L 0 -47.375 Z "/>
<path transform="matrix(1,0,0,-1,185.08597,970.55508)" stroke-width=".94" stroke-linecap="butt" stroke-miterlimit="22.926" stroke-linejoin="miter" fill="none" stroke="#231f20" d="M 0 0 L 108.287 0 L 108.287 -47.375 L 0 -47.375 Z "/>
<path transform="matrix(1,0,0,-1,293.373,991.87106)" stroke-width=".94" stroke-linecap="butt" stroke-miterlimit="22.926" stroke-linejoin="miter" fill="none" stroke="#231f20" d="M 0 0 L 13.536 0 "/>
<path transform="matrix(1,0,0,-1,293.373,937.728)" stroke-width=".94" stroke-linecap="butt" stroke-miterlimit="22.926" stroke-linejoin="miter" fill="none" stroke="#231f20" d="M 0 0 L 13.536 0 "/>
<path transform="matrix(1,0,0,-1,306.909,937.728)" stroke-width=".94" stroke-linecap="butt" stroke-miterlimit="22.926" stroke-linejoin="miter" fill="none" stroke="#231f20" d="M 0 0 L 0 -54.143 "/>
<path transform="matrix(1,0,0,-1,185.087,1058.5381)" stroke-width=".94" stroke-linecap="butt" stroke-miterlimit="22.926" stroke-linejoin="miter" fill="none" stroke="#231f20" d="M 0 0 L 108.287 0 L 108.287 -33.84 L 0 -33.84 Z "/>
<path transform="matrix(1,0,0,-1,171.55101,937.7281)" stroke-width=".94" stroke-linecap="butt" stroke-miterlimit="22.926" stroke-linejoin="miter" fill="none" stroke="#231f20" d="M 0 0 L 13.536 0 "/>
<path transform="matrix(1,0,0,-1,171.55101,1073.086)" stroke-width=".94" stroke-linecap="butt" stroke-miterlimit="22.926" stroke-linejoin="miter" fill="none" stroke="#231f20" d="M 0 0 L 13.536 0 "/>
<path transform="matrix(1,0,0,-1,171.55101,1113.6941)" stroke-width=".94" stroke-linecap="butt" stroke-miterlimit="22.926" stroke-linejoin="miter" fill="none" stroke="#231f20" d="M 0 0 L 13.536 0 "/>
<path transform="matrix(1,0,0,-1,185.087,1099.1461)" stroke-width=".94" stroke-linecap="butt" stroke-miterlimit="22.926" stroke-linejoin="miter" fill="none" stroke="#231f20" d="M 0 0 L 108.287 0 L 108.287 -27.072 L 0 -27.072 Z "/>
<text fill="#231f20" xml:space="preserve" transform="matrix(1 0 -0 1 0 1684)" font-size="9.3998" font-family="TimesNewRomanPSMT"><tspan y="-547.1398" x="345.7234 352.51005 357.20994 362.23884 368.5555 373.1238 378.1527 383.1816 389.70509 395.8535 399.9612 404.13475 409.16365 413.33717">&#x041f;&#x0443;&#x043f;&#x044b;&#x043a;&#x0438;&#x043d;&#x0430;&#x0421;&#x0442;&#x0435;&#x043f;&#x0430;&#x043d;</tspan><tspan y="-536.7295" x="345.7234 351.99305 356.16658 361.19548 365.24397 370.02845 375.05735 379.5006 383.48426 388.18415 392.62086 397.64976">&#x0412;&#x0435;&#x043d;&#x0435;&#x0434;&#x0438;&#x043a;&#x0442;&#x043e;&#x0432;&#x0438;&#x0447;</tspan><tspan y="-526.3192" x="350.8087 355.50859 360.20848 363.3386 368.03849 372.73838 375.08833 379.7882 384.4881 386.83805 391.53794 345.7234">70-15.03.85~</tspan></text>
<path transform="matrix(1,0,0,-1,333.98,902.877)" stroke-width=".94" stroke-linecap="butt" stroke-miterlimit="22.926" stroke-linejoin="miter" fill="none" stroke="#231f20" d="M 0 0 L 108.287 0 L 108.287 -27.072 L 0 -27.072 Z "/>
<path transform="matrix(1,0,0,-1,333.98,1126.218)" stroke-width=".94" stroke-linecap="butt" stroke-miterlimit="22.926" stroke-linejoin="miter" fill="none" stroke="#231f20" d="M 0 0 L 108.287 0 L 108.287 -33.84 L 0 -33.84 Z "/>
<text fill="#231f20" xml:space="preserve" transform="matrix(1 0 -0 1 0 1684)" font-size="9.3998" font-family="TimesNewRomanPSMT"><tspan y="-770.5342" x="353.8894 360.67607 364.99998 369.1077 373.676 378.7049 386.08375 391.5958 396.6247 402.57478 407.27467 413.36573 417.53926">&#x041f;&#x044f;&#x0442;&#x043a;&#x0438;&#x043d;&#x0422;&#x0438;&#x043c;&#x043e;&#x0444;&#x0435;&#x0439;</tspan><tspan y="-760.1239" x="353.8894 360.15907 365.18797 370.21687 374.91676 379.94566 384.73014 389.43003 394.45893 399.1588 403.59553 408.62443">&#x0421;&#x043f;&#x0438;&#x0440;&#x0438;&#x0434;&#x043e;&#x043d;&#x043e;&#x0432;&#x0438;&#x0447;</tspan></text>
<path transform="matrix(1,0,0,-1,442.267,917.425)" stroke-width=".94" stroke-linecap="butt" stroke-miterlimit="22.926" stroke-linejoin="miter" fill="none" stroke="#231f20" d="M 0 0 L 13.536 0 "/>
<path transform="matrix(1,0,0,-1,442.267,876.818)" stroke-width=".94" stroke-linecap="butt" stroke-miterlimit="22.926" stroke-linejoin="miter" fill="none" stroke="#231f20" d="M 0 0 L 13.536 0 L 13.536 -40.607 "/>
<text fill="#231f20" xml:space="preserve" transform="matrix(.000031915575 -1 1 .000031915575 0 1684)" font-size="9.3998" font-family="TimesNewRomanPSMT"><tspan y="452.60847" x="768.5093 773.20919 777.90908 780.25906 784.61019">09.11</tspan><tspan y="452.6085" x="789.31008">.</tspan><tspan y="452.60847" x="791.66006 796.3599">80</tspan></text>
<text fill="#231f20" xml:space="preserve" transform="matrix(1 0 -0 1 0 1684)" font-size="9.3998" font-family="TimesNewRomanPSMT"><tspan y="-662.9564" x="485.8035 494.1599 499.1888 503.76838 507.9419 512.97079 520.01217 524.71206 529.4119 531.7619 536.11306 540.8129 543.1629 547.8628 552.5627 555.6928 560.3927 565.0926 567.44259 572.14248 576.84237 579.1923 583.8922">&#x041c;&#x0438;&#x0445;&#x0430;&#x0438;&#x043b;05.11.81-20.03.86</tspan></text>
<path transform="matrix(1,0,0,-1,482.874,1011.164)" stroke-width=".94" stroke-linecap="butt" stroke-miterlimit="22.926" stroke-linejoin="miter" fill="none" stroke="#231f20" d="M 0 0 L 108.287 0 L 108.287 -13.536 L 0 -13.536 Z "/>
<path transform="matrix(1,0,0,-1,469.33799,1018.94406)" stroke-width=".94" stroke-linecap="butt" stroke-miterlimit="22.926" stroke-linejoin="miter" fill="none" stroke="#231f20" d="M 0 0 L 13.536 0 "/>
<path transform="matrix(1,0,0,-1,469.33799,978.33706)" stroke-width=".94" stroke-linecap="butt" stroke-miterlimit="22.926" stroke-linejoin="miter" fill="none" stroke="#231f20" d="M 0 0 L 0 -40.607 "/>
<text fill="#231f20" xml:space="preserve" transform="matrix(1 0 -0 1 0 1684)" font-size="9.3998" font-family="TimesNewRomanPSMT"><tspan y="-703.5638" x="506.7337 515.09017 519.2637 523.96359 530.0546 536.57717 541.27706 545.9769 548.3269 553.0268 557.7267 560.07669 564.77658">&#x041c;&#x0430;&#x0440;&#x0444;&#x0430;08.02.84</tspan></text>
<path transform="matrix(1,0,0,-1,482.874,970.556)" stroke-width=".94" stroke-linecap="butt" stroke-miterlimit="22.926" stroke-linejoin="miter" fill="none" stroke="#231f20" d="M 0 0 L 108.287 0 L 108.287 -13.536 L 0 -13.536 Z "/>
<path transform="matrix(1,0,0,-1,469.33799,978.33609)" stroke-width=".94" stroke-linecap="butt" stroke-miterlimit="22.926" stroke-linejoin="miter" fill="none" stroke="#231f20" d="M 0 0 L 13.536 0 "/>
<path transform="matrix(1,0,0,-1,333.97999,1004.3951)" stroke-width=".94" stroke-linecap="butt" stroke-miterlimit="22.926" stroke-linejoin="miter" fill="none" stroke="#231f20" d="M 0 0 L 108.287 0 L 108.287 -47.375 L 0 -47.375 Z "/>
<text fill="#231f20" xml:space="preserve" transform="matrix(1 0 -0 1 0 1684)" font-size="9.3998" font-family="TimesNewRomanPSMT"><tspan y="-736.6946" x="338.7087 345.49537 350.19526 355.22416 361.54084 366.10914 371.13804 376.16694 382.69325 385.82337 392.61003 397.3099 402.3388 407.3677 412.3966 416.57014 421.59904 426.29893 430.62095 434.79447">&#x041f;&#x0443;&#x043f;&#x044b;&#x043a;&#x0438;&#x043d;&#x0430;(&#x041f;&#x0440;&#x0438;&#x043f;&#x0438;&#x0441;&#x043d;&#x043e;&#x0432;&#x0430;)</tspan><tspan y="-726.2843" x="338.7087 344.97837 349.67826 355.76933 360.05564 366.7295 371.57228 376.27217 381.30107 384.92469 389.62458 394.32447 398.61079 402.7843 407.221 412.2499">&#x0421;&#x043e;&#x0444;&#x044c;&#x044f;&#x0413;&#x0440;&#x0438;&#x0433;&#x043e;&#x0440;&#x044c;&#x0435;&#x0432;&#x043d;&#x0430;</tspan><tspan y="-723.8676" x="506.7339 512.87948 516.9872 521.1607 526.1896 530.3631 537.74288 542.44277 547.14266 549.4926 554.1925 558.8924 561.2424 565.94229">&#x0421;&#x0442;&#x0435;&#x043f;&#x0430;&#x043d;21.12.87</tspan></text>
<path transform="matrix(1,0,0,-1,482.874,950.252)" stroke-width=".94" stroke-linecap="butt" stroke-miterlimit="22.926" stroke-linejoin="miter" fill="none" stroke="#231f20" d="M 0 0 L 108.287 0 L 108.287 -13.536 L 0 -13.536 Z "/>
<path transform="matrix(1,0,0,-1,469.33799,958.03207)" stroke-width=".94" stroke-linecap="butt" stroke-miterlimit="22.926" stroke-linejoin="miter" fill="none" stroke="#231f20" d="M 0 0 L 13.536 0 "/>
<path transform="matrix(1,0,0,-1,455.80198,951.26406)" stroke-width=".94" stroke-linecap="butt" stroke-miterlimit="22.926" stroke-linejoin="miter" fill="none" stroke="#231f20" d="M 0 0 L 0 -33.839 "/>
<path transform="matrix(1,0,0,-1,442.26597,951.26406)" stroke-width=".94" stroke-linecap="butt" stroke-miterlimit="22.926" stroke-linejoin="miter" fill="none" stroke="#231f20" d="M 0 0 L 13.536 0 "/>
<path transform="matrix(1,0,0,-1,455.80198,958.03207)" stroke-width=".94" stroke-linecap="butt" stroke-miterlimit="22.926" stroke-linejoin="miter" fill="none" stroke="#231f20" d="M 0 0 L 13.536 0 "/>
<path transform="matrix(1,0,0,-1,185.08496,1024.6991)" stroke-width=".94" stroke-linecap="butt" stroke-miterlimit="22.926" stroke-linejoin="miter" fill="none" stroke="#231f20" d="M 0 0 L 108.287 0 L 108.287 -27.072 L 0 -27.072 Z "/>
<text fill="#231f20" xml:space="preserve" transform="matrix(1 0 -0 1 0 1684)" font-size="9.3998" font-family="TimesNewRomanPSMT"><tspan y="-648.7118" x="189.8147 196.60135 201.30126 206.33016 211.35906 216.38796 220.56147 225.59037 230.29027 237.07692 241.92816 246.62807 251.65697 255.28058 259.98048 264.68037 269.70927">&#x041f;&#x0440;&#x0438;&#x043f;&#x0438;&#x0441;&#x043d;&#x043e;&#x0432;&#x0413;&#x0440;&#x0438;&#x0433;&#x043e;&#x0440;&#x0438;&#x0439;</tspan><tspan y="-638.3015" x="189.8147 196.60135 201.29186 205.46537 209.79866 214.08496 218.25847 223.28737 228.07187 232.77178 237.47168 241.90839 246.93729">&#x0410;&#x043b;&#x0435;&#x043a;&#x0441;&#x0430;&#x043d;&#x0434;&#x0440;&#x043e;&#x0432;&#x0438;&#x0447;</tspan></text>
<path transform="matrix(1,0,0,-1,327.212,1073.0869)" stroke-width=".94" stroke-linecap="butt" stroke-miterlimit="22.926" stroke-linejoin="miter" fill="none" stroke="#231f20" d="M 0 0 L 6.768 0 "/>
<path transform="matrix(1,0,0,-1,327.212,1018.9439)" stroke-width=".94" stroke-linecap="butt" stroke-miterlimit="22.926" stroke-linejoin="miter" fill="none" stroke="#231f20" d="M 0 0 L 0 -54.143 "/>
<path transform="matrix(1,0,0,-1,320.444,1140.7659)" stroke-width=".94" stroke-linecap="butt" stroke-miterlimit="22.926" stroke-linejoin="miter" fill="none" stroke="#231f20" d="M 0 0 L 13.536 0 "/>
<text fill="#231f20" xml:space="preserve" transform="matrix(1 0 -0 1 0 1684)" font-size="9.3998" font-family="TimesNewRomanPSMT"><tspan y="-581.0326" x="337.782 344.56867 348.61906 353.40354 358.21623 362.50254 366.21546 370.38899 375.41789 380.11778 384.43324 390.95576 394.08589 400.87254 405.57243 410.60133 416.918 421.4863 426.5152 431.5441 435.71763">&#x041d;&#x0435;&#x0434;&#x043e;&#x0435;&#x0437;&#x0430;&#x043d;&#x043e;&#x0432;&#x0430;(&#x041f;&#x0443;&#x043f;&#x044b;&#x043a;&#x0438;&#x043d;&#x0430;)</tspan><tspan y="-570.6223" x="337.782 344.56867 348.7422 353.44209 357.6156 361.78913 366.1196 370.29313 374.6067 381.13017 386.87345 392.9645 397.9934 403.94349 408.64338 413.08009 418.10899">&#x041f;&#x0435;&#x0440;&#x0430;&#x0441;&#x043a;&#x0435;&#x0432;&#x0430;&#x0415;&#x0444;&#x0438;&#x043c;&#x043e;&#x0432;&#x043d;&#x0430;</tspan></text>
<path transform="matrix(1,0,0,-1,333.98,1092.379)" stroke-width=".94" stroke-linecap="butt" stroke-miterlimit="22.926" stroke-linejoin="miter" fill="none" stroke="#231f20" d="M 0 0 L 108.287 0 L 108.287 -27.072 L 0 -27.072 Z "/>
<path transform="matrix(1,0,0,-1,442.26704,1106.927)" stroke-width=".94" stroke-linecap="butt" stroke-miterlimit="22.926" stroke-linejoin="miter" fill="none" stroke="#231f20" d="M 0 0 L 13.536 0 "/>
<path transform="matrix(1,0,0,-1,442.26704,1073.087)" stroke-width=".94" stroke-linecap="butt" stroke-miterlimit="22.926" stroke-linejoin="miter" fill="none" stroke="#231f20" d="M 0 0 L 13.536 0 "/>
<path transform="matrix(1,0,0,-1,455.80305,1073.087)" stroke-width=".94" stroke-linecap="butt" stroke-miterlimit="22.926" stroke-linejoin="miter" fill="none" stroke="#231f20" d="M 0 0 L 0 -33.839 "/>
<text fill="#231f20" xml:space="preserve" transform="matrix(1 0 -0 1 0 1684)" font-size="9.3998" font-family="TimesNewRomanPSMT"><tspan y="-595.2772" x="485.8035 492.59016 497.61906 502.40354 507.10343 511.27696 518.6586 523.3585 528.0584 530.4084 535.1083 539.80819 542.15817 546.85806">&#x0410;&#x043d;&#x0434;&#x0440;&#x0435;&#x0439;14.08.81</tspan></text>
<path transform="matrix(1,0,0,-1,482.874,1078.843)" stroke-width=".94" stroke-linecap="butt" stroke-miterlimit="22.926" stroke-linejoin="miter" fill="none" stroke="#231f20" d="M 0 0 L 108.287 0 L 108.287 -13.536 L 0 -13.536 Z "/>
<path transform="matrix(1,0,0,-1,469.33799,1086.623)" stroke-width=".94" stroke-linecap="butt" stroke-miterlimit="22.926" stroke-linejoin="miter" fill="none" stroke="#231f20" d="M 0 0 L 13.536 0 "/>
<path transform="matrix(1,0,0,-1,455.80198,1086.623)" stroke-width=".94" stroke-linecap="butt" stroke-miterlimit="22.926" stroke-linejoin="miter" fill="none" stroke="#231f20" d="M 0 0 L 13.536 0 "/>
<path transform="matrix(1,0,0,-1,320.44398,815.90707)" stroke-width=".94" stroke-linecap="butt" stroke-miterlimit="22.926" stroke-linejoin="miter" fill="none" stroke="#231f20" d="M 0 0 L 0 -20.303 "/>
<path transform="matrix(1,0,0,-1,333.97999,828.43008)" stroke-width=".94" stroke-linecap="butt" stroke-miterlimit="22.926" stroke-linejoin="miter" fill="none" stroke="#231f20" d="M 0 0 L 108.287 0 L 108.287 -33.84 L 0 -33.84 Z "/>
<text fill="#231f20" xml:space="preserve" transform="matrix(1 0 -0 1 0 1684)" font-size="9.3998" font-family="TimesNewRomanPSMT"><tspan y="-957.8509" x="353.9688 360.3419 364.5154 369.2999 373.01283 378.04173 385.42057 390.2652 394.9651 399.994 403.6176 408.3175 413.0174 418.0463">&#x041b;&#x0430;&#x0431;&#x0437;&#x0438;&#x043d;&#x0413;&#x0440;&#x0438;&#x0433;&#x043e;&#x0440;&#x0438;&#x0439;</tspan><tspan y="-947.4406" x="353.9688 359.35209 364.05198 368.75187 374.84294 379.87184 385.8219 390.5218 394.9585 399.9874">&#x0422;&#x0440;&#x043e;&#x0444;&#x0438;&#x043c;&#x043e;&#x0432;&#x0438;&#x0447;</tspan><tspan y="-937.03036" x="375.11836 356.31877 361.01866 365.71855 370.41844 378.24845 382.94834 387.64823 389.99818 394.69807 399.39796 404.09785">-190212.1941</tspan></text>
<path transform="matrix(1,0,0,-1,320.444,721.156)" stroke-width=".94" stroke-linecap="butt" stroke-miterlimit="22.926" stroke-linejoin="miter" fill="none" stroke="#231f20" d="M 0 0 L 13.536 0 "/>
<path transform="matrix(1,0,0,-1,333.98,713.376)" stroke-width=".94" stroke-linecap="butt" stroke-miterlimit="22.926" stroke-linejoin="miter" fill="none" stroke="#231f20" d="M 0 0 L 108.287 0 L 108.287 -47.375 L 0 -47.375 Z "/>
</g>
</svg>
