<?xml version="1.0" encoding="UTF-8" standalone="no"?>
<!DOCTYPE svg PUBLIC "-//W3C//DTD SVG 1.1//EN" "http://www.w3.org/Graphics/SVG/1.1/DTD/svg11.dtd">
<svg xmlns="http://www.w3.org/2000/svg" xmlns:xlink="http://www.w3.org/1999/xlink" version="1.1" width="595.22pt" height="842pt" viewBox="0 0 595.22 842">
<g enable-background="new">
<path transform="matrix(1,0,0,-1,0,842)" stroke-width="1" stroke-linecap="butt" stroke-miterlimit="22.926" stroke-linejoin="miter" fill="none" stroke="#231f20" d="M 187.117 781.768 L 302.31703 781.768 L 302.31703 731.368 L 187.117 731.368 Z "/>
<text fill="#231f20" xml:space="preserve" transform="matrix(1 0 -0 1 0 842)" font-size="9.9999" font-family="TimesNewRomanPSMT"><tspan y="-764.4004" x="209.3528 216.57273 221.57268 226.44263 230.81258 236.16252 241.16248 248.3824 255.60233 260.95228 265.81224 271.16218 275.65913">&#x041f;&#x043e;&#x0440;&#x0442;&#x043d;&#x043e;&#x0432;&#x041d;&#x0438;&#x043a;&#x0438;&#x0442;&#x0430;</tspan><tspan y="-753.3255" x="209.3528 216.19274 222.67267 228.02262 233.37256 238.37252 242.34548 246.78543 252.13538 257.1353 261.85527 267.2052">&#x0410;&#x0444;&#x0438;&#x043d;&#x043e;&#x0433;&#x0435;&#x043d;&#x043e;&#x0432;&#x0438;&#x0447;</tspan></text>
<path transform="matrix(1,0,0,-1,187.117,117.83197)" stroke-width="1" stroke-linecap="butt" stroke-miterlimit="22.926" stroke-linejoin="miter" fill="none" stroke="#231f20" d="M 0 0 L 115.2 0 L 115.2 -28.8 L 0 -28.8 Z "/>
<path transform="matrix(1,0,0,-1,302.31703,82.908969)" stroke-width="1" stroke-linecap="butt" stroke-miterlimit="22.926" stroke-linejoin="miter" fill="none" stroke="#231f20" d="M 0 0 L 14.4 0 "/>
<path transform="matrix(1,0,0,-1,302.31703,133.30896)" stroke-width="1" stroke-linecap="butt" stroke-miterlimit="22.926" stroke-linejoin="miter" fill="none" stroke="#231f20" d="M 0 0 L 14.4 0 "/>
<path transform="matrix(1,0,0,-1,316.717,82.90896)" stroke-width="1" stroke-linecap="butt" stroke-miterlimit="22.926" stroke-linejoin="miter" fill="none" stroke="#231f20" d="M 0 0 L 0 -50.4 "/>
<path transform="matrix(1,0,0,-1,316.717,111.708957)" stroke-width="1" stroke-linecap="butt" stroke-miterlimit="22.926" stroke-linejoin="miter" fill="none" stroke="#231f20" d="M 0 0 L 14.4 0 "/>
<path transform="matrix(1,0,0,-1,331.117,82.90895)" stroke-width="1" stroke-linecap="butt" stroke-miterlimit="22.926" stroke-linejoin="miter" fill="none" stroke="#231f20" d="M 0 0 L 14.4 0 "/>
<path transform="matrix(1,0,0,-1,331.117,82.90895)" stroke-width="1" stroke-linecap="butt" stroke-miterlimit="22.926" stroke-linejoin="miter" fill="none" stroke="#231f20" d="M 0 0 L 0 -64.8 "/>
<text fill="#231f20" xml:space="preserve" transform="matrix(1 0 -0 1 0 842)" font-size="9.9999" font-family="TimesNewRomanPSMT"><tspan y="-712.9028" x="197.6873 204.90723 209.90718 214.77713 219.14708 224.49703 229.49698 234.08794 241.02687 244.35684 248.7968">&#x041f;&#x043e;&#x0440;&#x0442;&#x043d;&#x043e;&#x0432;&#x0430;(?)</tspan><tspan y="-701.8279" x="197.6873 204.90723 210.25717 214.69713 219.13709 223.62804 228.068 232.50795 237.8579 244.95783 252.85774 257.1627 262.25263 267.25257 272.2525 277.25245 281.97239 287.32234">&#x0410;&#x043d;&#x0430;&#x0441;&#x0442;&#x0430;&#x0441;&#x0438;&#x044f;&#x0424;&#x0435;&#x0434;&#x043e;&#x0440;&#x043e;&#x0432;&#x043d;&#x0430;</tspan></text>
<text fill="#231f20" xml:space="preserve" transform="matrix(1 0 -0 1 0 842)" font-size="9.9996" font-family="TimesNewRomanPSMT"><tspan y="-757.858" x="364.6242 371.84394 377.19374 382.54353 389.48725 394.48704 399.48683 401.98674 406.61454 411.61433 414.11424 419.114">&#x0410;&#x043d;&#x043d;&#x0430;10.11.05</tspan></text>
<path transform="matrix(1,0,0,-1,345.517,74.63202)" stroke-width="1" stroke-linecap="butt" stroke-miterlimit="22.926" stroke-linejoin="miter" fill="none" stroke="#231f20" d="M 0 0 L 115.2 0 L 115.2 -14.4 L 0 -14.4 Z "/>
<path transform="matrix(1,0,0,-1,187.117,189.83202)" stroke-width="1" stroke-linecap="butt" stroke-miterlimit="22.926" stroke-linejoin="miter" fill="none" stroke="#231f20" d="M 0 0 L 115.2 0 L 115.2 -50.4 L 0 -50.4 Z "/>
<text fill="#231f20" xml:space="preserve" transform="matrix(1 0 -0 1 0 842)" font-size="9.9999" font-family="TimesNewRomanPSMT"><tspan y="-630.1028" x="190.5211 200.61101 205.05097 209.15093 213.59088 218.03084 222.6158 229.55474 232.8847 240.10463 245.10459 249.97454 254.34449 259.69444 264.69438 269.2853 273.72526">&#x0428;&#x0430;&#x0433;&#x0430;&#x0435;&#x0432;&#x0430;(&#x041f;&#x043e;&#x0440;&#x0442;&#x043d;&#x043e;&#x0432;&#x0430;)</tspan><tspan y="-619.0279" x="190.5211 197.74103 202.18099 207.18094 211.6209 216.06085 220.66681 225.10677 229.69472 236.63465 243.47357 249.9535 255.30345 260.6534 265.65336 269.6263 274.06626 279.4162 284.41615 289.13609 294.48603">&#x041f;&#x0430;&#x0440;&#x0430;&#x0441;&#x043a;&#x0435;&#x0432;&#x0430;&#x0410;&#x0444;&#x0438;&#x043d;&#x043e;&#x0433;&#x0435;&#x043d;&#x043e;&#x0432;&#x043d;&#x0430;</tspan></text>
<path transform="matrix(1,0,0,-1,0,842)" stroke-width="1" stroke-linecap="butt" stroke-miterlimit="22.926" stroke-linejoin="miter" fill="none" stroke="#231f20" d="M 187.117 536.968 L 302.31703 536.968 L 302.31703 486.56803 L 187.117 486.56803 Z "/>
<text fill="#231f20" xml:space="preserve" transform="matrix(1 0 -0 1 0 842)" font-size="9.9999" font-family="TimesNewRomanPSMT"><tspan y="-519.6004" x="209.3528 216.57273 221.57268 226.44263 230.81258 236.16252 241.16248 248.3824 253.69835 258.5083 264.76823 269.20817">&#x041f;&#x043e;&#x0440;&#x0442;&#x043d;&#x043e;&#x0432;&#x0420;&#x043e;&#x043c;&#x0430;&#x043d;</tspan><tspan y="-508.5255" x="209.3528 216.19274 222.67267 228.02262 233.37256 238.37252 242.34548 246.78543 252.13538 257.1353 261.85527 267.2052">&#x0410;&#x0444;&#x0438;&#x043d;&#x043e;&#x0433;&#x0435;&#x043d;&#x043e;&#x0432;&#x0438;&#x0447;</tspan><tspan y="-497.45063" x="214.76274 219.7627 224.76265 229.7626 209.3528">1883~</tspan></text>
<path transform="matrix(1,0,0,-1,0,842)" stroke-width="1" stroke-linecap="butt" stroke-miterlimit="22.926" stroke-linejoin="miter" fill="none" stroke="#231f20" d="M 28.717 724.168 L 143.91699 724.168 L 143.91699 673.768 L 28.717 673.768 Z "/>
<text fill="#231f20" xml:space="preserve" transform="matrix(1 0 -0 1 0 842)" font-size="9.9999" font-family="TimesNewRomanPSMT"><tspan y="-706.8004" x="50.9528 58.17273 63.17268 68.04263 72.41259 77.762538 82.76248 89.982418 96.82534 103.305278 108.65522 114.005168 119.00511 122.97807 127.41803">&#x041f;&#x043e;&#x0440;&#x0442;&#x043d;&#x043e;&#x0432;&#x0410;&#x0444;&#x0438;&#x043d;&#x043e;&#x0433;&#x0435;&#x043d;</tspan><tspan y="-695.7255" x="50.9528 57.743734 62.18369 68.513629 72.95358 78.30353 83.303478 88.02343 93.373378">&#x0421;&#x0435;&#x043c;&#x0435;&#x043d;&#x043e;&#x0432;&#x0438;&#x0447;</tspan></text>
<path transform="matrix(1,0,0,-1,0,842)" stroke-width="1" stroke-linecap="butt" stroke-miterlimit="22.926" stroke-linejoin="miter" fill="none" stroke="#231f20" d="M 28.717 666.568 L 143.91699 666.568 L 143.91699 637.768 L 28.717 637.768 Z "/>
<text fill="#231f20" xml:space="preserve" transform="matrix(1 0 -0 1 0 842)" font-size="9.9999" font-family="TimesNewRomanPSMT"><tspan y="-656.3446" x="50.8672 58.087129 63.08708 67.95703 72.32699 77.67693 82.67688 87.26784 94.20677 97.536739">&#x041f;&#x043e;&#x0440;&#x0442;&#x043d;&#x043e;&#x0432;&#x0430;()</tspan><tspan y="-645.2697" x="50.8672 59.75711 63.93907 68.43003 73.42998 78.429927 83.77987 90.7198 97.38974 101.7387 106.73865 111.328609 116.31856 120.758518 125.47847 130.82842">&#x041c;&#x0430;&#x0442;&#x0440;&#x043e;&#x043d;&#x0430;&#x042f;&#x043a;&#x043e;&#x0432;&#x043b;&#x0435;&#x0432;&#x043d;&#x0430;</tspan></text>
<path transform="matrix(1,0,0,-1,143.917,140.51001)" stroke-width="1" stroke-linecap="butt" stroke-miterlimit="22.926" stroke-linejoin="miter" fill="none" stroke="#231f20" d="M 0 0 L 14.4 0 "/>
<path transform="matrix(1,0,0,-1,143.917,190.91)" stroke-width="1" stroke-linecap="butt" stroke-miterlimit="22.926" stroke-linejoin="miter" fill="none" stroke="#231f20" d="M 0 0 L 14.4 0 "/>
<path transform="matrix(1,0,0,-1,158.317,140.51001)" stroke-width="1" stroke-linecap="butt" stroke-miterlimit="22.926" stroke-linejoin="miter" fill="none" stroke="#231f20" d="M 0 0 L 0 -50.4 "/>
<path transform="matrix(1,0,0,-1,158.317,169.31002)" stroke-width="1" stroke-linecap="butt" stroke-miterlimit="22.926" stroke-linejoin="miter" fill="none" stroke="#231f20" d="M 0 0 L 14.4 0 "/>
<path transform="matrix(1,0,0,-1,172.717,82.91001)" stroke-width="1" stroke-linecap="butt" stroke-miterlimit="22.926" stroke-linejoin="miter" fill="none" stroke="#231f20" d="M 0 0 L 14.4 0 "/>
<path transform="matrix(1,0,0,-1,172.717,327.71003)" stroke-width="1" stroke-linecap="butt" stroke-miterlimit="22.926" stroke-linejoin="miter" fill="none" stroke="#231f20" d="M 0 0 L 14.4 0 "/>
<path transform="matrix(1,0,0,-1,172.717,25.310029)" stroke-width="1" stroke-linecap="butt" stroke-miterlimit="22.926" stroke-linejoin="miter" fill="none" stroke="#231f20" d="M 0 0 L 0 -302.4 "/>
<path transform="matrix(1,0,0,-1,172.717,212.51003)" stroke-width="1" stroke-linecap="butt" stroke-miterlimit="22.926" stroke-linejoin="miter" fill="none" stroke="#231f20" d="M 0 0 L 14.4 0 "/>
<path transform="matrix(1,0,0,-1,43.11699,722.633)" stroke-width="1" stroke-linecap="butt" stroke-miterlimit="22.926" stroke-linejoin="miter" fill="none" stroke="#231f20" d="M 0 0 L 115.2 0 L 115.2 -50.4 L 0 -50.4 Z "/>
<text fill="#231f20" xml:space="preserve" transform="matrix(1 0 -0 1 0 842)" font-size="9.9999" font-family="TimesNewRomanPSMT"><tspan y="-102.0005" x="65.3528 71.85274 77.20268 82.29263 87.29258 92.642528 96.991489 101.99143 109.211368 115.8813 120.23226 125.23221">&#x0427;&#x0438;&#x0431;&#x0440;&#x0438;&#x043a;&#x043e;&#x0432;&#x042f;&#x043a;&#x043e;&#x0432;</tspan><tspan y="-90.92561" x="65.3528 70.50475 75.5047 80.854648 84.70961 89.70956 94.7095 99.269458 103.70941 108.42937 113.77931">&#x0413;&#x0440;&#x0438;&#x0433;&#x043e;&#x0440;&#x044c;&#x0435;&#x0432;&#x0438;&#x0447;</tspan></text>
<path transform="matrix(1,0,0,-1,43.117,780.232)" stroke-width="1" stroke-linecap="butt" stroke-miterlimit="22.926" stroke-linejoin="miter" fill="none" stroke="#231f20" d="M 0 0 L 115.2 0 L 115.2 -28.8 L 0 -28.8 Z "/>
<path transform="matrix(1,0,0,-1,158.317,745.309)" stroke-width="1" stroke-linecap="butt" stroke-miterlimit="22.926" stroke-linejoin="miter" fill="none" stroke="#231f20" d="M 0 0 L 14.4 0 "/>
<path transform="matrix(1,0,0,-1,158.317,795.70907)" stroke-width="1" stroke-linecap="butt" stroke-miterlimit="22.926" stroke-linejoin="miter" fill="none" stroke="#231f20" d="M 0 0 L 14.4 0 "/>
<path transform="matrix(1,0,0,-1,172.717,745.309)" stroke-width="1" stroke-linecap="butt" stroke-miterlimit="22.926" stroke-linejoin="miter" fill="none" stroke="#231f20" d="M 0 0 L 0 -50.4 "/>
<path transform="matrix(1,0,0,-1,172.717,774.109)" stroke-width="1" stroke-linecap="butt" stroke-miterlimit="22.926" stroke-linejoin="miter" fill="none" stroke="#231f20" d="M 0 0 L 14.4 0 "/>
<path transform="matrix(1,0,0,-1,187.11699,745.309)" stroke-width="1" stroke-linecap="butt" stroke-miterlimit="22.926" stroke-linejoin="miter" fill="none" stroke="#231f20" d="M 0 0 L 14.4 0 "/>
<path transform="matrix(1,0,0,-1,187.11699,745.309)" stroke-width="1" stroke-linecap="butt" stroke-miterlimit="22.926" stroke-linejoin="miter" fill="none" stroke="#231f20" d="M 0 0 L 0 -28.8 "/>
<path transform="matrix(1,0,0,-1,43.11699,665.03207)" stroke-width="1" stroke-linecap="butt" stroke-miterlimit="22.926" stroke-linejoin="miter" fill="none" stroke="#231f20" d="M 0 0 L 115.2 0 L 115.2 -50.4 L 0 -50.4 Z "/>
<text fill="#231f20" xml:space="preserve" transform="matrix(1 0 -0 1 0 842)" font-size="9.9999" font-family="TimesNewRomanPSMT"><tspan y="-50.5029" x="53.1017 59.601636 64.951587 70.041538 75.04148 80.391429 84.74039 89.74033 94.33029 101.269229 104.59919 111.819118 116.81906 121.68901 126.05897 131.40892 136.40888 140.99983 145.43979">&#x0427;&#x0438;&#x0431;&#x0440;&#x0438;&#x043a;&#x043e;&#x0432;&#x0430;(&#x041f;&#x043e;&#x0440;&#x0442;&#x043d;&#x043e;&#x0432;&#x0430;)</tspan><tspan y="-39.42801" x="53.1017 61.99161 66.431568 71.43151 77.911449 84.85138 91.67131 96.11127 101.46121 106.81116 111.80111 116.801059 121.52101 126.87096">&#x041c;&#x0430;&#x0440;&#x0444;&#x0430;&#x0414;&#x0430;&#x043d;&#x0438;&#x043b;&#x043e;&#x0432;&#x043d;&#x0430;</tspan></text>
<path transform="matrix(1,0,0,-1,28.717,687.71)" stroke-width="1" stroke-linecap="butt" stroke-miterlimit="22.926" stroke-linejoin="miter" fill="none" stroke="#231f20" d="M 0 0 L 14.4 0 "/>
<path transform="matrix(1,0,0,-1,28.717,795.71)" stroke-width="1" stroke-linecap="butt" stroke-miterlimit="22.926" stroke-linejoin="miter" fill="none" stroke="#231f20" d="M 0 0 L 14.4 0 "/>
<path transform="matrix(1,0,0,-1,28.717,687.71)" stroke-width="1" stroke-linecap="butt" stroke-miterlimit="22.926" stroke-linejoin="miter" fill="none" stroke="#231f20" d="M 0 0 L 0 -108 "/>
<text fill="#231f20" xml:space="preserve" transform="matrix(1 0 -0 1 0 842)" font-size="9.9999" font-family="TimesNewRomanPSMT"><tspan y="-159.6004" x="65.3528 72.57272 77.57267 82.44262 86.81258 92.16252 97.16247 104.3824 111.602329 116.60227 121.60222 125.95618 130.95613 136.30608 141.65602">&#x041f;&#x043e;&#x0440;&#x0442;&#x043d;&#x043e;&#x0432;&#x041f;&#x0440;&#x043e;&#x043a;&#x043e;&#x043f;&#x0438;&#x0439;</tspan><tspan y="-148.52552" x="65.3528 72.17273 76.612689 81.96263 87.31258 92.30253 97.302478 102.02243 107.372379">&#x0414;&#x0430;&#x043d;&#x0438;&#x043b;&#x043e;&#x0432;&#x0438;&#x0447;</tspan><tspan y="-332.40068" x="65.3528 72.57272 77.57267 82.44262 86.81258 92.16252 97.16247 104.3824 111.602329 116.19628 120.63624">&#x041f;&#x043e;&#x0440;&#x0442;&#x043d;&#x043e;&#x0432;&#x0418;&#x0432;&#x0430;&#x043d;</tspan><tspan y="-321.32579" x="65.3528 73.252719 78.60266 83.59261 88.94256 94.2925 99.64245 104.642398 109.36235 114.712299">&#x0424;&#x0438;&#x043b;&#x0438;&#x043f;&#x043f;&#x043e;&#x0432;&#x0438;&#x0447;</tspan></text>
<path transform="matrix(1,0,0,-1,43.117,535.432)" stroke-width="1" stroke-linecap="butt" stroke-miterlimit="22.926" stroke-linejoin="miter" fill="none" stroke="#231f20" d="M 0 0 L 115.2 0 L 115.2 -28.8 L 0 -28.8 Z "/>
<path transform="matrix(1,0,0,-1,158.317,514.909)" stroke-width="1" stroke-linecap="butt" stroke-miterlimit="22.926" stroke-linejoin="miter" fill="none" stroke="#231f20" d="M 0 0 L 14.4 0 "/>
<path transform="matrix(1,0,0,-1,158.317,550.909)" stroke-width="1" stroke-linecap="butt" stroke-miterlimit="22.926" stroke-linejoin="miter" fill="none" stroke="#231f20" d="M 0 0 L 14.4 0 "/>
<path transform="matrix(1,0,0,-1,187.117,522.109)" stroke-width="1" stroke-linecap="butt" stroke-miterlimit="22.926" stroke-linejoin="miter" fill="none" stroke="#231f20" d="M 0 0 L 0 -43.2 "/>
<path transform="matrix(1,0,0,-1,172.71701,543.709)" stroke-width="1" stroke-linecap="butt" stroke-miterlimit="22.926" stroke-linejoin="miter" fill="none" stroke="#231f20" d="M 0 0 L 14.4 0 "/>
<text fill="#231f20" xml:space="preserve" transform="matrix(1 0 -0 1 0 842)" font-size="9.9999" font-family="TimesNewRomanPSMT"><tspan y="-296.4005" x="65.3528 72.57272 77.57267 82.44262 86.81258 92.16252 97.16247 101.753429">&#x041f;&#x043e;&#x0440;&#x0442;&#x043d;&#x043e;&#x0432;&#x0430;</tspan><tspan y="-285.32563" x="65.3528 72.57272 77.92267 83.27261 90.21255 97.006488 101.44644 106.44639 110.41435 114.85431 119.294269 124.01422 129.36417">&#x0410;&#x043d;&#x043d;&#x0430;&#x0421;&#x0435;&#x0440;&#x0433;&#x0435;&#x0435;&#x0432;&#x043d;&#x0430;</tspan><tspan y="-296.4005" x="108.69336 112.02332">()</tspan></text>
<text fill="#231f20" xml:space="preserve" transform="matrix(1 0 -0 1 0 842)" font-size="9.9996" font-family="TimesNewRomanPSMT"><tspan y="-275.4581" x="220.6242 227.84392 232.83373 237.27355 241.88336 246.44318 250.883 258.7327 263.73249 268.73228 271.23219 276.23197 281.23176 283.73167 288.73146">&#x0410;&#x043b;&#x0435;&#x043a;&#x0441;&#x0435;&#x0439;01.03.04</tspan></text>
<path transform="matrix(1,0,0,-1,0,842)" stroke-width="1" stroke-linecap="butt" stroke-miterlimit="22.926" stroke-linejoin="miter" fill="none" stroke="#231f20" d="M 201.517 284.968 L 316.71699 284.968 L 316.71699 270.568 L 201.517 270.568 Z "/>
<text fill="#231f20" xml:space="preserve" transform="matrix(1 0 -0 1 0 842)" font-size="9.9999" font-family="TimesNewRomanPSMT"><tspan y="-418.8004" x="65.3528 72.57272 77.57267 82.44262 86.81258 92.16252 97.16247 104.3824 111.602329 116.19628 120.63624">&#x041f;&#x043e;&#x0440;&#x0442;&#x043d;&#x043e;&#x0432;&#x0418;&#x0432;&#x0430;&#x043d;</tspan><tspan y="-407.72554" x="65.3528 73.252719 78.60266 83.59261 88.94256 94.2925 99.64245 104.642398 109.36235 114.712299">&#x0424;&#x0438;&#x043b;&#x0438;&#x043f;&#x043f;&#x043e;&#x0432;&#x0438;&#x0447;</tspan><tspan y="-396.65065" x="70.76274 75.76269 80.762638 85.76258 65.3528">1886~</tspan></text>
<path transform="matrix(1,0,0,-1,158.317,428.51)" stroke-width="1" stroke-linecap="butt" stroke-miterlimit="22.926" stroke-linejoin="miter" fill="none" stroke="#231f20" d="M 0 0 L 14.4 0 "/>
<path transform="matrix(1,0,0,-1,158.317,471.71003)" stroke-width="1" stroke-linecap="butt" stroke-miterlimit="22.926" stroke-linejoin="miter" fill="none" stroke="#231f20" d="M 0 0 L 14.4 0 "/>
<path transform="matrix(1,0,0,-1,172.717,428.51)" stroke-width="1" stroke-linecap="butt" stroke-miterlimit="22.926" stroke-linejoin="miter" fill="none" stroke="#231f20" d="M 0 0 L 0 -43.2 "/>
<path transform="matrix(1,0,0,-1,172.717,457.31)" stroke-width="1" stroke-linecap="butt" stroke-miterlimit="22.926" stroke-linejoin="miter" fill="none" stroke="#231f20" d="M 0 0 L 14.4 0 "/>
<text fill="#231f20" xml:space="preserve" transform="matrix(1 0 -0 1 0 842)" font-size="9.9999" font-family="TimesNewRomanPSMT"><tspan y="-375.4395" x="52.4772 59.69713 64.697078 69.567028 73.93698 79.28693 84.28687 88.87783 95.816768 99.14673 104.04968 108.91763 113.907588 118.90753 123.49749 127.53545 132.5654 137.00536 141.5933 146.03327">&#x041f;&#x043e;&#x0440;&#x0442;&#x043d;&#x043e;&#x0432;&#x0430;(&#x0413;&#x043e;&#x043b;&#x043e;&#x0432;&#x0430;&#x0447;&#x0435;&#x0432;&#x0430;)</tspan><tspan y="-364.36463" x="52.4772 59.69713 64.137088 69.12704 73.56699 77.53496 81.974918 89.074848 95.894779 102.22472 107.57466 112.06562 117.06557 122.41551 126.85547 131.57543 136.92537">&#x041f;&#x0435;&#x043b;&#x0430;&#x0433;&#x0435;&#x044f;&#x0414;&#x043c;&#x0438;&#x0442;&#x0440;&#x0438;&#x0435;&#x0432;&#x043d;&#x0430;</tspan><tspan y="-353.28974" x="52.4772 57.887147 62.887098 67.88705 72.88699">~1887</tspan></text>
<text fill="#231f20" xml:space="preserve" transform="matrix(1 0 -0 1 0 842)" font-size="9.9996" font-family="TimesNewRomanPSMT"><tspan y="-383.4581" x="207.9805 215.20021 220.55 225.8998 232.84352 237.84333 242.84313 245.34302 250.34282 255.34262 257.84254 262.84233">&#x0410;&#x043d;&#x043d;&#x0430;25.10.05</tspan></text>
<path transform="matrix(1,0,0,-1,0,842)" stroke-width="1" stroke-linecap="butt" stroke-miterlimit="22.926" stroke-linejoin="miter" fill="none" stroke="#231f20" d="M 201.517 392.968 L 316.71699 392.968 L 316.71699 378.568 L 201.517 378.568 Z "/>
<text fill="#231f20" xml:space="preserve" transform="matrix(1 0 -0 1 0 842)" font-size="9.9996" font-family="TimesNewRomanPSMT"><tspan y="-272.9959" x="341.983 349.20274 354.2025 359.0723 363.4421 368.7919 373.7917 381.0114 389.90107 395.25086 400.12666 404.56648 409.91627 417.40599 426.29563 431.64543 436.5172 440.95704 446.30683 451.29664 456.29643 461.01625 466.36604 473.89973 478.8995 483.8993 486.3992 491.399 496.39878 498.89869 503.89848 508.89826 513.8981 522.2278 527.2276 532.2274 534.7273 539.7271 544.7269 547.2268 552.2266 557.22647 562.22628">&#x041f;&#x043e;&#x0440;&#x0442;&#x043d;&#x043e;&#x0432;&#x041c;&#x0438;&#x0445;&#x0430;&#x0438;&#x043b;&#x041c;&#x0438;&#x0445;&#x0430;&#x0439;&#x043b;&#x043e;&#x0432;&#x0438;&#x0447;15.07.190026.02.1942</tspan><tspan y="-261.92137" x="341.983 349.20274 354.2025 359.0723 363.4421 368.7919 373.7917 381.0114 389.90107 395.25086 400.12666 404.56648 409.91627 417.40599 424.6257 429.21754 433.65736 439.00715 444.00694 448.72676 454.07655 461.61024 466.61003 471.6098 474.1097 479.1095 484.10929 486.6092 491.60899 496.60877 501.60856 506.60835 509.9382 514.938 519.9378 522.4377 527.4375 532.4373 534.9372 539.937 544.9368 549.93667 557.43539">&#x041f;&#x043e;&#x0440;&#x0442;&#x043d;&#x043e;&#x0432;&#x041c;&#x0438;&#x0445;&#x0430;&#x0438;&#x043b;&#x0418;&#x0432;&#x0430;&#x043d;&#x043e;&#x0432;&#x0438;&#x0447;16.07.1908-26.02.1942&#x041c;</tspan><tspan y="-272.9959" x="518.8939 567.221 572.2208">-87</tspan></text>
<text fill="#231f20" xml:space="preserve" transform="matrix(1 0 -0 1 0 842)" font-size="9.9999" font-family="TimesNewRomanPSMT"><tspan y="-95.7991" x="341.983 349.20295 354.20289 359.0728 363.44279 368.79273 373.79267 378.3836 385.32353 392.54347 396.6434 401.64335 406.9933 412.34324 417.69319 423.04313 429.98304 436.65296 441.0079 446.00785 450.59779 455.58775 460.02769 464.74763 470.09757 477.03749 480.36744 485.36738 490.3673 492.86729 497.86723 502.86717 505.36714 510.36708">&#x041f;&#x043e;&#x0440;&#x0442;&#x043d;&#x043e;&#x0432;&#x0430;&#x0410;&#x0433;&#x0440;&#x0438;&#x043f;&#x0438;&#x043d;&#x0430;&#x042f;&#x043a;&#x043e;&#x0432;&#x043b;&#x0435;&#x0432;&#x043d;&#x0430;-22.08.02</tspan></text>
<text fill="#231f20" xml:space="preserve" transform="matrix(1 0 -0 1 0 842)" font-size="9.9996" font-family="TimesNewRomanPSMT"><tspan y="-239.7716" x="341.983 350.4347 354.8745 360.2243">&#x0416;&#x0435;&#x043d;&#x044b;</tspan><tspan y="-228.69705" x="341.983 349.20274 354.2025 359.0723 363.4421 368.7919 373.7917 378.3835 385.32325 392.54298 397.89277 403.24256 410.18229 417.402 422.7518 427.10765 431.97544 436.96525 441.40507 445.84489 450.5647 455.9145">&#x041f;&#x043e;&#x0440;&#x0442;&#x043d;&#x043e;&#x0432;&#x0430;&#x0410;&#x043d;&#x043d;&#x0430;&#x041d;&#x0438;&#x043a;&#x043e;&#x043b;&#x0430;&#x0435;&#x0432;&#x043d;&#x0430;</tspan><tspan y="-217.6225" x="385.32127 391.743 396.30284 400.74266 406.09245 411.44224 418.54197 425.2117 429.65153 434.09135 439.44114 444.43095 448.99076 453.43058 458.1504 463.50019">&#x041a;&#x0441;&#x0435;&#x043d;&#x0438;&#x044f;&#x0412;&#x0430;&#x0441;&#x0438;&#x043b;&#x044c;&#x0435;&#x0432;&#x043d;&#x0430;</tspan><tspan y="-206.54795" x="385.32127 391.181 395.36085 399.73066 404.29048 408.8903 414.24009 421.1798 428.39955 433.74934 438.10316 442.97096 447.96076 452.40058 456.8404 461.5602 466.91">&#x0422;&#x0430;&#x0442;&#x044c;&#x044f;&#x043d;&#x0430;&#x041d;&#x0438;&#x043a;&#x043e;&#x043b;&#x0430;&#x0435;&#x0432;&#x043d;&#x0430;</tspan><tspan y="-195.47339" x="461.4262">~</tspan><tspan y="-217.6225" x="341.98298 349.2027 354.20249 359.07228 363.44209 368.79188 373.79167 378.38349 467.9389 472.93873 477.37855 482.24534 487.23515 492.32493 497.32475 504.10249 508.5423 513.8921 518.3319 523.33169 528.19149 533.1913 538.19107 544.96878 549.40859 554.75839">&#x041f;&#x043e;&#x0440;&#x0442;&#x043d;&#x043e;&#x0432;&#x0430;,&#x0441;&#x043e;&#x043b;&#x0434;.&#x0436;&#x0435;&#x043d;&#x0430;,&#x043a;&#x0440;.&#x0436;&#x0435;&#x043d;&#x0430;</tspan><tspan y="-206.54795" x="341.98298 349.2027 354.20249 359.07228 363.44209 368.79188 373.79167 378.38349 473.84767 477.17753 482.1773 487.1771 489.677 494.6768 499.67658 502.17649 507.17628">&#x041f;&#x043e;&#x0440;&#x0442;&#x043d;&#x043e;&#x0432;&#x0430;-19.04.00</tspan><tspan y="-195.47339" x="341.98298 349.2027 354.20249 359.07228 363.44209 368.79188 373.79167 378.38349 385.3232 394.21287 398.65269 403.65248 410.1322 417.07194 424.29167 428.2205 433.0883 439.41804 444.41783 449.13764 454.48744 466.83695 471.83674 476.83653 481.8363 486.8361 490.16596 495.16575 500.16554 502.66545 507.66523 512.66506 515.1649 520.16476">&#x041f;&#x043e;&#x0440;&#x0442;&#x043d;&#x043e;&#x0432;&#x0430;&#x041c;&#x0430;&#x0440;&#x0444;&#x0430;&#x041d;&#x0430;&#x0443;&#x043c;&#x043e;&#x0432;&#x043d;&#x0430;1833-27.03.97</tspan><tspan y="-184.39884" x="341.98298 349.2027 354.20249 359.07228 363.44209 368.79188 373.79167 378.38349 385.3232 392.54295 397.89274 403.24253 410.18424 412.68415 415.18406 421.5138 426.51359 431.10243 435.54225 440.54206 445.40187 450.40165 455.40147 459.8743 464.96409 469.96388 474.5527">&#x041f;&#x043e;&#x0440;&#x0442;&#x043d;&#x043e;&#x0432;&#x0430;&#x0410;&#x043d;&#x043d;&#x0430;..&#x043c;&#x043e;&#x0432;&#x0430;,&#x043a;&#x0440;.&#x0432;&#x0434;&#x043e;&#x0432;&#x0430;</tspan><tspan y="-173.32428" x="341.98298 349.2027 354.20249 359.07228 363.44209 368.79188 373.79167 378.38349 385.3232 391.43296 395.90278 400.99256 405.99235 410.85215 416.20195 423.30168 429.9714 434.41123 438.85105 444.20085 449.19065 453.75047 458.19029 462.9101 468.2599">&#x041f;&#x043e;&#x0440;&#x0442;&#x043d;&#x043e;&#x0432;&#x0430;&#x0415;&#x0432;&#x0434;&#x043e;&#x043a;&#x0438;&#x044f;&#x0412;&#x0430;&#x0441;&#x0438;&#x043b;&#x044c;&#x0435;&#x0432;&#x043d;&#x0430;</tspan><tspan y="-162.24973" x="341.98298 349.2027 354.20249 359.07228 363.44209 368.79188 373.79167 378.38349 385.3232 392.54295 396.64277 401.64256 406.99235 412.34214 417.69194 423.04173 429.98146 437.20118 441.641 446.1398 451.1396 456.13938 460.7292">&#x041f;&#x043e;&#x0440;&#x0442;&#x043d;&#x043e;&#x0432;&#x0430;&#x0410;&#x0433;&#x0440;&#x0438;&#x043f;&#x0438;&#x043d;&#x0430;&#x041f;&#x0435;&#x0442;&#x0440;&#x043e;&#x0432;&#x0430;</tspan><tspan y="-140.10062" x="341.98298 349.2027 354.20249 359.07228 363.44209 368.79188 373.79167 378.38349 385.3232 391.43296 396.13578 400.3156 404.68544 409.12525 414.12504 419.47483 424.82463 431.76435 438.43409 442.8739 447.53575 451.97557 456.96537 461.52519 465.965 470.6848 476.0346">&#x041f;&#x043e;&#x0440;&#x0442;&#x043d;&#x043e;&#x0432;&#x0430;&#x0415;&#x043a;&#x0430;&#x0442;&#x0435;&#x0440;&#x0438;&#x043d;&#x0430;&#x0421;&#x0430;&#x0432;&#x0435;&#x043b;&#x044c;&#x0435;&#x0432;&#x043d;&#x0430;</tspan><tspan y="-129.02606" x="341.98298 349.2027 354.20249 359.07228 363.44209 368.79188 373.79167 378.38349 385.3232 390.473 395.47279 400.47257 406.9523 411.39213 416.7419 423.68165 432.5713 436.75114 441.12095 445.78376 450.22358 454.6634 459.3832 464.733">&#x041f;&#x043e;&#x0440;&#x0442;&#x043d;&#x043e;&#x0432;&#x0430;&#x0413;&#x0440;&#x043e;&#x0444;&#x0435;&#x043d;&#x0430;&#x041c;&#x0430;&#x0442;&#x0432;&#x0435;&#x0435;&#x0432;&#x043d;&#x0430;</tspan><tspan y="-117.95151" x="341.98298 349.2027 354.20249 359.07228 363.44209 368.79188 373.79167 378.38349 385.3232 391.43296 396.13578 400.3156 404.68544 409.12525 414.12504 419.47483 424.82463 431.76435 440.654 445.0938 449.96263 454.33244 461.05216 466.40196 471.40174 476.12156 481.47135">&#x041f;&#x043e;&#x0440;&#x0442;&#x043d;&#x043e;&#x0432;&#x0430;&#x0415;&#x043a;&#x0430;&#x0442;&#x0435;&#x0440;&#x0438;&#x043d;&#x0430;&#x041c;&#x0430;&#x0440;&#x0442;&#x044b;&#x043d;&#x043e;&#x0432;&#x043d;&#x0430;</tspan><tspan y="-106.87695" x="341.98298 349.2027 354.20249 359.07228 363.44209 368.79188 373.79167 378.38349 385.3232 391.43296 396.13578 400.3156 404.68544 409.12525 414.12504 419.47483 424.82463 431.76435 438.43409 442.8739 447.31373 452.6635 457.65333 462.21315 466.65296 471.24079">&#x041f;&#x043e;&#x0440;&#x0442;&#x043d;&#x043e;&#x0432;&#x0430;&#x0415;&#x043a;&#x0430;&#x0442;&#x0435;&#x0440;&#x0438;&#x043d;&#x0430;&#x0412;&#x0430;&#x0441;&#x0438;&#x043b;&#x044c;&#x0435;&#x0432;&#x0430;</tspan></text>
<path transform="matrix(1,0,0,-1,0,842)" stroke-width="1" stroke-linecap="butt" stroke-miterlimit="22.926" stroke-linejoin="miter" fill="none" stroke="#231f20" d="M 187.117 594.568 L 302.31703 594.568 L 302.31703 544.16799 L 187.117 544.16799 Z "/>
<text fill="#231f20" xml:space="preserve" transform="matrix(1 0 -0 1 0 842)" font-size="9.9999" font-family="TimesNewRomanPSMT"><tspan y="-577.2004" x="209.3528 219.4427 223.88266 227.98262 232.42258 236.86254 244.08246 252.97237 257.41233 262.01728 266.4572 271.80717">&#x0428;&#x0430;&#x0433;&#x0430;&#x0435;&#x0432;&#x041c;&#x0430;&#x043a;&#x0441;&#x0438;&#x043c;</tspan><tspan y="-566.1255" x="209.3528 216.57273 221.16468 225.60463 230.95458 235.95453 240.67449 246.02443">&#x0418;&#x0432;&#x0430;&#x043d;&#x043e;&#x0432;&#x0438;&#x0447;</tspan><tspan y="-555.0506" x="214.76274 219.7627 224.76265 229.7626 209.3528">1884~</tspan></text>
<path transform="matrix(1,0,0,-1,302.317,219.71002)" stroke-width="1" stroke-linecap="butt" stroke-miterlimit="22.926" stroke-linejoin="miter" fill="none" stroke="#231f20" d="M 0 0 L 14.4 0 "/>
<path transform="matrix(1,0,0,-1,302.317,270.11003)" stroke-width="1" stroke-linecap="butt" stroke-miterlimit="22.926" stroke-linejoin="miter" fill="none" stroke="#231f20" d="M 0 0 L 14.4 0 "/>
<path transform="matrix(1,0,0,-1,316.71699,219.71002)" stroke-width="1" stroke-linecap="butt" stroke-miterlimit="22.926" stroke-linejoin="miter" fill="none" stroke="#231f20" d="M 0 0 L 0 -50.4 "/>
<text fill="#231f20" xml:space="preserve" transform="matrix(.000033333706 -1 1 .000033333706 0 842)" font-size="8.9999" font-family="TimesNewRomanPSMT"><tspan y="313.4352" x="580.99118 585.4911 607.6569">065</tspan><tspan y="313.43525" x="589.991">.</tspan><tspan y="313.4352" x="592.241">1</tspan><tspan y="313.43525" x="596.40707 600.907">1.</tspan><tspan y="313.4352" x="603.157">0</tspan></text>
<path transform="matrix(1,0,0,-1,172.717,46.909975)" stroke-width="1" stroke-linecap="butt" stroke-miterlimit="22.926" stroke-linejoin="miter" fill="none" stroke="#231f20" d="M 0 0 L 14.4 0 "/>
<text fill="#231f20" xml:space="preserve" transform="matrix(1 0 -0 1 0 842)" font-size="9.9996" font-family="TimesNewRomanPSMT"><tspan y="-793.858" x="206.2242 213.01593 217.45575 222.45555 226.4234 230.86322 238.7129 243.7127 248.71251 253.71231 258.7121 262.04197 267.04176 272.04154 274.54145 279.54124 284.54103 287.04093 292.0407">&#x0421;&#x0435;&#x0440;&#x0433;&#x0435;&#x0439;1895-01.10.97</tspan></text>
<path transform="matrix(1,0,0,-1,187.117,38.63202)" stroke-width="1" stroke-linecap="butt" stroke-miterlimit="22.926" stroke-linejoin="miter" fill="none" stroke="#231f20" d="M 0 0 L 115.2 0 L 115.2 -14.4 L 0 -14.4 Z "/>
<path transform="matrix(1,0,0,-1,187.117,457.30903)" stroke-width="1" stroke-linecap="butt" stroke-miterlimit="22.926" stroke-linejoin="miter" fill="none" stroke="#231f20" d="M 0 0 L 14.4 0 "/>
<path transform="matrix(1,0,0,-1,187.117,565.309)" stroke-width="1" stroke-linecap="butt" stroke-miterlimit="22.926" stroke-linejoin="miter" fill="none" stroke="#231f20" d="M 0 0 L 14.4 0 "/>
<path transform="matrix(1,0,0,-1,172.71701,25.309021)" stroke-width="1" stroke-linecap="butt" stroke-miterlimit="22.926" stroke-linejoin="miter" fill="none" stroke="#231f20" d="M 0 0 L 14.4 0 "/>
<text fill="#231f20" xml:space="preserve" transform="matrix(1 0 -0 1 0 842)" font-size="9.9996" font-family="TimesNewRomanPSMT"><tspan y="-815.4581" x="206.2242 213.44391 218.03574 222.47556 230.32524 235.32505 240.32485 242.82474 247.82454 252.82434 255.32424 260.32405">&#x0418;&#x0432;&#x0430;&#x043d;19.02.98</tspan></text>
<path transform="matrix(1,0,0,-1,0,842)" stroke-width="1" stroke-linecap="butt" stroke-miterlimit="22.926" stroke-linejoin="miter" fill="none" stroke="#231f20" d="M 187.117 824.968 L 302.31703 824.968 L 302.31703 810.568 L 187.117 810.568 Z "/>
<text fill="#231f20" xml:space="preserve" transform="matrix(1 0 -0 1 0 842)" font-size="9.9999" font-family="TimesNewRomanPSMT"><tspan y="-222.3878" x="66.3171 73.537029 78.53697 83.40692 87.77688 93.12682 98.12677">&#x041f;&#x043e;&#x0440;&#x0442;&#x043d;&#x043e;&#x0432;</tspan><tspan y="-211.31291" x="66.3171 74.21702 79.56696 84.556919 89.90686 95.256809 100.60675 105.6067 110.32665 115.6766">&#x0424;&#x0438;&#x043b;&#x0438;&#x043f;&#x043f;&#x043e;&#x0432;&#x0438;&#x0447;</tspan><tspan y="-222.3878" x="105.35071 112.14165 116.581607 121.58155 125.549518 129.98947">&#x0421;&#x0435;&#x0440;&#x0433;&#x0435;&#x0439;</tspan></text>
<text fill="#231f20" xml:space="preserve" transform="matrix(1 0 -0 1 0 842)" font-size="9.9996" font-family="TimesNewRomanPSMT"><tspan y="-318.6581" x="220.6242 227.56392 232.56372 237.56352 240.06342 245.06322 250.06302 252.56291 257.5627">?08.05.98</tspan></text>
<path transform="matrix(1,0,0,-1,201.517,513.83206)" stroke-width="1" stroke-linecap="butt" stroke-miterlimit="22.926" stroke-linejoin="miter" fill="none" stroke="#231f20" d="M 0 0 L 115.2 0 L 115.2 -14.4 L 0 -14.4 Z "/>
<path transform="matrix(1,0,0,-1,187.117,522.109)" stroke-width="1" stroke-linecap="butt" stroke-miterlimit="22.926" stroke-linejoin="miter" fill="none" stroke="#231f20" d="M 0 0 L 14.4 0 "/>
<path transform="matrix(1,0,0,-1,172.71701,514.909)" stroke-width="1" stroke-linecap="butt" stroke-miterlimit="22.926" stroke-linejoin="miter" fill="none" stroke="#231f20" d="M 0 0 L 0 -36 "/>
<path transform="matrix(1,0,0,-1,43.117006,571.432)" stroke-width="1" stroke-linecap="butt" stroke-miterlimit="22.926" stroke-linejoin="miter" fill="none" stroke="#231f20" d="M 0 0 L 115.2 0 L 115.2 -28.8 L 0 -28.8 Z "/>
<text fill="#231f20" xml:space="preserve" transform="matrix(1 0 -0 1 0 842)" font-size="9.9999" font-family="TimesNewRomanPSMT"><tspan y="-260.4005" x="65.3528 74.24271 78.42467 82.794628 87.45758 91.89754 96.337497 100.92445">&#x041c;&#x0430;&#x0442;&#x0432;&#x0435;&#x0435;&#x0432;&#x0430;</tspan><tspan y="-249.32563" x="65.3528 72.57272 76.67268 81.11264 87.592578 92.15253 99.25246 106.044399 110.48435 115.4843 119.45226 123.89222 128.33217 133.05213 138.40207">&#x0410;&#x0433;&#x0430;&#x0444;&#x044c;&#x044f;&#x0421;&#x0435;&#x0440;&#x0433;&#x0435;&#x0435;&#x0432;&#x043d;&#x0430;</tspan><tspan y="-260.4005" x="107.86337 111.19334">()</tspan></text>
<path transform="matrix(1,0,0,-1,35.917,543.70999)" stroke-width="1" stroke-linecap="butt" stroke-miterlimit="22.926" stroke-linejoin="miter" fill="none" stroke="#231f20" d="M 0 0 L 7.2 0 "/>
<path transform="matrix(1,0,0,-1,28.718,392.50996)" stroke-width="1" stroke-linecap="butt" stroke-miterlimit="22.926" stroke-linejoin="miter" fill="none" stroke="#231f20" d="M 0 0 L 0 -36 "/>
<path transform="matrix(1,0,0,-1,35.917,586.9099)" stroke-width="1" stroke-linecap="butt" stroke-miterlimit="22.926" stroke-linejoin="miter" fill="none" stroke="#231f20" d="M 0 0 L 7.2 0 "/>
<path transform="matrix(1,0,0,-1,331.117,104.50992)" stroke-width="1" stroke-linecap="butt" stroke-miterlimit="22.926" stroke-linejoin="miter" fill="none" stroke="#231f20" d="M 0 0 L 14.4 0 "/>
<text fill="#231f20" xml:space="preserve" transform="matrix(1 0 -0 1 0 842)" font-size="9.9996" font-family="TimesNewRomanPSMT"><tspan y="-736.2581" x="364.6242 371.41596 375.85578 380.85557 384.8234 389.2632 397.1129 402.1127 407.1125 409.6124 414.61219 419.61198 422.11189 427.11167">&#x0421;&#x0435;&#x0440;&#x0433;&#x0435;&#x0439;07.08.98</tspan></text>
<path transform="matrix(1,0,0,-1,345.517,96.231998)" stroke-width="1" stroke-linecap="butt" stroke-miterlimit="22.926" stroke-linejoin="miter" fill="none" stroke="#231f20" d="M 0 0 L 115.2 0 L 115.2 -14.4 L 0 -14.4 Z "/>
<path transform="matrix(1,0,0,-1,187.117,153.832)" stroke-width="1" stroke-linecap="butt" stroke-miterlimit="22.926" stroke-linejoin="miter" fill="none" stroke="#231f20" d="M 0 0 L 115.2 0 L 115.2 -28.8 L 0 -28.8 Z "/>
<text fill="#231f20" xml:space="preserve" transform="matrix(1 0 -0 1 0 842)" font-size="9.9999" font-family="TimesNewRomanPSMT"><tspan y="-676.9028" x="197.6873 204.40024 208.8402 213.42815 217.8681 225.56803 230.91797 236.26792 243.20784 246.53781 250.97777">&#x041b;&#x0435;&#x0432;&#x0430;&#x0448;&#x0438;&#x043d;&#x0430;(?)</tspan><tspan y="-665.8279" x="197.6873 204.90723 209.34719 214.33713 218.77709 222.74504 227.185 234.28493 242.18485 246.4898 251.57976 256.5797 261.57966 266.5796 271.29954 276.64949">&#x041f;&#x0435;&#x043b;&#x0430;&#x0433;&#x0435;&#x044f;&#x0424;&#x0435;&#x0434;&#x043e;&#x0440;&#x043e;&#x0432;&#x043d;&#x0430;</tspan></text>
<path transform="matrix(1,0,0,-1,179.917,133.31)" stroke-width="1" stroke-linecap="butt" stroke-miterlimit="22.926" stroke-linejoin="miter" fill="none" stroke="#231f20" d="M 0 0 L 7.2 0 "/>
<path transform="matrix(1,0,0,-1,179.917,133.31)" stroke-width="1" stroke-linecap="butt" stroke-miterlimit="22.926" stroke-linejoin="miter" fill="none" stroke="#231f20" d="M 0 0 L 0 -28.8 L 7.2 -28.8 "/>
<text fill="#231f20" xml:space="preserve" transform="matrix(1 0 -0 1 0 842)" font-size="9.9996" font-family="TimesNewRomanPSMT"><tspan y="-95.4581" x="207.9805 215.20021 219.64003 224.72983 229.16965 236.07938 241.16918 248.10289 253.10269 258.10249 260.6024 265.60218 270.60197 273.10188 278.10166">&#x041d;&#x0430;&#x0434;&#x0435;&#x0436;&#x0434;&#x0430;16.09.00</tspan></text>
<path transform="matrix(1,0,0,-1,201.517,737.032)" stroke-width="1" stroke-linecap="butt" stroke-miterlimit="22.926" stroke-linejoin="miter" fill="none" stroke="#231f20" d="M 0 0 L 115.2 0 L 115.2 -14.4 L 0 -14.4 Z "/>
<path transform="matrix(1,0,0,-1,331.117,126.10901)" stroke-width="1" stroke-linecap="butt" stroke-miterlimit="22.926" stroke-linejoin="miter" fill="none" stroke="#231f20" d="M 0 0 L 14.4 0 "/>
<text fill="#231f20" xml:space="preserve" transform="matrix(1 0 -0 1 0 842)" font-size="9.9996" font-family="TimesNewRomanPSMT"><tspan y="-714.6581" x="364.6242 373.51387 377.95368 382.95347 388.30326 395.40498 400.40476 405.40455 407.90446 412.90425 417.90403 420.40394 425.40373">&#x041c;&#x0430;&#x0440;&#x0438;&#x044f;08.06.02</tspan></text>
<path transform="matrix(1,0,0,-1,0,842)" stroke-width="1" stroke-linecap="butt" stroke-miterlimit="22.926" stroke-linejoin="miter" fill="none" stroke="#231f20" d="M 345.517 724.168 L 460.71699 724.168 L 460.71699 709.768 L 345.517 709.768 Z "/>
<text fill="#231f20" xml:space="preserve" transform="matrix(1 0 -0 1 0 842)" font-size="9.9996" font-family="TimesNewRomanPSMT"><tspan y="-297.0581" x="220.6242 226.73397 231.43877 235.61859 239.98842 244.42824 249.42804 254.77783 260.12763 267.06736 272.06715 277.06694 279.56684 284.56663 289.5664 292.0663 297.0661">&#x0415;&#x043a;&#x0430;&#x0442;&#x0435;&#x0440;&#x0438;&#x043d;&#x0430;22.06.02</tspan></text>
<path transform="matrix(1,0,0,-1,201.517,535.432)" stroke-width="1" stroke-linecap="butt" stroke-miterlimit="22.926" stroke-linejoin="miter" fill="none" stroke="#231f20" d="M 0 0 L 115.2 0 L 115.2 -14.4 L 0 -14.4 Z "/>
<path transform="matrix(1,0,0,-1,187.117,543.709)" stroke-width="1" stroke-linecap="butt" stroke-miterlimit="22.926" stroke-linejoin="miter" fill="none" stroke="#231f20" d="M 0 0 L 14.4 0 "/>
<path transform="matrix(1,0,0,-1,331.117,147.70899)" stroke-width="1" stroke-linecap="butt" stroke-miterlimit="22.926" stroke-linejoin="miter" fill="none" stroke="#231f20" d="M 0 0 L 14.4 0 "/>
<text fill="#231f20" xml:space="preserve" transform="matrix(1 0 -0 1 0 842)" font-size="9.9996" font-family="TimesNewRomanPSMT"><tspan y="-693.0581" x="364.6242 371.84394 376.83375 381.27357 385.88337 390.44319 394.883">&#x0410;&#x043b;&#x0435;&#x043a;&#x0441;&#x0435;&#x0439;</tspan></text>
<path transform="matrix(1,0,0,-1,345.517,139.432)" stroke-width="1" stroke-linecap="butt" stroke-miterlimit="22.926" stroke-linejoin="miter" fill="none" stroke="#231f20" d="M 0 0 L 115.2 0 L 115.2 -14.4 L 0 -14.4 Z "/>
<path transform="matrix(1,0,0,-1,187.117,362.63203)" stroke-width="1" stroke-linecap="butt" stroke-miterlimit="22.926" stroke-linejoin="miter" fill="none" stroke="#231f20" d="M 0 0 L 115.2 0 L 115.2 -28.8 L 0 -28.8 Z "/>
<text fill="#231f20" xml:space="preserve" transform="matrix(1 0 -0 1 0 842)" font-size="9.9999" font-family="TimesNewRomanPSMT"><tspan y="-468.1028" x="197.1017 203.77164 208.77159 216.24152 220.59047 225.59043 230.18038 237.11931 240.44928 247.6692 252.66916 257.5391 261.90907 267.259 272.25895 276.84989 281.28984">&#x041a;&#x0440;&#x044e;&#x043a;&#x043e;&#x0432;&#x0430;(&#x041f;&#x043e;&#x0440;&#x0442;&#x043d;&#x043e;&#x0432;&#x0430;)</tspan><tspan y="-457.02793" x="197.1017 204.32163 209.67157 214.11153 218.55149 223.04244 227.48239 231.92235 237.2723 244.37223 251.21015 257.6901 262.13005 267.47999 271.91993 276.35987 280.91984 285.35978 290.0797 295.42967">&#x0410;&#x043d;&#x0430;&#x0441;&#x0442;&#x0430;&#x0441;&#x0438;&#x044f;&#x0410;&#x0444;&#x0430;&#x043d;&#x0430;&#x0441;&#x044c;&#x0435;&#x0432;&#x043d;&#x0430;</tspan></text>
<path transform="matrix(1,0,0,-1,302.317,320.51)" stroke-width="1" stroke-linecap="butt" stroke-miterlimit="22.926" stroke-linejoin="miter" fill="none" stroke="#231f20" d="M 0 0 L 14.4 0 "/>
<path transform="matrix(1,0,0,-1,302.317,370.91)" stroke-width="1" stroke-linecap="butt" stroke-miterlimit="22.926" stroke-linejoin="miter" fill="none" stroke="#231f20" d="M 0 0 L 14.4 0 "/>
<path transform="matrix(1,0,0,-1,316.71699,320.51)" stroke-width="1" stroke-linecap="butt" stroke-miterlimit="22.926" stroke-linejoin="miter" fill="none" stroke="#231f20" d="M 0 0 L 0 -50.4 "/>
<text fill="#231f20" xml:space="preserve" transform="matrix(.000033333706 -1 1 .000033333706 0 842)" font-size="8.9999" font-family="TimesNewRomanPSMT"><tspan y="313.4386" x="480.19123 484.69117 489.1911">19.</tspan><tspan y="313.43858" x="491.44108 495.941 500.44096 502.69093 507.19087">10.03</tspan></text>
<path transform="matrix(1,0,0,-1,28.717,622.91006)" stroke-width="1" stroke-linecap="butt" stroke-miterlimit="22.926" stroke-linejoin="miter" fill="none" stroke="#231f20" d="M 0 0 L 14.4 0 "/>
<path transform="matrix(1,0,0,-1,28.717,514.91006)" stroke-width="1" stroke-linecap="butt" stroke-miterlimit="22.926" stroke-linejoin="miter" fill="none" stroke="#231f20" d="M 0 0 L 14.4 0 "/>
<path transform="matrix(1,0,0,-1,35.917,543.71)" stroke-width="1" stroke-linecap="butt" stroke-miterlimit="22.926" stroke-linejoin="miter" fill="none" stroke="#231f20" d="M 0 0 L 0 -43.2 "/>
<path transform="matrix(1,0,0,-1,316.71699,342.11003)" stroke-width="1" stroke-linecap="butt" stroke-miterlimit="22.926" stroke-linejoin="miter" fill="none" stroke="#231f20" d="M 0 0 L 28.8 0 "/>
<text fill="#231f20" xml:space="preserve" transform="matrix(1 0 -0 1 0 842)" font-size="9.9996" font-family="TimesNewRomanPSMT"><tspan y="-498.6581" x="364.6242 371.29396 376.29374 382.77348 388.12327 395.22499 400.22477 405.22456 407.72447 412.72425 417.72404 420.22395 425.22373">&#x0421;&#x043e;&#x0444;&#x0438;&#x044f;17.09.04</tspan></text>
<path transform="matrix(1,0,0,-1,345.517,333.832)" stroke-width="1" stroke-linecap="butt" stroke-miterlimit="22.926" stroke-linejoin="miter" fill="none" stroke="#231f20" d="M 0 0 L 115.2 0 L 115.2 -14.4 L 0 -14.4 Z "/>
<path transform="matrix(1,0,0,-1,43.117006,377.032)" stroke-width="1" stroke-linecap="butt" stroke-miterlimit="22.926" stroke-linejoin="miter" fill="none" stroke="#231f20" d="M 0 0 L 115.2 0 L 115.2 -28.8 L 0 -28.8 Z "/>
<text fill="#231f20" xml:space="preserve" transform="matrix(1 0 -0 1 0 842)" font-size="9.9999" font-family="TimesNewRomanPSMT"><tspan y="-454.8004" x="65.3528 72.57272 77.57267 82.44262 86.81258 92.16252 97.16247 101.753429">&#x041f;&#x043e;&#x0440;&#x0442;&#x043d;&#x043e;&#x0432;&#x0430;</tspan><tspan y="-443.72554" x="65.3528 72.29173 80.19165 85.541599 90.53155 95.88149 101.23144 106.58138 111.58133 116.177288">?&#x0424;&#x0438;&#x043b;&#x0438;&#x043f;&#x043f;&#x043e;&#x0432;&#x0430;</tspan></text>
<path transform="matrix(1,0,0,-1,28.717,392.51)" stroke-width="1" stroke-linecap="butt" stroke-miterlimit="22.926" stroke-linejoin="miter" fill="none" stroke="#231f20" d="M 0 0 L 14.4 0 "/>
<path transform="matrix(1,0,0,-1,28.717,428.51)" stroke-width="1" stroke-linecap="butt" stroke-miterlimit="22.926" stroke-linejoin="miter" fill="none" stroke="#231f20" d="M 0 0 L 14.4 0 "/>
<path transform="matrix(1,0,0,-1,28.717,514.91006)" stroke-width="1" stroke-linecap="butt" stroke-miterlimit="22.926" stroke-linejoin="miter" fill="none" stroke="#231f20" d="M 0 0 L 0 -108 "/>
<text fill="#231f20" xml:space="preserve" transform="matrix(.000033333706 -1 1 .000033333706 0 842)" font-size="8.9999" font-family="TimesNewRomanPSMT"><tspan y="168.86437" x="376.2297 380.72966 385.22959">15.</tspan><tspan y="168.86438" x="387.47956 391.9795 396.47944 398.7294 403.22935">01.05</tspan></text>
<path transform="matrix(1,0,0,-1,43.117,413.032)" stroke-width="1" stroke-linecap="butt" stroke-miterlimit="22.926" stroke-linejoin="miter" fill="none" stroke="#231f20" d="M 0 0 L 115.2 0 L 115.2 -36 L 0 -36 Z "/>
<path transform="matrix(1,0,0,-1,43.117,456.23204)" stroke-width="1" stroke-linecap="butt" stroke-miterlimit="22.926" stroke-linejoin="miter" fill="none" stroke="#231f20" d="M 0 0 L 115.2 0 L 115.2 -36 L 0 -36 Z "/>
<path transform="matrix(1,0,0,-1,43.117,499.43205)" stroke-width="1" stroke-linecap="butt" stroke-miterlimit="22.926" stroke-linejoin="miter" fill="none" stroke="#231f20" d="M 0 0 L 115.2 0 L 115.2 -28.8 L 0 -28.8 Z "/>
<path transform="matrix(1,0,0,-1,43.117,607.432)" stroke-width="1" stroke-linecap="butt" stroke-miterlimit="22.926" stroke-linejoin="miter" fill="none" stroke="#231f20" d="M 0 0 L 115.2 0 L 115.2 -28.8 L 0 -28.8 Z "/>
</g>
</svg>
