<?xml version="1.0" encoding="UTF-8" standalone="no"?>
<!DOCTYPE svg PUBLIC "-//W3C//DTD SVG 1.1//EN" "http://www.w3.org/Graphics/SVG/1.1/DTD/svg11.dtd">
<svg xmlns="http://www.w3.org/2000/svg" xmlns:xlink="http://www.w3.org/1999/xlink" version="1.1" width="595.22pt" height="842pt" viewBox="0 0 595.22 842">
<g enable-background="new">
<path transform="matrix(1,0,0,-1,283.776,145.56403)" stroke-width=".96" stroke-linecap="butt" stroke-miterlimit="22.926" stroke-linejoin="miter" fill="none" stroke="#231f20" d="M 0 0 L 13.824 0 "/>
<path transform="matrix(1,0,0,-1,283.776,97.18002)" stroke-width=".96" stroke-linecap="butt" stroke-miterlimit="22.926" stroke-linejoin="miter" fill="none" stroke="#231f20" d="M 0 0 L 13.824 0 "/>
<path transform="matrix(1,0,0,-1,297.6,97.18002)" stroke-width=".96" stroke-linecap="butt" stroke-miterlimit="22.926" stroke-linejoin="miter" fill="none" stroke="#231f20" d="M 0 0 L 0 -48.384 "/>
<path transform="matrix(1,0,0,-1,173.184,82.32202)" stroke-width=".96" stroke-linecap="butt" stroke-miterlimit="22.926" stroke-linejoin="miter" fill="none" stroke="#231f20" d="M 0 0 L 110.592 0 L 110.592 -34.56 L 0 -34.56 Z "/>
<path transform="matrix(1,0,0,-1,325.248,158.35402)" stroke-width=".96" stroke-linecap="butt" stroke-miterlimit="22.926" stroke-linejoin="miter" fill="none" stroke="#231f20" d="M 0 0 L 110.592 0 L 110.592 -34.56 L 0 -34.56 Z "/>
<path transform="matrix(1,0,0,-1,297.59999,117.916019)" stroke-width=".96" stroke-linecap="butt" stroke-miterlimit="22.926" stroke-linejoin="miter" fill="none" stroke="#231f20" d="M 0 0 L 13.824 0 "/>
<path transform="matrix(1,0,0,-1,311.42399,97.180019)" stroke-width=".96" stroke-linecap="butt" stroke-miterlimit="22.926" stroke-linejoin="miter" fill="none" stroke="#231f20" d="M 0 0 L 0 -110.592 "/>
<path transform="matrix(1,0,0,-1,311.42399,173.212)" stroke-width=".96" stroke-linecap="butt" stroke-miterlimit="22.926" stroke-linejoin="miter" fill="none" stroke="#231f20" d="M 0 0 L 13.824 0 "/>
<path transform="matrix(1,0,0,-1,283.77598,297.628)" stroke-width=".96" stroke-linecap="butt" stroke-miterlimit="22.926" stroke-linejoin="miter" fill="none" stroke="#231f20" d="M 0 0 L 13.824 0 "/>
<path transform="matrix(1,0,0,-1,283.77598,249.24399)" stroke-width=".96" stroke-linecap="butt" stroke-miterlimit="22.926" stroke-linejoin="miter" fill="none" stroke="#231f20" d="M 0 0 L 13.824 0 "/>
<path transform="matrix(1,0,0,-1,297.59999,249.24399)" stroke-width=".96" stroke-linecap="butt" stroke-miterlimit="22.926" stroke-linejoin="miter" fill="none" stroke="#231f20" d="M 0 0 L 0 -48.384 "/>
<path transform="matrix(1,0,0,-1,173.18398,234.38599)" stroke-width=".96" stroke-linecap="butt" stroke-miterlimit="22.926" stroke-linejoin="miter" fill="none" stroke="#231f20" d="M 0 0 L 110.592 0 L 110.592 -34.56 L 0 -34.56 Z "/>
<path transform="matrix(1,0,0,-1,325.248,234.38599)" stroke-width=".96" stroke-linecap="butt" stroke-miterlimit="22.926" stroke-linejoin="miter" fill="none" stroke="#231f20" d="M 0 0 L 110.592 0 L 110.592 -34.56 L 0 -34.56 Z "/>
<path transform="matrix(1,0,0,-1,297.59999,269.97999)" stroke-width=".96" stroke-linecap="butt" stroke-miterlimit="22.926" stroke-linejoin="miter" fill="none" stroke="#231f20" d="M 0 0 L 13.824 0 "/>
<path transform="matrix(1,0,0,-1,311.42399,249.24399)" stroke-width=".96" stroke-linecap="butt" stroke-miterlimit="22.926" stroke-linejoin="miter" fill="none" stroke="#231f20" d="M 0 0 L 0 -76.032 "/>
<path transform="matrix(1,0,0,-1,311.42399,249.24399)" stroke-width=".96" stroke-linecap="butt" stroke-miterlimit="22.926" stroke-linejoin="miter" fill="none" stroke="#231f20" d="M 0 0 L 13.824 0 "/>
<path transform="matrix(1,0,0,-1,159.35999,249.24399)" stroke-width=".96" stroke-linecap="butt" stroke-miterlimit="22.926" stroke-linejoin="miter" fill="none" stroke="#231f20" d="M 0 0 L 13.824 0 "/>
<path transform="matrix(1,0,0,-1,435.84,297.628)" stroke-width=".96" stroke-linecap="butt" stroke-miterlimit="22.926" stroke-linejoin="miter" fill="none" stroke="#231f20" d="M 0 0 L 13.824 0 "/>
<path transform="matrix(1,0,0,-1,435.84,249.24399)" stroke-width=".96" stroke-linecap="butt" stroke-miterlimit="22.926" stroke-linejoin="miter" fill="none" stroke="#231f20" d="M 0 0 L 13.824 0 "/>
<path transform="matrix(1,0,0,-1,449.664,249.24399)" stroke-width=".96" stroke-linecap="butt" stroke-miterlimit="22.926" stroke-linejoin="miter" fill="none" stroke="#231f20" d="M 0 0 L 0 -48.384 "/>
<path transform="matrix(1,0,0,-1,449.664,269.97999)" stroke-width=".96" stroke-linecap="butt" stroke-miterlimit="22.926" stroke-linejoin="miter" fill="none" stroke="#231f20" d="M 0 0 L 13.824 0 "/>
<path transform="matrix(1,0,0,-1,463.489,249.24399)" stroke-width=".96" stroke-linecap="butt" stroke-miterlimit="22.926" stroke-linejoin="miter" fill="none" stroke="#231f20" d="M 0 0 L 0 -20.736 "/>
<path transform="matrix(1,0,0,-1,463.488,249.24399)" stroke-width=".96" stroke-linecap="butt" stroke-miterlimit="22.926" stroke-linejoin="miter" fill="none" stroke="#231f20" d="M 0 0 L 13.824 0 "/>
<path transform="matrix(1,0,0,-1,325.248,199.82599)" stroke-width=".96" stroke-linecap="butt" stroke-miterlimit="22.926" stroke-linejoin="miter" fill="none" stroke="#231f20" d="M 0 0 L 110.592 0 L 110.592 -13.824 L 0 -13.824 Z "/>
<text fill="#231f20" xml:space="preserve" transform="matrix(1 0 -0 1 0 842)" font-size="9.5999" font-family="TimesNewRomanPSMT"><tspan y="-708.1986" x="33.6432 38.785867 43.585817 48.721765 52.98412 57.246477">&#x0422;&#x043e;&#x043d;&#x0435;&#x0435;&#x0432;</tspan><tspan y="-697.5667" x="33.6432 40.57433 44.982606 49.24496 56.780885 64.36481 68.49949 73.38584 78.18579 82.98574 87.78569 92.31684 97.45279">&#x0418;&#x0432;&#x0430;&#x043d;&#x0424;&#x0435;&#x0434;&#x043e;&#x0440;&#x043e;&#x0432;&#x0438;&#x0447;</tspan><tspan y="-686.9348" x="33.6432 38.44315 48.04305 52.843 56.039766 60.839715 65.63966 70.43961 43.2431">175-18174</tspan></text>
<path transform="matrix(1,0,0,-1,21.12,123.79401)" stroke-width=".96" stroke-linecap="butt" stroke-miterlimit="22.926" stroke-linejoin="miter" fill="none" stroke="#231f20" d="M 0 0 L 110.592 0 L 110.592 -34.56 L 0 -34.56 Z "/>
<path transform="matrix(1,0,0,-1,131.712,187.03601)" stroke-width=".96" stroke-linecap="butt" stroke-miterlimit="22.926" stroke-linejoin="miter" fill="none" stroke="#231f20" d="M 0 0 L 13.824 0 "/>
<path transform="matrix(1,0,0,-1,131.712,138.65201)" stroke-width=".96" stroke-linecap="butt" stroke-miterlimit="22.926" stroke-linejoin="miter" fill="none" stroke="#231f20" d="M 0 0 L 13.824 0 "/>
<path transform="matrix(1,0,0,-1,145.53601,138.65201)" stroke-width=".96" stroke-linecap="butt" stroke-miterlimit="22.926" stroke-linejoin="miter" fill="none" stroke="#231f20" d="M 0 0 L 0 -48.384 "/>
<path transform="matrix(1,0,0,-1,145.53601,159.388)" stroke-width=".96" stroke-linecap="butt" stroke-miterlimit="22.926" stroke-linejoin="miter" fill="none" stroke="#231f20" d="M 0 0 L 13.824 0 "/>
<path transform="matrix(1,0,0,-1,159.36002,97.18)" stroke-width=".96" stroke-linecap="butt" stroke-miterlimit="22.926" stroke-linejoin="miter" fill="none" stroke="#231f20" d="M 0 0 L 0 -152.064 "/>
<path transform="matrix(1,0,0,-1,159.36002,97.18)" stroke-width=".96" stroke-linecap="butt" stroke-miterlimit="22.926" stroke-linejoin="miter" fill="none" stroke="#231f20" d="M 0 0 L 13.824 0 "/>
<path transform="matrix(1,0,0,-1,570.653,257.117)" stroke-width=".96" stroke-linecap="butt" stroke-miterlimit="22.926" stroke-linejoin="miter" fill="none" stroke="#231f20" d="M 0 0 L 3.831 0 "/>
<path transform="matrix(1,0,0,-1,570.653,264.903)" stroke-width=".96" stroke-linecap="butt" stroke-miterlimit="22.926" stroke-linejoin="miter" fill="none" stroke="#231f20" d="M 0 0 L 3.831 0 "/>
<path transform="matrix(1,0,0,-1,574.484,261.01)" stroke-width=".96" stroke-linecap="butt" stroke-miterlimit="22.926" stroke-linejoin="miter" fill="none" stroke="#231f20" d="M 0 0 L 3.832 0 "/>
<path transform="matrix(1,0,0,-1,574.484,257.117)" stroke-width=".96" stroke-linecap="butt" stroke-miterlimit="22.926" stroke-linejoin="miter" fill="none" stroke="#231f20" d="M 0 0 L 0 -7.786 "/>
<path transform="matrix(1,0,0,-1,578.377,257.117)" stroke-width=".96" stroke-linecap="butt" stroke-miterlimit="22.926" stroke-linejoin="miter" fill="none" stroke="#231f20" d="M 0 0 L 0 -7.786 "/>
<path transform="matrix(1,0,0,-1,578.438,257.117)" stroke-width=".96" stroke-linecap="butt" stroke-miterlimit="22.926" stroke-linejoin="miter" fill="none" stroke="#231f20" d="M 0 0 L 3.832 0 "/>
<path transform="matrix(1,0,0,-1,578.438,264.903)" stroke-width=".96" stroke-linecap="butt" stroke-miterlimit="22.926" stroke-linejoin="miter" fill="none" stroke="#231f20" d="M 0 0 L 3.832 0 "/>
<path transform="matrix(1,0,0,-1,477.31199,234.38701)" stroke-width=".96" stroke-linecap="butt" stroke-miterlimit="22.926" stroke-linejoin="miter" fill="none" stroke="#231f20" d="M 0 0 L 110.592 0 L 110.592 -34.56 L 0 -34.56 Z "/>
<path transform="matrix(1,0,0,-1,435.83998,297.629)" stroke-width=".96" stroke-linecap="butt" stroke-miterlimit="22.926" stroke-linejoin="miter" fill="none" stroke="#231f20" d="M 0 0 L 13.824 0 "/>
<path transform="matrix(1,0,0,-1,325.24797,275.859)" stroke-width=".96" stroke-linecap="butt" stroke-miterlimit="22.926" stroke-linejoin="miter" fill="none" stroke="#231f20" d="M 0 0 L 110.592 0 L 110.592 -27.648 L 0 -27.648 Z "/>
<path transform="matrix(1,0,0,-1,311.42396,207.77301)" stroke-width=".96" stroke-linecap="butt" stroke-miterlimit="22.926" stroke-linejoin="miter" fill="none" stroke="#231f20" d="M 0 0 L 13.824 0 "/>
<path transform="matrix(1,0,0,-1,325.24797,310.419)" stroke-width=".96" stroke-linecap="butt" stroke-miterlimit="22.926" stroke-linejoin="miter" fill="none" stroke="#231f20" d="M 0 0 L 110.592 0 L 110.592 -27.648 L 0 -27.648 Z "/>
<path transform="matrix(1,0,0,-1,311.42396,325.277)" stroke-width=".96" stroke-linecap="butt" stroke-miterlimit="22.926" stroke-linejoin="miter" fill="none" stroke="#231f20" d="M 0 0 L 13.824 0 "/>
<path transform="matrix(1,0,0,-1,325.24797,82.32301)" stroke-width=".96" stroke-linecap="butt" stroke-miterlimit="22.926" stroke-linejoin="miter" fill="none" stroke="#231f20" d="M 0 0 L 110.592 0 L 110.592 -34.56 L 0 -34.56 Z "/>
<text fill="#231f20" xml:space="preserve" transform="matrix(1 0 -0 1 0 842)" font-size="9.5999" font-family="TimesNewRomanPSMT"><tspan y="-708.4454" x="194.9714 200.83695 205.3537 209.36646 213.56162 217.82398 222.62393 227.75988 232.89582">&#x0415;&#x043a;&#x0430;&#x0442;&#x0435;&#x0440;&#x0438;&#x043d;&#x0430;</tspan><tspan y="-697.8135" x="194.9714 200.89647 205.69643 210.83237 215.09473 219.40605 223.66841 228.80435 232.99951 238.13545 243.2714 248.07135 252.60251 257.73847">&#x041a;&#x043e;&#x043d;&#x0441;&#x0442;&#x0430;&#x043d;&#x0442;&#x0438;&#x043d;&#x043e;&#x0432;&#x043d;&#x0430;</tspan><tspan y="-687.1816" x="194.9714 199.77136 204.57132 209.37128">1781</tspan></text>
<path transform="matrix(1,0,0,-1,311.424,97.17999)" stroke-width=".96" stroke-linecap="butt" stroke-miterlimit="22.926" stroke-linejoin="miter" fill="none" stroke="#231f20" d="M 0 0 L 13.824 0 "/>
<path transform="matrix(1,0,0,-1,325.24803,123.79399)" stroke-width=".96" stroke-linecap="butt" stroke-miterlimit="22.926" stroke-linejoin="miter" fill="none" stroke="#231f20" d="M 0 0 L 110.592 0 L 110.592 -27.648 L 0 -27.648 Z "/>
<path transform="matrix(1,0,0,-1,435.84004,97.17999)" stroke-width=".96" stroke-linecap="butt" stroke-miterlimit="22.926" stroke-linejoin="miter" fill="none" stroke="#231f20" d="M 0 0 L 13.824 0 "/>
<path transform="matrix(1,0,0,-1,435.84004,131.73999)" stroke-width=".96" stroke-linecap="butt" stroke-miterlimit="22.926" stroke-linejoin="miter" fill="none" stroke="#231f20" d="M 0 0 L 13.824 0 "/>
<path transform="matrix(1,0,0,-1,449.66404,97.17999)" stroke-width=".96" stroke-linecap="butt" stroke-miterlimit="22.926" stroke-linejoin="miter" fill="none" stroke="#231f20" d="M 0 0 L 0 -34.56 "/>
<path transform="matrix(1,0,0,-1,21.120026,165.26599)" stroke-width=".96" stroke-linecap="butt" stroke-miterlimit="22.926" stroke-linejoin="miter" fill="none" stroke="#231f20" d="M 0 0 L 110.592 0 L 110.592 -27.648 L 0 -27.648 Z "/>
<text fill="#231f20" xml:space="preserve" transform="matrix(1 0 -0 1 0 842)" font-size="9.5999" font-family="TimesNewRomanPSMT"><tspan y="-749.6707" x="185.7072 190.84987 195.64983 200.78577 205.04813 209.31049">&#x0422;&#x043e;&#x043d;&#x0435;&#x0435;&#x0432;</tspan><tspan y="-739.0388" x="185.7072 193.29113 197.4258 202.31215 206.98442 213.57956 220.51068 224.918 229.18036 234.3163 239.11626 243.64742 248.78336">&#x0424;&#x0435;&#x0434;&#x043e;&#x0442;&#x0418;&#x0432;&#x0430;&#x043d;&#x043e;&#x0432;&#x0438;&#x0447;</tspan><tspan y="-728.4069" x="185.7072 190.50716 195.30712 200.10707">1776</tspan><tspan y="-749.6707" x="337.77156 342.9142 347.71418 352.85014 357.1125 361.37486">&#x0422;&#x043e;&#x043d;&#x0435;&#x0435;&#x0432;</tspan><tspan y="-739.0388" x="337.77156 344.70268 349.83863 354.72499 359.52494 363.7873 371.3232 378.90715 383.0428 387.92915 392.6014 396.66987 401.46983 406.00099 411.13694">&#x0410;&#x043d;&#x0434;&#x0440;&#x0435;&#x0439;&#x0424;&#x0435;&#x0434;&#x043e;&#x0442;&#x043e;&#x0432;&#x0438;&#x0447;</tspan><tspan y="-728.4069" x="337.77156 342.5715 347.37147 352.17143">1802</tspan></text>
<path transform="matrix(1,0,0,-1,0,842)" stroke-width=".96" stroke-linecap="butt" stroke-miterlimit="22.926" stroke-linejoin="miter" fill="none" stroke="#231f20" d="M 477.312 759.678 L 587.904 759.678 L 587.904 725.118 L 477.312 725.118 Z "/>
<text fill="#231f20" xml:space="preserve" transform="matrix(1 0 -0 1 0 842)" font-size="9.5999" font-family="TimesNewRomanPSMT"><tspan y="-749.6707" x="489.8352 494.97789 499.77784 504.9138 509.17616 513.4385">&#x0422;&#x043e;&#x043d;&#x0435;&#x0435;&#x0432;</tspan><tspan y="-739.0388" x="489.8352 496.76634 501.55668 505.81904 510.2446 514.62216 518.88449 524.0204 528.90676 536.1066 543.0378 548.1737 553.06008 557.86 562.1223 566.38467 570.9158 576.0517">&#x0410;&#x043b;&#x0435;&#x043a;&#x0441;&#x0430;&#x043d;&#x0434;&#x0440;&#x0410;&#x043d;&#x0434;&#x0440;&#x0435;&#x0435;&#x0432;&#x0438;&#x0447;</tspan><tspan y="-728.4069" x="489.8352 494.63517 499.43513 504.23509">1819</tspan></text>
<path transform="matrix(1,0,0,-1,449.664,117.916019)" stroke-width=".96" stroke-linecap="butt" stroke-miterlimit="22.926" stroke-linejoin="miter" fill="none" stroke="#231f20" d="M 0 0 L 13.824 0 "/>
<path transform="matrix(1,0,0,-1,463.488,97.180019)" stroke-width=".96" stroke-linecap="butt" stroke-miterlimit="22.926" stroke-linejoin="miter" fill="none" stroke="#231f20" d="M 0 0 L 0 -103.68 "/>
<path transform="matrix(1,0,0,-1,463.488,97.180019)" stroke-width=".96" stroke-linecap="butt" stroke-miterlimit="22.926" stroke-linejoin="miter" fill="none" stroke="#231f20" d="M 0 0 L 13.824 0 "/>
<text fill="#231f20" xml:space="preserve" transform="matrix(1 0 -0 1 0 842)" font-size="9.5999" font-family="TimesNewRomanPSMT"><tspan y="-673.6386" x="337.7712 342.91389 347.71385 352.8498 357.11216 361.3745">&#x0422;&#x043e;&#x043d;&#x0435;&#x0435;&#x0432;</tspan><tspan y="-663.0067" x="337.7712 344.70234 348.9647 353.276 360.47593 368.05986 372.19453 377.08088 381.75315 385.8216 390.62156 395.1527 400.28868">&#x041f;&#x0435;&#x0442;&#x0440;&#x0424;&#x0435;&#x0434;&#x043e;&#x0442;&#x043e;&#x0432;&#x0438;&#x0447;</tspan><tspan y="-652.3748" x="337.7712 342.57118 347.37113 352.17109">1821</tspan><tspan y="-597.60647" x="185.70687 190.84954 195.64949 200.78543 205.04779 209.31015">&#x0422;&#x043e;&#x043d;&#x0435;&#x0435;&#x0432;</tspan><tspan y="-586.97457" x="185.70687 192.63799 197.04627 201.30863 208.84455 215.77567 220.18395 224.4463 229.58225 234.3822 238.91336 244.0493">&#x0418;&#x0432;&#x0430;&#x043d;&#x0418;&#x0432;&#x0430;&#x043d;&#x043e;&#x0432;&#x0438;&#x0447;</tspan><tspan y="-576.34268" x="185.70687 190.50682 195.30678 200.10674">177*</tspan><tspan y="-597.60647" x="337.7712 342.91389 347.71385 352.8498 357.11216 361.3745">&#x0422;&#x043e;&#x043d;&#x0435;&#x0435;&#x0432;</tspan><tspan y="-586.97457" x="337.7712 344.17436 348.4367 352.69908 357.83503 362.62538 367.76133 375.29725 382.22837 386.6376 390.89997 396.03593 400.83589 405.36705 410.503">&#x0412;&#x0430;&#x0441;&#x0438;&#x043b;&#x0438;&#x0439;&#x0418;&#x0432;&#x0430;&#x043d;&#x043e;&#x0432;&#x0438;&#x0447;</tspan><tspan y="-576.34268" x="337.7712 342.57118 347.37113 352.17109">1804</tspan><tspan y="-597.60647" x="489.83558 494.97825 499.7782 504.91416 509.1765 513.43887">&#x0422;&#x043e;&#x043d;&#x0435;&#x0435;&#x0432;</tspan><tspan y="-586.97457" x="489.83558 497.4195 502.55546 507.3458 512.48178 520.01766 526.4208 530.6831 534.94546 540.08139 544.8717 549.24929 553.5116 558.0427 563.17868">&#x0424;&#x0438;&#x043b;&#x0438;&#x043f;&#x0412;&#x0430;&#x0441;&#x0438;&#x043b;&#x044c;&#x0435;&#x0432;&#x0438;&#x0447;</tspan><tspan y="-576.34268" x="489.83558 494.63554 499.4355 504.23545">1824</tspan><tspan y="-708.1992" x="337.77125 344.70237 348.63835 352.9007 359.12144 363.499">&#x0410;&#x0433;&#x0430;&#x0444;&#x044c;&#x044f;</tspan><tspan y="-697.5673" x="337.77125 342.5712 347.37117 352.1711">1804</tspan></text>
<path transform="matrix(1,0,0,-1,477.312,123.79401)" stroke-width=".96" stroke-linecap="butt" stroke-miterlimit="22.926" stroke-linejoin="miter" fill="none" stroke="#231f20" d="M 0 0 L 110.592 0 L 110.592 -27.648 L 0 -27.648 Z "/>
<path transform="matrix(1,0,0,-1,463.488,131.74)" stroke-width=".96" stroke-linecap="butt" stroke-miterlimit="22.926" stroke-linejoin="miter" fill="none" stroke="#231f20" d="M 0 0 L 13.824 0 "/>
<text fill="#231f20" xml:space="preserve" transform="matrix(1 0 -0 1 0 842)" font-size="9.5999" font-family="TimesNewRomanPSMT"><tspan y="-708.1986" x="489.8352 496.76634 501.29557 505.67314 510.46348 515.5994 520.73538">&#x0410;&#x043a;&#x0443;&#x043b;&#x0438;&#x043d;&#x0430;</tspan><tspan y="-697.5667" x="489.8352 494.63517 499.43513 504.23509">1819</tspan></text>
<path transform="matrix(1,0,0,-1,477.312,158.354)" stroke-width=".96" stroke-linecap="butt" stroke-miterlimit="22.926" stroke-linejoin="miter" fill="none" stroke="#231f20" d="M 0 0 L 110.592 0 L 110.592 -27.648 L 0 -27.648 Z "/>
<path transform="matrix(1,0,0,-1,463.488,166.3)" stroke-width=".96" stroke-linecap="butt" stroke-miterlimit="22.926" stroke-linejoin="miter" fill="none" stroke="#231f20" d="M 0 0 L 13.824 0 "/>
<text fill="#231f20" xml:space="preserve" transform="matrix(1 0 -0 1 0 842)" font-size="9.5999" font-family="TimesNewRomanPSMT"><tspan y="-673.6386" x="489.8352 496.76634 501.90229 507.03825">&#x0410;&#x043d;&#x043d;&#x0430;</tspan><tspan y="-663.0067" x="489.8352 494.63517 499.43513 504.23509">1828</tspan></text>
<path transform="matrix(1,0,0,-1,477.312,192.914)" stroke-width=".96" stroke-linecap="butt" stroke-miterlimit="22.926" stroke-linejoin="miter" fill="none" stroke="#231f20" d="M 0 0 L 110.592 0 L 110.592 -27.648 L 0 -27.648 Z "/>
<path transform="matrix(1,0,0,-1,463.488,200.86)" stroke-width=".96" stroke-linecap="butt" stroke-miterlimit="22.926" stroke-linejoin="miter" fill="none" stroke="#231f20" d="M 0 0 L 13.824 0 "/>
<text fill="#231f20" xml:space="preserve" transform="matrix(1 0 -0 1 0 842)" font-size="9.5999" font-family="TimesNewRomanPSMT"><tspan y="-639.0786" x="489.8352 495.46076 499.4735 503.66868 508.04624 512.46218 517.5981">&#x0422;&#x0430;&#x0442;&#x044c;&#x044f;&#x043d;&#x0430;</tspan><tspan y="-628.4467" x="489.8352 494.63517 499.43513 504.23509">1831</tspan><tspan y="-556.1345" x="337.77088 344.0473 348.06007 352.25523 356.51759 361.31755 366.4535 371.58946">&#x041a;&#x0430;&#x0442;&#x0435;&#x0440;&#x0438;&#x043d;&#x0430;</tspan><tspan y="-545.5026" x="337.77088 342.57084 347.3708 352.17076">1804</tspan><tspan y="-556.1345" x="185.70653 192.63765 196.93361 201.81996 206.49224 210.6874 215.06494 221.88088 225.07764 230.94318 235.23529 240.12165 244.9216 249.58716 254.7231 259.13905">&#x0410;&#x0432;&#x0434;&#x043e;&#x0442;&#x044c;&#x044f;(&#x0415;&#x0432;&#x0434;&#x043e;&#x043a;&#x0438;&#x044f;)</tspan><tspan y="-545.5026" x="185.70653 191.98294 196.1781 200.44046 205.5764 209.83876 214.9747 219.77466 224.30582 229.44176">&#x0421;&#x0442;&#x0435;&#x043f;&#x0430;&#x043d;&#x043e;&#x0432;&#x043d;&#x0430;</tspan><tspan y="-534.8707" x="185.70653 190.50649 195.30644 200.1064">1776</tspan><tspan y="-521.5749" x="337.77088 343.4137 347.67607 351.87123 357.00718 362.14314 366.5207">&#x0423;&#x0441;&#x0442;&#x0438;&#x043d;&#x044c;&#x044f;</tspan><tspan y="-510.943" x="337.77088 342.57084 347.3708 352.17076">1806</tspan><tspan y="-632.1667" x="337.77088 344.318 350.39476 355.5307 359.843 364.64295 369.7789 377.31773 382.11769 386.91764 391.7176 396.51756 399.71434 404.51429 409.31425 414.1142">&#x0414;&#x043c;&#x0438;&#x0442;&#x0440;&#x0438;&#x0439;1810-1812</tspan><tspan y="-666.7263" x="33.643159 40.04629 44.308649 49.108598 53.51303 57.775388 62.575338 69.23767 75.64081 79.90317 84.16553 89.301479 94.09183 98.46938 102.73174 107.26289 112.39884">&#x0412;&#x0430;&#x0440;&#x0432;&#x0430;&#x0440;&#x0430;&#x0412;&#x0430;&#x0441;&#x0438;&#x043b;&#x044c;&#x0435;&#x0432;&#x043d;&#x0430;</tspan><tspan y="-656.0944" x="33.643159 38.443109 43.243059 48.043008">1741</tspan></text>
<path transform="matrix(1,0,0,-1,173.184,123.79401)" stroke-width=".96" stroke-linecap="butt" stroke-miterlimit="22.926" stroke-linejoin="miter" fill="none" stroke="#231f20" d="M 0 0 L 110.592 0 L 110.592 -34.56 L 0 -34.56 Z "/>
<path transform="matrix(1,0,0,-1,173.184,275.858)" stroke-width=".96" stroke-linecap="butt" stroke-miterlimit="22.926" stroke-linejoin="miter" fill="none" stroke="#231f20" d="M 0 0 L 110.592 0 L 110.592 -34.56 L 0 -34.56 Z "/>
<path transform="matrix(1,0,0,-1,325.248,386.45)" stroke-width=".96" stroke-linecap="butt" stroke-miterlimit="22.926" stroke-linejoin="miter" fill="none" stroke="#231f20" d="M 0 0 L 110.592 0 L 110.592 -34.56 L 0 -34.56 Z "/>
<path transform="matrix(1,0,0,-1,311.42399,401.308)" stroke-width=".96" stroke-linecap="butt" stroke-miterlimit="22.926" stroke-linejoin="miter" fill="none" stroke="#231f20" d="M 0 0 L 13.824 0 "/>
<path transform="matrix(1,0,0,-1,435.83998,401.308)" stroke-width=".96" stroke-linecap="butt" stroke-miterlimit="22.926" stroke-linejoin="miter" fill="none" stroke="#231f20" d="M 0 0 L 13.824 0 "/>
<text fill="#231f20" xml:space="preserve" transform="matrix(1 0 -0 1 0 842)" font-size="9.5999" font-family="TimesNewRomanPSMT"><tspan y="-445.5426" x="337.7712 342.91389 347.71385 352.8498 357.11216 361.3745">&#x0422;&#x043e;&#x043d;&#x0435;&#x0435;&#x0432;</tspan><tspan y="-434.9107" x="337.7712 346.3055 350.56788 354.99345 359.2558 364.39176 372.86848 379.7996 384.20597 388.46833 393.60429 398.40425 402.9354 408.07136">&#x041c;&#x0430;&#x043a;&#x0441;&#x0438;&#x043c;&#x0418;&#x0432;&#x0430;&#x043d;&#x043e;&#x0432;&#x0438;&#x0447;</tspan><tspan y="-424.2788" x="337.7712 342.57118 347.37113 352.17109">1792</tspan></text>
<path transform="matrix(1,0,0,-1,0,842)" stroke-width=".96" stroke-linecap="butt" stroke-miterlimit="22.926" stroke-linejoin="miter" fill="none" stroke="#231f20" d="M 325.248 414.078 L 435.84 414.078 L 435.84 386.43 L 325.248 386.43 Z "/>
<text fill="#231f20" xml:space="preserve" transform="matrix(1 0 -0 1 0 842)" font-size="9.5999" font-family="TimesNewRomanPSMT"><tspan y="-404.0706" x="337.7712 344.04765 348.0604 352.25556 356.5179 361.31788 366.45384 371.58979">&#x041a;&#x0430;&#x0442;&#x0435;&#x0440;&#x0438;&#x043d;&#x0430;</tspan><tspan y="-393.4387" x="337.7712 342.57118 347.37113 352.17109">1804</tspan></text>
<path transform="matrix(1,0,0,-1,0,842)" stroke-width=".96" stroke-linecap="butt" stroke-dasharray="1.9201,2.8802" stroke-miterlimit="22.926" stroke-linejoin="miter" fill="none" stroke="#231f20" d="M 311.424 440.692 L 311.424 516.724 "/>
<path transform="matrix(1,0,0,-1,435.84,442.78)" stroke-width=".96" stroke-linecap="butt" stroke-miterlimit="22.926" stroke-linejoin="miter" fill="none" stroke="#231f20" d="M 0 0 L 13.824 0 "/>
<path transform="matrix(1,0,0,-1,449.664,366.748)" stroke-width=".96" stroke-linecap="butt" stroke-miterlimit="22.926" stroke-linejoin="miter" fill="none" stroke="#231f20" d="M 0 0 L 0 -76.032 "/>
<path transform="matrix(1,0,0,-1,325.248,497.042)" stroke-width=".96" stroke-linecap="butt" stroke-miterlimit="22.926" stroke-linejoin="miter" fill="none" stroke="#231f20" d="M 0 0 L 110.592 0 L 110.592 -34.56 L 0 -34.56 Z "/>
<text fill="#231f20" xml:space="preserve" transform="matrix(1 0 -0 1 0 842)" font-size="9.5999" font-family="TimesNewRomanPSMT"><tspan y="-334.9506" x="337.7712 342.91389 347.71385 352.8498 357.11216 361.3745">&#x0422;&#x043e;&#x043d;&#x0435;&#x0435;&#x0432;</tspan><tspan y="-324.3187" x="337.7712 344.70234 349.11064 353.373 360.9089 367.84004 372.24833 376.51069 381.64665 386.4466 390.97776 396.1137">&#x0418;&#x0432;&#x0430;&#x043d;&#x0418;&#x0432;&#x0430;&#x043d;&#x043e;&#x0432;&#x0438;&#x0447;</tspan><tspan y="-313.6868" x="337.7712 342.57118 347.37113 352.17109">1798</tspan></text>
<path transform="matrix(1,0,0,-1,311.424,511.9)" stroke-width=".96" stroke-linecap="butt" stroke-miterlimit="22.926" stroke-linejoin="miter" fill="none" stroke="#231f20" d="M 0 0 L 13.824 0 "/>
<path transform="matrix(1,0,0,-1,311.424,401.30799)" stroke-width=".96" stroke-linecap="butt" stroke-miterlimit="22.926" stroke-linejoin="miter" fill="none" stroke="#231f20" d="M 0 0 L 0 -214.272 "/>
<path transform="matrix(1,0,0,-1,325.24803,683.666)" stroke-width=".96" stroke-linecap="butt" stroke-miterlimit="22.926" stroke-linejoin="miter" fill="none" stroke="#231f20" d="M 0 0 L 110.592 0 L 110.592 -34.56 L 0 -34.56 Z "/>
<path transform="matrix(1,0,0,-1,311.424,698.524)" stroke-width=".96" stroke-linecap="butt" stroke-miterlimit="22.926" stroke-linejoin="miter" fill="none" stroke="#231f20" d="M 0 0 L 13.824 0 "/>
<text fill="#231f20" xml:space="preserve" transform="matrix(1 0 -0 1 0 842)" font-size="9.5999" font-family="TimesNewRomanPSMT"><tspan y="-148.3267" x="337.7712 342.91389 347.71385 352.8498 357.11216 361.3745">&#x0422;&#x043e;&#x043d;&#x0435;&#x0435;&#x0432;</tspan><tspan y="-137.69483" x="337.7712 346.3055 350.3202 354.51536 358.9918 363.25416 370.79008 377.7212 382.1295 386.39186 391.5278 396.32777 400.85893 405.99488">&#x041c;&#x0430;&#x0442;&#x0432;&#x0435;&#x0439;&#x0418;&#x0432;&#x0430;&#x043d;&#x043e;&#x0432;&#x0438;&#x0447;</tspan><tspan y="-127.062938" x="337.7712 342.57118 347.37113 352.17109">1812</tspan><tspan y="-500.83888" x="33.643495 38.78616 43.58611 48.722059 52.984415 57.24677">&#x0422;&#x043e;&#x043d;&#x0435;&#x0435;&#x0432;</tspan><tspan y="-490.20698" x="33.643495 39.919908 44.115064 48.37742 53.513368 57.775724 65.311649 72.89557 77.02929 81.91564 86.71559 91.51554 96.31549 100.84664 105.98259">&#x0421;&#x0442;&#x0435;&#x043f;&#x0430;&#x043d;&#x0424;&#x0435;&#x0434;&#x043e;&#x0440;&#x043e;&#x0432;&#x0438;&#x0447;</tspan><tspan y="-479.57508" x="33.643495 38.443445 43.243394 48.043344">1760</tspan></text>
<path transform="matrix(1,0,0,-1,21.12,331.154)" stroke-width=".96" stroke-linecap="butt" stroke-miterlimit="22.926" stroke-linejoin="miter" fill="none" stroke="#231f20" d="M 0 0 L 110.592 0 L 110.592 -34.56 L 0 -34.56 Z "/>
<path transform="matrix(1,0,0,-1,283.776,746.90798)" stroke-width=".96" stroke-linecap="butt" stroke-miterlimit="22.926" stroke-linejoin="miter" fill="none" stroke="#231f20" d="M 0 0 L 13.824 0 "/>
<path transform="matrix(1,0,0,-1,283.776,698.524)" stroke-width=".96" stroke-linecap="butt" stroke-miterlimit="22.926" stroke-linejoin="miter" fill="none" stroke="#231f20" d="M 0 0 L 13.824 0 "/>
<path transform="matrix(1,0,0,-1,297.6,698.524)" stroke-width=".96" stroke-linecap="butt" stroke-miterlimit="22.926" stroke-linejoin="miter" fill="none" stroke="#231f20" d="M 0 0 L 0 -48.384 "/>
<path transform="matrix(1,0,0,-1,173.184,683.666)" stroke-width=".96" stroke-linecap="butt" stroke-miterlimit="22.926" stroke-linejoin="miter" fill="none" stroke="#231f20" d="M 0 0 L 110.592 0 L 110.592 -34.56 L 0 -34.56 Z "/>
<path transform="matrix(1,0,0,-1,297.6,719.26)" stroke-width=".96" stroke-linecap="butt" stroke-miterlimit="22.926" stroke-linejoin="miter" fill="none" stroke="#231f20" d="M 0 0 L 13.824 0 "/>
<text fill="#231f20" xml:space="preserve" transform="matrix(1 0 -0 1 0 842)" font-size="9.5999" font-family="TimesNewRomanPSMT"><tspan y="-148.3267" x="185.7072 190.84987 195.64983 200.78577 205.04813 209.31049">&#x0422;&#x043e;&#x043d;&#x0435;&#x0435;&#x0432;</tspan><tspan y="-137.69483" x="185.7072 192.63832 197.0466 201.30896">&#x0418;&#x0432;&#x0430;&#x043d;</tspan><tspan y="-127.062938" x="185.7072 190.50716 195.30712 200.10707">17**</tspan><tspan y="-106.85515" x="185.7072 193.29113 197.55348 202.21904 207.00939">&#x0424;&#x0435;&#x043a;&#x043b;&#x0430;</tspan><tspan y="-96.22326" x="185.7072 191.98361 196.17877 200.44113 205.57707 209.83943 214.97537 219.77533 224.30649 229.44243">&#x0421;&#x0442;&#x0435;&#x043f;&#x0430;&#x043d;&#x043e;&#x0432;&#x043d;&#x0430;</tspan><tspan y="-85.59137" x="185.7072 190.50716 195.30712 200.10707">1786</tspan></text>
<path transform="matrix(1,0,0,-1,173.184,725.138)" stroke-width=".96" stroke-linecap="butt" stroke-miterlimit="22.926" stroke-linejoin="miter" fill="none" stroke="#231f20" d="M 0 0 L 110.592 0 L 110.592 -34.56 L 0 -34.56 Z "/>
<path transform="matrix(1,0,0,-1,311.424,698.524)" stroke-width=".96" stroke-linecap="butt" stroke-miterlimit="22.926" stroke-linejoin="miter" fill="none" stroke="#231f20" d="M 0 0 L 0 -20.736 "/>
<path transform="matrix(1,0,0,-1,7.2960207,346.012)" stroke-width=".96" stroke-linecap="butt" stroke-miterlimit="22.926" stroke-linejoin="miter" fill="none" stroke="#231f20" d="M 0 0 L 13.824 0 "/>
<path transform="matrix(1,0,0,-1,7.2960207,138.652)" stroke-width=".96" stroke-linecap="butt" stroke-miterlimit="22.926" stroke-linejoin="miter" fill="none" stroke="#231f20" d="M 0 0 L 0 -207.36 "/>
<path transform="matrix(1,0,0,-1,7.2960207,138.652)" stroke-width=".96" stroke-linecap="butt" stroke-miterlimit="22.926" stroke-linejoin="miter" fill="none" stroke="#231f20" d="M 0 0 L 13.824 0 "/>
<text fill="#231f20" xml:space="preserve" transform="matrix(1 0 -0 1 0 842)" font-size="9.5999" font-family="TimesNewRomanPSMT"><tspan y="-749.6707" x="33.6432 38.785867 43.585817 48.721765 52.98412 57.246477">&#x0422;&#x043e;&#x043d;&#x0435;&#x0435;&#x0432;</tspan><tspan y="-739.0388" x="33.6432 41.22712 45.361799 50.248147 55.048097">&#x0424;&#x0435;&#x0434;&#x043e;&#x0440;</tspan><tspan y="-728.4069" x="38.836748 43.636697 48.436647 53.236597 33.6432">1720~</tspan></text>
<path transform="matrix(1,0,0,-1,21.12,82.32202)" stroke-width=".96" stroke-linecap="butt" stroke-miterlimit="22.926" stroke-linejoin="miter" fill="none" stroke="#231f20" d="M 0 0 L 110.592 0 L 110.592 -34.56 L 0 -34.56 Z "/>
<path transform="matrix(1,0,0,-1,131.712,387.484)" stroke-width=".96" stroke-linecap="butt" stroke-miterlimit="22.926" stroke-linejoin="miter" fill="none" stroke="#231f20" d="M 0 0 L 13.824 0 "/>
<path transform="matrix(1,0,0,-1,21.120003,372.626)" stroke-width=".96" stroke-linecap="butt" stroke-miterlimit="22.926" stroke-linejoin="miter" fill="none" stroke="#231f20" d="M 0 0 L 110.592 0 L 110.592 -27.648 L 0 -27.648 Z "/>
<text fill="#231f20" xml:space="preserve" transform="matrix(1 0 -0 1 0 842)" font-size="9.5999" font-family="TimesNewRomanPSMT"><tspan y="-459.3666" x="33.6432 39.919614 44.11477 48.377126 53.513074 57.77543 62.911378 68.047328 72.93368 79.596019 84.53901 89.33896 94.47491 98.17567 102.97562 107.775569 112.15312 116.41548 120.94663 126.08258">&#x0421;&#x0442;&#x0435;&#x043f;&#x0430;&#x043d;&#x0438;&#x0434;&#x0430;&#x0413;&#x0440;&#x0438;&#x0433;&#x043e;&#x0440;&#x044c;&#x0435;&#x0432;&#x043d;&#x0430;</tspan><tspan y="-448.7347" x="33.6432 38.44315 43.2431 48.04305">1761</tspan></text>
<path transform="matrix(1,0,0,-1,131.712,346.012)" stroke-width=".96" stroke-linecap="butt" stroke-miterlimit="22.926" stroke-linejoin="miter" fill="none" stroke="#231f20" d="M 0 0 L 13.824 0 "/>
<path transform="matrix(1,0,0,-1,145.53601,346.012)" stroke-width=".96" stroke-linecap="butt" stroke-miterlimit="22.926" stroke-linejoin="miter" fill="none" stroke="#231f20" d="M 0 0 L 0 -41.472 "/>
<text fill="#231f20" xml:space="preserve" transform="matrix(1 0 -0 1 0 842)" font-size="9.5999" font-family="TimesNewRomanPSMT"><tspan y="-500.8386" x="185.7072 190.84987 195.64983 200.78577 205.04813 209.31049">&#x0422;&#x043e;&#x043d;&#x0435;&#x0435;&#x0432;</tspan><tspan y="-490.2067" x="185.7072 192.63832 197.77426 202.43982 207.57576 211.88996 218.55229 224.82775 229.0229 233.28527 238.4212 242.68357 247.8195 252.61946 257.1506 262.28657">&#x041d;&#x0438;&#x043a;&#x0438;&#x0442;&#x0430;&#x0421;&#x0442;&#x0435;&#x043f;&#x0430;&#x043d;&#x043e;&#x0432;&#x0438;&#x0447;</tspan><tspan y="-479.5748" x="185.7072 190.50716 195.30712 200.10707 204.90703 208.10379 212.90375 217.7037 222.50366">1794-1812</tspan></text>
<path transform="matrix(1,0,0,-1,173.184,331.154)" stroke-width=".96" stroke-linecap="butt" stroke-miterlimit="22.926" stroke-linejoin="miter" fill="none" stroke="#231f20" d="M 0 0 L 110.592 0 L 110.592 -34.56 L 0 -34.56 Z "/>
<path transform="matrix(1,0,0,-1,159.36,352.92399)" stroke-width=".96" stroke-linecap="butt" stroke-miterlimit="22.926" stroke-linejoin="miter" fill="none" stroke="#231f20" d="M 0 0 L 13.824 0 "/>
<path transform="matrix(1,0,0,-1,145.536,352.92399)" stroke-width=".96" stroke-linecap="butt" stroke-miterlimit="22.926" stroke-linejoin="miter" fill="none" stroke="#231f20" d="M 0 0 L 13.824 0 "/>
<path transform="matrix(1,0,0,-1,325.248,351.88999)" stroke-width=".96" stroke-linecap="butt" stroke-miterlimit="22.926" stroke-linejoin="miter" fill="none" stroke="#231f20" d="M 0 0 L 110.592 0 L 110.592 -27.648 L 0 -27.648 Z "/>
<path transform="matrix(1,0,0,-1,435.84,366.748)" stroke-width=".96" stroke-linecap="butt" stroke-miterlimit="22.926" stroke-linejoin="miter" fill="none" stroke="#231f20" d="M 0 0 L 13.824 0 "/>
<path transform="matrix(1,0,0,-1,477.312,358.80198)" stroke-width=".96" stroke-linecap="butt" stroke-miterlimit="22.926" stroke-linejoin="miter" fill="none" stroke="#231f20" d="M 0 0 L 110.592 0 L 110.592 -27.648 L 0 -27.648 Z "/>
<text fill="#231f20" xml:space="preserve" transform="matrix(1 0 -0 1 0 842)" font-size="9.5999" font-family="TimesNewRomanPSMT"><tspan y="-473.1906" x="489.8352 498.3695 502.71635 507.50669 511.76905 516.90499 521.28256">&#x041c;&#x0430;&#x043b;&#x0430;&#x043d;&#x044c;&#x044f;</tspan><tspan y="-462.55873" x="489.8352 494.63517 499.43513 504.23509">1817</tspan></text>
<path transform="matrix(1,0,0,-1,449.664,422.044)" stroke-width=".96" stroke-linecap="butt" stroke-miterlimit="22.926" stroke-linejoin="miter" fill="none" stroke="#231f20" d="M 0 0 L 13.824 0 "/>
<path transform="matrix(1,0,0,-1,449.664,373.66)" stroke-width=".96" stroke-linecap="butt" stroke-miterlimit="22.926" stroke-linejoin="miter" fill="none" stroke="#231f20" d="M 0 0 L 13.824 0 L 27.648 0 "/>
<path transform="matrix(1,0,0,-1,477.312,393.362)" stroke-width=".96" stroke-linecap="butt" stroke-miterlimit="22.926" stroke-linejoin="miter" fill="none" stroke="#231f20" d="M 0 0 L 110.592 0 L 110.592 -27.648 L 0 -27.648 Z "/>
<text fill="#231f20" xml:space="preserve" transform="matrix(1 0 -0 1 0 842)" font-size="9.5999" font-family="TimesNewRomanPSMT"><tspan y="-438.6306" x="489.8352 497.41914 501.6815 506.34706 511.1374">&#x0424;&#x0435;&#x043a;&#x043b;&#x0430;</tspan><tspan y="-427.99873" x="489.8352 494.63517 499.43513 504.23509">1821</tspan></text>
<path transform="matrix(1,0,0,-1,463.488,408.22)" stroke-width=".96" stroke-linecap="butt" stroke-miterlimit="22.926" stroke-linejoin="miter" fill="none" stroke="#231f20" d="M 0 0 L 13.824 0 "/>
<path transform="matrix(1,0,0,-1,477.312,427.922)" stroke-width=".96" stroke-linecap="butt" stroke-miterlimit="22.926" stroke-linejoin="miter" fill="none" stroke="#231f20" d="M 0 0 L 110.592 0 L 110.592 -27.648 L 0 -27.648 Z "/>
<text fill="#231f20" xml:space="preserve" transform="matrix(1 0 -0 1 0 842)" font-size="9.5999" font-family="TimesNewRomanPSMT"><tspan y="-404.0706" x="489.8352 496.76634 501.90229 507.03825">&#x0410;&#x043d;&#x043d;&#x0430;</tspan><tspan y="-393.4387" x="489.8352 494.63517 499.43513 504.23509">1831</tspan></text>
<path transform="matrix(1,0,0,-1,463.488,442.78)" stroke-width=".96" stroke-linecap="butt" stroke-miterlimit="22.926" stroke-linejoin="miter" fill="none" stroke="#231f20" d="M 0 0 L 13.824 0 "/>
<path transform="matrix(1,0,0,-1,463.488,408.22)" stroke-width=".96" stroke-linecap="butt" stroke-miterlimit="22.926" stroke-linejoin="miter" fill="none" stroke="#231f20" d="M 0 0 L 0 -62.208 "/>
<path transform="matrix(1,0,0,-1,477.312,497.042)" stroke-width=".96" stroke-linecap="butt" stroke-miterlimit="22.926" stroke-linejoin="miter" fill="none" stroke="#231f20" d="M 0 0 L 110.592 0 L 110.592 -27.648 L 0 -27.648 Z "/>
<text fill="#231f20" xml:space="preserve" transform="matrix(1 0 -0 1 0 842)" font-size="9.5999" font-family="TimesNewRomanPSMT"><tspan y="-334.9506" x="489.8352 496.76634 501.0287 506.16465">&#x041e;&#x0441;&#x0438;&#x043f;</tspan><tspan y="-324.3187" x="489.8352 494.63517 499.43513 504.23509 509.03504 512.2318 517.03176 521.83169 526.6316">1816-1816</tspan></text>
<path transform="matrix(1,0,0,-1,463.488,511.9)" stroke-width=".96" stroke-linecap="butt" stroke-miterlimit="22.926" stroke-linejoin="miter" fill="none" stroke="#231f20" d="M 0 0 L 13.824 0 "/>
<path transform="matrix(1,0,0,-1,477.312,531.602)" stroke-width=".96" stroke-linecap="butt" stroke-miterlimit="22.926" stroke-linejoin="miter" fill="none" stroke="#231f20" d="M 0 0 L 110.592 0 L 110.592 -27.648 L 0 -27.648 Z "/>
<text fill="#231f20" xml:space="preserve" transform="matrix(1 0 -0 1 0 842)" font-size="9.5999" font-family="TimesNewRomanPSMT"><tspan y="-300.3906" x="489.8352 497.41914 502.55509 507.34544 512.4814">&#x0424;&#x0438;&#x043b;&#x0438;&#x043f;</tspan><tspan y="-289.7587" x="489.8352 494.63517 499.43513 504.23509">1828</tspan></text>
<path transform="matrix(1,0,0,-1,463.488,546.45999)" stroke-width=".96" stroke-linecap="butt" stroke-miterlimit="22.926" stroke-linejoin="miter" fill="none" stroke="#231f20" d="M 0 0 L 13.824 0 "/>
<path transform="matrix(1,0,0,-1,325.248,538.514)" stroke-width=".96" stroke-linecap="butt" stroke-miterlimit="22.926" stroke-linejoin="miter" fill="none" stroke="#231f20" d="M 0 0 L 110.592 0 L 110.592 -27.648 L 0 -27.648 Z "/>
<text fill="#231f20" xml:space="preserve" transform="matrix(1 0 -0 1 0 842)" font-size="9.5999" font-family="TimesNewRomanPSMT"><tspan y="-293.4786" x="337.7712 346.3055 350.56788 355.36784 359.7454 366.5613 372.4854 377.28538 382.42134 386.6837 390.995 395.25736 400.3933 404.58848 409.72444 414.86039 419.66035 424.1915 429.32746">&#x041c;&#x0430;&#x0440;&#x044c;&#x044f;&#x041a;&#x043e;&#x043d;&#x0441;&#x0442;&#x0430;&#x043d;&#x0442;&#x0438;&#x043d;&#x043e;&#x0432;&#x043d;&#x0430;</tspan><tspan y="-282.8467" x="337.7712 342.57118 347.37113 352.17109">1797</tspan></text>
<path transform="matrix(1,0,0,-1,435.84,553.372)" stroke-width=".96" stroke-linecap="butt" stroke-miterlimit="22.926" stroke-linejoin="miter" fill="none" stroke="#231f20" d="M 0 0 L 13.824 0 "/>
<path transform="matrix(1,0,0,-1,477.312,566.162)" stroke-width=".96" stroke-linecap="butt" stroke-miterlimit="22.926" stroke-linejoin="miter" fill="none" stroke="#231f20" d="M 0 0 L 110.592 0 L 110.592 -27.648 L 0 -27.648 Z "/>
<text fill="#231f20" xml:space="preserve" transform="matrix(1 0 -0 1 0 842)" font-size="9.5999" font-family="TimesNewRomanPSMT"><tspan y="-265.8306" x="489.8352 497.41914 501.6815 506.34706 511.1374">&#x0424;&#x0435;&#x043a;&#x043b;&#x0430;</tspan><tspan y="-255.1987" x="489.8352 494.63517 499.43513 504.23509">1821</tspan></text>
<path transform="matrix(1,0,0,-1,463.488,581.02)" stroke-width=".96" stroke-linecap="butt" stroke-miterlimit="22.926" stroke-linejoin="miter" fill="none" stroke="#231f20" d="M 0 0 L 13.824 0 "/>
<path transform="matrix(1,0,0,-1,477.312,600.72207)" stroke-width=".96" stroke-linecap="butt" stroke-miterlimit="22.926" stroke-linejoin="miter" fill="none" stroke="#231f20" d="M 0 0 L 110.592 0 L 110.592 -27.648 L 0 -27.648 Z "/>
<text fill="#231f20" xml:space="preserve" transform="matrix(1 0 -0 1 0 842)" font-size="9.5999" font-family="TimesNewRomanPSMT"><tspan y="-231.2706" x="489.8352 496.76634 501.0287 505.81904 510.0814 513.8906 518.15298">&#x041f;&#x0435;&#x043b;&#x0430;&#x0433;&#x0435;&#x044f;</tspan><tspan y="-220.6387" x="489.8352 494.63517 499.43513 504.23509">1831</tspan></text>
<path transform="matrix(1,0,0,-1,463.488,615.58)" stroke-width=".96" stroke-linecap="butt" stroke-miterlimit="22.926" stroke-linejoin="miter" fill="none" stroke="#231f20" d="M 0 0 L 13.824 0 "/>
<path transform="matrix(1,0,0,-1,463.488,511.90003)" stroke-width=".96" stroke-linecap="butt" stroke-miterlimit="22.926" stroke-linejoin="miter" fill="none" stroke="#231f20" d="M 0 0 L 0 -103.68 "/>
<path transform="matrix(1,0,0,-1,449.664,518.812)" stroke-width=".96" stroke-linecap="butt" stroke-miterlimit="22.926" stroke-linejoin="miter" fill="none" stroke="#231f20" d="M 0 0 L 0 -34.56 "/>
<path transform="matrix(1,0,0,-1,435.84,518.812)" stroke-width=".96" stroke-linecap="butt" stroke-miterlimit="22.926" stroke-linejoin="miter" fill="none" stroke="#231f20" d="M 0 0 L 13.824 0 "/>
<text fill="#231f20" xml:space="preserve" transform="matrix(1 0 -0 1 0 842)" font-size="9.5999" font-family="TimesNewRomanPSMT"><tspan y="-480.1027" x="337.7712 344.70234 349.8383 354.97425 359.2366 363.61418 370.43009 377.3612 382.15156 386.4139 390.84236 395.2199 399.48228 403.74464 408.1481">&#x0410;&#x043d;&#x0438;&#x0441;&#x044c;&#x044f;&#x0410;&#x043b;&#x0435;&#x043a;&#x0441;&#x0435;&#x0435;&#x0432;&#x0430;</tspan><tspan y="-469.4708" x="337.7712 342.57118 347.37113 352.17109">1791</tspan></text>
<path transform="matrix(1,0,0,-1,0,842)" stroke-width=".96" stroke-linecap="butt" stroke-miterlimit="22.926" stroke-linejoin="miter" fill="none" stroke="#231f20" d="M 325.248 268.926 L 435.84 268.926 L 435.84 241.278 L 325.248 241.278 Z "/>
<text fill="#231f20" xml:space="preserve" transform="matrix(1 0 -0 1 0 842)" font-size="9.5999" font-family="TimesNewRomanPSMT"><tspan y="-258.9186" x="337.7712 344.17436 348.4367 353.23667 357.6411 361.90348 366.70344">&#x0412;&#x0430;&#x0440;&#x0432;&#x0430;&#x0440;&#x0430;</tspan><tspan y="-248.28672" x="337.7712 342.57118 347.37113 352.17109">1798</tspan></text>
<path transform="matrix(1,0,0,-1,311.424,581.02)" stroke-width=".96" stroke-linecap="butt" stroke-miterlimit="22.926" stroke-linejoin="miter" fill="none" stroke="#231f20" d="M 0 0 L 13.824 0 "/>
<path transform="matrix(1,0,0,-1,449.664,532.63607)" stroke-width=".96" stroke-linecap="butt" stroke-miterlimit="22.926" stroke-linejoin="miter" fill="none" stroke="#231f20" d="M 0 0 L 13.824 0 "/>
<path transform="matrix(1,0,0,-1,325.248,725.13809)" stroke-width=".96" stroke-linecap="butt" stroke-miterlimit="22.926" stroke-linejoin="miter" fill="none" stroke="#231f20" d="M 0 0 L 110.592 0 L 110.592 -27.648 L 0 -27.648 Z "/>
<text fill="#231f20" xml:space="preserve" transform="matrix(1 0 -0 1 0 842)" font-size="9.5999" font-family="TimesNewRomanPSMT"><tspan y="-106.8546" x="337.7712 344.70234 348.6383 352.90068 359.1214 363.49897">&#x0410;&#x0433;&#x0430;&#x0444;&#x044c;&#x044f;</tspan><tspan y="-96.22271" x="337.7712 342.57118 347.37113 352.17109">1810</tspan></text>
<path transform="matrix(1,0,0,-1,435.84,733.084)" stroke-width=".96" stroke-linecap="butt" stroke-miterlimit="22.926" stroke-linejoin="miter" fill="none" stroke="#231f20" d="M 0 0 L 13.824 0 "/>
<path transform="matrix(1,0,0,-1,325.248,649.10598)" stroke-width=".96" stroke-linecap="butt" stroke-miterlimit="22.926" stroke-linejoin="miter" fill="none" stroke="#231f20" d="M 0 0 L 110.592 0 L 110.592 -27.648 L 0 -27.648 Z "/>
<text fill="#231f20" xml:space="preserve" transform="matrix(1 0 -0 1 0 842)" font-size="9.5999" font-family="TimesNewRomanPSMT"><tspan y="-182.8866" x="337.7712 344.33753 350.55827 355.35823 360.39625 364.6586 369.79457 374.9305 379.30809">&#x0410;&#x0444;&#x0440;&#x043e;&#x0441;&#x0438;&#x043d;&#x044c;&#x044f;</tspan><tspan y="-172.2547" x="337.7712 342.57118 347.37113 352.17109">1808</tspan></text>
<path transform="matrix(1,0,0,-1,435.84,657.052)" stroke-width=".96" stroke-linecap="butt" stroke-miterlimit="22.926" stroke-linejoin="miter" fill="none" stroke="#231f20" d="M 0 0 L 13.824 0 "/>
<path transform="matrix(1,0,0,-1,435.84,698.524)" stroke-width=".96" stroke-linecap="butt" stroke-miterlimit="22.926" stroke-linejoin="miter" fill="none" stroke="#231f20" d="M 0 0 L 13.824 0 "/>
<path transform="matrix(1,0,0,-1,449.664,657.052)" stroke-width=".96" stroke-linecap="butt" stroke-miterlimit="22.926" stroke-linejoin="miter" fill="none" stroke="#231f20" d="M 0 0 L 0 -76.032 "/>
<path transform="matrix(1,0,0,-1,14.208008,97.17999)" stroke-width=".96" stroke-linecap="butt" stroke-miterlimit="22.926" stroke-linejoin="miter" fill="none" stroke="#231f20" d="M 0 0 L 6.912 0 "/>
<path transform="matrix(1,0,0,-1,14.208008,97.17999)" stroke-width=".96" stroke-linecap="butt" stroke-miterlimit="22.926" stroke-linejoin="miter" fill="none" stroke="#231f20" d="M 0 0 L 0 -41.472 "/>
<path transform="matrix(1,0,0,-1,325.24803,607.63406)" stroke-width=".96" stroke-linecap="butt" stroke-miterlimit="22.926" stroke-linejoin="miter" fill="none" stroke="#231f20" d="M 0 0 L 110.592 0 L 110.592 -27.648 L 0 -27.648 Z "/>
<text fill="#231f20" xml:space="preserve" transform="matrix(1 0 -0 1 0 842)" font-size="9.5999" font-family="TimesNewRomanPSMT"><tspan y="-224.3586" x="337.7712 344.70234 349.8383 354.97425">&#x0410;&#x043d;&#x043d;&#x0430;</tspan><tspan y="-213.72672" x="337.7712 342.57118 347.37113 352.17109">1806</tspan></text>
<path transform="matrix(1,0,0,-1,311.424,615.58)" stroke-width=".96" stroke-linecap="butt" stroke-miterlimit="22.926" stroke-linejoin="miter" fill="none" stroke="#231f20" d="M 0 0 L 13.824 0 "/>
<path transform="matrix(1,0,0,-1,477.312,462.482)" stroke-width=".96" stroke-linecap="butt" stroke-miterlimit="22.926" stroke-linejoin="miter" fill="none" stroke="#231f20" d="M 0 0 L 110.592 0 L 110.592 -27.648 L 0 -27.648 Z "/>
<text fill="#231f20" xml:space="preserve" transform="matrix(1 0 -0 1 0 842)" font-size="9.5999" font-family="TimesNewRomanPSMT"><tspan y="-369.5106" x="489.8352 496.76634 501.55668 505.81904 510.2446 514.62216 518.88449 524.0204 528.90676 533.70669">&#x0410;&#x043b;&#x0435;&#x043a;&#x0441;&#x0430;&#x043d;&#x0434;&#x0440;&#x0430;</tspan><tspan y="-358.8787" x="489.8352 494.63517 499.43513 504.23509">1830</tspan></text>
<path transform="matrix(1,0,0,-1,463.488,470.428)" stroke-width=".96" stroke-linecap="butt" stroke-miterlimit="22.926" stroke-linejoin="miter" fill="none" stroke="#231f20" d="M 0 0 L 13.824 0 "/>
</g>
</svg>
