<?xml version="1.0" encoding="UTF-8" standalone="no"?>
<!DOCTYPE svg PUBLIC "-//W3C//DTD SVG 1.1//EN" "http://www.w3.org/Graphics/SVG/1.1/DTD/svg11.dtd">
<svg xmlns="http://www.w3.org/2000/svg" xmlns:xlink="http://www.w3.org/1999/xlink" version="1.1" width="595.22pt" height="842pt" viewBox="0 0 595.22 842">
<g enable-background="new">
<path transform="matrix(1,0,0,-1,276.864,97.17999)" stroke-width=".96" stroke-linecap="butt" stroke-miterlimit="22.926" stroke-linejoin="miter" fill="none" stroke="#231f20" d="M 0 0 L 13.824 0 "/>
<path transform="matrix(1,0,0,-1,276.864,131.73999)" stroke-width=".96" stroke-linecap="butt" stroke-miterlimit="22.926" stroke-linejoin="miter" fill="none" stroke="#231f20" d="M 0 0 L 13.824 0 "/>
<path transform="matrix(1,0,0,-1,290.68803,97.17999)" stroke-width=".96" stroke-linecap="butt" stroke-miterlimit="22.926" stroke-linejoin="miter" fill="none" stroke="#231f20" d="M 0 0 L 0 -34.56 "/>
<path transform="matrix(1,0,0,-1,166.27202,116.88199)" stroke-width=".96" stroke-linecap="butt" stroke-miterlimit="22.926" stroke-linejoin="miter" fill="none" stroke="#231f20" d="M 0 0 L 110.592 0 L 110.592 -34.56 L 0 -34.56 Z "/>
<path transform="matrix(1,0,0,-1,290.68803,111.00399)" stroke-width=".96" stroke-linecap="butt" stroke-miterlimit="22.926" stroke-linejoin="miter" fill="none" stroke="#231f20" d="M 0 0 L 13.824 0 "/>
<path transform="matrix(1,0,0,-1,304.51103,90.26799)" stroke-width=".96" stroke-linecap="butt" stroke-miterlimit="22.926" stroke-linejoin="miter" fill="none" stroke="#231f20" d="M 0 0 L 0 -20.736 "/>
<text fill="#231f20" xml:space="preserve" transform="matrix(1 0 -0 1 0 842)" font-size="9.5999" font-family="TimesNewRomanPSMT"><tspan y="-715.1106" x="26.7312 34.31512 38.4498 43.336149 48.00842">&#x0424;&#x0435;&#x0434;&#x043e;&#x0442;</tspan></text>
<path transform="matrix(1,0,0,-1,14.208,116.88202)" stroke-width=".96" stroke-linecap="butt" stroke-miterlimit="22.926" stroke-linejoin="miter" fill="none" stroke="#231f20" d="M 0 0 L 110.592 0 L 110.592 -34.56 L 0 -34.56 Z "/>
<path transform="matrix(1,0,0,-1,124.8,180.12403)" stroke-width=".96" stroke-linecap="butt" stroke-miterlimit="22.926" stroke-linejoin="miter" fill="none" stroke="#231f20" d="M 0 0 L 13.824 0 "/>
<path transform="matrix(1,0,0,-1,124.8,131.74002)" stroke-width=".96" stroke-linecap="butt" stroke-miterlimit="22.926" stroke-linejoin="miter" fill="none" stroke="#231f20" d="M 0 0 L 13.824 0 "/>
<path transform="matrix(1,0,0,-1,138.62401,131.74002)" stroke-width=".96" stroke-linecap="butt" stroke-miterlimit="22.926" stroke-linejoin="miter" fill="none" stroke="#231f20" d="M 0 0 L 0 -48.384 "/>
<path transform="matrix(1,0,0,-1,138.62401,152.47602)" stroke-width=".96" stroke-linecap="butt" stroke-miterlimit="22.926" stroke-linejoin="miter" fill="none" stroke="#231f20" d="M 0 0 L 13.824 0 "/>
<path transform="matrix(1,0,0,-1,152.44802,131.74002)" stroke-width=".96" stroke-linecap="butt" stroke-miterlimit="22.926" stroke-linejoin="miter" fill="none" stroke="#231f20" d="M 0 0 L 0 -449.28 "/>
<path transform="matrix(1,0,0,-1,152.44802,131.74002)" stroke-width=".96" stroke-linecap="butt" stroke-miterlimit="22.926" stroke-linejoin="miter" fill="none" stroke="#231f20" d="M 0 0 L 13.824 0 "/>
<path transform="matrix(1,0,0,-1,318.336,75.41002)" stroke-width=".96" stroke-linecap="butt" stroke-miterlimit="22.926" stroke-linejoin="miter" fill="none" stroke="#231f20" d="M 0 0 L 110.592 0 L 110.592 -34.56 L 0 -34.56 Z "/>
<text fill="#231f20" xml:space="preserve" transform="matrix(1 0 -0 1 0 842)" font-size="9.5999" font-family="TimesNewRomanPSMT"><tspan y="-756.8294" x="188.0594 194.99053 200.12647 205.2624 211.92475 217.55316 222.6891 227.12427 231.92423 237.06017 241.86013 246.39128 251.52722">&#x0410;&#x043d;&#x043d;&#x0430;&#x0422;&#x0438;&#x0445;&#x043e;&#x043d;&#x043e;&#x0432;&#x043d;&#x0430;</tspan><tspan y="-746.1975" x="188.0594 192.85936 197.65932 202.45928">1756</tspan></text>
<path transform="matrix(1,0,0,-1,304.512,90.268009)" stroke-width=".96" stroke-linecap="butt" stroke-miterlimit="22.926" stroke-linejoin="miter" fill="none" stroke="#231f20" d="M 0 0 L 13.824 0 "/>
<path transform="matrix(1,0,0,-1,318.336,116.882)" stroke-width=".96" stroke-linecap="butt" stroke-miterlimit="22.926" stroke-linejoin="miter" fill="none" stroke="#231f20" d="M 0 0 L 110.592 0 L 110.592 -27.648 L 0 -27.648 Z "/>
<path transform="matrix(1,0,0,-1,428.928,90.268009)" stroke-width=".96" stroke-linecap="butt" stroke-miterlimit="22.926" stroke-linejoin="miter" fill="none" stroke="#231f20" d="M 0 0 L 13.824 0 "/>
<path transform="matrix(1,0,0,-1,428.928,124.828)" stroke-width=".96" stroke-linecap="butt" stroke-miterlimit="22.926" stroke-linejoin="miter" fill="none" stroke="#231f20" d="M 0 0 L 13.824 0 "/>
<path transform="matrix(1,0,0,-1,442.752,90.268009)" stroke-width=".96" stroke-linecap="butt" stroke-miterlimit="22.926" stroke-linejoin="miter" fill="none" stroke="#231f20" d="M 0 0 L 0 -34.56 "/>
<path transform="matrix(1,0,0,-1,14.208008,158.354)" stroke-width=".96" stroke-linecap="butt" stroke-miterlimit="22.926" stroke-linejoin="miter" fill="none" stroke="#231f20" d="M 0 0 L 110.592 0 L 110.592 -27.648 L 0 -27.648 Z "/>
<text fill="#231f20" xml:space="preserve" transform="matrix(1 0 -0 1 0 842)" font-size="9.5999" font-family="TimesNewRomanPSMT"><tspan y="-715.1106" x="178.7952 185.72632 189.98868 195.12462 202.66054 210.24446 214.38202 219.26837 223.94065 228.00908 232.80904 237.3402 242.47614">&#x041e;&#x0441;&#x0438;&#x043f;&#x0424;&#x0435;&#x0434;&#x043e;&#x0442;&#x043e;&#x0432;&#x0438;&#x0447;</tspan><tspan y="-756.58218" x="330.85957 337.37886 341.6412 347.71797 351.98033 359.51625 366.44737 370.70973 375.84568 380.98164 385.7816 390.31275 395.4487">&#x0421;&#x0435;&#x043c;&#x0435;&#x043d;&#x041e;&#x0441;&#x0438;&#x043f;&#x043e;&#x0432;&#x0438;&#x0447;</tspan><tspan y="-745.95028" x="330.85957 335.65953 340.45948 345.25944">1797</tspan></text>
<path transform="matrix(1,0,0,-1,0,842)" stroke-width=".96" stroke-linecap="butt" stroke-miterlimit="22.926" stroke-linejoin="miter" fill="none" stroke="#231f20" d="M 470.4 766.59 L 580.992 766.59 L 580.992 732.03 L 470.4 732.03 Z "/>
<text fill="#231f20" xml:space="preserve" transform="matrix(1 0 -0 1 0 842)" font-size="9.5999" font-family="TimesNewRomanPSMT"><tspan y="-756.5826" x="482.9232 489.32633 496.71827 501.85423 506.65419">&#x042f;&#x0448;&#x043d;&#x043e;&#x0432;</tspan><tspan y="-745.9507" x="482.9232 488.54875 493.6847 498.11985 502.9198 510.45573 516.9769 521.23928 527.316 531.5783 536.71426 541.51419 546.0453 551.1812">&#x0422;&#x0438;&#x0445;&#x043e;&#x043d;&#x0421;&#x0435;&#x043c;&#x0435;&#x043d;&#x043e;&#x0432;&#x0438;&#x0447;</tspan><tspan y="-735.3188" x="482.9232 487.72315 492.5231 497.32307">1828</tspan></text>
<path transform="matrix(1,0,0,-1,442.752,111.00403)" stroke-width=".96" stroke-linecap="butt" stroke-miterlimit="22.926" stroke-linejoin="miter" fill="none" stroke="#231f20" d="M 0 0 L 13.824 0 "/>
<path transform="matrix(1,0,0,-1,456.57603,90.26803)" stroke-width=".96" stroke-linecap="butt" stroke-miterlimit="22.926" stroke-linejoin="miter" fill="none" stroke="#231f20" d="M 0 0 L 0 -241.92 "/>
<path transform="matrix(1,0,0,-1,456.57603,90.26803)" stroke-width=".96" stroke-linecap="butt" stroke-miterlimit="22.926" stroke-linejoin="miter" fill="none" stroke="#231f20" d="M 0 0 L 13.824 0 "/>
<text fill="#231f20" xml:space="preserve" transform="matrix(1 0 -0 1 0 842)" font-size="9.5999" font-family="TimesNewRomanPSMT"><tspan y="-715.1106" x="330.8592 337.7903 341.7263 345.98866 352.20939 356.58695">&#x0410;&#x0433;&#x0430;&#x0444;&#x044c;&#x044f;</tspan><tspan y="-704.4787" x="330.8592 335.65916 340.4591 345.25907">1797</tspan></text>
<path transform="matrix(1,0,0,-1,470.4,116.88202)" stroke-width=".96" stroke-linecap="butt" stroke-miterlimit="22.926" stroke-linejoin="miter" fill="none" stroke="#231f20" d="M 0 0 L 110.592 0 L 110.592 -27.648 L 0 -27.648 Z "/>
<path transform="matrix(1,0,0,-1,456.576,124.82802)" stroke-width=".96" stroke-linecap="butt" stroke-miterlimit="22.926" stroke-linejoin="miter" fill="none" stroke="#231f20" d="M 0 0 L 13.824 0 "/>
<text fill="#231f20" xml:space="preserve" transform="matrix(1 0 -0 1 0 842)" font-size="9.5999" font-family="TimesNewRomanPSMT"><tspan y="-715.1106" x="482.9232 489.19963 493.39479 497.65715 502.7931 507.05546 514.5914 521.11068 525.373 531.4497 535.71206 540.84799 545.6479 550.179 555.31497">&#x0421;&#x0442;&#x0435;&#x043f;&#x0430;&#x043d;&#x0421;&#x0435;&#x043c;&#x0435;&#x043d;&#x043e;&#x0432;&#x0438;&#x0447;</tspan><tspan y="-704.4787" x="482.9232 487.72315 492.5231 497.32307">1820</tspan></text>
<path transform="matrix(1,0,0,-1,470.4,151.44202)" stroke-width=".96" stroke-linecap="butt" stroke-miterlimit="22.926" stroke-linejoin="miter" fill="none" stroke="#231f20" d="M 0 0 L 110.592 0 L 110.592 -27.648 L 0 -27.648 Z "/>
<path transform="matrix(1,0,0,-1,456.576,159.38802)" stroke-width=".96" stroke-linecap="butt" stroke-miterlimit="22.926" stroke-linejoin="miter" fill="none" stroke="#231f20" d="M 0 0 L 13.824 0 "/>
<text fill="#231f20" xml:space="preserve" transform="matrix(1 0 -0 1 0 842)" font-size="9.5999" font-family="TimesNewRomanPSMT"><tspan y="-680.5507" x="482.9232 489.8543 494.11668 498.42799 505.6279 512.14718 516.4095 522.4862 526.74856 531.88449 536.6844 541.2155 546.35147">&#x041f;&#x0435;&#x0442;&#x0440;&#x0421;&#x0435;&#x043c;&#x0435;&#x043d;&#x043e;&#x0432;&#x0438;&#x0447;</tspan><tspan y="-669.9188" x="482.9232 487.72315 492.5231 497.32307">1821</tspan></text>
<path transform="matrix(1,0,0,-1,470.4,186.00202)" stroke-width=".96" stroke-linecap="butt" stroke-miterlimit="22.926" stroke-linejoin="miter" fill="none" stroke="#231f20" d="M 0 0 L 110.592 0 L 110.592 -27.648 L 0 -27.648 Z "/>
<path transform="matrix(1,0,0,-1,456.576,193.94802)" stroke-width=".96" stroke-linecap="butt" stroke-miterlimit="22.926" stroke-linejoin="miter" fill="none" stroke="#231f20" d="M 0 0 L 13.824 0 "/>
<text fill="#231f20" xml:space="preserve" transform="matrix(1 0 -0 1 0 842)" font-size="9.5999" font-family="TimesNewRomanPSMT"><tspan y="-645.9906" x="482.9232 488.54875 493.6847 499.76145 504.5614 510.78215 515.0445 522.5804 529.0997 533.362 539.4387 543.70108 548.837 553.6369 558.168 563.30398">&#x0422;&#x0438;&#x043c;&#x043e;&#x0444;&#x0435;&#x0439;&#x0421;&#x0435;&#x043c;&#x0435;&#x043d;&#x043e;&#x0432;&#x0438;&#x0447;</tspan><tspan y="-635.3587" x="482.9232 487.72315 492.5231 497.32307">1822</tspan></text>
<path transform="matrix(1,0,0,-1,166.272,75.40997)" stroke-width=".96" stroke-linecap="butt" stroke-miterlimit="22.926" stroke-linejoin="miter" fill="none" stroke="#231f20" d="M 0 0 L 110.592 0 L 110.592 -34.56 L 0 -34.56 Z "/>
<path transform="matrix(1,0,0,-1,276.864,581.01998)" stroke-width=".96" stroke-linecap="butt" stroke-miterlimit="22.926" stroke-linejoin="miter" fill="none" stroke="#231f20" d="M 0 0 L 13.824 0 "/>
<path transform="matrix(1,0,0,-1,166.272,566.162)" stroke-width=".96" stroke-linecap="butt" stroke-miterlimit="22.926" stroke-linejoin="miter" fill="none" stroke="#231f20" d="M 0 0 L 110.592 0 L 110.592 -34.56 L 0 -34.56 Z "/>
<path transform="matrix(1,0,0,-1,152.448,581.01998)" stroke-width=".96" stroke-linecap="butt" stroke-miterlimit="22.926" stroke-linejoin="miter" fill="none" stroke="#231f20" d="M 0 0 L 13.824 0 "/>
<text fill="#231f20" xml:space="preserve" transform="matrix(1 0 -0 1 0 842)" font-size="9.5999" font-family="TimesNewRomanPSMT"><tspan y="-265.8306" x="178.7952 185.72632 189.66228 193.92464 200.14537 204.52292 211.33885 218.92278 223.05841 227.94477 232.61704 236.68547 241.48543 246.01659 251.15253">&#x0410;&#x0433;&#x0430;&#x0444;&#x044c;&#x044f;&#x0424;&#x0435;&#x0434;&#x043e;&#x0442;&#x043e;&#x0432;&#x043d;&#x0430;</tspan><tspan y="-255.1987" x="178.7952 183.59516 188.39511 193.19507">1776</tspan></text>
<path transform="matrix(1,0,0,-1,276.864,622.492)" stroke-width=".96" stroke-linecap="butt" stroke-miterlimit="22.926" stroke-linejoin="miter" fill="none" stroke="#231f20" d="M 0 0 L 13.824 0 "/>
<path transform="matrix(1,0,0,-1,166.272,607.63406)" stroke-width=".96" stroke-linecap="butt" stroke-miterlimit="22.926" stroke-linejoin="miter" fill="none" stroke="#231f20" d="M 0 0 L 110.592 0 L 110.592 -34.56 L 0 -34.56 Z "/>
<text fill="#231f20" xml:space="preserve" transform="matrix(1 0 -0 1 0 842)" font-size="9.5999" font-family="TimesNewRomanPSMT"><tspan y="-224.3586" x="178.7952 185.72632 190.86226 195.74861 200.54857 204.81093">&#x0410;&#x043d;&#x0434;&#x0440;&#x0435;&#x0439;</tspan></text>
<path transform="matrix(1,0,0,-1,290.688,581.02)" stroke-width=".96" stroke-linecap="butt" stroke-miterlimit="22.926" stroke-linejoin="miter" fill="none" stroke="#231f20" d="M 0 0 L 0 -41.472 "/>
<path transform="matrix(1,0,0,-1,290.688,601.75607)" stroke-width=".96" stroke-linecap="butt" stroke-miterlimit="22.926" stroke-linejoin="miter" fill="none" stroke="#231f20" d="M 0 0 L 13.824 0 "/>
<path transform="matrix(1,0,0,-1,304.511,581.02)" stroke-width=".96" stroke-linecap="butt" stroke-miterlimit="22.926" stroke-linejoin="miter" fill="none" stroke="#231f20" d="M 0 0 L 0 -20.736 "/>
<path transform="matrix(1,0,0,-1,304.512,581.02)" stroke-width=".96" stroke-linecap="butt" stroke-miterlimit="22.926" stroke-linejoin="miter" fill="none" stroke="#231f20" d="M 0 0 L 13.824 0 "/>
<path transform="matrix(1,0,0,-1,318.336,566.16207)" stroke-width=".96" stroke-linecap="butt" stroke-miterlimit="22.926" stroke-linejoin="miter" fill="none" stroke="#231f20" d="M 0 0 L 110.592 0 L 110.592 -34.56 L 0 -34.56 Z "/>
<text fill="#231f20" xml:space="preserve" transform="matrix(1 0 -0 1 0 842)" font-size="9.5999" font-family="TimesNewRomanPSMT"><tspan y="-265.8306" x="330.8592 336.72474 340.42265 345.2226 352.42253 359.35365 364.4896 369.37596 374.1759 378.43827 382.70063 387.23179 392.36775">&#x0415;&#x0433;&#x043e;&#x0440;&#x0410;&#x043d;&#x0434;&#x0440;&#x0435;&#x0435;&#x0432;&#x0438;&#x0447;</tspan><tspan y="-255.1987" x="330.8592 335.65916 340.4591 345.25907">1800</tspan><tspan y="-609.7355" x="491.45497 498.38609 502.79438 507.05674 514.59268 521.11196 525.37429 531.451 535.7133 540.84927 545.6492 550.1803 555.3162">&#x0418;&#x0432;&#x0430;&#x043d;&#x0421;&#x0435;&#x043c;&#x0435;&#x043d;&#x043e;&#x0432;&#x0438;&#x0447;</tspan><tspan y="-599.1036" x="491.45497 496.2549 501.05488 505.85484">1824</tspan><tspan y="-575.17587" x="486.60127 493.53239 498.66835 503.3339 508.46986 512.784 519.4463 525.9646 530.2269 536.30368 540.566 545.7019 550.50186 555.03298 560.1689">&#x041d;&#x0438;&#x043a;&#x0438;&#x0442;&#x0430;&#x0421;&#x0435;&#x043c;&#x0435;&#x043d;&#x043e;&#x0432;&#x0438;&#x0447;</tspan><tspan y="-564.54397" x="486.60127 491.4012 496.20118 501.00114">1830</tspan></text>
<path transform="matrix(1,0,0,-1,470.4,220.56201)" stroke-width=".96" stroke-linecap="butt" stroke-miterlimit="22.926" stroke-linejoin="miter" fill="none" stroke="#231f20" d="M 0 0 L 110.592 0 L 110.592 -27.648 L 0 -27.648 Z "/>
<path transform="matrix(1,0,0,-1,456.576,228.50801)" stroke-width=".96" stroke-linecap="butt" stroke-miterlimit="22.926" stroke-linejoin="miter" fill="none" stroke="#231f20" d="M 0 0 L 13.824 0 "/>
<path transform="matrix(1,0,0,-1,470.4,255.12201)" stroke-width=".96" stroke-linecap="butt" stroke-miterlimit="22.926" stroke-linejoin="miter" fill="none" stroke="#231f20" d="M 0 0 L 110.592 0 L 110.592 -27.648 L 0 -27.648 Z "/>
<path transform="matrix(1,0,0,-1,456.576,263.06803)" stroke-width=".96" stroke-linecap="butt" stroke-miterlimit="22.926" stroke-linejoin="miter" fill="none" stroke="#231f20" d="M 0 0 L 13.824 0 "/>
<text fill="#231f20" xml:space="preserve" transform="matrix(1 0 -0 1 0 842)" font-size="9.5999" font-family="TimesNewRomanPSMT"><tspan y="-540.6158" x="486.6018 493.53294 498.66889 503.80485 510.46717 516.9903 521.2526 527.32937 531.5917 536.7276 541.5275 546.05868 551.1946">&#x0410;&#x043d;&#x043d;&#x0430;&#x0421;&#x0435;&#x043c;&#x0435;&#x043d;&#x043e;&#x0432;&#x043d;&#x0430;</tspan><tspan y="-529.9839" x="486.6018 491.40177 496.20173 501.00169">1816</tspan></text>
<path transform="matrix(1,0,0,-1,470.4,289.682)" stroke-width=".96" stroke-linecap="butt" stroke-miterlimit="22.926" stroke-linejoin="miter" fill="none" stroke="#231f20" d="M 0 0 L 110.592 0 L 110.592 -27.648 L 0 -27.648 Z "/>
<path transform="matrix(1,0,0,-1,456.576,297.62803)" stroke-width=".96" stroke-linecap="butt" stroke-miterlimit="22.926" stroke-linejoin="miter" fill="none" stroke="#231f20" d="M 0 0 L 13.824 0 "/>
<text fill="#231f20" xml:space="preserve" transform="matrix(1 0 -0 1 0 842)" font-size="9.5999" font-family="TimesNewRomanPSMT"><tspan y="-506.0558" x="486.6018 493.53294 497.7953 502.05766 506.368 510.63038 514.8927 519.27029 526.0862 532.6026 536.8649 542.94168 547.204 552.3399 557.13986 561.67098 566.8069">&#x041d;&#x0430;&#x0441;&#x0442;&#x0430;&#x0441;&#x044c;&#x044f;&#x0421;&#x0435;&#x043c;&#x0435;&#x043d;&#x043e;&#x0432;&#x043d;&#x0430;</tspan><tspan y="-495.4239" x="486.6018 491.40177 496.20173 501.00169">1831</tspan></text>
<path transform="matrix(1,0,0,-1,470.4,324.242)" stroke-width=".96" stroke-linecap="butt" stroke-miterlimit="22.926" stroke-linejoin="miter" fill="none" stroke="#231f20" d="M 0 0 L 110.592 0 L 110.592 -27.648 L 0 -27.648 Z "/>
<path transform="matrix(1,0,0,-1,456.576,332.18803)" stroke-width=".96" stroke-linecap="butt" stroke-miterlimit="22.926" stroke-linejoin="miter" fill="none" stroke="#231f20" d="M 0 0 L 13.824 0 "/>
<path transform="matrix(1,0,0,-1,318.336,607.63406)" stroke-width=".96" stroke-linecap="butt" stroke-miterlimit="22.926" stroke-linejoin="miter" fill="none" stroke="#231f20" d="M 0 0 L 110.592 0 L 110.592 -27.648 L 0 -27.648 Z "/>
<path transform="matrix(1,0,0,-1,428.928,581.02)" stroke-width=".96" stroke-linecap="butt" stroke-miterlimit="22.926" stroke-linejoin="miter" fill="none" stroke="#231f20" d="M 0 0 L 13.824 0 "/>
<path transform="matrix(1,0,0,-1,428.928,615.58)" stroke-width=".96" stroke-linecap="butt" stroke-miterlimit="22.926" stroke-linejoin="miter" fill="none" stroke="#231f20" d="M 0 0 L 13.824 0 "/>
<path transform="matrix(1,0,0,-1,442.752,581.02)" stroke-width=".96" stroke-linecap="butt" stroke-miterlimit="22.926" stroke-linejoin="miter" fill="none" stroke="#231f20" d="M 0 0 L 0 -34.56 "/>
<text fill="#231f20" xml:space="preserve" transform="matrix(1 0 -0 1 0 842)" font-size="9.5999" font-family="TimesNewRomanPSMT"><tspan y="-224.3586" x="330.8592 337.7903 342.31956 346.6971 351.48747 356.6234 361.75938">&#x0410;&#x043a;&#x0443;&#x043b;&#x0438;&#x043d;&#x0430;</tspan><tspan y="-213.72672" x="330.8592 335.65916 340.4591 345.25907">1799</tspan><tspan y="-264.1358" x="486.60127 493.53239 498.66835 503.5547 508.35466 512.617 517.03298">&#x0410;&#x043d;&#x0434;&#x0440;&#x0435;&#x044f;&#x043d;</tspan><tspan y="-253.5039" x="486.60127 491.4012 496.20118 501.00114">1822</tspan></text>
<path transform="matrix(1,0,0,-1,470.4,566.162)" stroke-width=".96" stroke-linecap="butt" stroke-miterlimit="22.926" stroke-linejoin="miter" fill="none" stroke="#231f20" d="M 0 0 L 110.592 0 L 110.592 -27.648 L 0 -27.648 Z "/>
<path transform="matrix(1,0,0,-1,456.576,574.108)" stroke-width=".96" stroke-linecap="butt" stroke-miterlimit="22.926" stroke-linejoin="miter" fill="none" stroke="#231f20" d="M 0 0 L 13.824 0 "/>
<text fill="#231f20" xml:space="preserve" transform="matrix(1 0 -0 1 0 842)" font-size="9.5999" font-family="TimesNewRomanPSMT"><tspan y="-229.5758" x="486.6018 493.14894 497.4113 502.54725 507.6832 512.4736">&#x0414;&#x0430;&#x043d;&#x0438;&#x043b;&#x0430;</tspan><tspan y="-218.94391" x="486.6018 491.40177 496.20173 501.00169">1824</tspan></text>
<path transform="matrix(1,0,0,-1,470.4,600.722)" stroke-width=".96" stroke-linecap="butt" stroke-miterlimit="22.926" stroke-linejoin="miter" fill="none" stroke="#231f20" d="M 0 0 L 110.592 0 L 110.592 -27.648 L 0 -27.648 Z "/>
<path transform="matrix(1,0,0,-1,456.576,608.66799)" stroke-width=".96" stroke-linecap="butt" stroke-miterlimit="22.926" stroke-linejoin="miter" fill="none" stroke="#231f20" d="M 0 0 L 13.824 0 "/>
<text fill="#231f20" xml:space="preserve" transform="matrix(1 0 -0 1 0 842)" font-size="9.5999" font-family="TimesNewRomanPSMT"><tspan y="-195.0158" x="486.6018 493.04719 497.93354 502.7335 506.99586">&#x0410;&#x0431;&#x0440;&#x0430;&#x043c;</tspan><tspan y="-184.38391" x="486.6018 491.40177 496.20173 501.00169">1828</tspan></text>
<path transform="matrix(1,0,0,-1,470.4,635.282)" stroke-width=".96" stroke-linecap="butt" stroke-miterlimit="22.926" stroke-linejoin="miter" fill="none" stroke="#231f20" d="M 0 0 L 110.592 0 L 110.592 -27.648 L 0 -27.648 Z "/>
<path transform="matrix(1,0,0,-1,456.576,643.22799)" stroke-width=".96" stroke-linecap="butt" stroke-miterlimit="22.926" stroke-linejoin="miter" fill="none" stroke="#231f20" d="M 0 0 L 13.824 0 "/>
<text fill="#231f20" xml:space="preserve" transform="matrix(1 0 -0 1 0 842)" font-size="9.5999" font-family="TimesNewRomanPSMT"><tspan y="-160.4558" x="486.6018 493.53294 497.94123 502.20359">&#x0418;&#x0432;&#x0430;&#x043d;</tspan><tspan y="-149.82392" x="486.6018 491.40177 496.20173 501.00169">1833</tspan></text>
<path transform="matrix(1,0,0,-1,470.4,669.842)" stroke-width=".96" stroke-linecap="butt" stroke-miterlimit="22.926" stroke-linejoin="miter" fill="none" stroke="#231f20" d="M 0 0 L 110.592 0 L 110.592 -27.648 L 0 -27.648 Z "/>
<path transform="matrix(1,0,0,-1,456.576,677.78799)" stroke-width=".96" stroke-linecap="butt" stroke-miterlimit="22.926" stroke-linejoin="miter" fill="none" stroke="#231f20" d="M 0 0 L 13.824 0 "/>
<text fill="#231f20" xml:space="preserve" transform="matrix(1 0 -0 1 0 842)" font-size="9.5999" font-family="TimesNewRomanPSMT"><tspan y="-125.8958" x="486.6018 492.24464 496.507 500.70216 505.8381 510.97407 515.3516">&#x0423;&#x0441;&#x0442;&#x0438;&#x043d;&#x044c;&#x044f;</tspan><tspan y="-115.26391" x="486.6018 491.40177 496.20173 501.00169">1821</tspan></text>
<path transform="matrix(1,0,0,-1,470.4,704.402)" stroke-width=".96" stroke-linecap="butt" stroke-miterlimit="22.926" stroke-linejoin="miter" fill="none" stroke="#231f20" d="M 0 0 L 110.592 0 L 110.592 -27.648 L 0 -27.648 Z "/>
<path transform="matrix(1,0,0,-1,456.576,712.34799)" stroke-width=".96" stroke-linecap="butt" stroke-miterlimit="22.926" stroke-linejoin="miter" fill="none" stroke="#231f20" d="M 0 0 L 13.824 0 "/>
<text fill="#231f20" xml:space="preserve" transform="matrix(1 0 -0 1 0 842)" font-size="9.5999" font-family="TimesNewRomanPSMT"><tspan y="-91.3358" x="486.6018 495.1361 499.39848 504.19844 508.576">&#x041c;&#x0430;&#x0440;&#x044c;&#x044f;</tspan><tspan y="-80.70391" x="486.6018 491.40177 496.20173 501.00169">1831</tspan></text>
<path transform="matrix(1,0,0,-1,470.4,738.962)" stroke-width=".96" stroke-linecap="butt" stroke-miterlimit="22.926" stroke-linejoin="miter" fill="none" stroke="#231f20" d="M 0 0 L 110.592 0 L 110.592 -27.648 L 0 -27.648 Z "/>
<path transform="matrix(1,0,0,-1,456.576,746.90798)" stroke-width=".96" stroke-linecap="butt" stroke-miterlimit="22.926" stroke-linejoin="miter" fill="none" stroke="#231f20" d="M 0 0 L 13.824 0 "/>
<path transform="matrix(1,0,0,-1,456.576,574.108)" stroke-width=".96" stroke-linecap="butt" stroke-miterlimit="22.926" stroke-linejoin="miter" fill="none" stroke="#231f20" d="M 0 0 L 0 -172.8 "/>
<path transform="matrix(1,0,0,-1,442.75199,594.844)" stroke-width=".96" stroke-linecap="butt" stroke-miterlimit="22.926" stroke-linejoin="miter" fill="none" stroke="#231f20" d="M 0 0 L 13.824 0 "/>
<path transform="matrix(1,0,0,-1,166.27198,365.714)" stroke-width=".96" stroke-linecap="butt" stroke-miterlimit="22.926" stroke-linejoin="miter" fill="none" stroke="#231f20" d="M 0 0 L 110.592 0 L 110.592 -27.648 L 0 -27.648 Z "/>
<path transform="matrix(1,0,0,-1,276.86399,373.66)" stroke-width=".96" stroke-linecap="butt" stroke-miterlimit="22.926" stroke-linejoin="miter" fill="none" stroke="#231f20" d="M 0 0 L 13.824 0 "/>
<text fill="#231f20" xml:space="preserve" transform="matrix(1 0 -0 1 0 842)" font-size="9.5999" font-family="TimesNewRomanPSMT"><tspan y="-466.2786" x="178.7952 187.32952 191.59188 196.12303 200.92299 207.58533 214.51645 218.92377 223.18613 228.32207 233.12203 237.65319 242.78913">&#x041c;&#x0430;&#x0432;&#x0440;&#x0430;&#x0418;&#x0432;&#x0430;&#x043d;&#x043e;&#x0432;&#x043d;&#x0430;</tspan><tspan y="-455.6467" x="178.7952 183.59516 188.39511 193.19507">1756</tspan></text>
<path transform="matrix(1,0,0,-1,0,842)" stroke-width=".96" stroke-linecap="butt" stroke-dasharray="1.9201,.96006" stroke-miterlimit="22.926" stroke-linejoin="miter" fill="none" stroke="#231f20" d="M 290.688 710.26 L 290.688 468.34 "/>
<path transform="matrix(1,0,0,-1,304.511,359.836)" stroke-width=".96" stroke-linecap="butt" stroke-miterlimit="22.926" stroke-linejoin="miter" fill="none" stroke="#231f20" d="M 0 0 L 0 -96.768 "/>
<path transform="matrix(1,0,0,-1,318.336,365.714)" stroke-width=".96" stroke-linecap="butt" stroke-miterlimit="22.926" stroke-linejoin="miter" fill="none" stroke="#231f20" d="M 0 0 L 110.592 0 L 110.592 -34.56 L 0 -34.56 Z "/>
<path transform="matrix(1,0,0,-1,304.512,380.572)" stroke-width=".96" stroke-linecap="butt" stroke-miterlimit="22.926" stroke-linejoin="miter" fill="none" stroke="#231f20" d="M 0 0 L 13.824 0 "/>
<path transform="matrix(1,0,0,-1,428.92799,380.572)" stroke-width=".96" stroke-linecap="butt" stroke-miterlimit="22.926" stroke-linejoin="miter" fill="none" stroke="#231f20" d="M 0 0 L 13.824 0 "/>
<text fill="#231f20" xml:space="preserve" transform="matrix(1 0 -0 1 0 842)" font-size="9.5999" font-family="TimesNewRomanPSMT"><tspan y="-466.2786" x="330.8592 336.72474 342.80149 347.06385 351.8542 356.23176 360.6477 368.18363 375.11476 379.3771 384.51307 389.64903 394.44898 398.98014 404.1161">&#x0415;&#x043c;&#x0435;&#x043b;&#x044c;&#x044f;&#x043d;&#x041e;&#x0441;&#x0438;&#x043f;&#x043e;&#x0432;&#x0438;&#x0447;</tspan><tspan y="-455.6467" x="330.8592 335.65916 340.4591 345.25907">1789</tspan></text>
<path transform="matrix(1,0,0,-1,290.688,359.836)" stroke-width=".96" stroke-linecap="butt" stroke-miterlimit="22.926" stroke-linejoin="miter" fill="none" stroke="#231f20" d="M 0 0 L 13.824 0 "/>
<path transform="matrix(1,0,0,-1,318.336,441.746)" stroke-width=".96" stroke-linecap="butt" stroke-miterlimit="22.926" stroke-linejoin="miter" fill="none" stroke="#231f20" d="M 0 0 L 110.592 0 L 110.592 -34.56 L 0 -34.56 Z "/>
<path transform="matrix(1,0,0,-1,304.512,456.604)" stroke-width=".96" stroke-linecap="butt" stroke-miterlimit="22.926" stroke-linejoin="miter" fill="none" stroke="#231f20" d="M 0 0 L 13.824 0 "/>
<path transform="matrix(1,0,0,-1,428.92799,456.604)" stroke-width=".96" stroke-linecap="butt" stroke-miterlimit="22.926" stroke-linejoin="miter" fill="none" stroke="#231f20" d="M 0 0 L 13.824 0 "/>
<text fill="#231f20" xml:space="preserve" transform="matrix(1 0 -0 1 0 842)" font-size="9.5999" font-family="TimesNewRomanPSMT"><tspan y="-390.2466" x="330.8592 339.3935 343.40818 347.60334 352.07978 356.34214 363.87806 370.80918 375.07154 380.2075 385.34346 390.1434 394.67457 399.81053">&#x041c;&#x0430;&#x0442;&#x0432;&#x0435;&#x0439;&#x041e;&#x0441;&#x0438;&#x043f;&#x043e;&#x0432;&#x0438;&#x0447;</tspan><tspan y="-379.61473" x="330.8592 335.65916 340.4591 345.25907">1792</tspan></text>
<path transform="matrix(1,0,0,-1,470.4,434.834)" stroke-width=".96" stroke-linecap="butt" stroke-miterlimit="22.926" stroke-linejoin="miter" fill="none" stroke="#231f20" d="M 0 0 L 110.592 0 L 110.592 -34.56 L 0 -34.56 Z "/>
<path transform="matrix(1,0,0,-1,456.576,380.57203)" stroke-width=".96" stroke-linecap="butt" stroke-miterlimit="22.926" stroke-linejoin="miter" fill="none" stroke="#231f20" d="M 0 0 L 13.824 0 "/>
<text fill="#231f20" xml:space="preserve" transform="matrix(1 0 -0 1 0 842)" font-size="9.5999" font-family="TimesNewRomanPSMT"><tspan y="-466.2786" x="482.9232 489.8543 494.2626 498.52497 506.06089 510.86085 515.66079 520.4607 525.2606 528.4574 533.2573 538.05728 542.8572">&#x0418;&#x0432;&#x0430;&#x043d;1816-1819</tspan></text>
<path transform="matrix(1,0,0,-1,470.4,365.714)" stroke-width=".96" stroke-linecap="butt" stroke-miterlimit="22.926" stroke-linejoin="miter" fill="none" stroke="#231f20" d="M 0 0 L 110.592 0 L 110.592 -27.648 L 0 -27.648 Z "/>
<path transform="matrix(1,0,0,-1,318.336,407.18598)" stroke-width=".96" stroke-linecap="butt" stroke-miterlimit="22.926" stroke-linejoin="miter" fill="none" stroke="#231f20" d="M 0 0 L 110.592 0 L 110.592 -27.648 L 0 -27.648 Z "/>
<text fill="#231f20" xml:space="preserve" transform="matrix(1 0 -0 1 0 842)" font-size="9.5999" font-family="TimesNewRomanPSMT"><tspan y="-424.8066" x="330.8592 337.7903 342.31956 346.6971 351.48747 356.6234 361.75938">&#x0410;&#x043a;&#x0443;&#x043b;&#x0438;&#x043d;&#x0430;</tspan><tspan y="-414.1747" x="330.8592 335.65916 340.4591 345.25907">1792</tspan></text>
<path transform="matrix(1,0,0,-1,428.928,422.044)" stroke-width=".96" stroke-linecap="butt" stroke-miterlimit="22.926" stroke-linejoin="miter" fill="none" stroke="#231f20" d="M 0 0 L 13.824 0 "/>
<path transform="matrix(1,0,0,-1,442.751,380.57203)" stroke-width=".96" stroke-linecap="butt" stroke-miterlimit="22.926" stroke-linejoin="miter" fill="none" stroke="#231f20" d="M 0 0 L 0 -41.472 "/>
<text fill="#231f20" xml:space="preserve" transform="matrix(1 0 -0 1 0 842)" font-size="9.5999" font-family="TimesNewRomanPSMT"><tspan y="-390.2466" x="482.9232 489.8543 494.65428 498.91664 503.179 507.35304 512.15298 516.6841 521.06167">&#x041f;&#x0440;&#x0430;&#x0441;&#x043a;&#x043e;&#x0432;&#x044c;&#x044f;</tspan><tspan y="-379.61473" x="482.9232 487.72315 492.5231 497.32307">1819</tspan></text>
<path transform="matrix(1,0,0,-1,456.576,415.132)" stroke-width=".96" stroke-linecap="butt" stroke-miterlimit="22.926" stroke-linejoin="miter" fill="none" stroke="#231f20" d="M 0 0 L 13.824 0 "/>
<text fill="#231f20" xml:space="preserve" transform="matrix(1 0 -0 1 0 842)" font-size="9.5999" font-family="TimesNewRomanPSMT"><tspan y="-431.7186" x="482.9232 489.8543 494.11668 498.907 503.16938 506.97865 511.241">&#x041f;&#x0435;&#x043b;&#x0430;&#x0433;&#x0435;&#x044f;</tspan><tspan y="-421.0867" x="482.9232 487.72315 492.5231 497.32307">1823</tspan></text>
<path transform="matrix(1,0,0,-1,470.4,400.274)" stroke-width=".96" stroke-linecap="butt" stroke-miterlimit="22.926" stroke-linejoin="miter" fill="none" stroke="#231f20" d="M 0 0 L 110.592 0 L 110.592 -27.648 L 0 -27.648 Z "/>
<path transform="matrix(1,0,0,-1,456.57499,380.572)" stroke-width=".96" stroke-linecap="butt" stroke-miterlimit="22.926" stroke-linejoin="miter" fill="none" stroke="#231f20" d="M 0 0 L 0 -34.56 "/>
<path transform="matrix(1,0,0,-1,442.75199,394.396)" stroke-width=".96" stroke-linecap="butt" stroke-miterlimit="22.926" stroke-linejoin="miter" fill="none" stroke="#231f20" d="M 0 0 L 13.824 0 "/>
<path transform="matrix(1,0,0,-1,318.336,483.218)" stroke-width=".96" stroke-linecap="butt" stroke-miterlimit="22.926" stroke-linejoin="miter" fill="none" stroke="#231f20" d="M 0 0 L 110.592 0 L 110.592 -27.648 L 0 -27.648 Z "/>
<text fill="#231f20" xml:space="preserve" transform="matrix(1 0 -0 1 0 842)" font-size="9.5999" font-family="TimesNewRomanPSMT"><tspan y="-348.7746" x="330.8592 337.4255 343.64625 348.7822 354.85896 359.2365">&#x0410;&#x0444;&#x0438;&#x043c;&#x044c;&#x044f;</tspan><tspan y="-338.1427" x="330.8592 335.65916 340.4591 345.25907">1796</tspan></text>
<path transform="matrix(1,0,0,-1,428.928,498.076)" stroke-width=".96" stroke-linecap="butt" stroke-miterlimit="22.926" stroke-linejoin="miter" fill="none" stroke="#231f20" d="M 0 0 L 13.824 0 "/>
<path transform="matrix(1,0,0,-1,442.751,456.604)" stroke-width=".96" stroke-linecap="butt" stroke-miterlimit="22.926" stroke-linejoin="miter" fill="none" stroke="#231f20" d="M 0 0 L 0 -41.472 "/>
<path transform="matrix(1,0,0,-1,456.57603,456.604)" stroke-width=".96" stroke-linecap="butt" stroke-miterlimit="22.926" stroke-linejoin="miter" fill="none" stroke="#231f20" d="M 0 0 L 13.824 0 "/>
<path transform="matrix(1,0,0,-1,456.575,456.604)" stroke-width=".96" stroke-linecap="butt" stroke-miterlimit="22.926" stroke-linejoin="miter" fill="none" stroke="#231f20" d="M 0 0 L 0 -82.944 "/>
<path transform="matrix(1,0,0,-1,442.752,477.34)" stroke-width=".96" stroke-linecap="butt" stroke-miterlimit="22.926" stroke-linejoin="miter" fill="none" stroke="#231f20" d="M 0 0 L 13.824 0 "/>
<path transform="matrix(1,0,0,-1,470.40003,476.306)" stroke-width=".96" stroke-linecap="butt" stroke-miterlimit="22.926" stroke-linejoin="miter" fill="none" stroke="#231f20" d="M 0 0 L 110.592 0 L 110.592 -34.56 L 0 -34.56 Z "/>
<text fill="#231f20" xml:space="preserve" transform="matrix(1 0 -0 1 0 842)" font-size="9.5999" font-family="TimesNewRomanPSMT"><tspan y="-348.7746" x="482.9232 488.54875 492.5615 496.75666 501.13423 505.55018 510.68614">&#x0422;&#x0430;&#x0442;&#x044c;&#x044f;&#x043d;&#x0430;</tspan><tspan y="-338.1427" x="482.9232 487.72315 492.5231 497.32307">1819</tspan></text>
<path transform="matrix(1,0,0,-1,456.576,498.076)" stroke-width=".96" stroke-linecap="butt" stroke-miterlimit="22.926" stroke-linejoin="miter" fill="none" stroke="#231f20" d="M 0 0 L 13.824 0 "/>
<path transform="matrix(1,0,0,-1,470.4,517.778)" stroke-width=".96" stroke-linecap="butt" stroke-miterlimit="22.926" stroke-linejoin="miter" fill="none" stroke="#231f20" d="M 0 0 L 110.592 0 L 110.592 -34.56 L 0 -34.56 Z "/>
<text fill="#231f20" xml:space="preserve" transform="matrix(1 0 -0 1 0 842)" font-size="9.5999" font-family="TimesNewRomanPSMT"><tspan y="-307.3026" x="482.9232 488.78874 493.57908 497.84144 502.9774">&#x0415;&#x043b;&#x0435;&#x043d;&#x0430;</tspan><tspan y="-296.67073" x="482.9232 487.72315 492.5231 497.32307">1829</tspan></text>
<path transform="matrix(1,0,0,-1,456.576,539.548)" stroke-width=".96" stroke-linecap="butt" stroke-miterlimit="22.926" stroke-linejoin="miter" fill="none" stroke="#231f20" d="M 0 0 L 13.824 0 "/>
<path transform="matrix(1,0,0,-1,563.74099,98.14096)" stroke-width=".96" stroke-linecap="butt" stroke-miterlimit="22.926" stroke-linejoin="miter" fill="none" stroke="#231f20" d="M 0 0 L 3.831 0 "/>
<path transform="matrix(1,0,0,-1,563.74099,105.92696)" stroke-width=".96" stroke-linecap="butt" stroke-miterlimit="22.926" stroke-linejoin="miter" fill="none" stroke="#231f20" d="M 0 0 L 3.831 0 "/>
<path transform="matrix(1,0,0,-1,567.57199,102.033969)" stroke-width=".96" stroke-linecap="butt" stroke-miterlimit="22.926" stroke-linejoin="miter" fill="none" stroke="#231f20" d="M 0 0 L 3.832 0 "/>
<path transform="matrix(1,0,0,-1,567.57199,98.14097)" stroke-width=".96" stroke-linecap="butt" stroke-miterlimit="22.926" stroke-linejoin="miter" fill="none" stroke="#231f20" d="M 0 0 L 0 -7.786 "/>
<path transform="matrix(1,0,0,-1,571.46499,98.14097)" stroke-width=".96" stroke-linecap="butt" stroke-miterlimit="22.926" stroke-linejoin="miter" fill="none" stroke="#231f20" d="M 0 0 L 0 -7.786 "/>
<path transform="matrix(1,0,0,-1,571.52597,98.14097)" stroke-width=".96" stroke-linecap="butt" stroke-miterlimit="22.926" stroke-linejoin="miter" fill="none" stroke="#231f20" d="M 0 0 L 3.832 0 "/>
<path transform="matrix(1,0,0,-1,571.52597,105.92697)" stroke-width=".96" stroke-linecap="butt" stroke-miterlimit="22.926" stroke-linejoin="miter" fill="none" stroke="#231f20" d="M 0 0 L 3.832 0 "/>
</g>
</svg>
