<?xml version="1.0" encoding="UTF-8" standalone="no"?>
<!DOCTYPE svg PUBLIC "-//W3C//DTD SVG 1.1//EN" "http://www.w3.org/Graphics/SVG/1.1/DTD/svg11.dtd">
<svg xmlns="http://www.w3.org/2000/svg" xmlns:xlink="http://www.w3.org/1999/xlink" version="1.1" width="595.22pt" height="842pt" viewBox="0 0 595.22 842">
<g enable-background="new">
<text fill="#231f20" xml:space="preserve" transform="matrix(1 0 -0 1 0 842)" font-size="9.9999" font-family="TimesNewRomanPSMT"><tspan y="-589.3616" x="249.4472 256.11714 262.44706 267.797 272.79695 278.14689 283.14683 287.73677">&#x0421;&#x043c;&#x0438;&#x0440;&#x043d;&#x043e;&#x0432;&#x0430;</tspan><tspan y="-578.2867" x="249.4472 255.98513 260.35508 264.795 270.14497 274.5849 279.93486 285.2848 290.37474 297.31465 305.21458 310.5645 315.55448 320.90443 326.25437 331.2543 335.97425 341.3242">&#x0421;&#x0442;&#x0435;&#x043f;&#x0430;&#x043d;&#x0438;&#x0434;&#x0430;&#x0424;&#x0438;&#x043b;&#x0438;&#x043f;&#x043e;&#x0432;&#x043d;&#x0430;</tspan><tspan y="-804.8104" x="104.377658 111.04759 117.37753 122.72748 127.727428 133.07738 138.07733 145.29726 153.19718 158.54712 163.53707 168.88701">&#x0421;&#x043c;&#x0438;&#x0440;&#x043d;&#x043e;&#x0432;&#x0424;&#x0438;&#x043b;&#x0438;&#x043f;</tspan><tspan y="-793.73556" x="104.377658 111.59758 116.18954 120.62949 125.97944 130.97939 135.69934 141.04929">&#x0418;&#x0432;&#x0430;&#x043d;&#x043e;&#x0432;&#x0438;&#x0447;</tspan><tspan y="-806.6424" x="253.01216 259.6821 266.01203 271.36198 276.3619 281.71186 286.7118 291.30174 298.24165 307.13157 311.5715 316.57145 321.9214">&#x0421;&#x043c;&#x0438;&#x0440;&#x043d;&#x043e;&#x0432;&#x0430;&#x041c;&#x0430;&#x0440;&#x0438;&#x044f;</tspan><tspan y="-795.5675" x="253.01216 256.34214 265.23207 269.672 274.67195 280.02189 284.46183 289.81178 295.1617 299.60166 305.43159 313.3315 318.68147 323.67143 329.02137 334.3713 339.37126 344.0912 349.44114">(&#x041c;&#x0430;&#x0440;&#x0438;&#x0430;&#x043d;&#x043d;&#x0430;)&#x0424;&#x0438;&#x043b;&#x0438;&#x043f;&#x043e;&#x0432;&#x043d;&#x0430;</tspan></text>
<text fill="#231f20" xml:space="preserve" transform="matrix(1 0 -0 1 0 842)" font-size="7.9998" font-family="TimesNewRomanPSMT"><tspan y="-786.2743" x="253.0125 257.01243 261.29313 265.29304 269.29295 275.2928 277.95674 282.027">&#x0443;&#x043f;.85(&#x0434;)</tspan></text>
<text fill="#231f20" xml:space="preserve" transform="matrix(1 0 -0 1 0 842)" font-size="9.9999" font-family="TimesNewRomanPSMT"><tspan y="-720.2517" x="249.5982 256.13615 260.57609 268.276 273.62596 278.9759 284.32585 289.67579 296.61869 299.94865 306.61857 312.9485 318.29844 323.29838 328.64833 333.64826 338.2382 342.67814">&#x041a;&#x0430;&#x0448;&#x0438;&#x0446;&#x0438;&#x043d;&#x0430;(&#x0421;&#x043c;&#x0438;&#x0440;&#x043d;&#x043e;&#x0432;&#x0430;)</tspan><tspan y="-709.1768" x="249.5982 255.70815 260.6981 265.13804 270.48799 277.4279 285.32783 290.67778 295.66773 301.01768 306.3676 311.36756 316.0875 321.43745">&#x0415;&#x043b;&#x0435;&#x043d;&#x0430;&#x0424;&#x0438;&#x043b;&#x0438;&#x043f;&#x043e;&#x0432;&#x043d;&#x0430;</tspan><tspan y="-698.1019" x="249.5982 255.00815 260.0081 265.00804 270.00798">~1863</tspan><tspan y="-633.85159" x="251.04619 257.71614 264.04606 269.396 274.39595 279.74589 284.74583 289.33576">&#x0421;&#x043c;&#x0438;&#x0440;&#x043d;&#x043e;&#x0432;&#x0430;</tspan><tspan y="-622.7767" x="251.04619 258.2661 262.36607 267.366 272.71595 278.0659 283.41584 288.76579 295.7057 303.60563 308.95558 313.94554 319.29548 324.64543 329.64537 334.3653 339.71525">&#x0410;&#x0433;&#x0440;&#x0438;&#x043f;&#x0438;&#x043d;&#x0430;&#x0424;&#x0438;&#x043b;&#x0438;&#x043f;&#x043e;&#x0432;&#x043d;&#x0430;</tspan></text>
<text fill="#231f20" xml:space="preserve" transform="matrix(1 0 -0 1 0 842)" font-size="7.9998" font-family="TimesNewRomanPSMT"><tspan y="-613.4836" x="251.0465 255.0464 259.3271 263.327 267.3269 273.32676 275.9907 280.06098">&#x0443;&#x043f;.79(&#x0434;)</tspan></text>
<text fill="#231f20" xml:space="preserve" transform="matrix(1 0 -0 1 0 842)" font-size="9.9999" font-family="TimesNewRomanPSMT"><tspan y="-552.7241" x="265.9669 272.6368 277.62678 284.3467 288.69468 293.6946 300.91453 308.13447 313.3854 317.82536 323.1753">&#x041a;&#x043b;&#x044b;&#x043a;&#x043e;&#x0432;&#x0418;&#x043e;&#x0441;&#x0438;&#x0444;</tspan><tspan y="-541.64926" x="265.9669 272.6368 277.07676 281.5167 286.86665 291.8566 296.41658 300.8565 305.57646 310.9264">&#x0412;&#x0430;&#x0441;&#x0438;&#x043b;&#x044c;&#x0435;&#x0432;&#x0438;&#x0447;</tspan><tspan y="-516.84548" x="261.94093 268.61085 273.6008 280.32075 284.6687 289.66865 296.88856 303.55848 307.9984 312.43836 317.7883 322.77827 328.1282">&#x041a;&#x043b;&#x044b;&#x043a;&#x043e;&#x0432;&#x0412;&#x0430;&#x0441;&#x0438;&#x043b;&#x0438;&#x0439;</tspan><tspan y="-505.77058" x="261.94093 268.61085 273.05079 277.49073 282.84068 287.83064 292.3906 296.83055 301.55049 306.90043">&#x0412;&#x0430;&#x0441;&#x0438;&#x043b;&#x044c;&#x0435;&#x0432;&#x0438;&#x0447;</tspan><tspan y="-243.45221" x="261.5689 270.45884 275.80879 281.15873 285.59867 290.0386 297.2585 303.92845 308.36839 312.80833 318.15827 323.14823 328.49818">&#x041c;&#x0438;&#x043d;&#x0435;&#x0435;&#x0432;&#x0412;&#x0430;&#x0441;&#x0438;&#x043b;&#x0438;&#x0439;</tspan><tspan y="-232.37732" x="261.5689 268.78886 273.7888 278.34974 282.78968 288.13963 292.6996 297.13954 301.85948 307.2094">&#x0410;&#x0440;&#x0441;&#x0435;&#x043d;&#x044c;&#x0435;&#x0432;&#x0438;&#x0447;</tspan><tspan y="-221.30243" x="266.97886 271.9788 276.97874 281.97868 261.5689">1857~</tspan></text>
<text fill="#231f20" xml:space="preserve" transform="matrix(1 0 -0 1 0 842)" font-size="7.9998" font-family="TimesNewRomanPSMT"><tspan y="-212.0096" x="261.5692 265.56913 269.84904 273.8489 277.84883 281.84873 283.84867 287.84858 291.84849 293.84843 297.84834 301.84825 303.84819 307.84809 311.848 313.84794 317.84785">&#x0443;&#x043f;.84,87,88,90,91</tspan></text>
<path transform="matrix(1,0,0,-1,337.412,566.419)" stroke-width="1" stroke-linecap="butt" stroke-miterlimit="22.926" stroke-linejoin="miter" fill="none" stroke="#231f20" d="M 0 0 L 3.991 0 "/>
<path transform="matrix(1,0,0,-1,337.412,574.529)" stroke-width="1" stroke-linecap="butt" stroke-miterlimit="22.926" stroke-linejoin="miter" fill="none" stroke="#231f20" d="M 0 0 L 3.991 0 "/>
<path transform="matrix(1,0,0,-1,341.40299,570.474)" stroke-width="1" stroke-linecap="butt" stroke-miterlimit="22.926" stroke-linejoin="miter" fill="none" stroke="#231f20" d="M 0 0 L 3.991 0 "/>
<path transform="matrix(1,0,0,-1,341.40299,566.419)" stroke-width="1" stroke-linecap="butt" stroke-miterlimit="22.926" stroke-linejoin="miter" fill="none" stroke="#231f20" d="M 0 0 L 0 -8.11 "/>
<path transform="matrix(1,0,0,-1,345.45799,566.419)" stroke-width="1" stroke-linecap="butt" stroke-miterlimit="22.926" stroke-linejoin="miter" fill="none" stroke="#231f20" d="M 0 0 L 0 -8.11 "/>
<path transform="matrix(1,0,0,-1,345.52198,566.419)" stroke-width="1" stroke-linecap="butt" stroke-miterlimit="22.926" stroke-linejoin="miter" fill="none" stroke="#231f20" d="M 0 0 L 3.991 0 "/>
<path transform="matrix(1,0,0,-1,345.52198,574.529)" stroke-width="1" stroke-linecap="butt" stroke-miterlimit="22.926" stroke-linejoin="miter" fill="none" stroke="#231f20" d="M 0 0 L 3.991 0 "/>
<text fill="#231f20" xml:space="preserve" transform="matrix(1 0 -0 1 0 842)" font-size="9.9999" font-family="TimesNewRomanPSMT"><tspan y="-301.0524" x="261.5791 270.46903 275.81898 281.1689 285.60887 290.0488 297.2687 304.48866 309.8386 314.19456 319.0625 324.05247 328.4924">&#x041c;&#x0438;&#x043d;&#x0435;&#x0435;&#x0432;&#x041d;&#x0438;&#x043a;&#x043e;&#x043b;&#x0430;&#x0439;</tspan><tspan y="-289.9775" x="261.5791 268.79905 273.79899 278.35993 282.79988 288.1498 292.70979 297.14973 301.86967 307.2196">&#x0410;&#x0440;&#x0441;&#x0435;&#x043d;&#x044c;&#x0435;&#x0432;&#x0438;&#x0447;</tspan><tspan y="-278.90263" x="266.98905 271.98899 276.98893 281.98887 261.5791">1857~</tspan></text>
<text fill="#231f20" xml:space="preserve" transform="matrix(1 0 -0 1 0 842)" font-size="7.9998" font-family="TimesNewRomanPSMT"><tspan y="-269.6096" x="261.5791 265.579 269.85893 273.8588 277.8587 281.8586 283.85856 287.85847 291.85838 293.8583 297.85823">&#x0443;&#x043f;.83,84,91</tspan></text>
<text fill="#231f20" xml:space="preserve" transform="matrix(1 0 -0 1 0 842)" font-size="9.9999" font-family="TimesNewRomanPSMT"><tspan y="-300.9889" x="102.8273 111.71721 117.067157 122.4171 126.857059 131.29701 138.51694 145.73686 150.73682 155.30077 159.74073 165.09067 170.44062">&#x041c;&#x0438;&#x043d;&#x0435;&#x0435;&#x0432;&#x0410;&#x0440;&#x0441;&#x0435;&#x043d;&#x0438;&#x0439;</tspan><tspan y="-289.914" x="102.8273 110.047229 115.39717 120.257129 125.60707 132.087 137.08696 142.08692 147.08687 151.80683 157.15677">&#x041d;&#x0438;&#x043a;&#x0438;&#x0444;&#x043e;&#x0440;&#x043e;&#x0432;&#x0438;&#x0447;</tspan><tspan y="-278.8391" x="108.23724 113.23719 102.8273 118.237148 123.23709 128.23705 131.56702 136.56697 141.56693 144.0669 149.06685 154.0668 156.56678 161.56673">18~21-29.08.91</tspan></text>
<text fill="#231f20" xml:space="preserve" transform="matrix(1 0 -0 1 0 842)" font-size="7.9998" font-family="TimesNewRomanPSMT"><tspan y="-269.5461" x="102.8273 106.8272 111.10709 113.10704 117.10694">&#x0443;&#x043f;.79</tspan></text>
<text fill="#231f20" xml:space="preserve" transform="matrix(1 0 -0 1 0 842)" font-size="9.9999" font-family="TimesNewRomanPSMT"><tspan y="-185.703" x="257.4521 266.342 271.69197 277.0419 281.48185 285.92179 290.51274 300.78163 308.00157 313.3515 319.68144 325.03138 330.38133">&#x041c;&#x0438;&#x043d;&#x0435;&#x0435;&#x0432;&#x0430;&#x041f;&#x0438;&#x043c;&#x0438;&#x043d;&#x0430;</tspan><tspan y="-174.62812" x="257.4521 263.87403 268.43397 272.8739 278.22386 283.5738 290.6737 297.89366 302.4866 306.92655 312.2765 317.27644 321.99638 327.3463">&#x041a;&#x0441;&#x0435;&#x043d;&#x0438;&#x044f;&#x0418;&#x0432;&#x0430;&#x043d;&#x043e;&#x0432;&#x043d;&#x0430;</tspan><tspan y="-163.55323" x="262.86204 267.86198 272.8619 277.86186">1857</tspan><tspan y="-185.703" x="297.4527 334.82633">()</tspan><tspan y="-163.55323" x="257.4521">~</tspan></text>
<text fill="#231f20" xml:space="preserve" transform="matrix(1 0 -0 1 0 842)" font-size="7.9998" font-family="TimesNewRomanPSMT"><tspan y="-154.2602" x="257.4521 261.4528 265.7335 269.7334 273.7333">&#x0443;&#x043f;.79</tspan></text>
<text fill="#231f20" xml:space="preserve" transform="matrix(1 0 -0 1 0 842)" font-size="9.9999" font-family="TimesNewRomanPSMT"><tspan y="-129.9263" x="255.5765 262.79646 268.1464 274.47633 279.82627">&#x041f;&#x0438;&#x043c;&#x0438;&#x043d;</tspan><tspan y="-118.85141" x="255.5765 260.72846 265.7284 271.07835 274.9333 279.93324 284.93318 290.2831 298.13304 305.35298 309.9469 314.38685 319.7368 324.73674 329.45668 334.8066">&#x0413;&#x0440;&#x0438;&#x0433;&#x043e;&#x0440;&#x0438;&#x0439;&#x0418;&#x0432;&#x0430;&#x043d;&#x043e;&#x0432;&#x0438;&#x0447;</tspan></text>
<text fill="#231f20" xml:space="preserve" transform="matrix(1 0 -0 1 0 842)" font-size="7.9998" font-family="TimesNewRomanPSMT"><tspan y="-109.5585" x="255.5765 259.5772 263.8579">&#x0443;&#x043f;.</tspan></text>
<text fill="#231f20" xml:space="preserve" transform="matrix(1 0 -0 1 0 842)" font-size="9.9999" font-family="TimesNewRomanPSMT"><tspan y="-244.8791" x="405.8181 413.03807 417.478 422.14094 426.58088 434.06883 439.06877 444.0687 446.56867 451.5686 456.56855 459.0685 464.06846 469.0684 472.39836 477.3983 482.39823 484.8982 489.89814 494.89808 497.39805 502.39799">&#x041f;&#x0430;&#x0432;&#x0435;&#x043b;10.02.91-04.03.91</tspan><tspan y="-181.07975" x="404.51713 413.40705 417.847 422.84693 427.4069 434.5058 439.50575 444.50569 447.00566 452.00559 457.00553 459.5055 464.50544 469.50538 472.83534 477.83528 482.8352 485.33518 490.3351 495.33506 497.83503 502.83497">&#x041c;&#x0430;&#x0440;&#x044c;&#x044f;01.06.79-03.01.80</tspan></text>
<text fill="#231f20" xml:space="preserve" transform="matrix(1 0 -0 1 0 842)" font-size="9.9996" font-family="TimesNewRomanPSMT"><tspan y="-50.5652" x="258.0641 265.2838 269.25566 273.69548 278.13529 282.7221 289.65983 292.9897 300.2094 305.5592 311.88896 317.23875 322.58854 327.02836">&#x0410;&#x0433;&#x0435;&#x0435;&#x0432;&#x0430;(&#x041f;&#x0438;&#x043c;&#x0438;&#x043d;&#x0430;)</tspan><tspan y="-39.490644" x="258.0641 264.17384 268.64567 273.73545 278.73524 283.59504 288.94483 296.04457 303.26429 307.8551 312.29493 317.6447 322.6445 327.36433 332.7141">&#x0415;&#x0432;&#x0434;&#x043e;&#x043a;&#x0438;&#x044f;&#x0418;&#x0432;&#x0430;&#x043d;&#x043e;&#x0432;&#x043d;&#x0430;</tspan></text>
<text fill="#231f20" xml:space="preserve" transform="matrix(1 0 -0 1 0 842)" font-size="7.9992" font-family="TimesNewRomanPSMT"><tspan y="-30.1983" x="258.0641 262.0637 266.34327 270.34284 274.34245 278.34205 282.3416 286.34123 290.34083 293.00456 298.53199">&#x0443;&#x043f;.79,80(&#x0436;)</tspan></text>
<path transform="matrix(1,0,0,-1,81.6,25.01001)" stroke-width="1" stroke-linecap="butt" stroke-miterlimit="22.926" stroke-linejoin="miter" fill="none" stroke="#231f20" d="M 0 0 L 115.2 0 L 115.2 -28.8 L 0 -28.8 Z "/>
<path transform="matrix(1,0,0,-1,81.6,61.01001)" stroke-width="1" stroke-linecap="butt" stroke-miterlimit="22.926" stroke-linejoin="miter" fill="none" stroke="#231f20" d="M 0 0 L 115.2 0 L 115.2 -28.8 L 0 -28.8 Z "/>
<text fill="#231f20" xml:space="preserve" transform="matrix(1 0 -0 1 0 842)" font-size="9.9999" font-family="TimesNewRomanPSMT"><tspan y="-768.81" x="104.3776 111.04754 117.37747 122.72742 127.72736 133.07732 138.07727 142.66823 149.60717 152.93714 159.71707 164.15703 169.24698 173.19695 178.54689 183.89684 188.33679">&#x0421;&#x043c;&#x0438;&#x0440;&#x043d;&#x043e;&#x0432;&#x0430;(&#x041b;&#x0430;&#x0431;&#x0437;&#x0438;&#x043d;&#x0430;)</tspan><tspan y="-757.7351" x="104.3776 111.877529 119.09745 124.0874 128.52736 133.13732 137.69727 142.13722 146.57718 151.29714 156.64708">*&#x0410;&#x043b;&#x0435;&#x043a;&#x0441;&#x0435;&#x0435;&#x0432;&#x043d;&#x0430;</tspan></text>
<path transform="matrix(1,0,0,-1,225.6,83.68701)" stroke-width="1" stroke-linecap="butt" stroke-miterlimit="22.926" stroke-linejoin="miter" fill="none" stroke="#231f20" d="M 0 0 L 14.4 0 "/>
<path transform="matrix(1,0,0,-1,196.8,33.28701)" stroke-width="1" stroke-linecap="butt" stroke-miterlimit="22.926" stroke-linejoin="miter" fill="none" stroke="#231f20" d="M 0 0 L 14.4 0 "/>
<path transform="matrix(1,0,0,-1,196.8,76.487018)" stroke-width="1" stroke-linecap="butt" stroke-miterlimit="22.926" stroke-linejoin="miter" fill="none" stroke="#231f20" d="M 0 0 L 14.4 0 "/>
<path transform="matrix(1,0,0,-1,211.2,54.887018)" stroke-width="1" stroke-linecap="butt" stroke-miterlimit="22.926" stroke-linejoin="miter" fill="none" stroke="#231f20" d="M 0 0 L 14.4 0 "/>
<path transform="matrix(1,0,0,-1,211.2,33.287019)" stroke-width="1" stroke-linecap="butt" stroke-miterlimit="22.926" stroke-linejoin="miter" fill="none" stroke="#231f20" d="M 0 0 L 0 -43.2 "/>
<path transform="matrix(1,0,0,-1,225.59999,47.68702)" stroke-width="1" stroke-linecap="butt" stroke-miterlimit="22.926" stroke-linejoin="miter" fill="none" stroke="#231f20" d="M 0 0 L 14.4 0 "/>
<path transform="matrix(1,0,0,-1,225.59999,134.08702)" stroke-width="1" stroke-linecap="butt" stroke-miterlimit="22.926" stroke-linejoin="miter" fill="none" stroke="#231f20" d="M 0 0 L 14.4 0 "/>
<path transform="matrix(1,0,0,-1,225.59999,47.68702)" stroke-width="1" stroke-linecap="butt" stroke-miterlimit="22.926" stroke-linejoin="miter" fill="none" stroke="#231f20" d="M 0 0 L 0 -388.8 "/>
<path transform="matrix(1,0,0,-1,239.99999,68.21002)" stroke-width="1" stroke-linecap="butt" stroke-miterlimit="22.926" stroke-linejoin="miter" fill="none" stroke="#231f20" d="M 0 0 L 115.2 0 L 115.2 -36 L 0 -36 Z "/>
<text fill="#231f20" xml:space="preserve" transform="matrix(1 0 -0 1 0 842)" font-size="9.9999" font-family="TimesNewRomanPSMT"><tspan y="-763.442" x="253.0125 259.68244 266.01237 271.3623 276.36225 281.7122 286.71214 291.30207 298.24198 307.1319 311.31184 315.8028 320.80274 325.80268 331.15263">&#x0421;&#x043c;&#x0438;&#x0440;&#x043d;&#x043e;&#x0432;&#x0430;&#x041c;&#x0430;&#x0442;&#x0440;&#x043e;&#x043d;&#x0430;</tspan><tspan y="-752.3671" x="253.0125 260.9124 266.26237 271.25233 276.60227 281.9522 286.95216 291.6721 297.02204">&#x0424;&#x0438;&#x043b;&#x0438;&#x043f;&#x043e;&#x0432;&#x043d;&#x0430;</tspan></text>
<text fill="#231f20" xml:space="preserve" transform="matrix(1 0 -0 1 0 842)" font-size="7.9998" font-family="TimesNewRomanPSMT"><tspan y="-743.0743" x="253.0125 257.0124 261.2923 265.29219 269.29209 273.292 275.29194 279.29185">&#x0443;&#x043f;.87,88</tspan></text>
<path transform="matrix(1,0,0,-1,240,25.01001)" stroke-width="1" stroke-linecap="butt" stroke-miterlimit="22.926" stroke-linejoin="miter" fill="none" stroke="#231f20" d="M 0 0 L 115.2 0 L 115.2 -36 L 0 -36 Z "/>
<path transform="matrix(1,0,0,-1,240,111.41001)" stroke-width="1" stroke-linecap="butt" stroke-miterlimit="22.926" stroke-linejoin="miter" fill="none" stroke="#231f20" d="M 0 0 L 115.2 0 L 115.2 -36 L 0 -36 Z "/>
<text fill="#231f20" xml:space="preserve" transform="matrix(1 0 -0 1 0 842)" font-size="9.9999" font-family="TimesNewRomanPSMT"><tspan y="-677.0517" x="249.5982 256.13615 260.57609 268.276 273.62596 278.9759 284.32585 292.17576 298.9557 303.39564 308.11558 313.1155 317.55546 322.9054 327.27537 332.6253">&#x041a;&#x0430;&#x0448;&#x0438;&#x0446;&#x0438;&#x043d;&#x041b;&#x0430;&#x0432;&#x0440;&#x0435;&#x043d;&#x0442;&#x0438;&#x0439;</tspan><tspan y="-665.9768" x="249.5982 256.13615 260.5061 264.94606 270.296 274.73594 280.08589 285.08583 289.80577 295.1557">&#x0421;&#x0442;&#x0435;&#x043f;&#x0430;&#x043d;&#x043e;&#x0432;&#x0438;&#x0447;</tspan><tspan y="-654.9019" x="265.00807 270.008 249.5982 255.00815 260.0081">57~18</tspan></text>
<path transform="matrix(1,0,0,-1,240,154.60999)" stroke-width="1" stroke-linecap="butt" stroke-miterlimit="22.926" stroke-linejoin="miter" fill="none" stroke="#231f20" d="M 0 0 L 115.2 0 L 115.2 -36 L 0 -36 Z "/>
<path transform="matrix(1,0,0,-1,355.2,126.886989)" stroke-width="1" stroke-linecap="butt" stroke-miterlimit="22.926" stroke-linejoin="miter" fill="none" stroke="#231f20" d="M 0 0 L 14.4 0 "/>
<path transform="matrix(1,0,0,-1,355.2,170.08699)" stroke-width="1" stroke-linecap="butt" stroke-miterlimit="22.926" stroke-linejoin="miter" fill="none" stroke="#231f20" d="M 0 0 L 14.4 0 "/>
<path transform="matrix(1,0,0,-1,369.6,126.88699)" stroke-width="1" stroke-linecap="butt" stroke-miterlimit="22.926" stroke-linejoin="miter" fill="none" stroke="#231f20" d="M 0 0 L 0 -43.2 "/>
<text fill="#231f20" xml:space="preserve" transform="matrix(.0000400004 -1 1 .0000400004 0 842)" font-size="9.9999" font-family="TimesNewRomanPSMT"><tspan y="366.65739" x="675.19436 680.1943">14</tspan><tspan y="366.6574" x="685.1942 687.6942 692.69418">.10</tspan><tspan y="366.65745" x="697.6941">.</tspan><tspan y="366.6574" x="700.1941">8</tspan><tspan y="366.65745" x="705.19406">4</tspan></text>
<path transform="matrix(1,0,0,-1,240,197.81)" stroke-width="1" stroke-linecap="butt" stroke-miterlimit="22.926" stroke-linejoin="miter" fill="none" stroke="#231f20" d="M 0 0 L 115.2 0 L 115.2 -36 L 0 -36 Z "/>
<path transform="matrix(1,0,0,-1,225.6,213.287)" stroke-width="1" stroke-linecap="butt" stroke-miterlimit="22.926" stroke-linejoin="miter" fill="none" stroke="#231f20" d="M 0 0 L 14.4 0 "/>
<path transform="matrix(1,0,0,-1,225.6,256.487)" stroke-width="1" stroke-linecap="butt" stroke-miterlimit="22.926" stroke-linejoin="miter" fill="none" stroke="#231f20" d="M 0 0 L 14.4 0 "/>
<path transform="matrix(1,0,0,-1,240,277.01)" stroke-width="1" stroke-linecap="butt" stroke-miterlimit="22.926" stroke-linejoin="miter" fill="none" stroke="#231f20" d="M 0 0 L 115.2 0 L 115.2 -28.8 L 0 -28.8 Z "/>
<path transform="matrix(1,0,0,-1,240,241.01001)" stroke-width="1" stroke-linecap="butt" stroke-miterlimit="22.926" stroke-linejoin="miter" fill="none" stroke="#231f20" d="M 0 0 L 115.2 0 L 115.2 -28.8 L 0 -28.8 Z "/>
<path transform="matrix(1,0,0,-1,355.2,249.28702)" stroke-width="1" stroke-linecap="butt" stroke-miterlimit="22.926" stroke-linejoin="miter" fill="none" stroke="#231f20" d="M 0 0 L 14.4 0 "/>
<path transform="matrix(1,0,0,-1,355.2,292.48704)" stroke-width="1" stroke-linecap="butt" stroke-miterlimit="22.926" stroke-linejoin="miter" fill="none" stroke="#231f20" d="M 0 0 L 14.4 0 "/>
<path transform="matrix(1,0,0,-1,369.6,249.28704)" stroke-width="1" stroke-linecap="butt" stroke-miterlimit="22.926" stroke-linejoin="miter" fill="none" stroke="#231f20" d="M 0 0 L 0 -43.2 "/>
<path transform="matrix(1,0,0,-1,240,313.01005)" stroke-width="1" stroke-linecap="butt" stroke-miterlimit="22.926" stroke-linejoin="miter" fill="none" stroke="#231f20" d="M 0 0 L 115.2 0 L 115.2 -28.8 L 0 -28.8 Z "/>
<path transform="matrix(1,0,0,-1,240,349.01005)" stroke-width="1" stroke-linecap="butt" stroke-miterlimit="22.926" stroke-linejoin="miter" fill="none" stroke="#231f20" d="M 0 0 L 115.2 0 L 115.2 -28.8 L 0 -28.8 Z "/>
<text fill="#231f20" xml:space="preserve" transform="matrix(1 0 -0 1 0 842)" font-size="9.9999" font-family="TimesNewRomanPSMT"><tspan y="-480.8457" x="261.9411 268.61103 273.60099 280.32093 284.66889 289.66883 296.88874 304.10868 308.5486 313.89857">&#x041a;&#x043b;&#x044b;&#x043a;&#x043e;&#x0432;&#x041e;&#x0441;&#x0438;&#x043f;</tspan><tspan y="-469.7708" x="261.9411 268.61103 273.05097 277.4909 282.84086 287.8308 292.39079 296.83073 301.55067 306.9006">&#x0412;&#x0430;&#x0441;&#x0438;&#x043b;&#x044c;&#x0435;&#x0432;&#x0438;&#x0447;</tspan></text>
<path transform="matrix(1,0,0,-1,0,842)" stroke-width="1" stroke-linecap="butt" stroke-miterlimit="22.926" stroke-linejoin="miter" fill="none" stroke="#231f20" d="M 240 456.99 L 355.2 456.99 L 355.2 428.19 L 240 428.19 Z "/>
<text fill="#231f20" xml:space="preserve" transform="matrix(1 0 -0 1 0 842)" font-size="9.9999" font-family="TimesNewRomanPSMT"><tspan y="-439.8239" x="255.2976 261.96754 266.9575 273.67744 278.0254 283.02534 287.61528 294.55519 301.0921 305.46208 309.902 315.25196 319.6919 325.04185 330.39179 335.48173">&#x041a;&#x043b;&#x044b;&#x043a;&#x043e;&#x0432;&#x0430;&#x0421;&#x0442;&#x0435;&#x043f;&#x0430;&#x043d;&#x0438;&#x0434;&#x0430;</tspan></text>
<path transform="matrix(1,0,0,-1,355.2,357.287)" stroke-width="1" stroke-linecap="butt" stroke-miterlimit="22.926" stroke-linejoin="miter" fill="none" stroke="#231f20" d="M 0 0 L 14.4 0 "/>
<path transform="matrix(1,0,0,-1,355.2,400.487)" stroke-width="1" stroke-linecap="butt" stroke-miterlimit="22.926" stroke-linejoin="miter" fill="none" stroke="#231f20" d="M 0 0 L 14.4 0 "/>
<path transform="matrix(1,0,0,-1,369.6,357.287)" stroke-width="1" stroke-linecap="butt" stroke-miterlimit="22.926" stroke-linejoin="miter" fill="none" stroke="#231f20" d="M 0 0 L 0 -43.2 "/>
<path transform="matrix(1,0,0,-1,369.6,371.68699)" stroke-width="1" stroke-linecap="butt" stroke-miterlimit="22.926" stroke-linejoin="miter" fill="none" stroke="#231f20" d="M 0 0 L 14.4 0 L 28.8 0 "/>
<path transform="matrix(1,0,0,-1,398.4,363.40998)" stroke-width="1" stroke-linecap="butt" stroke-miterlimit="22.926" stroke-linejoin="miter" fill="none" stroke="#231f20" d="M 0 0 L 115.2 0 L 115.2 -14.4 L 0 -14.4 Z "/>
<text fill="#231f20" xml:space="preserve" transform="matrix(1 0 -0 1 0 842)" font-size="9.9999" font-family="TimesNewRomanPSMT"><tspan y="-469.0732" x="421.3525 428.57246 433.9224 439.01234 444.01228 448.4522 456.30314 461.30308 466.303 468.80299 473.80293 478.80287 481.30284 486.30278">&#x0410;&#x043d;&#x0434;&#x0440;&#x0435;&#x0439;05.07.85</tspan><tspan y="-410.6518" x="251.04622 257.21818 262.2181 267.21806 272.218 276.93794 282.28788 287.63783 294.58073 297.91069 304.5806 310.91053 316.26048 321.2604 326.61036 331.6103 336.20124 340.64118">&#x041a;&#x043e;&#x0440;&#x043e;&#x0432;&#x0438;&#x043d;&#x0430;(&#x0421;&#x043c;&#x0438;&#x0440;&#x043d;&#x043e;&#x0432;&#x0430;)</tspan><tspan y="-399.5769" x="251.04622 256.90617 261.0861 265.45606 270.01603 274.61598 279.9659 286.90583 294.80577 300.1557 305.14567 310.4956 315.84556 320.8455 325.56544 330.91539">&#x0422;&#x0430;&#x0442;&#x044c;&#x044f;&#x043d;&#x0430;&#x0424;&#x0438;&#x043b;&#x0438;&#x043f;&#x043e;&#x0432;&#x043d;&#x0430;</tspan></text>
<text fill="#231f20" xml:space="preserve" transform="matrix(1 0 -0 1 0 842)" font-size="7.9998" font-family="TimesNewRomanPSMT"><tspan y="-390.2837" x="251.0465 255.0464 259.3271 263.327 267.3269 273.32676 275.9907 280.06098">&#x0443;&#x043f;.86(&#x0434;)</tspan></text>
<path transform="matrix(1,0,0,-1,240,421.01)" stroke-width="1" stroke-linecap="butt" stroke-miterlimit="22.926" stroke-linejoin="miter" fill="none" stroke="#231f20" d="M 0 0 L 115.2 0 L 115.2 -36 L 0 -36 Z "/>
<path transform="matrix(1,0,0,-1,225.6,436.487)" stroke-width="1" stroke-linecap="butt" stroke-miterlimit="22.926" stroke-linejoin="miter" fill="none" stroke="#231f20" d="M 0 0 L 14.4 0 "/>
<path transform="matrix(1,0,0,-1,232.8,285.287)" stroke-width="1" stroke-linecap="butt" stroke-miterlimit="22.926" stroke-linejoin="miter" fill="none" stroke="#231f20" d="M 0 0 L 7.2 0 "/>
<path transform="matrix(1,0,0,-1,232.8,335.68699)" stroke-width="1" stroke-linecap="butt" stroke-miterlimit="22.926" stroke-linejoin="miter" fill="none" stroke="#231f20" d="M 0 0 L 7.2 0 "/>
<path transform="matrix(1,0,0,-1,232.8,285.287)" stroke-width="1" stroke-linecap="butt" stroke-miterlimit="22.926" stroke-linejoin="miter" fill="none" stroke="#231f20" d="M 0 0 L 0 -86.4 L 7.2 -86.4 "/>
<text fill="#231f20" xml:space="preserve" transform="matrix(1 0 -0 1 0 842)" font-size="9.9999" font-family="TimesNewRomanPSMT"><tspan y="-365.6458" x="261.9411 268.11305 273.11299 278.1129 283.11286 287.8328 293.18275 301.03266 308.2526 313.24256 317.6825 322.29646 326.85639 331.29634">&#x041a;&#x043e;&#x0440;&#x043e;&#x0432;&#x0438;&#x043d;&#x0410;&#x043b;&#x0435;&#x043a;&#x0441;&#x0435;&#x0439;</tspan><tspan y="-354.57093" x="261.9411 267.68104 272.68098 277.6809 283.03086 287.4708 292.47074 297.19068 302.54063">&#x0411;&#x043e;&#x0440;&#x0438;&#x0441;&#x043e;&#x0432;&#x0438;&#x0447;</tspan></text>
<path transform="matrix(1,0,0,-1,240,464.21)" stroke-width="1" stroke-linecap="butt" stroke-miterlimit="22.926" stroke-linejoin="miter" fill="none" stroke="#231f20" d="M 0 0 L 115.2 0 L 115.2 -28.8 L 0 -28.8 Z "/>
<path transform="matrix(1,0,0,-1,355.2,436.487)" stroke-width="1" stroke-linecap="butt" stroke-miterlimit="22.926" stroke-linejoin="miter" fill="none" stroke="#231f20" d="M 0 0 L 14.4 0 "/>
<path transform="matrix(1,0,0,-1,355.2,479.687)" stroke-width="1" stroke-linecap="butt" stroke-miterlimit="22.926" stroke-linejoin="miter" fill="none" stroke="#231f20" d="M 0 0 L 14.4 0 "/>
<path transform="matrix(1,0,0,-1,369.6,436.487)" stroke-width="1" stroke-linecap="butt" stroke-miterlimit="22.926" stroke-linejoin="miter" fill="none" stroke="#231f20" d="M 0 0 L 0 -43.2 "/>
<path transform="matrix(1,0,0,-1,369.6,450.887)" stroke-width="1" stroke-linecap="butt" stroke-miterlimit="22.926" stroke-linejoin="miter" fill="none" stroke="#231f20" d="M 0 0 L 14.4 0 L 28.8 0 "/>
<path transform="matrix(1,0,0,-1,398.4,442.61)" stroke-width="1" stroke-linecap="butt" stroke-miterlimit="22.926" stroke-linejoin="miter" fill="none" stroke="#231f20" d="M 0 0 L 115.2 0 L 115.2 -14.4 L 0 -14.4 Z "/>
<text fill="#231f20" xml:space="preserve" transform="matrix(1 0 -0 1 0 842)" font-size="9.9999" font-family="TimesNewRomanPSMT"><tspan y="-389.8732" x="421.3525 427.46244 431.93339 437.02333 442.02326 446.8832 452.23316 459.3311 464.33103 469.33097 471.83094 476.83088 481.8308 484.33079 489.33073">&#x0415;&#x0432;&#x0434;&#x043e;&#x043a;&#x0438;&#x044f;30.07.88</tspan></text>
<text fill="#231f20" xml:space="preserve" transform="matrix(.0000400004 -1 1 .0000400004 0 842)" font-size="9.9999" font-family="TimesNewRomanPSMT"><tspan y="366.66978" x="365.5944 370.59434">26</tspan><tspan y="366.6698" x="375.59428">.</tspan><tspan y="366.66978" x="378.09425">1</tspan><tspan y="366.6698" x="383.09419 388.09413 390.5941">0.8</tspan><tspan y="366.66984" x="395.59403">7</tspan></text>
<path transform="matrix(1,0,0,-1,81.6,529.01)" stroke-width="1" stroke-linecap="butt" stroke-miterlimit="22.926" stroke-linejoin="miter" fill="none" stroke="#231f20" d="M 0 0 L 115.2 0 L 115.2 -50.4 L 0 -50.4 Z "/>
<path transform="matrix(1,0,0,-1,196.79999,551.687)" stroke-width="1" stroke-linecap="butt" stroke-miterlimit="22.926" stroke-linejoin="miter" fill="none" stroke="#231f20" d="M 0 0 L 14.4 0 "/>
<path transform="matrix(1,0,0,-1,239.99999,529.01)" stroke-width="1" stroke-linecap="butt" stroke-miterlimit="22.926" stroke-linejoin="miter" fill="none" stroke="#231f20" d="M 0 0 L 115.2 0 L 115.2 -50.4 L 0 -50.4 Z "/>
<path transform="matrix(1,0,0,-1,225.59999,609.287)" stroke-width="1" stroke-linecap="butt" stroke-miterlimit="22.926" stroke-linejoin="miter" fill="none" stroke="#231f20" d="M 0 0 L 14.4 0 "/>
<path transform="matrix(1,0,0,-1,239.99999,586.61)" stroke-width="1" stroke-linecap="butt" stroke-miterlimit="22.926" stroke-linejoin="miter" fill="none" stroke="#231f20" d="M 0 0 L 115.2 0 L 115.2 -50.4 L 0 -50.4 Z "/>
<path transform="matrix(1,0,0,-1,239.99999,644.20999)" stroke-width="1" stroke-linecap="butt" stroke-miterlimit="22.926" stroke-linejoin="miter" fill="none" stroke="#231f20" d="M 0 0 L 115.2 0 L 115.2 -50.4 L 0 -50.4 Z "/>
<path transform="matrix(1,0,0,-1,225.59999,551.68698)" stroke-width="1" stroke-linecap="butt" stroke-miterlimit="22.926" stroke-linejoin="miter" fill="none" stroke="#231f20" d="M 0 0 L 14.4 0 "/>
<path transform="matrix(1,0,0,-1,225.59999,551.68698)" stroke-width="1" stroke-linecap="butt" stroke-miterlimit="22.926" stroke-linejoin="miter" fill="none" stroke="#231f20" d="M 0 0 L 0 -57.6 "/>
<path transform="matrix(1,0,0,-1,211.2,551.68698)" stroke-width="1" stroke-linecap="butt" stroke-miterlimit="22.926" stroke-linejoin="miter" fill="none" stroke="#231f20" d="M 0 0 L 14.4 0 "/>
<path transform="matrix(1,0,0,-1,398.4,586.6099)" stroke-width="1" stroke-linecap="butt" stroke-miterlimit="22.926" stroke-linejoin="miter" fill="none" stroke="#231f20" d="M 0 0 L 115.2 0 L 115.2 -14.4 L 0 -14.4 Z "/>
<path transform="matrix(1,0,0,-1,384,594.8869)" stroke-width="1" stroke-linecap="butt" stroke-miterlimit="22.926" stroke-linejoin="miter" fill="none" stroke="#231f20" d="M 0 0 L 14.4 0 "/>
<path transform="matrix(1,0,0,-1,384,594.8869)" stroke-width="1" stroke-linecap="butt" stroke-miterlimit="22.926" stroke-linejoin="miter" fill="none" stroke="#231f20" d="M 0 0 L 0 -86.4 "/>
<path transform="matrix(1,0,0,-1,355.2,609.2869)" stroke-width="1" stroke-linecap="butt" stroke-miterlimit="22.926" stroke-linejoin="miter" fill="none" stroke="#231f20" d="M 0 0 L 14.4 0 "/>
<path transform="matrix(1,0,0,-1,369.6,638.0869)" stroke-width="1" stroke-linecap="butt" stroke-miterlimit="22.926" stroke-linejoin="miter" fill="none" stroke="#231f20" d="M 0 0 L 14.4 0 "/>
<path transform="matrix(1,0,0,-1,369.6,609.2869)" stroke-width="1" stroke-linecap="butt" stroke-miterlimit="22.926" stroke-linejoin="miter" fill="none" stroke="#231f20" d="M 0 0 L 0 -57.6 "/>
<path transform="matrix(1,0,0,-1,355.2,666.8869)" stroke-width="1" stroke-linecap="butt" stroke-miterlimit="22.926" stroke-linejoin="miter" fill="none" stroke="#231f20" d="M 0 0 L 14.4 0 "/>
<text fill="#231f20" xml:space="preserve" transform="matrix(1 0 -0 1 0 842)" font-size="9.9999" font-family="TimesNewRomanPSMT"><tspan y="-223.279" x="405.8181 411.92805 416.399 421.48893 426.48887 431.34883 436.69877 443.7967 448.79664 453.79658 456.29655 461.29649 466.29643 468.7964 473.79634">&#x0415;&#x0432;&#x0434;&#x043e;&#x043a;&#x0438;&#x044f;01.08.80</tspan></text>
<path transform="matrix(1,0,0,-1,398.4,608.21)" stroke-width="1" stroke-linecap="butt" stroke-miterlimit="22.926" stroke-linejoin="miter" fill="none" stroke="#231f20" d="M 0 0 L 115.2 0 L 115.2 -14.4 L 0 -14.4 Z "/>
<path transform="matrix(1,0,0,-1,384,616.487)" stroke-width="1" stroke-linecap="butt" stroke-miterlimit="22.926" stroke-linejoin="miter" fill="none" stroke="#231f20" d="M 0 0 L 14.4 0 "/>
<text fill="#231f20" xml:space="preserve" transform="matrix(1 0 -0 1 0 842)" font-size="9.9999" font-family="TimesNewRomanPSMT"><tspan y="-201.6791" x="405.8181 413.03807 417.898 423.24797 428.2379 433.58787 438.9378 445.8807 450.88066 455.88059 458.38056 463.3805 468.38044 470.8804 475.88035">&#x0410;&#x043a;&#x0438;&#x043b;&#x0438;&#x043d;&#x0430;01.06.87</tspan></text>
<path transform="matrix(1,0,0,-1,398.4,629.81)" stroke-width="1" stroke-linecap="butt" stroke-miterlimit="22.926" stroke-linejoin="miter" fill="none" stroke="#231f20" d="M 0 0 L 115.2 0 L 115.2 -14.4 L 0 -14.4 Z "/>
<path transform="matrix(1,0,0,-1,384,638.087)" stroke-width="1" stroke-linecap="butt" stroke-miterlimit="22.926" stroke-linejoin="miter" fill="none" stroke="#231f20" d="M 0 0 L 14.4 0 "/>
<text fill="#231f20" xml:space="preserve" transform="matrix(1 0 -0 1 0 842)" font-size="9.9999" font-family="TimesNewRomanPSMT"><tspan y="-158.4791" x="399.9804 406.65034 411.09028 415.5302 420.88017 425.87013 431.22007 439.07099 444.07093 449.07087 451.57084 456.57078 461.5707 464.07069 469.07063 474.07057 477.4005 482.40046 487.4004 489.90037 494.9003 499.90025 502.4002 507.40016">&#x0412;&#x0430;&#x0441;&#x0438;&#x043b;&#x0438;&#x0439;25.02.83-10.07.86</tspan></text>
<path transform="matrix(1,0,0,-1,398.4,673.01)" stroke-width="1" stroke-linecap="butt" stroke-miterlimit="22.926" stroke-linejoin="miter" fill="none" stroke="#231f20" d="M 0 0 L 115.2 0 L 115.2 -14.4 L 0 -14.4 Z "/>
<path transform="matrix(1,0,0,-1,384,681.287)" stroke-width="1" stroke-linecap="butt" stroke-miterlimit="22.926" stroke-linejoin="miter" fill="none" stroke="#231f20" d="M 0 0 L 14.4 0 "/>
<path transform="matrix(1,0,0,-1,398.4,651.41)" stroke-width="1" stroke-linecap="butt" stroke-miterlimit="22.926" stroke-linejoin="miter" fill="none" stroke="#231f20" d="M 0 0 L 115.2 0 L 115.2 -14.4 L 0 -14.4 Z "/>
<path transform="matrix(1,0,0,-1,384,659.68698)" stroke-width="1" stroke-linecap="butt" stroke-miterlimit="22.926" stroke-linejoin="miter" fill="none" stroke="#231f20" d="M 0 0 L 14.4 0 "/>
<path transform="matrix(1,0,0,-1,240,745.00997)" stroke-width="1" stroke-linecap="butt" stroke-miterlimit="22.926" stroke-linejoin="miter" fill="none" stroke="#231f20" d="M 0 0 L 115.2 0 L 115.2 -28.8 L 0 -28.8 Z "/>
<path transform="matrix(1,0,0,-1,240,701.80996)" stroke-width="1" stroke-linecap="butt" stroke-miterlimit="22.926" stroke-linejoin="miter" fill="none" stroke="#231f20" d="M 0 0 L 115.2 0 L 115.2 -36 L 0 -36 Z "/>
<text fill="#231f20" xml:space="preserve" transform="matrix(1 0 -0 1 0 842)" font-size="9.9999" font-family="TimesNewRomanPSMT"><tspan y="-86.7263" x="255.5765 262.79646 268.1464 274.47633 279.82627 285.1762">&#x041f;&#x0438;&#x043c;&#x0438;&#x043d;&#x0430;</tspan><tspan y="-75.65141" x="255.5765 264.46644 268.90638 273.9063 280.38627 287.32618 294.5461 299.40608 304.756 311.08595 316.08589 320.80583 326.15577">&#x041c;&#x0430;&#x0440;&#x0444;&#x0430;&#x0410;&#x043a;&#x0438;&#x043c;&#x043e;&#x0432;&#x043d;&#x0430;</tspan></text>
<path transform="matrix(1,0,0,-1,384,717.287)" stroke-width="1" stroke-linecap="butt" stroke-miterlimit="22.926" stroke-linejoin="miter" fill="none" stroke="#231f20" d="M 0 0 L 0 -21.6 "/>
<path transform="matrix(1,0,0,-1,355.2,710.087)" stroke-width="1" stroke-linecap="butt" stroke-miterlimit="22.926" stroke-linejoin="miter" fill="none" stroke="#231f20" d="M 0 0 L 14.4 0 "/>
<path transform="matrix(1,0,0,-1,369.6,738.88699)" stroke-width="1" stroke-linecap="butt" stroke-miterlimit="22.926" stroke-linejoin="miter" fill="none" stroke="#231f20" d="M 0 0 L 14.4 0 "/>
<path transform="matrix(1,0,0,-1,369.6,710.087)" stroke-width="1" stroke-linecap="butt" stroke-miterlimit="22.926" stroke-linejoin="miter" fill="none" stroke="#231f20" d="M 0 0 L 0 -57.6 "/>
<path transform="matrix(1,0,0,-1,355.2,767.68698)" stroke-width="1" stroke-linecap="butt" stroke-miterlimit="22.926" stroke-linejoin="miter" fill="none" stroke="#231f20" d="M 0 0 L 14.4 0 "/>
<path transform="matrix(1,0,0,-1,384,717.2869)" stroke-width="1" stroke-linecap="butt" stroke-miterlimit="22.926" stroke-linejoin="miter" fill="none" stroke="#231f20" d="M 0 0 L 14.4 0 "/>
<text fill="#231f20" xml:space="preserve" transform="matrix(1 0 -0 1 0 842)" font-size="9.9999" font-family="TimesNewRomanPSMT"><tspan y="-122.4791" x="426.756 433.97596 438.9659 443.52589 450.6268 455.62675 460.62669 463.12666 468.1266 473.12654 475.6265 480.62644">&#x0418;&#x043b;&#x044c;&#x044f;19.07.86</tspan></text>
<path transform="matrix(1,0,0,-1,398.4,709.01)" stroke-width="1" stroke-linecap="butt" stroke-miterlimit="22.926" stroke-linejoin="miter" fill="none" stroke="#231f20" d="M 0 0 L 115.2 0 L 115.2 -14.4 L 0 -14.4 Z "/>
<path transform="matrix(1,0,0,-1,240,781.01)" stroke-width="1" stroke-linecap="butt" stroke-miterlimit="22.926" stroke-linejoin="miter" fill="none" stroke="#231f20" d="M 0 0 L 115.2 0 L 115.2 -36 L 0 -36 Z "/>
<path transform="matrix(1,0,0,-1,225.6,666.887)" stroke-width="1" stroke-linecap="butt" stroke-miterlimit="22.926" stroke-linejoin="miter" fill="none" stroke="#231f20" d="M 0 0 L 14.4 0 "/>
<path transform="matrix(1,0,0,-1,225.6,717.28707)" stroke-width="1" stroke-linecap="butt" stroke-miterlimit="22.926" stroke-linejoin="miter" fill="none" stroke="#231f20" d="M 0 0 L 14.4 0 "/>
<path transform="matrix(1,0,0,-1,225.6,666.887)" stroke-width="1" stroke-linecap="butt" stroke-miterlimit="22.926" stroke-linejoin="miter" fill="none" stroke="#231f20" d="M 0 0 L 0 -129.6 L 14.4 -129.6 "/>
</g>
</svg>
