<?xml version="1.0" encoding="UTF-8" standalone="no"?>
<!DOCTYPE svg PUBLIC "-//W3C//DTD SVG 1.1//EN" "http://www.w3.org/Graphics/SVG/1.1/DTD/svg11.dtd">
<svg xmlns="http://www.w3.org/2000/svg" xmlns:xlink="http://www.w3.org/1999/xlink" version="1.1" width="595.22pt" height="842pt" viewBox="0 0 595.22 842">
<g enable-background="new">
<text fill="#231f20" xml:space="preserve" transform="matrix(1 0 -0 1 0 842)" font-size="9.9999" font-family="TimesNewRomanPSMT"><tspan y="-590.6639" x="218.1246 223.48155 228.4815 233.83145 238.27141 242.71137 249.93129 257.1512 261.74217 266.1821">&#x0422;&#x043e;&#x043d;&#x0435;&#x0435;&#x0432;&#x0418;&#x0432;&#x0430;&#x043d;</tspan><tspan y="-579.589" x="218.1246 224.94454 231.27448 236.62442 241.11637 246.11632 251.46627 255.90622 260.62617 265.9761">&#x0414;&#x043c;&#x0438;&#x0442;&#x0440;&#x0438;&#x0435;&#x0432;&#x0438;&#x0447;</tspan><tspan y="-734.5034" x="207.05571 212.06566 219.53559 223.48555 228.8355 234.18544 241.12638 244.45635 249.8133 254.81325 260.1632 264.60316 269.0431 273.63105 278.07099">&#x0417;&#x044e;&#x0437;&#x0438;&#x043d;&#x0430;(&#x0422;&#x043e;&#x043d;&#x0435;&#x0435;&#x0432;&#x0430;)</tspan><tspan y="-723.4285" x="207.05571 213.72565 218.1656 223.16556 230.10549 236.92542 243.25536 248.6053 253.09325 258.0932 263.44316 267.8831 272.60304 277.95298">&#x0412;&#x0435;&#x0440;&#x0430;&#x0414;&#x043c;&#x0438;&#x0442;&#x0440;&#x0438;&#x0435;&#x0432;&#x043d;&#x0430;</tspan><tspan y="-806.50369" x="202.32875 208.24669 213.24665 217.19661 222.54656 226.98651 232.33646 237.33641 241.92737 248.8663 252.19628 257.55323 262.55317 267.9031 272.34306 276.783 281.37095 285.81089">&#x041a;&#x0443;&#x0437;&#x043d;&#x0435;&#x0446;&#x043e;&#x0432;&#x0430;(&#x0422;&#x043e;&#x043d;&#x0435;&#x0435;&#x0432;&#x0430;)</tspan><tspan y="-795.4288" x="202.32875 209.54868 214.89862 220.24857 227.18849 234.00843 240.33837 245.68831 250.18326 255.18321 260.53318 264.9731 269.69306 275.043">&#x0410;&#x043d;&#x043d;&#x0430;&#x0414;&#x043c;&#x0438;&#x0442;&#x0440;&#x0438;&#x0435;&#x0432;&#x043d;&#x0430;</tspan></text>
<path transform="matrix(1,0,0,-1,302.317,248.51001)" stroke-width="1" stroke-linecap="butt" stroke-miterlimit="22.926" stroke-linejoin="miter" fill="none" stroke="#231f20" d="M 0 0 L 14.4 0 L 14.4 -.432 "/>
<text fill="#231f20" xml:space="preserve" transform="matrix(1 0 -0 1 0 842)" font-size="9.9999" font-family="TimesNewRomanPSMT"><tspan y="-769.5878" x="212.5486 217.55855 225.02848 228.97844 234.32839 239.67833 246.61826 253.1572 257.52717 261.9671 267.31706 271.757">&#x0417;&#x044e;&#x0437;&#x0438;&#x043d;&#x0430;&#x0421;&#x0442;&#x0435;&#x043f;&#x0430;&#x043d;</tspan><tspan y="-758.51296" x="212.5486 219.76853 224.36048 228.80043 234.15038 239.15033 243.87029 249.22023">&#x0418;&#x0432;&#x0430;&#x043d;&#x043e;&#x0432;&#x0438;&#x0447;</tspan></text>
<path transform="matrix(1,0,0,-1,172.717,104.50897)" stroke-width="1" stroke-linecap="butt" stroke-miterlimit="22.926" stroke-linejoin="miter" fill="none" stroke="#231f20" d="M 0 0 L 14.4 0 "/>
<path transform="matrix(1,0,0,-1,172.717,248.50897)" stroke-width="1" stroke-linecap="butt" stroke-miterlimit="22.926" stroke-linejoin="miter" fill="none" stroke="#231f20" d="M 0 0 L 14.4 0 "/>
<path transform="matrix(1,0,0,-1,172.717,46.908967)" stroke-width="1" stroke-linecap="butt" stroke-miterlimit="22.926" stroke-linejoin="miter" fill="none" stroke="#231f20" d="M 0 0 L 0 -201.6 "/>
<path transform="matrix(1,0,0,-1,172.717,46.908967)" stroke-width="1" stroke-linecap="butt" stroke-miterlimit="22.926" stroke-linejoin="miter" fill="none" stroke="#231f20" d="M 0 0 L 14.4 0 "/>
<text fill="#231f20" xml:space="preserve" transform="matrix(1 0 -0 1 0 842)" font-size="9.9999" font-family="TimesNewRomanPSMT"><tspan y="-762.7455" x="358.4432 365.66316 370.6531 375.09306 379.703 384.26295 388.70289 396.5528 401.55274 406.55268 409.05265 414.05259 419.05253 421.5525 426.55244">&#x0410;&#x043b;&#x0435;&#x043a;&#x0441;&#x0435;&#x0439;05.03.81</tspan></text>
<path transform="matrix(1,0,0,-1,302.317,75.71002)" stroke-width="1" stroke-linecap="butt" stroke-miterlimit="22.926" stroke-linejoin="miter" fill="none" stroke="#231f20" d="M 0 0 L 14.4 0 "/>
<path transform="matrix(1,0,0,-1,302.317,104.510028)" stroke-width="1" stroke-linecap="butt" stroke-miterlimit="22.926" stroke-linejoin="miter" fill="none" stroke="#231f20" d="M 0 0 L 14.4 0 "/>
<path transform="matrix(1,0,0,-1,316.71699,75.71002)" stroke-width="1" stroke-linecap="butt" stroke-miterlimit="22.926" stroke-linejoin="miter" fill="none" stroke="#231f20" d="M 0 0 L 0 -28.8 "/>
<path transform="matrix(1,0,0,-1,331.11698,75.71002)" stroke-width="1" stroke-linecap="butt" stroke-miterlimit="22.926" stroke-linejoin="miter" fill="none" stroke="#231f20" d="M 0 0 L 14.4 0 "/>
<path transform="matrix(1,0,0,-1,316.71699,90.11002)" stroke-width="1" stroke-linecap="butt" stroke-miterlimit="22.926" stroke-linejoin="miter" fill="none" stroke="#231f20" d="M 0 0 L 14.4 0 "/>
<path transform="matrix(1,0,0,-1,331.11698,75.71002)" stroke-width="1" stroke-linecap="butt" stroke-miterlimit="22.926" stroke-linejoin="miter" fill="none" stroke="#231f20" d="M 0 0 L 0 -14.4 "/>
<text fill="#231f20" xml:space="preserve" transform="matrix(1 0 -0 1 0 842)" font-size="9.9999" font-family="TimesNewRomanPSMT"><tspan y="-226.9029" x="43.435 48.79195 53.7919 59.141847 63.581804 68.02176 75.24169 82.46162 86.90157 91.90152 98.381458 102.82141">&#x0422;&#x043e;&#x043d;&#x0435;&#x0435;&#x0432;&#x041f;&#x0430;&#x0440;&#x0444;&#x0435;&#x043d;</tspan><tspan y="-318.99" x="212.25331 217.61026 222.61022 227.96016 232.40012 236.84008 244.06 252.70291 257.70286 263.0528 267.61375 272.05369">&#x0422;&#x043e;&#x043d;&#x0435;&#x0435;&#x0432;&#x041c;&#x043e;&#x0438;&#x0441;&#x0435;&#x0439;</tspan><tspan y="-307.9151" x="212.25331 219.47324 223.9132 228.91315 235.39308 239.83304 245.18299 250.18294 254.9029 260.25285">&#x041f;&#x0430;&#x0440;&#x0444;&#x0435;&#x043d;&#x043e;&#x0432;&#x0438;&#x0447;</tspan><tspan y="-296.8402" x="212.25331 215.58329 222.8032 227.80316 232.80312 239.28305 244.633 249.63295 254.1929 258.63285 263.35279">(&#x041f;&#x043e;&#x0440;&#x0444;&#x0438;&#x0440;&#x044c;&#x0435;&#x0432;)</tspan></text>
<path transform="matrix(1,0,0,-1,143.917,615.71)" stroke-width="1" stroke-linecap="butt" stroke-miterlimit="22.926" stroke-linejoin="miter" fill="none" stroke="#231f20" d="M 0 0 L 14.4 0 "/>
<path transform="matrix(1,0,0,-1,143.917,644.51)" stroke-width="1" stroke-linecap="butt" stroke-miterlimit="22.926" stroke-linejoin="miter" fill="none" stroke="#231f20" d="M 0 0 L 14.4 0 "/>
<path transform="matrix(1,0,0,-1,158.317,615.71)" stroke-width="1" stroke-linecap="butt" stroke-miterlimit="22.926" stroke-linejoin="miter" fill="none" stroke="#231f20" d="M 0 0 L 0 -28.8 "/>
<path transform="matrix(1,0,0,-1,172.717,529.31)" stroke-width="1" stroke-linecap="butt" stroke-miterlimit="22.926" stroke-linejoin="miter" fill="none" stroke="#231f20" d="M 0 0 L 14.4 0 "/>
<path transform="matrix(1,0,0,-1,158.317,630.11)" stroke-width="1" stroke-linecap="butt" stroke-miterlimit="22.926" stroke-linejoin="miter" fill="none" stroke="#231f20" d="M 0 0 L 14.4 0 "/>
<path transform="matrix(1,0,0,-1,172.717,529.31)" stroke-width="1" stroke-linecap="butt" stroke-miterlimit="22.926" stroke-linejoin="miter" fill="none" stroke="#231f20" d="M 0 0 L 0 -194.4 "/>
<text fill="#231f20" xml:space="preserve" transform="matrix(1 0 -0 1 0 842)" font-size="9.9999" font-family="TimesNewRomanPSMT"><tspan y="-275.6404" x="200.0548 207.27472 211.71468 216.71463 223.19457 227.63452 232.98447 237.98442 242.57338 249.51232 252.84229 258.19923 263.19917 268.5491 272.98905 277.429 282.01695 286.45689">&#x041f;&#x0430;&#x0440;&#x0444;&#x0435;&#x043d;&#x043e;&#x0432;&#x0430;(&#x0422;&#x043e;&#x043d;&#x0435;&#x0435;&#x0432;&#x0430;)</tspan><tspan y="-264.56553" x="200.0548 206.16474 210.6357 215.72565 220.7256 225.58556 230.9355">&#x0415;&#x0432;&#x0434;&#x043e;&#x043a;&#x0438;&#x044f;</tspan><tspan y="-253.49063" x="200.0548 207.27472 211.71468 216.71463 223.19457 227.63452 232.98447 237.98442 242.70438 248.05432">&#x041f;&#x0430;&#x0440;&#x0444;&#x0435;&#x043d;&#x043e;&#x0432;&#x043d;&#x0430;</tspan></text>
<path transform="matrix(1,0,0,-1,172.717,586.909)" stroke-width="1" stroke-linecap="butt" stroke-miterlimit="22.926" stroke-linejoin="miter" fill="none" stroke="#231f20" d="M 0 0 L 14.4 0 "/>
<text fill="#231f20" xml:space="preserve" transform="matrix(1 0 -0 1 0 842)" font-size="9.9999" font-family="TimesNewRomanPSMT"><tspan y="-194.5888" x="201.6009 206.95786 211.95781 217.30776 221.74771 226.18767 230.77562 237.71555 244.93547 249.92542 254.36537 258.97334 263.53327 267.9732 273.32316 278.4131 283.41304">&#x0422;&#x043e;&#x043d;&#x0435;&#x0435;&#x0432;&#x0430;&#x0410;&#x043b;&#x0435;&#x043a;&#x0441;&#x0430;&#x043d;&#x0434;&#x0440;&#x0430;</tspan><tspan y="-183.51392" x="201.6009 208.82083 213.26079 218.26074 224.74068 229.18064 234.53058 239.53054 244.25049 249.60044">&#x041f;&#x0430;&#x0440;&#x0444;&#x0435;&#x043d;&#x043e;&#x0432;&#x043d;&#x0430;</tspan></text>
<path transform="matrix(1,0,0,-1,172.717,651.709)" stroke-width="1" stroke-linecap="butt" stroke-miterlimit="22.926" stroke-linejoin="miter" fill="none" stroke="#231f20" d="M 0 0 L 14.4 0 "/>
<text fill="#231f20" xml:space="preserve" transform="matrix(1 0 -0 1 0 842)" font-size="9.9999" font-family="TimesNewRomanPSMT"><tspan y="-158.6636" x="216.0471 221.40406 226.404 231.75395 236.19391 240.63387 247.85379 255.07372 259.51368 264.1756 268.61555">&#x0422;&#x043e;&#x043d;&#x0435;&#x0435;&#x0432;&#x041f;&#x0430;&#x0432;&#x0435;&#x043b;</tspan><tspan y="-147.58872" x="216.0471 223.26703 227.70699 232.70694 239.18688 243.62683 248.97678 253.97673 258.6967 264.04664">&#x041f;&#x0430;&#x0440;&#x0444;&#x0435;&#x043d;&#x043e;&#x0432;&#x0438;&#x0447;</tspan><tspan y="-122.50297" x="213.60013 218.95708 223.95703 229.30698 233.74694 238.18689 245.40682 251.51676 256.2367 260.33665 265.33659 269.77653">&#x0422;&#x043e;&#x043d;&#x0435;&#x0435;&#x0432;&#x0415;&#x0432;&#x0433;&#x0440;&#x0430;&#x0444;</tspan><tspan y="-111.42808" x="213.60013 220.82006 225.26001 230.25997 236.7399 241.17986 246.5298 251.52976 256.2497 261.59965">&#x041f;&#x0430;&#x0440;&#x0444;&#x0435;&#x043d;&#x043e;&#x0432;&#x0438;&#x0447;</tspan></text>
<path transform="matrix(1,0,0,-1,172.717,687.709)" stroke-width="1" stroke-linecap="butt" stroke-miterlimit="22.926" stroke-linejoin="miter" fill="none" stroke="#231f20" d="M 0 0 L 14.4 0 "/>
<path transform="matrix(1,0,0,-1,172.717,723.709)" stroke-width="1" stroke-linecap="butt" stroke-miterlimit="22.926" stroke-linejoin="miter" fill="none" stroke="#231f20" d="M 0 0 L 14.4 0 "/>
<text fill="#231f20" xml:space="preserve" transform="matrix(1 0 -0 1 0 842)" font-size="9.9999" font-family="TimesNewRomanPSMT"><tspan y="-486.1028" x="43.435 48.79195 53.7919 59.141847 63.581804 68.02176 75.24169 81.77963 86.21959 91.219539">&#x0422;&#x043e;&#x043d;&#x0435;&#x0435;&#x0432;&#x041a;&#x0430;&#x0440;&#x043f;</tspan><tspan y="-533.82937" x="216.78926 222.14621 227.14617 232.49611 236.93607 241.37602 248.59595 254.70589 261.18583 266.53578">&#x0422;&#x043e;&#x043d;&#x0435;&#x0435;&#x0432;&#x0415;&#x0444;&#x0438;&#x043c;</tspan><tspan y="-522.75448" x="216.78926 223.3272 227.76715 232.7671 238.11705 243.117 247.83696 253.1869">&#x041a;&#x0430;&#x0440;&#x043f;&#x043e;&#x0432;&#x0438;&#x0447;</tspan><tspan y="-511.67958" x="216.78926 222.1992 227.19916">~58</tspan></text>
<path transform="matrix(1,0,0,-1,143.917,356.51)" stroke-width="1" stroke-linecap="butt" stroke-miterlimit="22.926" stroke-linejoin="miter" fill="none" stroke="#231f20" d="M 0 0 L 14.4 0 "/>
<path transform="matrix(1,0,0,-1,143.917,392.51)" stroke-width="1" stroke-linecap="butt" stroke-miterlimit="22.926" stroke-linejoin="miter" fill="none" stroke="#231f20" d="M 0 0 L 14.4 0 "/>
<path transform="matrix(1,0,0,-1,158.317,356.51)" stroke-width="1" stroke-linecap="butt" stroke-miterlimit="22.926" stroke-linejoin="miter" fill="none" stroke="#231f20" d="M 0 0 L 0 -36 "/>
<path transform="matrix(1,0,0,-1,172.717,313.31)" stroke-width="1" stroke-linecap="butt" stroke-miterlimit="22.926" stroke-linejoin="miter" fill="none" stroke="#231f20" d="M 0 0 L 14.4 0 "/>
<path transform="matrix(1,0,0,-1,158.317,385.31)" stroke-width="1" stroke-linecap="butt" stroke-miterlimit="22.926" stroke-linejoin="miter" fill="none" stroke="#231f20" d="M 0 0 L 14.4 0 "/>
<path transform="matrix(1,0,0,-1,172.717,313.31)" stroke-width="1" stroke-linecap="butt" stroke-miterlimit="22.926" stroke-linejoin="miter" fill="none" stroke="#231f20" d="M 0 0 L 0 -86.4 "/>
<text fill="#231f20" xml:space="preserve" transform="matrix(1 0 -0 1 0 842)" font-size="9.9999" font-family="TimesNewRomanPSMT"><tspan y="-446.5029" x="197.4523 202.80925 207.8092 213.15915 217.5991 222.03907 229.25899 238.1489 242.58885 247.5888 252.19777 256.63774 264.12568 267.45564 274.67558 279.26753 283.70747 289.0574">&#x0422;&#x043e;&#x043d;&#x0435;&#x0435;&#x0432;&#x041c;&#x0430;&#x0440;&#x043a;&#x0435;&#x043b;(&#x0418;&#x0432;&#x0430;&#x043d;)</tspan><tspan y="-435.428" x="197.4523 203.99024 208.43019 213.43015 218.78009 223.78005 228.5 233.84995">&#x041a;&#x0430;&#x0440;&#x043f;&#x043e;&#x0432;&#x0438;&#x0447;</tspan></text>
<path transform="matrix(1,0,0,-1,172.717,399.709)" stroke-width="1" stroke-linecap="butt" stroke-miterlimit="22.926" stroke-linejoin="miter" fill="none" stroke="#231f20" d="M 0 0 L 14.4 0 "/>
<text fill="#231f20" xml:space="preserve" transform="matrix(1 0 -0 1 0 842)" font-size="9.9999" font-family="TimesNewRomanPSMT"><tspan y="-490.6295" x="199.0123 204.36925 209.3692 214.71915 219.1591 223.59906 228.18701 235.12595 238.45592 243.47586 247.91582 252.91577 257.3557 261.79566 267.1456 273.47554 278.47547 283.05943 287.49937">&#x0422;&#x043e;&#x043d;&#x0435;&#x0435;&#x0432;&#x0430;(&#x0413;&#x0435;&#x0440;&#x0430;&#x0441;&#x0438;&#x043c;&#x043e;&#x0432;&#x0430;)</tspan><tspan y="-479.5546" x="199.0123 205.43424 209.99419 214.43415 219.78409 225.13404 232.23397 241.12387 246.47382 251.34677 255.78673 261.1367 266.12666 271.1266 275.84654 281.19648">&#x041a;&#x0441;&#x0435;&#x043d;&#x0438;&#x044f;&#x041c;&#x0438;&#x0445;&#x0430;&#x0439;&#x043b;&#x043e;&#x0432;&#x043d;&#x0430;</tspan><tspan y="-468.4797" x="199.0123 204.42224 209.4222">~58</tspan></text>
<path transform="matrix(1,0,0,-1,302.317,313.31)" stroke-width="1" stroke-linecap="butt" stroke-miterlimit="22.926" stroke-linejoin="miter" fill="none" stroke="#231f20" d="M 0 0 L 14.4 0 "/>
<path transform="matrix(1,0,0,-1,302.317,370.91)" stroke-width="1" stroke-linecap="butt" stroke-miterlimit="22.926" stroke-linejoin="miter" fill="none" stroke="#231f20" d="M 0 0 L 14.4 0 "/>
<path transform="matrix(1,0,0,-1,316.71699,313.31)" stroke-width="1" stroke-linecap="butt" stroke-miterlimit="22.926" stroke-linejoin="miter" fill="none" stroke="#231f20" d="M 0 0 L 0 -57.6 "/>
<text fill="#231f20" xml:space="preserve" transform="matrix(.000033333706 -1 1 .000033333706 0 842)" font-size="8.9999" font-family="TimesNewRomanPSMT"><tspan y="313.81376" x="484.76808 489.268 493.76795">06.</tspan><tspan y="313.81373" x="496.0179">1</tspan><tspan y="313.81376" x="500.18397 504.6839">1.</tspan><tspan y="313.81373" x="506.93388 511.4338">83</tspan></text>
<text fill="#231f20" xml:space="preserve" transform="matrix(1 0 -0 1 0 842)" font-size="9.9999" font-family="TimesNewRomanPSMT"><tspan y="-409.502" x="202.1692 207.52616 212.52611 217.87606 222.31601 226.75597 231.34392 238.28285 241.61283 248.28276 253.6327 259.96266 264.9626 270.31254 275.31248 279.9024 284.34236">&#x0422;&#x043e;&#x043d;&#x0435;&#x0435;&#x0432;&#x0430;(&#x0421;&#x0438;&#x043c;&#x043e;&#x043d;&#x043e;&#x0432;&#x0430;)</tspan><tspan y="-398.42713" x="202.1692 208.83914 213.2791 217.71906 222.27501 229.21494 236.43486 240.87482 245.46277 250.45272 255.45267 260.1726 265.52256">&#x0412;&#x0430;&#x0441;&#x0441;&#x0430;&#x041f;&#x0430;&#x0432;&#x043b;&#x043e;&#x0432;&#x043d;&#x0430;</tspan></text>
<path transform="matrix(1,0,0,-1,302.317,399.71)" stroke-width="1" stroke-linecap="butt" stroke-miterlimit="22.926" stroke-linejoin="miter" fill="none" stroke="#231f20" d="M 0 0 L 14.4 0 "/>
<path transform="matrix(1,0,0,-1,302.317,435.71)" stroke-width="1" stroke-linecap="butt" stroke-miterlimit="22.926" stroke-linejoin="miter" fill="none" stroke="#231f20" d="M 0 0 L 14.4 0 "/>
<path transform="matrix(1,0,0,-1,316.71699,399.71)" stroke-width="1" stroke-linecap="butt" stroke-miterlimit="22.926" stroke-linejoin="miter" fill="none" stroke="#231f20" d="M 0 0 L 0 -36 "/>
<text fill="#231f20" xml:space="preserve" transform="matrix(1 0 -0 1 0 842)" font-size="9.9999" font-family="TimesNewRomanPSMT"><tspan y="-513.051" x="368.5552 375.77516 381.1251 386.21504 391.21498 395.6549 403.50584 408.50578 413.5057 416.00569 421.0056 426.00556 428.50553 433.50547">&#x0410;&#x043d;&#x0434;&#x0440;&#x0435;&#x0439;13.08.83</tspan></text>
<path transform="matrix(1,0,0,-1,331.117,327.70899)" stroke-width="1" stroke-linecap="butt" stroke-miterlimit="22.926" stroke-linejoin="miter" fill="none" stroke="#231f20" d="M 0 0 L 14.4 0 "/>
<path transform="matrix(1,0,0,-1,316.717,342.10899)" stroke-width="1" stroke-linecap="butt" stroke-miterlimit="22.926" stroke-linejoin="miter" fill="none" stroke="#231f20" d="M 0 0 L 14.4 0 "/>
<text fill="#231f20" xml:space="preserve" transform="matrix(1 0 -0 1 0 842)" font-size="9.9999" font-family="TimesNewRomanPSMT"><tspan y="-491.4578" x="362.8882 370.10816 374.5481 379.54804 383.98799 388.42793 393.03388 397.47383 402.06178 409.00068 414.0006 419.00056 421.50053 426.50047 431.5004 434.00038 439.0003">&#x041f;&#x0435;&#x0440;&#x0430;&#x0441;&#x043a;&#x0435;&#x0432;&#x0430;25.07.85</tspan></text>
<path transform="matrix(1,0,0,-1,331.117,349.309)" stroke-width="1" stroke-linecap="butt" stroke-miterlimit="22.926" stroke-linejoin="miter" fill="none" stroke="#231f20" d="M 0 0 L 14.4 0 "/>
<path transform="matrix(1,0,0,-1,331.117,327.70899)" stroke-width="1" stroke-linecap="butt" stroke-miterlimit="22.926" stroke-linejoin="miter" fill="none" stroke="#231f20" d="M 0 0 L 0 -21.6 "/>
<text fill="#231f20" xml:space="preserve" transform="matrix(1 0 -0 1 0 842)" font-size="9.9999" font-family="TimesNewRomanPSMT"><tspan y="-626.2092" x="216.0457 221.40265 226.4026 231.75255 236.1925 240.63246 245.22042 252.16034 259.38029 263.82023 268.82017 273.2601 277.70005 282.304 286.74394 291.33189">&#x0422;&#x043e;&#x043d;&#x0435;&#x0435;&#x0432;&#x0430;&#x041f;&#x0435;&#x0440;&#x0430;&#x0441;&#x043a;&#x0435;&#x0432;&#x0430;</tspan><tspan y="-615.13436" x="216.0457 223.26563 227.70558 232.19654 237.19649 242.19644 246.9164 252.26634">&#x041f;&#x0435;&#x0442;&#x0440;&#x043e;&#x0432;&#x043d;&#x0430;</tspan></text>
<path transform="matrix(1,0,0,-1,302.317,212.51001)" stroke-width="1" stroke-linecap="butt" stroke-miterlimit="22.926" stroke-linejoin="miter" fill="none" stroke="#231f20" d="M 0 0 L 14.4 0 L 14.4 -36 "/>
<path transform="matrix(1,0,0,-1,331.11698,212.51001)" stroke-width="1" stroke-linecap="butt" stroke-miterlimit="22.926" stroke-linejoin="miter" fill="none" stroke="#231f20" d="M 0 0 L 14.4 0 "/>
<path transform="matrix(1,0,0,-1,316.71699,226.91)" stroke-width="1" stroke-linecap="butt" stroke-miterlimit="22.926" stroke-linejoin="miter" fill="none" stroke="#231f20" d="M 0 0 L 14.4 0 "/>
<path transform="matrix(1,0,0,-1,331.11698,212.51001)" stroke-width="1" stroke-linecap="butt" stroke-miterlimit="22.926" stroke-linejoin="miter" fill="none" stroke="#231f20" d="M 0 0 L 0 -14.4 "/>
<text fill="#231f20" xml:space="preserve" transform="matrix(1 0 -0 1 0 842)" font-size="9.9999" font-family="TimesNewRomanPSMT"><tspan y="-628.2578" x="364.5286 369.68055 374.68049 380.03044 383.88539 388.8853 393.88526 399.2352 407.0881 412.08805 417.08799 419.58796 424.5879 429.58784 432.0878 437.08775">&#x0413;&#x0440;&#x0438;&#x0433;&#x043e;&#x0440;&#x0438;&#x0439;20.01.86</tspan></text>
<path transform="matrix(1,0,0,-1,302.317,572.51)" stroke-width="1" stroke-linecap="butt" stroke-miterlimit="22.926" stroke-linejoin="miter" fill="none" stroke="#231f20" d="M 0 0 L 14.4 0 "/>
<path transform="matrix(1,0,0,-1,302.317,615.71)" stroke-width="1" stroke-linecap="butt" stroke-miterlimit="22.926" stroke-linejoin="miter" fill="none" stroke="#231f20" d="M 0 0 L 14.4 0 "/>
<path transform="matrix(1,0,0,-1,316.71699,572.51)" stroke-width="1" stroke-linecap="butt" stroke-miterlimit="22.926" stroke-linejoin="miter" fill="none" stroke="#231f20" d="M 0 0 L 0 -43.2 "/>
<text fill="#231f20" xml:space="preserve" transform="matrix(.000033333706 -1 1 .000033333706 0 842)" font-size="8.9999" font-family="TimesNewRomanPSMT"><tspan y="313.82215" x="232.76807 237.26802 241.76798">31.</tspan><tspan y="313.8221" x="244.01795">1</tspan><tspan y="313.82215" x="248.5179 253.01786">0.</tspan><tspan y="313.8221" x="255.26782 259.76777">82</tspan></text>
<text fill="#231f20" xml:space="preserve" transform="matrix(1 0 -0 1 0 842)" font-size="9.9999" font-family="TimesNewRomanPSMT"><tspan y="-229.0549" x="205.6487 212.86862 217.30858 222.30854 228.78847 233.22843 238.57837 243.57833 250.79825 258.0182 262.45814 267.12107 271.561">&#x041f;&#x0430;&#x0440;&#x0444;&#x0435;&#x043d;&#x043e;&#x0432;&#x041f;&#x0430;&#x0432;&#x0435;&#x043b;</tspan><tspan y="-217.98001" x="205.6487 212.31864 216.75859 221.19855 226.5485 231.53844 236.09839 240.53835 245.2583 250.60825">&#x0412;&#x0430;&#x0441;&#x0438;&#x043b;&#x044c;&#x0435;&#x0432;&#x0438;&#x0447;</tspan></text>
<path transform="matrix(1,0,0,-1,187.117,24.231995)" stroke-width="1" stroke-linecap="butt" stroke-miterlimit="22.926" stroke-linejoin="miter" fill="none" stroke="#231f20" d="M 0 0 L 115.2 0 L 115.2 -28.8 L 0 -28.8 Z "/>
<path transform="matrix(1,0,0,-1,187.117,60.231996)" stroke-width="1" stroke-linecap="butt" stroke-miterlimit="22.926" stroke-linejoin="miter" fill="none" stroke="#231f20" d="M 0 0 L 115.2 0 L 115.2 -28.8 L 0 -28.8 Z "/>
<path transform="matrix(1,0,0,-1,187.117,96.231998)" stroke-width="1" stroke-linecap="butt" stroke-miterlimit="22.926" stroke-linejoin="miter" fill="none" stroke="#231f20" d="M 0 0 L 115.2 0 L 115.2 -28.8 L 0 -28.8 Z "/>
<path transform="matrix(1,0,0,-1,187.117,204.232)" stroke-width="1" stroke-linecap="butt" stroke-miterlimit="22.926" stroke-linejoin="miter" fill="none" stroke="#231f20" d="M 0 0 L 115.2 0 L 115.2 -28.8 L 0 -28.8 Z "/>
<path transform="matrix(1,0,0,-1,187.117,240.232)" stroke-width="1" stroke-linecap="butt" stroke-miterlimit="22.926" stroke-linejoin="miter" fill="none" stroke="#231f20" d="M 0 0 L 115.2 0 L 115.2 -28.8 L 0 -28.8 Z "/>
<path transform="matrix(1,0,0,-1,345.517,67.43199)" stroke-width="1" stroke-linecap="butt" stroke-miterlimit="22.926" stroke-linejoin="miter" fill="none" stroke="#231f20" d="M 0 0 L 115.2 0 L 115.2 -14.4 L 0 -14.4 Z "/>
<path transform="matrix(1,0,0,-1,345.517,204.232)" stroke-width="1" stroke-linecap="butt" stroke-miterlimit="22.926" stroke-linejoin="miter" fill="none" stroke="#231f20" d="M 0 0 L 115.2 0 L 115.2 -14.4 L 0 -14.4 Z "/>
<text fill="#231f20" xml:space="preserve" transform="matrix(1 0 -0 1 0 842)" font-size="9.9999" font-family="TimesNewRomanPSMT"><tspan y="-698.6639" x="218.1246 223.48155 228.4815 233.83145 238.27141 242.71137 249.93129 255.08223 260.08219 265.43214 269.28709 274.28703 279.28697 284.6369">&#x0422;&#x043e;&#x043d;&#x0435;&#x0435;&#x0432;&#x0413;&#x0440;&#x0438;&#x0433;&#x043e;&#x0440;&#x0438;&#x0439;</tspan><tspan y="-687.589" x="218.1246 224.94454 231.27448 236.62442 241.11637 246.11632 251.46627 255.90622 260.62617 265.9761">&#x0414;&#x043c;&#x0438;&#x0442;&#x0440;&#x0438;&#x0435;&#x0432;&#x0438;&#x0447;</tspan></text>
<path transform="matrix(1,0,0,-1,172.717,140.50897)" stroke-width="1" stroke-linecap="butt" stroke-miterlimit="22.926" stroke-linejoin="miter" fill="none" stroke="#231f20" d="M 0 0 L 14.4 0 "/>
<path transform="matrix(1,0,0,-1,187.11699,132.23197)" stroke-width="1" stroke-linecap="butt" stroke-miterlimit="22.926" stroke-linejoin="miter" fill="none" stroke="#231f20" d="M 0 0 L 115.2 0 L 115.2 -28.8 L 0 -28.8 Z "/>
<text fill="#231f20" xml:space="preserve" transform="matrix(1 0 -0 1 0 842)" font-size="9.9999" font-family="TimesNewRomanPSMT"><tspan y="-662.6639" x="218.1246 223.48155 228.4815 233.83145 238.27141 242.71137 249.93129 256.60124 261.04118 265.4811 270.83106 275.821 281.17097">&#x0422;&#x043e;&#x043d;&#x0435;&#x0435;&#x0432;&#x0412;&#x0430;&#x0441;&#x0438;&#x043b;&#x0438;&#x0439;</tspan><tspan y="-651.589" x="218.1246 224.94454 231.27448 236.62442 241.11637 246.11632 251.46627 255.90622 260.62617 265.9761">&#x0414;&#x043c;&#x0438;&#x0442;&#x0440;&#x0438;&#x0435;&#x0432;&#x0438;&#x0447;</tspan></text>
<path transform="matrix(1,0,0,-1,172.717,176.50897)" stroke-width="1" stroke-linecap="butt" stroke-miterlimit="22.926" stroke-linejoin="miter" fill="none" stroke="#231f20" d="M 0 0 L 14.4 0 "/>
<path transform="matrix(1,0,0,-1,187.11699,168.23197)" stroke-width="1" stroke-linecap="butt" stroke-miterlimit="22.926" stroke-linejoin="miter" fill="none" stroke="#231f20" d="M 0 0 L 115.2 0 L 115.2 -28.8 L 0 -28.8 Z "/>
<path transform="matrix(1,0,0,-1,28.716996,636.23196)" stroke-width="1" stroke-linecap="butt" stroke-miterlimit="22.926" stroke-linejoin="miter" fill="none" stroke="#231f20" d="M 0 0 L 115.2 0 L 115.2 -14.4 L 0 -14.4 Z "/>
<path transform="matrix(1,0,0,-1,28.716996,600.23196)" stroke-width="1" stroke-linecap="butt" stroke-miterlimit="22.926" stroke-linejoin="miter" fill="none" stroke="#231f20" d="M 0 0 L 115.2 0 L 115.2 -28.8 L 0 -28.8 Z "/>
<path transform="matrix(1,0,0,-1,187.11699,513.8319)" stroke-width="1" stroke-linecap="butt" stroke-miterlimit="22.926" stroke-linejoin="miter" fill="none" stroke="#231f20" d="M 0 0 L 115.2 0 L 115.2 -36 L 0 -36 Z "/>
<path transform="matrix(1,0,0,-1,187.11699,557.0319)" stroke-width="1" stroke-linecap="butt" stroke-miterlimit="22.926" stroke-linejoin="miter" fill="none" stroke="#231f20" d="M 0 0 L 115.2 0 L 115.2 -36 L 0 -36 Z "/>
<path transform="matrix(1,0,0,-1,316.71699,586.90896)" stroke-width="1" stroke-linecap="butt" stroke-miterlimit="22.926" stroke-linejoin="miter" fill="none" stroke="#231f20" d="M 0 0 L 14.4 0 "/>
<path transform="matrix(1,0,0,-1,331.11698,579.7089)" stroke-width="1" stroke-linecap="butt" stroke-miterlimit="22.926" stroke-linejoin="miter" fill="none" stroke="#231f20" d="M 0 0 L 0 -21.6 "/>
<path transform="matrix(1,0,0,-1,331.11698,579.7089)" stroke-width="1" stroke-linecap="butt" stroke-miterlimit="22.926" stroke-linejoin="miter" fill="none" stroke="#231f20" d="M 0 0 L 14.4 0 "/>
<path transform="matrix(1,0,0,-1,345.51698,571.43197)" stroke-width="1" stroke-linecap="butt" stroke-miterlimit="22.926" stroke-linejoin="miter" fill="none" stroke="#231f20" d="M 0 0 L 115.2 0 L 115.2 -14.4 L 0 -14.4 Z "/>
<text fill="#231f20" xml:space="preserve" transform="matrix(1 0 -0 1 0 842)" font-size="9.9999" font-family="TimesNewRomanPSMT"><tspan y="-239.0085" x="350.7849 358.68486 363.1248 367.83473 372.92466 378.1716 382.61155 387.9615 395.0614 400.06135 405.06129 407.56126 412.5612 417.56114 420.89109 425.89103 430.89097 433.39094 438.39088 443.3908 445.89079 450.89073">&#x0424;&#x0435;&#x043e;&#x0434;&#x043e;&#x0441;&#x0438;&#x044f;05.87-14.08.87</tspan></text>
<path transform="matrix(1,0,0,-1,331.117,601.309)" stroke-width="1" stroke-linecap="butt" stroke-miterlimit="22.926" stroke-linejoin="miter" fill="none" stroke="#231f20" d="M 0 0 L 14.4 0 "/>
<path transform="matrix(1,0,0,-1,345.517,593.03207)" stroke-width="1" stroke-linecap="butt" stroke-miterlimit="22.926" stroke-linejoin="miter" fill="none" stroke="#231f20" d="M 0 0 L 115.2 0 L 115.2 -14.4 L 0 -14.4 Z "/>
<text fill="#231f20" xml:space="preserve" transform="matrix(1 0 -0 1 0 842)" font-size="9.9999" font-family="TimesNewRomanPSMT"><tspan y="-260.6085" x="350.7849 358.00486 362.1048 367.10475 372.45469 377.80464 383.15458 388.50453 395.45243 400.45237 405.4523 407.95228 412.9522 417.95216 420.45213 425.45207">&#x0410;&#x0433;&#x0440;&#x0438;&#x043f;&#x0438;&#x043d;&#x0430;18.07.88</tspan></text>
<path transform="matrix(1,0,0,-1,187.117,600.232)" stroke-width="1" stroke-linecap="butt" stroke-miterlimit="22.926" stroke-linejoin="miter" fill="none" stroke="#231f20" d="M 0 0 L 115.2 0 L 115.2 -28.8 L 0 -28.8 Z "/>
<path transform="matrix(1,0,0,-1,187.117,636.232)" stroke-width="1" stroke-linecap="butt" stroke-miterlimit="22.926" stroke-linejoin="miter" fill="none" stroke="#231f20" d="M 0 0 L 115.2 0 L 115.2 -28.8 L 0 -28.8 Z "/>
<path transform="matrix(1,0,0,-1,187.117,672.232)" stroke-width="1" stroke-linecap="butt" stroke-miterlimit="22.926" stroke-linejoin="miter" fill="none" stroke="#231f20" d="M 0 0 L 115.2 0 L 115.2 -28.8 L 0 -28.8 Z "/>
<path transform="matrix(1,0,0,-1,187.117,708.232)" stroke-width="1" stroke-linecap="butt" stroke-miterlimit="22.926" stroke-linejoin="miter" fill="none" stroke="#231f20" d="M 0 0 L 115.2 0 L 115.2 -28.8 L 0 -28.8 Z "/>
<path transform="matrix(1,0,0,-1,187.117,744.232)" stroke-width="1" stroke-linecap="butt" stroke-miterlimit="22.926" stroke-linejoin="miter" fill="none" stroke="#231f20" d="M 0 0 L 115.2 0 L 115.2 -28.8 L 0 -28.8 Z "/>
<path transform="matrix(1,0,0,-1,302.31703,723.709)" stroke-width="1" stroke-linecap="butt" stroke-miterlimit="22.926" stroke-linejoin="miter" fill="none" stroke="#231f20" d="M 0 0 L 14.4 0 "/>
<path transform="matrix(1,0,0,-1,302.31703,766.909)" stroke-width="1" stroke-linecap="butt" stroke-miterlimit="22.926" stroke-linejoin="miter" fill="none" stroke="#231f20" d="M 0 0 L 14.4 0 "/>
<path transform="matrix(1,0,0,-1,316.717,723.709)" stroke-width="1" stroke-linecap="butt" stroke-miterlimit="22.926" stroke-linejoin="miter" fill="none" stroke="#231f20" d="M 0 0 L 0 -43.2 "/>
<path transform="matrix(1,0,0,-1,316.717,738.109)" stroke-width="1" stroke-linecap="butt" stroke-miterlimit="22.926" stroke-linejoin="miter" fill="none" stroke="#231f20" d="M 0 0 L 14.4 0 "/>
<path transform="matrix(1,0,0,-1,331.117,730.909)" stroke-width="1" stroke-linecap="butt" stroke-miterlimit="22.926" stroke-linejoin="miter" fill="none" stroke="#231f20" d="M 0 0 L 0 -7.2 "/>
<path transform="matrix(1,0,0,-1,331.117,730.909)" stroke-width="1" stroke-linecap="butt" stroke-miterlimit="22.926" stroke-linejoin="miter" fill="none" stroke="#231f20" d="M 0 0 L 14.4 0 "/>
<path transform="matrix(1,0,0,-1,345.517,722.632)" stroke-width="1" stroke-linecap="butt" stroke-miterlimit="22.926" stroke-linejoin="miter" fill="none" stroke="#231f20" d="M 0 0 L 115.2 0 L 115.2 -14.4 L 0 -14.4 Z "/>
<text fill="#231f20" xml:space="preserve" transform="matrix(1 0 -0 1 0 842)" font-size="9.9999" font-family="TimesNewRomanPSMT"><tspan y="-109.4085" x="350.7849 358.00486 363.3548 367.70777 372.7077 378.05766 383.0576 390.5585 395.55845 400.55839 403.05836 408.0583 413.05824 416.38819 421.38813 426.38807 428.88804 433.88798 438.8879 441.38789 446.38783">&#x041d;&#x0438;&#x043a;&#x043e;&#x043d;&#x043e;&#x0440;07.87-16.08.87</tspan></text>
<path transform="matrix(1,0,0,-1,187.117,297.83198)" stroke-width="1" stroke-linecap="butt" stroke-miterlimit="22.926" stroke-linejoin="miter" fill="none" stroke="#231f20" d="M 0 0 L 115.2 0 L 115.2 -36 L 0 -36 Z "/>
<path transform="matrix(1,0,0,-1,187.117,341.03199)" stroke-width="1" stroke-linecap="butt" stroke-miterlimit="22.926" stroke-linejoin="miter" fill="none" stroke="#231f20" d="M 0 0 L 115.2 0 L 115.2 -36 L 0 -36 Z "/>
<path transform="matrix(1,0,0,-1,345.517,319.43199)" stroke-width="1" stroke-linecap="butt" stroke-miterlimit="22.926" stroke-linejoin="miter" fill="none" stroke="#231f20" d="M 0 0 L 115.2 0 L 115.2 -14.4 L 0 -14.4 Z "/>
<path transform="matrix(1,0,0,-1,345.517,341.03199)" stroke-width="1" stroke-linecap="butt" stroke-miterlimit="22.926" stroke-linejoin="miter" fill="none" stroke="#231f20" d="M 0 0 L 115.2 0 L 115.2 -14.4 L 0 -14.4 Z "/>
<text fill="#231f20" xml:space="preserve" transform="matrix(1 0 -0 1 0 842)" font-size="9.9999" font-family="TimesNewRomanPSMT"><tspan y="-374.6699" x="206.761 213.43094 218.78089 225.11083 230.11078 235.46073 240.46068 245.05063">&#x0421;&#x0438;&#x043c;&#x043e;&#x043d;&#x043e;&#x0432;&#x0430;</tspan><tspan y="-363.595" x="206.761 212.71294 217.70288 222.26284 226.8628 232.21274 237.56269 244.66262 251.88254 256.32249 260.91444 265.9044 270.90434 275.62428 280.9742">&#x0423;&#x043b;&#x044c;&#x044f;&#x043d;&#x0438;&#x044f;&#x041f;&#x0430;&#x0432;&#x043b;&#x043e;&#x0432;&#x043d;&#x0430;</tspan><tspan y="-432.8573" x="354.80055 362.02049 366.61244 371.05238 378.90229 383.90223 388.90217 391.40214 396.40208 401.402 403.90199 408.90193 413.90187 417.2318 421.85877 426.8587 429.35868 434.3586 439.35856 441.85853 446.85847">&#x0418;&#x0432;&#x0430;&#x043d;02.01.79-11.08.79</tspan></text>
<path transform="matrix(1,0,0,-1,331.117,406.909)" stroke-width="1" stroke-linecap="butt" stroke-miterlimit="22.926" stroke-linejoin="miter" fill="none" stroke="#231f20" d="M 0 0 L 14.4 0 "/>
<path transform="matrix(1,0,0,-1,316.717,421.309)" stroke-width="1" stroke-linecap="butt" stroke-miterlimit="22.926" stroke-linejoin="miter" fill="none" stroke="#231f20" d="M 0 0 L 14.4 0 "/>
<text fill="#231f20" xml:space="preserve" transform="matrix(1 0 -0 1 0 842)" font-size="9.9999" font-family="TimesNewRomanPSMT"><tspan y="-412.2578" x="362.8882 371.77815 376.21809 381.21803 386.56797 393.66889 398.66883 403.66877 406.16874 411.16868 416.1686 418.66859 423.66853">&#x041c;&#x0430;&#x0440;&#x0438;&#x044f;18.07.80</tspan></text>
<path transform="matrix(1,0,0,-1,331.117,428.509)" stroke-width="1" stroke-linecap="butt" stroke-miterlimit="22.926" stroke-linejoin="miter" fill="none" stroke="#231f20" d="M 0 0 L 14.4 0 "/>
<path transform="matrix(1,0,0,-1,331.117,406.909)" stroke-width="1" stroke-linecap="butt" stroke-miterlimit="22.926" stroke-linejoin="miter" fill="none" stroke="#231f20" d="M 0 0 L 0 -21.6 "/>
<path transform="matrix(1,0,0,-1,345.517,398.632)" stroke-width="1" stroke-linecap="butt" stroke-miterlimit="22.926" stroke-linejoin="miter" fill="none" stroke="#231f20" d="M 0 0 L 115.2 0 L 115.2 -14.4 L 0 -14.4 Z "/>
<path transform="matrix(1,0,0,-1,345.517,420.232)" stroke-width="1" stroke-linecap="butt" stroke-miterlimit="22.926" stroke-linejoin="miter" fill="none" stroke="#231f20" d="M 0 0 L 115.2 0 L 115.2 -14.4 L 0 -14.4 Z "/>
<path transform="matrix(1,0,0,-1,187.117,384.232)" stroke-width="1" stroke-linecap="butt" stroke-miterlimit="22.926" stroke-linejoin="miter" fill="none" stroke="#231f20" d="M 0 0 L 115.2 0 L 115.2 -28.8 L 0 -28.8 Z "/>
<path transform="matrix(1,0,0,-1,187.117,420.232)" stroke-width="1" stroke-linecap="butt" stroke-miterlimit="22.926" stroke-linejoin="miter" fill="none" stroke="#231f20" d="M 0 0 L 115.2 0 L 115.2 -28.8 L 0 -28.8 Z "/>
<path transform="matrix(1,0,0,-1,187.117,456.232)" stroke-width="1" stroke-linecap="butt" stroke-miterlimit="22.926" stroke-linejoin="miter" fill="none" stroke="#231f20" d="M 0 0 L 115.2 0 L 115.2 -28.8 L 0 -28.8 Z "/>
<path transform="matrix(1,0,0,-1,179.917,428.509)" stroke-width="1" stroke-linecap="butt" stroke-miterlimit="22.926" stroke-linejoin="miter" fill="none" stroke="#231f20" d="M 0 0 L 7.2 0 "/>
<path transform="matrix(1,0,0,-1,179.917,428.509)" stroke-width="1" stroke-linecap="butt" stroke-miterlimit="22.926" stroke-linejoin="miter" fill="none" stroke="#231f20" d="M 0 0 L 0 -43.2 L 7.2 -43.2 "/>
<path transform="matrix(1,0,0,-1,28.71701,341.032)" stroke-width="1" stroke-linecap="butt" stroke-miterlimit="22.926" stroke-linejoin="miter" fill="none" stroke="#231f20" d="M 0 0 L 115.2 0 L 115.2 -36 L 0 -36 Z "/>
<path transform="matrix(1,0,0,-1,28.71701,384.23204)" stroke-width="1" stroke-linecap="butt" stroke-miterlimit="22.926" stroke-linejoin="miter" fill="none" stroke="#231f20" d="M 0 0 L 115.2 0 L 115.2 -14.4 L 0 -14.4 Z "/>
<text fill="#231f20" xml:space="preserve" transform="matrix(1 0 -0 1 0 842)" font-size="9.9999" font-family="TimesNewRomanPSMT"><tspan y="-694.9028" x="43.435 48.79195 53.7919 59.141847 63.581804 68.02176 75.24169 82.06162 88.391559 93.7415 98.23346 103.233409 108.58335">&#x0422;&#x043e;&#x043d;&#x0435;&#x0435;&#x0432;&#x0414;&#x043c;&#x0438;&#x0442;&#x0440;&#x0438;&#x0439;</tspan></text>
<path transform="matrix(1,0,0,-1,143.917,147.71002)" stroke-width="1" stroke-linecap="butt" stroke-miterlimit="22.926" stroke-linejoin="miter" fill="none" stroke="#231f20" d="M 0 0 L 14.4 0 "/>
<path transform="matrix(1,0,0,-1,143.917,176.51003)" stroke-width="1" stroke-linecap="butt" stroke-miterlimit="22.926" stroke-linejoin="miter" fill="none" stroke="#231f20" d="M 0 0 L 14.4 0 "/>
<path transform="matrix(1,0,0,-1,158.317,147.71002)" stroke-width="1" stroke-linecap="butt" stroke-miterlimit="22.926" stroke-linejoin="miter" fill="none" stroke="#231f20" d="M 0 0 L 0 -28.8 "/>
<path transform="matrix(1,0,0,-1,158.317,162.11002)" stroke-width="1" stroke-linecap="butt" stroke-miterlimit="22.926" stroke-linejoin="miter" fill="none" stroke="#231f20" d="M 0 0 L 14.4 0 "/>
<path transform="matrix(1,0,0,-1,28.716996,168.23302)" stroke-width="1" stroke-linecap="butt" stroke-miterlimit="22.926" stroke-linejoin="miter" fill="none" stroke="#231f20" d="M 0 0 L 115.2 0 L 115.2 -14.4 L 0 -14.4 Z "/>
<path transform="matrix(1,0,0,-1,28.716996,132.23302)" stroke-width="1" stroke-linecap="butt" stroke-miterlimit="22.926" stroke-linejoin="miter" fill="none" stroke="#231f20" d="M 0 0 L 115.2 0 L 115.2 -28.8 L 0 -28.8 Z "/>
</g>
</svg>
