<?xml version="1.0" encoding="UTF-8" standalone="no"?>
<!DOCTYPE svg PUBLIC "-//W3C//DTD SVG 1.1//EN" "http://www.w3.org/Graphics/SVG/1.1/DTD/svg11.dtd">
<svg xmlns="http://www.w3.org/2000/svg" xmlns:xlink="http://www.w3.org/1999/xlink" version="1.1" width="595.22pt" height="842pt" viewBox="0 0 595.22 842">
<g enable-background="new">
<text fill="#231f20" xml:space="preserve" transform="matrix(1 0 -0 1 0 842)" font-size="9.7999" font-family="TimesNewRomanPSMT"><tspan y="-543.7735" x="181.3615 187.10424 192.34719 198.48389 202.83504 209.47643 213.82758 220.9031 227.58664 233.78998 239.03293 243.43701 248.33696 253.57991">&#x0422;&#x0438;&#x043c;&#x0430;&#x0436;&#x0435;&#x0432;&#x0414;&#x043c;&#x0438;&#x0442;&#x0440;&#x0438;&#x0439;</tspan><tspan y="-532.9201" x="181.3615 188.43703 193.20958 197.49214 201.84329 208.04663 212.51538 216.86653 221.49208 226.73503">&#x0410;&#x0440;&#x0442;&#x0435;&#x043c;&#x044c;&#x0435;&#x0432;&#x0438;&#x0447;</tspan></text>
<text fill="#231f20" xml:space="preserve" transform="matrix(1 0 -0 1 0 842)" font-size="7.8398" font-family="TimesNewRomanPSMT"><tspan y="-523.8131" x="181.3615 185.28218 189.47727 193.39717 197.31708">&#x0443;&#x043f;.90</tspan></text>
<text fill="#231f20" xml:space="preserve" transform="matrix(1 0 -0 1 0 842)" font-size="9.7999" font-family="TimesNewRomanPSMT"><tspan y="-552.5643" x="337.2977 344.37324 348.7244 353.62437 357.97554 362.3267 366.84153 371.1927 375.68986">&#x041f;&#x0435;&#x0440;&#x0430;&#x0441;&#x043a;&#x0435;&#x0432;&#x0430;</tspan><tspan y="-541.7109" x="337.2977 342.19767 347.09764 349.5476 354.44758 359.34754 361.79753 366.69749 374.04743 379.76078 384.66075 389.5607 392.01069 396.54804 401.448 403.89799 408.79795">20.10.88-01.11.88</tspan><tspan y="-516.29977" x="328.2916 335.36714 339.7183 344.12043 351.47038 356.37034 361.2703 363.72029 368.62025 373.5202 375.97019 380.87016 385.7701 389.03349 393.93345 398.8334 401.2834 406.18336 411.0833 413.5333 418.43327">&#x041f;&#x0435;&#x0442;&#x0440;27.06.80-22.01.81</tspan><tspan y="-454.6035" x="174.5488 181.23233 185.58348 190.20903 196.79456 201.7827 206.68265 211.17983 217.97997 221.24333 226.98607 232.22902 238.36573 242.71688 249.35826 253.70941 258.20658 262.5558">&#x0414;&#x0430;&#x0432;&#x044b;&#x0434;&#x043e;&#x0432;&#x0430;(&#x0422;&#x0438;&#x043c;&#x0430;&#x0436;&#x0435;&#x0432;&#x0430;)</tspan><tspan y="-443.7501" x="174.5488 181.23233 185.58348 190.48343 194.95218 201.91011 208.98564 213.75917 218.04174 222.39289 228.59622 233.06497 237.41613 242.04167 247.28462">&#x0414;&#x0430;&#x0440;&#x044c;&#x044f;&#x0410;&#x0440;&#x0442;&#x0435;&#x043c;&#x044c;&#x0435;&#x0432;&#x043d;&#x0430;</tspan><tspan y="-490.61616" x="178.72748 185.80301 191.04596 196.28891 200.64006 205.88301 212.84095 219.37747 223.72863 228.07978 233.32273 238.21288 242.68163 247.03278 251.65833 256.90129">&#x0410;&#x043d;&#x0438;&#x0441;&#x0438;&#x044f;&#x0412;&#x0430;&#x0441;&#x0438;&#x043b;&#x044c;&#x0435;&#x0432;&#x043d;&#x0430;</tspan><tspan y="-412.4257" x="180.44246 187.12599 191.47714 196.10269 202.68824 207.67638 212.57633">&#x0414;&#x0430;&#x0432;&#x044b;&#x0434;&#x043e;&#x0432;</tspan><tspan y="-401.5723" x="180.44246 186.43019 192.78054 198.02349 206.6768 213.75234 218.99529 224.23824 228.58939 233.83234 240.03568 244.93563 249.56118 254.80413">&#x0415;&#x0444;&#x0438;&#x043c;&#x0410;&#x043d;&#x0438;&#x0441;&#x0438;&#x043c;&#x043e;&#x0432;&#x0438;&#x0447;</tspan></text>
<text fill="#231f20" xml:space="preserve" transform="matrix(1.0001735 0 -0 .9998266 0 842)" font-size="9.8015999" font-family="TimesNewRomanPSMT"><tspan y="-430.72233" x="343.58653 350.24278 354.59468 360.79908 365.15098 372.84226 377.74305 382.64387 385.09428 389.99507 394.89585 397.34626 402.24705">&#x0421;&#x0435;&#x043c;&#x0435;&#x043d;17.07.87</tspan></text>
<text fill="#231f20" xml:space="preserve" transform="matrix(1 0 -0 1 0 842)" font-size="9.7999" font-family="TimesNewRomanPSMT"><tspan y="-621.1586" x="344.3962 351.47175 355.8229 360.3936 364.74476 372.0839 376.98387 381.88383 384.3338 389.23377 394.13374 396.5837 401.48368">&#x041f;&#x0430;&#x0432;&#x0435;&#x043b;12.01.90</tspan><tspan y="-586.04757" x="175.29599 182.37152 187.27147 191.62262 199.16855 204.4115 209.65445 213.92133 218.82128 223.31943 230.12056 236.10829 240.48885 245.47699 250.37694 255.1397 260.38264">&#x041e;&#x0440;&#x0435;&#x0448;&#x043d;&#x0438;&#x043a;&#x043e;&#x0432;&#x0430;&#x0415;&#x0432;&#x0434;&#x043e;&#x043a;&#x0438;&#x044f;</tspan><tspan y="-575.19418" x="175.29599 182.37152 186.72267 191.12479 196.02474 200.92469 205.55023 210.79319">&#x041f;&#x0435;&#x0442;&#x0440;&#x043e;&#x0432;&#x043d;&#x0430;</tspan></text>
<text fill="#231f20" xml:space="preserve" transform="matrix(1 0 -0 1 0 842)" font-size="7.8398" font-family="TimesNewRomanPSMT"><tspan y="-566.0872" x="175.2967 179.21662 183.4109 185.37085 189.29076">&#x0443;&#x043f;.90</tspan></text>
<text fill="#231f20" xml:space="preserve" transform="matrix(1 0 -0 1 0 842)" font-size="9.7999" font-family="TimesNewRomanPSMT"><tspan y="-311.0316" x="31.4585 38.142034 42.914587 47.804735 51.822694 56.72264 64.26856 69.511508">&#x0414;&#x043e;&#x043b;&#x0433;&#x0443;&#x0448;&#x0438;&#x043d;</tspan><tspan y="-300.1782" x="31.4585 37.44624 42.014955 46.483709 50.83486 58.527784 64.57628 69.47623 73.34719 77.81595 84.01929 89.26224">&#x0415;&#x0432;&#x0441;&#x0435;&#x0439;&#x041a;&#x043e;&#x0437;&#x044c;&#x043c;&#x0438;&#x0447;</tspan><tspan y="-289.3248" x="31.4585 36.35845 41.2584 46.158349 51.058298 54.321664 59.22161 64.12156 66.57153 71.47148 76.37143 78.8214 83.72135 88.6213 93.52125">1816-22.07.1886</tspan><tspan y="-226.28597" x="338.7667 345.45024 350.22279 355.1129 359.13087 364.03083 371.57676 376.8197 384.51264 391.58818 396.48814 401.3881 406.63105">&#x0414;&#x043e;&#x043b;&#x0433;&#x0443;&#x0448;&#x0438;&#x043d;&#x0410;&#x0440;&#x0445;&#x0438;&#x043f;</tspan><tspan y="-215.43257" x="338.7667 345.84223 350.1934 354.69154 359.58168 364.48164 369.10719 374.35014">&#x041f;&#x0430;&#x0432;&#x043b;&#x043e;&#x0432;&#x0438;&#x0447;</tspan><tspan y="-204.57918" x="344.06846 348.9684 338.7667">67~</tspan><tspan y="-640.78256" x="172.37419 179.01853 183.36968 188.35782 192.22878 197.47173 202.71468 209.51679 212.78015 218.52289 223.76584 229.90254 234.2537 240.89508 245.24623 249.74341 254.09456">&#x041b;&#x0430;&#x0431;&#x0437;&#x0438;&#x043d;&#x0430;(&#x0422;&#x0438;&#x043c;&#x0430;&#x0436;&#x0435;&#x0432;&#x0430;)</tspan><tspan y="-629.92916" x="172.37419 178.36193 182.97278 187.06914 191.3517 195.70285 200.6028 205.84575 211.0887 217.88983 224.96537 229.73889 234.02146 238.3726 244.57595 249.0447 253.39585 258.0214 263.26435">&#x0415;&#x043a;&#x0430;&#x0442;&#x0435;&#x0440;&#x0438;&#x043d;&#x0430;&#x0410;&#x0440;&#x0442;&#x0435;&#x043c;&#x044c;&#x0435;&#x0432;&#x043d;&#x0430;</tspan><tspan y="-619.07577" x="172.37419 177.67594 182.57588 187.47583 192.37578 199.72571 202.98908 209.6334 213.98456 217.85552 222.20667 227.10662 232.34957 237.27892 241.63007 246.12725 250.4784">~1860(&#x041b;&#x0430;&#x0437;&#x0430;&#x0440;&#x0438;&#x0447;&#x0435;&#x0432;&#x0430;)</tspan></text>
<text fill="#231f20" xml:space="preserve" transform="matrix(1 0 -0 1 0 842)" font-size="7.8398" font-family="TimesNewRomanPSMT"><tspan y="-609.9681" x="172.3738 176.2937 180.48799 184.40789 188.32779 192.2477 194.20764 198.12755 202.04746 204.0074 207.9273">&#x0443;&#x043f;.87,88,90</tspan></text>
<path transform="matrix(1,0,0,-1,258.331,225.14398)" stroke-width=".98" stroke-linecap="butt" stroke-miterlimit="22.926" stroke-linejoin="miter" fill="none" stroke="#231f20" d="M 0 0 L 3.911 0 "/>
<path transform="matrix(1,0,0,-1,258.331,233.09198)" stroke-width=".98" stroke-linecap="butt" stroke-miterlimit="22.926" stroke-linejoin="miter" fill="none" stroke="#231f20" d="M 0 0 L 3.911 0 "/>
<path transform="matrix(1,0,0,-1,262.242,229.11798)" stroke-width=".98" stroke-linecap="butt" stroke-miterlimit="22.926" stroke-linejoin="miter" fill="none" stroke="#231f20" d="M 0 0 L 3.911 0 "/>
<path transform="matrix(1,0,0,-1,262.242,225.14398)" stroke-width=".98" stroke-linecap="butt" stroke-miterlimit="22.926" stroke-linejoin="miter" fill="none" stroke="#231f20" d="M 0 0 L 0 -7.948 "/>
<path transform="matrix(1,0,0,-1,266.216,225.14398)" stroke-width=".98" stroke-linecap="butt" stroke-miterlimit="22.926" stroke-linejoin="miter" fill="none" stroke="#231f20" d="M 0 0 L 0 -7.948 "/>
<path transform="matrix(1,0,0,-1,266.279,225.14398)" stroke-width=".98" stroke-linecap="butt" stroke-miterlimit="22.926" stroke-linejoin="miter" fill="none" stroke="#231f20" d="M 0 0 L 3.911 0 "/>
<path transform="matrix(1,0,0,-1,266.279,233.09198)" stroke-width=".98" stroke-linecap="butt" stroke-miterlimit="22.926" stroke-linejoin="miter" fill="none" stroke="#231f20" d="M 0 0 L 3.911 0 "/>
<text fill="#231f20" xml:space="preserve" transform="matrix(1 0 -0 1 0 842)" font-size="9.7999" font-family="TimesNewRomanPSMT"><tspan y="-595.8812" x="336.0587 341.80143 347.04438 353.18107 357.53224 364.1736 368.52479 373.02195 379.8231 385.81083 390.19139 395.17955 400.0795 404.84226 410.0852">&#x0422;&#x0438;&#x043c;&#x0430;&#x0436;&#x0435;&#x0432;&#x0430;&#x0415;&#x0432;&#x0434;&#x043e;&#x043a;&#x0438;&#x044f;</tspan><tspan y="-585.02786" x="336.0587 342.74223 348.94557 354.1885 358.5916 363.49159 368.73454 373.0857 377.58384">&#x0414;&#x043c;&#x0438;&#x0442;&#x0440;&#x0438;&#x0435;&#x0432;&#x0430;</tspan></text>
<text fill="#231f20" xml:space="preserve" transform="matrix(1 0 -0 1 0 842)" font-size="7.8398" font-family="TimesNewRomanPSMT"><tspan y="-585.0276" x="384.3839 388.3046 392.49967 396.41957 400.33946">&#x0443;&#x043f;.90</tspan></text>
<text fill="#231f20" xml:space="preserve" transform="matrix(1 0 -0 1 0 842)" font-size="9.7999" font-family="TimesNewRomanPSMT"><tspan y="-268.5378" x="325.2859 331.69306 336.04423 343.59016 348.8331 354.07606 359.319 364.56196 371.367 374.63038 381.3139 386.08647 390.9766 394.99455 399.8945 407.44044 412.68339 417.92634 422.2775">&#x041a;&#x0430;&#x0448;&#x0438;&#x0446;&#x0438;&#x043d;&#x0430;(&#x0414;&#x043e;&#x043b;&#x0433;&#x0443;&#x0448;&#x0438;&#x043d;&#x0430;)</tspan><tspan y="-257.68443" x="325.2859 332.36143 337.26139 341.61256 345.8951 351.13807 356.381 363.18217 370.2577 374.60887 379.10997 384.0001 388.90007 393.5256 398.76856">&#x0418;&#x0443;&#x0441;&#x0442;&#x0438;&#x043d;&#x0430;&#x041f;&#x0430;&#x0432;&#x043b;&#x043e;&#x0432;&#x043d;&#x0430;</tspan><tspan y="-246.83103" x="325.2859 330.58766 335.4876">~70</tspan><tspan y="-212.13938" x="477.03245 483.71598 489.9193 495.16227 499.56538 504.46534 509.70829 517.40518 522.3051 527.2051 529.655 534.555 541.9049 547.6182 552.5182 557.41818 559.8681 564.76809 569.668 572.118 577.01797">&#x0414;&#x043c;&#x0438;&#x0442;&#x0440;&#x0438;&#x0439;05.90-04.08.90</tspan><tspan y="-310.99293" x="332.479 338.88618 343.23735 350.78327 356.0262 361.26918 366.51213">&#x041a;&#x0430;&#x0448;&#x0438;&#x0446;&#x0438;&#x043d;</tspan><tspan y="-300.13954" x="332.479 339.55455 344.44468 348.79585 353.3136 357.78236 362.1335 369.82646 376.90199 380.91993 386.16288 390.2651 394.54768 399.01643 403.36759 407.99314 413.23609">&#x0410;&#x043b;&#x0435;&#x043a;&#x0441;&#x0435;&#x0439;&#x0418;&#x0433;&#x043d;&#x0430;&#x0442;&#x044c;&#x0435;&#x0432;&#x0438;&#x0447;</tspan><tspan y="-289.28614" x="337.78077 342.68074 332.479">69~</tspan></text>
<text fill="#231f20" xml:space="preserve" transform="matrix(.00003061256 -1 1 .00003061256 0 842)" font-size="9.7999" font-family="TimesNewRomanPSMT"><tspan y="442.4229" x="267.54576 272.4457 277.34568">04.</tspan><tspan y="442.42289" x="279.79566">1</tspan><tspan y="442.4229" x="284.33204 289.232">1.</tspan><tspan y="442.42289" x="291.68199">9</tspan><tspan y="442.4229" x="296.58195">1</tspan></text>
<path transform="matrix(1,0,0,-1,163.536,62.36499)" stroke-width=".98" stroke-linecap="butt" stroke-miterlimit="22.926" stroke-linejoin="miter" fill="none" stroke="#231f20" d="M 0 0 L 112.896 0 L 112.896 -35.28 L 0 -35.28 Z "/>
<path transform="matrix(1,0,0,-1,163.536,104.70099)" stroke-width=".98" stroke-linecap="butt" stroke-miterlimit="22.926" stroke-linejoin="miter" fill="none" stroke="#231f20" d="M 0 0 L 112.896 0 L 112.896 -35.28 L 0 -35.28 Z "/>
<text fill="#231f20" xml:space="preserve" transform="matrix(1 0 -0 1 0 842)" font-size="9.7999" font-family="TimesNewRomanPSMT"><tspan y="-765.0675" x="170.3231 175.23285 179.584 185.78734 190.13849 194.39655 199.2965 203.79465 210.59479 213.85816 220.93369 225.83364 230.97858 235.44733 241.79767 247.04062 251.94057 257.1835 262.42646 266.77763">&#x0417;&#x0435;&#x043c;&#x0441;&#x043a;&#x043e;&#x0432;&#x0430;(&#x041f;&#x0440;&#x043e;&#x0441;&#x0444;&#x0438;&#x0440;&#x0438;&#x043d;&#x0430;)</tspan><tspan y="-754.2141" x="170.3231 176.31084 182.66118 187.90413 194.10747 199.35042 206.30835 213.38388 218.27404 222.74279 227.98574 233.22869">&#x0415;&#x0444;&#x0438;&#x043c;&#x0438;&#x044f;&#x0418;&#x043b;&#x044c;&#x0438;&#x043d;&#x0430;</tspan><tspan y="-722.73196" x="170.3231 175.23285 179.584 185.78734 190.13849 194.39655 199.2965">&#x0417;&#x0435;&#x043c;&#x0441;&#x043a;&#x043e;&#x0432;</tspan><tspan y="-711.87857" x="170.3231 177.39864 181.74979 186.32045 190.6716 198.01174 205.08727 209.97742 214.44617 219.68912">&#x041f;&#x0430;&#x0432;&#x0435;&#x043b;&#x0418;&#x043b;&#x044c;&#x0438;&#x043d;</tspan></text>
<path transform="matrix(1,0,0,-1,0,842)" stroke-width=".98" stroke-linecap="butt" stroke-miterlimit="22.926" stroke-linejoin="miter" fill="none" stroke="#231f20" d="M 163.536 694.963 L 276.432 694.963 L 276.432 659.683 L 163.536 659.683 Z "/>
<text fill="#231f20" xml:space="preserve" transform="matrix(1 0 -0 1 0 842)" font-size="9.7999" font-family="TimesNewRomanPSMT"><tspan y="-680.3955" x="170.3231 175.23285 179.584 185.78734 190.13849 194.39655 199.2965 203.79465 210.59479 213.85816 219.60089 224.84384 230.98055 235.3317 241.97309 246.32424 250.82141 255.17061">&#x0417;&#x0435;&#x043c;&#x0441;&#x043a;&#x043e;&#x0432;&#x0430;(&#x0422;&#x0438;&#x043c;&#x0430;&#x0436;&#x0435;&#x0432;&#x0430;)</tspan><tspan y="-669.5421" x="170.3231 177.39864 182.64159 187.88454 194.68567 201.7612 206.53768 210.82024 215.28899 219.64014 225.84348 230.31223 234.66338 239.28893 244.53188">&#x0410;&#x043d;&#x043d;&#x0430;&#x0410;&#x0440;&#x0442;&#x044c;&#x0435;&#x043c;&#x044c;&#x0435;&#x0432;&#x043d;&#x0430;</tspan></text>
<path transform="matrix(1,0,0,-1,290.543,119.86902)" stroke-width=".98" stroke-linecap="butt" stroke-miterlimit="22.926" stroke-linejoin="miter" fill="none" stroke="#231f20" d="M 0 0 L 0 -42.336 "/>
<path transform="matrix(1,0,0,-1,276.431,119.86902)" stroke-width=".98" stroke-linecap="butt" stroke-miterlimit="22.926" stroke-linejoin="miter" fill="none" stroke="#231f20" d="M 0 0 L 14.112 0 "/>
<path transform="matrix(1,0,0,-1,276.431,162.20502)" stroke-width=".98" stroke-linecap="butt" stroke-miterlimit="22.926" stroke-linejoin="miter" fill="none" stroke="#231f20" d="M 0 0 L 14.112 0 "/>
<path transform="matrix(1,0,0,-1,149.423,77.53302)" stroke-width=".98" stroke-linecap="butt" stroke-miterlimit="22.926" stroke-linejoin="miter" fill="none" stroke="#231f20" d="M 0 0 L 14.112 0 "/>
<path transform="matrix(1,0,0,-1,149.423,119.86902)" stroke-width=".98" stroke-linecap="butt" stroke-miterlimit="22.926" stroke-linejoin="miter" fill="none" stroke="#231f20" d="M 0 0 L 14.112 0 "/>
<path transform="matrix(1,0,0,-1,149.423,77.53302)" stroke-width=".98" stroke-linecap="butt" stroke-miterlimit="22.926" stroke-linejoin="miter" fill="none" stroke="#231f20" d="M 0 0 L 0 -42.336 "/>
<path transform="matrix(1,0,0,-1,163.535,189.37302)" stroke-width=".98" stroke-linecap="butt" stroke-miterlimit="22.926" stroke-linejoin="miter" fill="none" stroke="#231f20" d="M 0 0 L 112.896 0 L 112.896 -49.392 L 0 -49.392 Z "/>
<path transform="matrix(1,0,0,-1,149.423,169.26102)" stroke-width=".98" stroke-linecap="butt" stroke-miterlimit="22.926" stroke-linejoin="miter" fill="none" stroke="#231f20" d="M 0 0 L 14.112 0 "/>
<path transform="matrix(1,0,0,-1,149.423,211.59702)" stroke-width=".98" stroke-linecap="butt" stroke-miterlimit="22.926" stroke-linejoin="miter" fill="none" stroke="#231f20" d="M 0 0 L 14.112 0 "/>
<path transform="matrix(1,0,0,-1,149.423,169.26102)" stroke-width=".98" stroke-linecap="butt" stroke-miterlimit="22.926" stroke-linejoin="miter" fill="none" stroke="#231f20" d="M 0 0 L 0 -218.736 "/>
<path transform="matrix(1,0,0,-1,163.535,245.82102)" stroke-width=".98" stroke-linecap="butt" stroke-miterlimit="22.926" stroke-linejoin="miter" fill="none" stroke="#231f20" d="M 0 0 L 112.896 0 L 112.896 -35.28 L 0 -35.28 Z "/>
<path transform="matrix(1,0,0,-1,163.535,288.157)" stroke-width=".98" stroke-linecap="butt" stroke-miterlimit="22.926" stroke-linejoin="miter" fill="none" stroke="#231f20" d="M 0 0 L 112.896 0 L 112.896 -35.28 L 0 -35.28 Z "/>
<path transform="matrix(1,0,0,-1,290.543,260.989)" stroke-width=".98" stroke-linecap="butt" stroke-miterlimit="22.926" stroke-linejoin="miter" fill="none" stroke="#231f20" d="M 0 0 L 0 -84.672 "/>
<path transform="matrix(1,0,0,-1,276.431,260.989)" stroke-width=".98" stroke-linecap="butt" stroke-miterlimit="22.926" stroke-linejoin="miter" fill="none" stroke="#231f20" d="M 0 0 L 14.112 0 "/>
<path transform="matrix(1,0,0,-1,276.431,303.325)" stroke-width=".98" stroke-linecap="butt" stroke-miterlimit="22.926" stroke-linejoin="miter" fill="none" stroke="#231f20" d="M 0 0 L 14.112 0 "/>
<path transform="matrix(1,0,0,-1,163.535,330.493)" stroke-width=".98" stroke-linecap="butt" stroke-miterlimit="22.926" stroke-linejoin="miter" fill="none" stroke="#231f20" d="M 0 0 L 112.896 0 L 112.896 -35.28 L 0 -35.28 Z "/>
<path transform="matrix(1,0,0,-1,276.431,345.661)" stroke-width=".98" stroke-linecap="butt" stroke-miterlimit="22.926" stroke-linejoin="miter" fill="none" stroke="#231f20" d="M 0 0 L 14.112 0 "/>
<path transform="matrix(1,0,0,-1,304.655,324.493)" stroke-width=".98" stroke-linecap="butt" stroke-miterlimit="22.926" stroke-linejoin="miter" fill="none" stroke="#231f20" d="M 0 0 L 14.112 0 "/>
<path transform="matrix(1,0,0,-1,290.543,324.493)" stroke-width=".98" stroke-linecap="butt" stroke-miterlimit="22.926" stroke-linejoin="miter" fill="none" stroke="#231f20" d="M 0 0 L 14.112 0 "/>
<path transform="matrix(1,0,0,-1,318.767,316.381)" stroke-width=".98" stroke-linecap="butt" stroke-miterlimit="22.926" stroke-linejoin="miter" fill="none" stroke="#231f20" d="M 0 0 L 112.896 0 L 112.896 -14.112 L 0 -14.112 Z "/>
<path transform="matrix(1,0,0,-1,318.767,274.045)" stroke-width=".98" stroke-linecap="butt" stroke-miterlimit="22.926" stroke-linejoin="miter" fill="none" stroke="#231f20" d="M 0 0 L 112.896 0 L 112.896 -35.28 L 0 -35.28 Z "/>
<path transform="matrix(1,0,0,-1,304.655,289.213)" stroke-width=".98" stroke-linecap="butt" stroke-miterlimit="22.926" stroke-linejoin="miter" fill="none" stroke="#231f20" d="M 0 0 L 14.112 0 "/>
<path transform="matrix(1,0,0,-1,304.655,253.93302)" stroke-width=".98" stroke-linecap="butt" stroke-miterlimit="22.926" stroke-linejoin="miter" fill="none" stroke="#231f20" d="M 0 0 L 14.112 0 "/>
<path transform="matrix(1,0,0,-1,318.767,231.70902)" stroke-width=".98" stroke-linecap="butt" stroke-miterlimit="22.926" stroke-linejoin="miter" fill="none" stroke="#231f20" d="M 0 0 L 112.896 0 L 112.896 -35.28 L 0 -35.28 Z "/>
<path transform="matrix(1,0,0,-1,318.767,210.54102)" stroke-width=".98" stroke-linecap="butt" stroke-miterlimit="22.926" stroke-linejoin="miter" fill="none" stroke="#231f20" d="M 0 0 L 112.896 0 L 112.896 -14.112 L 0 -14.112 Z "/>
<path transform="matrix(1,0,0,-1,304.655,218.65302)" stroke-width=".98" stroke-linecap="butt" stroke-miterlimit="22.926" stroke-linejoin="miter" fill="none" stroke="#231f20" d="M 0 0 L 14.112 0 "/>
<path transform="matrix(1,0,0,-1,304.655,218.65302)" stroke-width=".98" stroke-linecap="butt" stroke-miterlimit="22.926" stroke-linejoin="miter" fill="none" stroke="#231f20" d="M 0 0 L 0 -70.56 "/>
<path transform="matrix(1,0,0,-1,290.543,275.101)" stroke-width=".98" stroke-linecap="butt" stroke-miterlimit="22.926" stroke-linejoin="miter" fill="none" stroke="#231f20" d="M 0 0 L 14.112 0 "/>
<path transform="matrix(1,0,0,-1,149.423,303.325)" stroke-width=".98" stroke-linecap="butt" stroke-miterlimit="22.926" stroke-linejoin="miter" fill="none" stroke="#231f20" d="M 0 0 L 14.112 0 "/>
<path transform="matrix(1,0,0,-1,163.535,20.029999)" stroke-width=".98" stroke-linecap="butt" stroke-miterlimit="22.926" stroke-linejoin="miter" fill="none" stroke="#231f20" d="M 0 0 L 112.896 0 L 112.896 -35.28 L 0 -35.28 Z "/>
<text fill="#231f20" xml:space="preserve" transform="matrix(1 0 -0 1 0 842)" font-size="9.7999" font-family="TimesNewRomanPSMT"><tspan y="-807.4034" x="170.3231 177.39864 182.29859 187.44353 191.91228 198.26262 203.50557 208.40552 213.64847">&#x041f;&#x0440;&#x043e;&#x0441;&#x0444;&#x0438;&#x0440;&#x0438;&#x043d;</tspan><tspan y="-796.55" x="170.3231 176.31084 180.87955 185.3483 189.69945 197.39238 203.80054 208.0831 212.43425 217.6772 222.02835 227.2713 232.17125 236.7968 242.03975">&#x0415;&#x0432;&#x0441;&#x0435;&#x0439;&#x0421;&#x0442;&#x0435;&#x043f;&#x0430;&#x043d;&#x043e;&#x0432;&#x0438;&#x0447;</tspan></text>
<path transform="matrix(1,0,0,-1,290.543,35.19702)" stroke-width=".98" stroke-linecap="butt" stroke-miterlimit="22.926" stroke-linejoin="miter" fill="none" stroke="#231f20" d="M 0 0 L 0 -42.336 "/>
<path transform="matrix(1,0,0,-1,276.431,35.19702)" stroke-width=".98" stroke-linecap="butt" stroke-miterlimit="22.926" stroke-linejoin="miter" fill="none" stroke="#231f20" d="M 0 0 L 14.112 0 "/>
<path transform="matrix(1,0,0,-1,276.431,77.53302)" stroke-width=".98" stroke-linecap="butt" stroke-miterlimit="22.926" stroke-linejoin="miter" fill="none" stroke="#231f20" d="M 0 0 L 14.112 0 "/>
<text fill="#231f20" xml:space="preserve" transform="matrix(1 0 -0 1 0 842)" font-size="9.7999" font-family="TimesNewRomanPSMT"><tspan y="-790.5024" x="344.3962 351.47175 355.97187 360.32304 368.01597 372.91593 377.8159 380.26588 385.16584 390.0658 392.51579 397.41575">&#x0418;&#x0432;&#x0430;&#x043d;28.08.84</tspan></text>
<path transform="matrix(1,0,0,-1,318.767,41.19702)" stroke-width=".98" stroke-linecap="butt" stroke-miterlimit="22.926" stroke-linejoin="miter" fill="none" stroke="#231f20" d="M 0 0 L 112.896 0 L 112.896 -14.112 L 0 -14.112 Z "/>
<path transform="matrix(1,0,0,-1,304.655,49.30902)" stroke-width=".98" stroke-linecap="butt" stroke-miterlimit="22.926" stroke-linejoin="miter" fill="none" stroke="#231f20" d="M 0 0 L 14.112 0 "/>
<path transform="matrix(1,0,0,-1,290.543,49.30902)" stroke-width=".98" stroke-linecap="butt" stroke-miterlimit="22.926" stroke-linejoin="miter" fill="none" stroke="#231f20" d="M 0 0 L 14.112 0 "/>
<text fill="#231f20" xml:space="preserve" transform="matrix(1 0 -0 1 0 842)" font-size="9.7999" font-family="TimesNewRomanPSMT"><tspan y="-705.8304" x="344.3962 353.1083 357.45948 362.35945 367.6024 374.5623 379.46226 384.3622 386.8122 391.71217 396.61213 399.0621 403.96208">&#x041c;&#x0430;&#x0440;&#x0438;&#x044f;21.07.84</tspan></text>
<path transform="matrix(1,0,0,-1,318.767,125.86902)" stroke-width=".98" stroke-linecap="butt" stroke-miterlimit="22.926" stroke-linejoin="miter" fill="none" stroke="#231f20" d="M 0 0 L 112.896 0 L 112.896 -14.112 L 0 -14.112 Z "/>
<path transform="matrix(1,0,0,-1,304.655,133.98102)" stroke-width=".98" stroke-linecap="butt" stroke-miterlimit="22.926" stroke-linejoin="miter" fill="none" stroke="#231f20" d="M 0 0 L 14.112 0 "/>
<text fill="#231f20" xml:space="preserve" transform="matrix(1 0 -0 1 0 842)" font-size="9.7999" font-family="TimesNewRomanPSMT"><tspan y="-684.6625" x="344.3962 351.47175 355.97187 360.32304 368.01597 372.91593 377.8159 380.26588 385.16584 390.0658 392.51579 397.41575">&#x0418;&#x0432;&#x0430;&#x043d;06.01.87</tspan></text>
<path transform="matrix(1,0,0,-1,318.767,147.03699)" stroke-width=".98" stroke-linecap="butt" stroke-miterlimit="22.926" stroke-linejoin="miter" fill="none" stroke="#231f20" d="M 0 0 L 112.896 0 L 112.896 -14.112 L 0 -14.112 Z "/>
<path transform="matrix(1,0,0,-1,304.655,155.14899)" stroke-width=".98" stroke-linecap="butt" stroke-miterlimit="22.926" stroke-linejoin="miter" fill="none" stroke="#231f20" d="M 0 0 L 14.112 0 "/>
<path transform="matrix(1,0,0,-1,290.543,141.03699)" stroke-width=".98" stroke-linecap="butt" stroke-miterlimit="22.926" stroke-linejoin="miter" fill="none" stroke="#231f20" d="M 0 0 L 14.112 0 "/>
<path transform="matrix(1,0,0,-1,304.655,133.98099)" stroke-width=".98" stroke-linecap="butt" stroke-miterlimit="22.926" stroke-linejoin="miter" fill="none" stroke="#231f20" d="M 0 0 L 0 -21.168 "/>
<path transform="matrix(1,0,0,-1,163.535,372.82899)" stroke-width=".98" stroke-linecap="butt" stroke-miterlimit="22.926" stroke-linejoin="miter" fill="none" stroke="#231f20" d="M 0 0 L 112.896 0 L 112.896 -35.28 L 0 -35.28 Z "/>
<path transform="matrix(1,0,0,-1,149.423,387.99699)" stroke-width=".98" stroke-linecap="butt" stroke-miterlimit="22.926" stroke-linejoin="miter" fill="none" stroke="#231f20" d="M 0 0 L 14.112 0 "/>
<path transform="matrix(1,0,0,-1,163.535,415.16499)" stroke-width=".98" stroke-linecap="butt" stroke-miterlimit="22.926" stroke-linejoin="miter" fill="none" stroke="#231f20" d="M 0 0 L 112.896 0 L 112.896 -35.28 L 0 -35.28 Z "/>
<path transform="matrix(1,0,0,-1,276.431,387.99699)" stroke-width=".98" stroke-linecap="butt" stroke-miterlimit="22.926" stroke-linejoin="miter" fill="none" stroke="#231f20" d="M 0 0 L 14.112 0 "/>
<path transform="matrix(1,0,0,-1,276.431,430.33299)" stroke-width=".98" stroke-linecap="butt" stroke-miterlimit="22.926" stroke-linejoin="miter" fill="none" stroke="#231f20" d="M 0 0 L 14.112 0 "/>
<path transform="matrix(1,0,0,-1,290.543,387.99699)" stroke-width=".98" stroke-linecap="butt" stroke-miterlimit="22.926" stroke-linejoin="miter" fill="none" stroke="#231f20" d="M 0 0 L 0 -42.336 "/>
<path transform="matrix(1,0,0,-1,318.767,401.05299)" stroke-width=".98" stroke-linecap="butt" stroke-miterlimit="22.926" stroke-linejoin="miter" fill="none" stroke="#231f20" d="M 0 0 L 112.896 0 L 112.896 -14.112 L 0 -14.112 Z "/>
<path transform="matrix(1,0,0,-1,304.655,409.16499)" stroke-width=".98" stroke-linecap="butt" stroke-miterlimit="22.926" stroke-linejoin="miter" fill="none" stroke="#231f20" d="M 0 0 L 14.112 0 "/>
<path transform="matrix(1,0,0,-1,290.543,409.16499)" stroke-width=".98" stroke-linecap="butt" stroke-miterlimit="22.926" stroke-linejoin="miter" fill="none" stroke="#231f20" d="M 0 0 L 14.112 0 "/>
<path transform="matrix(1,0,0,-1,22.415986,259.93397)" stroke-width=".98" stroke-linecap="butt" stroke-miterlimit="22.926" stroke-linejoin="miter" fill="none" stroke="#231f20" d="M 0 0 L 112.896 0 L 112.896 -49.392 L 0 -49.392 Z "/>
<path transform="matrix(1,0,0,-1,22.415986,217.59796)" stroke-width=".98" stroke-linecap="butt" stroke-miterlimit="22.926" stroke-linejoin="miter" fill="none" stroke="#231f20" d="M 0 0 L 112.896 0 L 112.896 -35.28 L 0 -35.28 Z "/>
<path transform="matrix(1,0,0,-1,8.303985,239.82196)" stroke-width=".98" stroke-linecap="butt" stroke-miterlimit="22.926" stroke-linejoin="miter" fill="none" stroke="#231f20" d="M 0 0 L 14.112 0 "/>
<path transform="matrix(1,0,0,-1,8.303985,282.15797)" stroke-width=".98" stroke-linecap="butt" stroke-miterlimit="22.926" stroke-linejoin="miter" fill="none" stroke="#231f20" d="M 0 0 L 14.112 0 "/>
<path transform="matrix(1,0,0,-1,8.303985,239.82196)" stroke-width=".98" stroke-linecap="butt" stroke-miterlimit="22.926" stroke-linejoin="miter" fill="none" stroke="#231f20" d="M 0 0 L 0 -42.336 "/>
<path transform="matrix(1,0,0,-1,135.31198,282.15797)" stroke-width=".98" stroke-linecap="butt" stroke-miterlimit="22.926" stroke-linejoin="miter" fill="none" stroke="#231f20" d="M 0 0 L 14.112 0 "/>
<text fill="#231f20" xml:space="preserve" transform="matrix(1 0 -0 1 0 842)" font-size="9.7999" font-family="TimesNewRomanPSMT"><tspan y="-564.9529" x="33.1903 38.93304 44.17599 50.31269 54.66385 61.30524 65.656398">&#x0422;&#x0438;&#x043c;&#x0430;&#x0436;&#x0435;&#x0432;</tspan><tspan y="-554.0995" x="33.1903 40.265829 45.03838 49.32094 53.672094 59.875429 65.11838 72.8113 78.55502 83.79797 90.00131 94.90126 101.251598 105.60275 109.95391 114.57947 119.82242">&#x0410;&#x0440;&#x0442;&#x0435;&#x043c;&#x0438;&#x0439;&#x0422;&#x0438;&#x043c;&#x043e;&#x0444;&#x0435;&#x0435;&#x0432;&#x0438;&#x0447;</tspan></text>
<text fill="#231f20" xml:space="preserve" transform="matrix(1 0 -0 1 0 842)" font-size="7.8398" font-family="TimesNewRomanPSMT"><tspan y="-544.9925" x="33.1903 37.110986 41.30606">&#x0443;&#x043f;.</tspan></text>
<text fill="#231f20" xml:space="preserve" transform="matrix(1 0 -0 1 0 842)" font-size="9.7999" font-family="TimesNewRomanPSMT"><tspan y="-614.3448" x="33.1903 38.93304 44.17599 50.31269 54.66385 61.30524 65.656398">&#x0422;&#x0438;&#x043c;&#x0430;&#x0436;&#x0435;&#x0432;</tspan><tspan y="-603.4914" x="33.1903 40.93222 45.153036 50.141183 54.91079 61.64332 67.38606 72.62901 78.83235 83.7323 90.082637 94.43379 98.78495 103.41051 108.65346">&#x0424;&#x0435;&#x0434;&#x043e;&#x0442;&#x0422;&#x0438;&#x043c;&#x043e;&#x0444;&#x0435;&#x0435;&#x0432;&#x0438;&#x0447;</tspan></text>
<text fill="#231f20" xml:space="preserve" transform="matrix(1 0 -0 1 0 842)" font-size="7.8398" font-family="TimesNewRomanPSMT"><tspan y="-594.3844" x="33.1903 37.110986 41.30606">&#x0443;&#x043f;.</tspan></text>
<path transform="matrix(1,0,0,-1,0,842)" stroke-width=".98" stroke-linecap="butt" stroke-miterlimit="22.926" stroke-linejoin="miter" fill="none" stroke="#231f20" d="M 8.304 320.996 L 121.200008 320.996 L 121.200008 285.716 L 8.304 285.716 Z "/>
<text fill="#231f20" xml:space="preserve" transform="matrix(1 0 -0 1 0 842)" font-size="9.7999" font-family="TimesNewRomanPSMT"><tspan y="-310.9371" x="189.0184 195.70194 200.47449 205.36464 209.3826 214.28255 221.82848 227.07143">&#x0414;&#x043e;&#x043b;&#x0433;&#x0443;&#x0448;&#x0438;&#x043d;</tspan><tspan y="-300.0837" x="189.0184 196.09394 200.59404 204.94519 212.63813 218.62586 223.19457 227.66332 232.01447 236.36562 240.99117 246.23412">&#x0418;&#x0432;&#x0430;&#x043d;&#x0415;&#x0432;&#x0441;&#x0435;&#x0435;&#x0432;&#x0438;&#x0447;</tspan></text>
<text fill="#231f20" xml:space="preserve" transform="matrix(1 0 -0 1 0 842)" font-size="7.8398" font-family="TimesNewRomanPSMT"><tspan y="-290.9767" x="189.0184 192.93909 197.13417 201.05408 204.97399">&#x0443;&#x043f;.86</tspan></text>
<path transform="matrix(1,0,0,-1,0,842)" stroke-width=".98" stroke-linecap="butt" stroke-miterlimit="22.926" stroke-linejoin="miter" fill="none" stroke="#231f20" d="M 163.536 320.996 L 276.432 320.996 L 276.432 285.716 L 163.536 285.716 Z "/>
<text fill="#231f20" xml:space="preserve" transform="matrix(1 0 -0 1 0 842)" font-size="9.7999" font-family="TimesNewRomanPSMT"><tspan y="-262.9528" x="175.4814 182.16493 186.93749 191.82764 195.8456 200.74555 208.29148 213.53443 221.23323 224.4966 230.109 234.46015 239.36009 243.57895 248.4789 253.72185 258.96479">&#x0414;&#x043e;&#x043b;&#x0433;&#x0443;&#x0448;&#x0438;&#x043d;(&#x0422;&#x0435;&#x0440;&#x0435;&#x0445;&#x0438;&#x043d;)</tspan><tspan y="-252.0994" x="175.4814 182.55693 186.90808 191.47875 195.8299 203.17003 209.15776 213.72452 218.19327 222.54442 226.89557 231.52112 236.76407">&#x041f;&#x0430;&#x0432;&#x0435;&#x043b;&#x0415;&#x0432;&#x0441;&#x0435;&#x0435;&#x0432;&#x0438;&#x0447;</tspan></text>
<path transform="matrix(1,0,0,-1,0,842)" stroke-width=".98" stroke-linecap="butt" stroke-miterlimit="22.926" stroke-linejoin="miter" fill="none" stroke="#231f20" d="M 163.536 278.66 L 276.432 278.66 L 276.432 243.38 L 163.536 243.38 Z "/>
<text fill="#231f20" xml:space="preserve" transform="matrix(1 0 -0 1 0 842)" font-size="9.7999" font-family="TimesNewRomanPSMT"><tspan y="-264.2495" x="40.1035 46.787034 51.55958 56.44973 60.46769 65.36764 72.91356 78.15651 83.39946">&#x0414;&#x043e;&#x043b;&#x0433;&#x0443;&#x0448;&#x0438;&#x043d;&#x0430;</tspan><tspan y="-253.39612" x="40.1035 43.366868 47.71802 53.330427 57.68158 62.581529 66.800388 71.70033 76.94328 82.18623 86.53739">(?&#x0422;&#x0435;&#x0440;&#x0435;&#x0445;&#x0438;&#x043d;&#x0430;)</tspan></text>
<path transform="matrix(1,0,0,-1,8.304,563.33999)" stroke-width=".98" stroke-linecap="butt" stroke-miterlimit="22.926" stroke-linejoin="miter" fill="none" stroke="#231f20" d="M 0 0 L 112.896 0 L 112.896 -35.28 L 0 -35.28 Z "/>
<path transform="matrix(1,0,0,-1,149.424,536.172)" stroke-width=".98" stroke-linecap="butt" stroke-miterlimit="22.926" stroke-linejoin="miter" fill="none" stroke="#231f20" d="M 0 0 L 14.112 0 "/>
<path transform="matrix(1,0,0,-1,149.424,578.508)" stroke-width=".98" stroke-linecap="butt" stroke-miterlimit="22.926" stroke-linejoin="miter" fill="none" stroke="#231f20" d="M 0 0 L 14.112 0 "/>
<path transform="matrix(1,0,0,-1,121.2,536.172)" stroke-width=".98" stroke-linecap="butt" stroke-miterlimit="22.926" stroke-linejoin="miter" fill="none" stroke="#231f20" d="M 0 0 L 14.112 0 "/>
<path transform="matrix(1,0,0,-1,121.2,578.508)" stroke-width=".98" stroke-linecap="butt" stroke-miterlimit="22.926" stroke-linejoin="miter" fill="none" stroke="#231f20" d="M 0 0 L 14.112 0 "/>
<path transform="matrix(1,0,0,-1,135.312,536.172)" stroke-width=".98" stroke-linecap="butt" stroke-miterlimit="22.926" stroke-linejoin="miter" fill="none" stroke="#231f20" d="M 0 0 L 0 -42.336 "/>
<path transform="matrix(1,0,0,-1,149.424,536.172)" stroke-width=".98" stroke-linecap="butt" stroke-miterlimit="22.926" stroke-linejoin="miter" fill="none" stroke="#231f20" d="M 0 0 L 0 -42.336 "/>
<path transform="matrix(1,0,0,-1,135.312,557.33999)" stroke-width=".98" stroke-linecap="butt" stroke-miterlimit="22.926" stroke-linejoin="miter" fill="none" stroke="#231f20" d="M 0 0 L 14.112 0 "/>
<text fill="#231f20" xml:space="preserve" transform="matrix(1 0 -0 1 0 842)" font-size="9.7999" font-family="TimesNewRomanPSMT"><tspan y="-220.6168" x="175.4814 182.16493 186.93749 191.82764 195.8456 200.74555 208.29148 213.53443 218.77738 225.58242 228.84578 234.09558 238.99553 244.23848 248.58963 252.94078 257.43797 261.78913">&#x0414;&#x043e;&#x043b;&#x0433;&#x0443;&#x0448;&#x0438;&#x043d;&#x0430;(&#x0422;&#x043e;&#x043d;&#x0435;&#x0435;&#x0432;&#x0430;)</tspan><tspan y="-209.76342" x="175.4814 181.46913 185.85164 190.83979 195.73973 200.50249 205.74544 212.70337 220.4453 225.68825 230.5784 235.82135 241.0643 245.96425 250.5898 255.83275">&#x0415;&#x0432;&#x0434;&#x043e;&#x043a;&#x0438;&#x044f;&#x0424;&#x0438;&#x043b;&#x0438;&#x043f;&#x043e;&#x0432;&#x043d;&#x0430;</tspan></text>
<path transform="matrix(1,0,0,-1,304.655,578.508)" stroke-width=".98" stroke-linecap="butt" stroke-miterlimit="22.926" stroke-linejoin="miter" fill="none" stroke="#231f20" d="M 0 0 L 14.112 0 "/>
<path transform="matrix(1,0,0,-1,304.655,620.844)" stroke-width=".98" stroke-linecap="butt" stroke-miterlimit="22.926" stroke-linejoin="miter" fill="none" stroke="#231f20" d="M 0 0 L 14.112 0 "/>
<path transform="matrix(1,0,0,-1,276.431,578.508)" stroke-width=".98" stroke-linecap="butt" stroke-miterlimit="22.926" stroke-linejoin="miter" fill="none" stroke="#231f20" d="M 0 0 L 14.112 0 "/>
<path transform="matrix(1,0,0,-1,276.431,620.844)" stroke-width=".98" stroke-linecap="butt" stroke-miterlimit="22.926" stroke-linejoin="miter" fill="none" stroke="#231f20" d="M 0 0 L 14.112 0 "/>
<path transform="matrix(1,0,0,-1,290.543,578.508)" stroke-width=".98" stroke-linecap="butt" stroke-miterlimit="22.926" stroke-linejoin="miter" fill="none" stroke="#231f20" d="M 0 0 L 0 -42.336 "/>
<path transform="matrix(1,0,0,-1,304.655,578.508)" stroke-width=".98" stroke-linecap="butt" stroke-miterlimit="22.926" stroke-linejoin="miter" fill="none" stroke="#231f20" d="M 0 0 L 0 -141.12 "/>
<path transform="matrix(1,0,0,-1,290.543,599.676)" stroke-width=".98" stroke-linecap="butt" stroke-miterlimit="22.926" stroke-linejoin="miter" fill="none" stroke="#231f20" d="M 0 0 L 14.112 0 "/>
<path transform="matrix(1,0,0,-1,318.767,563.34)" stroke-width=".98" stroke-linecap="butt" stroke-miterlimit="22.926" stroke-linejoin="miter" fill="none" stroke="#231f20" d="M 0 0 L 112.896 0 L 112.896 -35.28 L 0 -35.28 Z "/>
<path transform="matrix(1,0,0,-1,318.767,521.004)" stroke-width=".98" stroke-linecap="butt" stroke-miterlimit="22.926" stroke-linejoin="miter" fill="none" stroke="#231f20" d="M 0 0 L 112.896 0 L 112.896 -35.28 L 0 -35.28 Z "/>
<path transform="matrix(1,0,0,-1,431.663,536.17208)" stroke-width=".98" stroke-linecap="butt" stroke-miterlimit="22.926" stroke-linejoin="miter" fill="none" stroke="#231f20" d="M 0 0 L 14.112 0 "/>
<path transform="matrix(1,0,0,-1,431.663,578.50808)" stroke-width=".98" stroke-linecap="butt" stroke-miterlimit="22.926" stroke-linejoin="miter" fill="none" stroke="#231f20" d="M 0 0 L 14.112 0 "/>
<path transform="matrix(1,0,0,-1,445.775,536.17208)" stroke-width=".98" stroke-linecap="butt" stroke-miterlimit="22.926" stroke-linejoin="miter" fill="none" stroke="#231f20" d="M 0 0 L 0 -42.336 "/>
<path transform="matrix(1,0,0,-1,318.767,605.676)" stroke-width=".98" stroke-linecap="butt" stroke-miterlimit="22.926" stroke-linejoin="miter" fill="none" stroke="#231f20" d="M 0 0 L 112.896 0 L 112.896 -35.28 L 0 -35.28 Z "/>
<path transform="matrix(1,0,0,-1,473.999,619.788)" stroke-width=".98" stroke-linecap="butt" stroke-miterlimit="22.926" stroke-linejoin="miter" fill="none" stroke="#231f20" d="M 0 0 L 112.896 0 L 112.896 -14.112 L 0 -14.112 Z "/>
<path transform="matrix(1,0,0,-1,431.663,620.84408)" stroke-width=".98" stroke-linecap="butt" stroke-miterlimit="22.926" stroke-linejoin="miter" fill="none" stroke="#231f20" d="M 0 0 L 14.112 0 "/>
<path transform="matrix(1,0,0,-1,445.775,642.0121)" stroke-width=".98" stroke-linecap="butt" stroke-miterlimit="22.926" stroke-linejoin="miter" fill="none" stroke="#231f20" d="M 0 0 L 14.112 0 "/>
<path transform="matrix(1,0,0,-1,459.887,627.9001)" stroke-width=".98" stroke-linecap="butt" stroke-miterlimit="22.926" stroke-linejoin="miter" fill="none" stroke="#231f20" d="M 0 0 L 14.112 0 "/>
<path transform="matrix(1,0,0,-1,318.767,648.0121)" stroke-width=".98" stroke-linecap="butt" stroke-miterlimit="22.926" stroke-linejoin="miter" fill="none" stroke="#231f20" d="M 0 0 L 112.896 0 L 112.896 -35.28 L 0 -35.28 Z "/>
<text fill="#231f20" xml:space="preserve" transform="matrix(1 0 -0 1 0 842)" font-size="9.7999" font-family="TimesNewRomanPSMT"><tspan y="-183.799" x="329.3628 336.04634 340.81889 345.709 349.72697 354.62693 362.17286 367.4158 372.65876 379.4638 382.72718 388.77568 393.54627 398.4364 403.36576 408.6087 413.85166 418.20283">&#x0414;&#x043e;&#x043b;&#x0433;&#x0443;&#x0448;&#x0438;&#x043d;&#x0430;(&#x041a;&#x043e;&#x043b;&#x0447;&#x0438;&#x043d;&#x0430;)</tspan><tspan y="-172.9456" x="329.3628 338.0749 342.17323 346.57438 351.47434 355.8255 361.06846 367.8696 373.31834 378.56129 382.43226 386.78343 392.02638 396.92634 401.55189 406.79484">&#x041c;&#x0430;&#x0442;&#x0440;&#x0435;&#x043d;&#x0430;&#x0420;&#x0438;&#x0437;&#x0430;&#x043d;&#x043e;&#x0432;&#x043d;&#x0430;</tspan><tspan y="-162.09221" x="329.3628">~</tspan><tspan y="-190.97153" x="477.03163 483.56816 487.9193 492.27049 497.51344 502.40357 507.6465 515.3424 520.2424 525.14236 527.5923 532.49227 537.3922 539.84219 544.7421">&#x0412;&#x0430;&#x0441;&#x0438;&#x043b;&#x0438;&#x0439;01.03.86</tspan></text>
<path transform="matrix(1,0,0,-1,473.999,640.956)" stroke-width=".98" stroke-linecap="butt" stroke-miterlimit="22.926" stroke-linejoin="miter" fill="none" stroke="#231f20" d="M 0 0 L 112.896 0 L 112.896 -14.112 L 0 -14.112 Z "/>
<path transform="matrix(1,0,0,-1,459.887,649.068)" stroke-width=".98" stroke-linecap="butt" stroke-miterlimit="22.926" stroke-linejoin="miter" fill="none" stroke="#231f20" d="M 0 0 L 14.112 0 "/>
<path transform="matrix(1,0,0,-1,431.663,663.18)" stroke-width=".98" stroke-linecap="butt" stroke-miterlimit="22.926" stroke-linejoin="miter" fill="none" stroke="#231f20" d="M 0 0 L 14.112 0 "/>
<path transform="matrix(1,0,0,-1,445.775,620.844)" stroke-width=".98" stroke-linecap="butt" stroke-miterlimit="22.926" stroke-linejoin="miter" fill="none" stroke="#231f20" d="M 0 0 L 0 -42.336 "/>
<path transform="matrix(1,0,0,-1,459.887,627.9)" stroke-width=".98" stroke-linecap="butt" stroke-miterlimit="22.926" stroke-linejoin="miter" fill="none" stroke="#231f20" d="M 0 0 L 0 -21.168 "/>
<text fill="#231f20" xml:space="preserve" transform="matrix(1 0 -0 1 0 842)" font-size="9.7999" font-family="TimesNewRomanPSMT"><tspan y="-141.351" x="327.7646 336.47669 341.71965 346.49418 350.84535 356.0883 363.42939 368.32936 373.2293 375.6793 380.57926 385.47923 388.74259 393.64256 398.5425 400.9925 405.89247 410.79243 413.2424 418.14237">&#x041c;&#x0438;&#x0445;&#x0430;&#x0438;&#x043b;10.85-02.04.86</tspan></text>
<path transform="matrix(1,0,0,-1,0,842)" stroke-width=".98" stroke-linecap="butt" stroke-miterlimit="22.926" stroke-linejoin="miter" fill="none" stroke="#231f20" d="M 318.767 151.652 L 431.663 151.652 L 431.663 137.54 L 318.767 137.54 Z "/>
<text fill="#231f20" xml:space="preserve" transform="matrix(1 0 -0 1 0 842)" font-size="9.7999" font-family="TimesNewRomanPSMT"><tspan y="-121.164" x="343.5797 352.2918 356.64299 361.54295 366.7859 373.7458 378.64576 383.54573 385.9957 390.89567 395.79563 398.2456 403.14558">&#x041c;&#x0430;&#x0440;&#x0438;&#x044f;23.01.81</tspan></text>
<path transform="matrix(1,0,0,-1,318.767,711.516)" stroke-width=".98" stroke-linecap="butt" stroke-miterlimit="22.926" stroke-linejoin="miter" fill="none" stroke="#231f20" d="M 0 0 L 112.896 0 L 112.896 -14.112 L 0 -14.112 Z "/>
<path transform="matrix(1,0,0,-1,304.655,698.45999)" stroke-width=".98" stroke-linecap="butt" stroke-miterlimit="22.926" stroke-linejoin="miter" fill="none" stroke="#231f20" d="M 0 0 L 14.112 0 "/>
<path transform="matrix(1,0,0,-1,304.655,719.6279)" stroke-width=".98" stroke-linecap="butt" stroke-miterlimit="22.926" stroke-linejoin="miter" fill="none" stroke="#231f20" d="M 0 0 L 14.112 0 "/>
<path transform="matrix(1,0,0,-1,163.535,605.6759)" stroke-width=".98" stroke-linecap="butt" stroke-miterlimit="22.926" stroke-linejoin="miter" fill="none" stroke="#231f20" d="M 0 0 L 112.896 0 L 112.896 -49.392 L 0 -49.392 Z "/>
<path transform="matrix(1,0,0,-1,254.99,640.8999)" stroke-width=".98" stroke-linecap="butt" stroke-miterlimit="22.926" stroke-linejoin="miter" fill="none" stroke="#231f20" d="M 0 0 L 3.911 0 "/>
<path transform="matrix(1,0,0,-1,254.99,648.8479)" stroke-width=".98" stroke-linecap="butt" stroke-miterlimit="22.926" stroke-linejoin="miter" fill="none" stroke="#231f20" d="M 0 0 L 3.911 0 "/>
<path transform="matrix(1,0,0,-1,258.901,644.8739)" stroke-width=".98" stroke-linecap="butt" stroke-miterlimit="22.926" stroke-linejoin="miter" fill="none" stroke="#231f20" d="M 0 0 L 3.911 0 "/>
<path transform="matrix(1,0,0,-1,258.901,640.8999)" stroke-width=".98" stroke-linecap="butt" stroke-miterlimit="22.926" stroke-linejoin="miter" fill="none" stroke="#231f20" d="M 0 0 L 0 -7.948 "/>
<path transform="matrix(1,0,0,-1,262.875,640.8999)" stroke-width=".98" stroke-linecap="butt" stroke-miterlimit="22.926" stroke-linejoin="miter" fill="none" stroke="#231f20" d="M 0 0 L 0 -7.948 "/>
<path transform="matrix(1,0,0,-1,262.937,640.8999)" stroke-width=".98" stroke-linecap="butt" stroke-miterlimit="22.926" stroke-linejoin="miter" fill="none" stroke="#231f20" d="M 0 0 L 3.911 0 "/>
<path transform="matrix(1,0,0,-1,262.937,648.8479)" stroke-width=".98" stroke-linecap="butt" stroke-miterlimit="22.926" stroke-linejoin="miter" fill="none" stroke="#231f20" d="M 0 0 L 3.911 0 "/>
</g>
</svg>
