<?xml version="1.0" encoding="UTF-8" standalone="no"?>
<!DOCTYPE svg PUBLIC "-//W3C//DTD SVG 1.1//EN" "http://www.w3.org/Graphics/SVG/1.1/DTD/svg11.dtd">
<svg xmlns="http://www.w3.org/2000/svg" xmlns:xlink="http://www.w3.org/1999/xlink" version="1.1" width="595.22pt" height="842pt" viewBox="0 0 595.22 842">
<g enable-background="new">
<path transform="matrix(1,0,0,-1,153.456,618.45706)" stroke-width=".91" stroke-linecap="butt" stroke-miterlimit="22.926" stroke-linejoin="miter" fill="none" stroke="#231f20" d="M 0 0 L 0 -26.208 "/>
<text fill="#231f20" xml:space="preserve" transform="matrix(1 0 -0 1 0 842)" font-size="9.0999" font-family="TimesNewRomanPSMT"><tspan y="-259.3679" x="55.3384 60.21322 64.76317 69.631618 73.671977 77.71233 84.28246 88.969829 93.519779 98.38822 101.89623 106.44618 110.99613 115.86458">&#x0422;&#x043e;&#x043d;&#x0435;&#x0435;&#x0432;&#x0413;&#x0440;&#x0438;&#x0433;&#x043e;&#x0440;&#x0438;&#x0439;</tspan><tspan y="-249.28975" x="55.3384 61.90853 65.94889 70.81734 75.68578 80.23573 84.53088 89.39933">&#x041e;&#x0441;&#x0438;&#x043f;&#x043e;&#x0432;&#x0438;&#x0447;</tspan><tspan y="-258.76823" x="203.63312 208.50794 213.05789 217.92635 221.9667 226.00707 232.5772 239.14733 243.32509 247.36545">&#x0422;&#x043e;&#x043d;&#x0435;&#x0435;&#x0432;&#x0418;&#x0432;&#x0430;&#x043d;</tspan><tspan y="-248.69008" x="203.63312 208.32138 212.87134 217.73979 221.2478 225.79776 230.34772 234.49727 238.53763 242.83278 247.70124">&#x0413;&#x0440;&#x0438;&#x0433;&#x043e;&#x0440;&#x044c;&#x0435;&#x0432;&#x0438;&#x0447;</tspan></text>
<path transform="matrix(1,0,0,-1,166.56,579.145)" stroke-width=".91" stroke-linecap="butt" stroke-miterlimit="22.926" stroke-linejoin="miter" fill="none" stroke="#231f20" d="M 0 0 L 13.104 0 "/>
<path transform="matrix(1,0,0,-1,140.35199,618.45706)" stroke-width=".91" stroke-linecap="butt" stroke-miterlimit="22.926" stroke-linejoin="miter" fill="none" stroke="#231f20" d="M 0 0 L 13.104 0 "/>
<path transform="matrix(1,0,0,-1,140.35199,644.66506)" stroke-width=".91" stroke-linecap="butt" stroke-miterlimit="22.926" stroke-linejoin="miter" fill="none" stroke="#231f20" d="M 0 0 L 13.104 0 "/>
<text fill="#231f20" xml:space="preserve" transform="matrix(1 0 -0 1 0 842)" font-size="9.0999" font-family="TimesNewRomanPSMT"><tspan y="-194.1087" x="201.6 208.17014 213.03859 217.90705 224.22512 228.77507 233.32503 235.6 240.14997 244.69992 246.9749 251.52486">&#x0410;&#x043d;&#x043d;&#x0430;12.06.87</tspan></text>
<path transform="matrix(1,0,0,-1,310.704,546.385)" stroke-width=".91" stroke-linecap="butt" stroke-miterlimit="22.926" stroke-linejoin="miter" fill="none" stroke="#231f20" d="M 0 0 L 13.104 0 "/>
<path transform="matrix(1,0,0,-1,310.704,546.385)" stroke-width=".91" stroke-linecap="butt" stroke-miterlimit="22.926" stroke-linejoin="miter" fill="none" stroke="#231f20" d="M 0 0 L 0 -13.104 "/>
<path transform="matrix(1,0,0,-1,297.6,559.489)" stroke-width=".91" stroke-linecap="butt" stroke-miterlimit="22.926" stroke-linejoin="miter" fill="none" stroke="#231f20" d="M 0 0 L 13.104 0 "/>
<text fill="#231f20" xml:space="preserve" transform="matrix(1 0 -0 1 0 842)" font-size="9.0999" font-family="TimesNewRomanPSMT"><tspan y="-224.5231" x="188.0098 197.19159 201.23195 205.8638 210.41376 214.96372 219.1351 225.44953 228.4798 233.35462 237.90457 242.77303 246.81339 250.85375 255.02878 259.06913">&#x0428;&#x0430;&#x0434;&#x0440;&#x043e;&#x0432;&#x0430;(&#x0422;&#x043e;&#x043d;&#x0435;&#x0435;&#x0432;&#x0430;)</tspan><tspan y="-214.44496" x="188.0098 193.56984 197.85134 201.65509 205.63175 209.6721 214.22206 219.09052 223.95897 230.2743 234.96166 239.51161 244.38007 247.88808 252.43804 256.98799 261.13755 265.1779 269.47306 274.3415">&#x0415;&#x043a;&#x0430;&#x0442;&#x0435;&#x0440;&#x0438;&#x043d;&#x0430;&#x0413;&#x0440;&#x0438;&#x0433;&#x043e;&#x0440;&#x044c;&#x0435;&#x0432;&#x043d;&#x0430;</tspan></text>
<path transform="matrix(1,0,0,-1,166.56,618.45706)" stroke-width=".91" stroke-linecap="butt" stroke-miterlimit="22.926" stroke-linejoin="miter" fill="none" stroke="#231f20" d="M 0 0 L 13.104 0 "/>
<path transform="matrix(1,0,0,-1,0,842)" stroke-width=".91" stroke-linecap="butt" stroke-dasharray="1.8201,.91005" stroke-miterlimit="22.926" stroke-linejoin="miter" fill="none" stroke="#231f20" d="M 166.56 262.855 L 166.56 210.439 "/>
<text fill="#231f20" xml:space="preserve" transform="matrix(1 0 -0 1 0 842)" font-size="9.0999" font-family="TimesNewRomanPSMT"><tspan y="-300.3003" x="192.6509 197.52571 202.07567 206.94412 210.98448 215.02484 219.19988 225.5143 228.54457 235.1147 239.66466 244.53311 250.64824 255.07079 259.93925 264.80769 268.84803">&#x0422;&#x043e;&#x043d;&#x0435;&#x0435;&#x0432;&#x0430;(&#x041f;&#x0443;&#x043f;&#x044b;&#x043a;&#x0438;&#x043d;&#x0430;)</tspan><tspan y="-290.22218" x="192.6509 199.22103 204.08948 208.12984 212.1702 216.25696 220.29732 224.33768 229.20613">&#x0410;&#x043d;&#x0430;&#x0441;&#x0442;&#x0430;&#x0441;&#x0438;&#x044f;</tspan><tspan y="-280.14405" x="192.6509 198.26737 202.81732 207.68578 211.72614 215.8129 219.85326 224.72171 228.69837 233.56682 238.43527 242.98523 247.28038 252.14884">&#x041a;&#x043e;&#x043d;&#x0441;&#x0442;&#x0430;&#x043d;&#x0442;&#x0438;&#x043d;&#x043e;&#x0432;&#x043d;&#x0430;</tspan><tspan y="-331.44383" x="193.29972 199.86985 204.4198 209.28826 215.40338 219.82593 224.69438">&#x041f;&#x0443;&#x043f;&#x044b;&#x043a;&#x0438;&#x043d;</tspan><tspan y="-321.3657" x="193.29972 198.91619 203.46614 208.3346 212.37496 216.46172 220.50208 225.37053 229.34719 234.21564 239.08409 243.63405 247.9292 252.79766">&#x041a;&#x043e;&#x043d;&#x0441;&#x0442;&#x0430;&#x043d;&#x0442;&#x0438;&#x043d;&#x043e;&#x0432;&#x0438;&#x0447;</tspan><tspan y="-331.44383" x="231.84143 237.91107 242.45192 246.49228 251.12413 255.99259 261.7528 266.62126">&#x0412;&#x043b;&#x0430;&#x0434;&#x0438;&#x043c;&#x0438;&#x0440;</tspan></text>
<path transform="matrix(1,0,0,-1,166.56,513.625)" stroke-width=".91" stroke-linecap="butt" stroke-miterlimit="22.926" stroke-linejoin="miter" fill="none" stroke="#231f20" d="M 0 0 L 13.104 0 "/>
<path transform="matrix(1,0,0,-1,166.56,546.385)" stroke-width=".91" stroke-linecap="butt" stroke-miterlimit="22.926" stroke-linejoin="miter" fill="none" stroke="#231f20" d="M 0 0 L 13.104 0 "/>
<path transform="matrix(1,0,0,-1,166.56,513.625)" stroke-width=".91" stroke-linecap="butt" stroke-miterlimit="22.926" stroke-linejoin="miter" fill="none" stroke="#231f20" d="M 0 0 L 0 -32.76 "/>
<path transform="matrix(1,0,0,-1,297.59999,546.385)" stroke-width=".91" stroke-linecap="butt" stroke-miterlimit="22.926" stroke-linejoin="miter" fill="none" stroke="#231f20" d="M 0 0 L 0 -32.76 "/>
<path transform="matrix(1,0,0,-1,284.49598,546.385)" stroke-width=".91" stroke-linecap="butt" stroke-miterlimit="22.926" stroke-linejoin="miter" fill="none" stroke="#231f20" d="M 0 0 L 13.104 0 "/>
<path transform="matrix(1,0,0,-1,284.49598,579.145)" stroke-width=".91" stroke-linecap="butt" stroke-miterlimit="22.926" stroke-linejoin="miter" fill="none" stroke="#231f20" d="M 0 0 L 13.104 0 "/>
<path transform="matrix(1,0,0,-1,166.55997,644.66506)" stroke-width=".91" stroke-linecap="butt" stroke-miterlimit="22.926" stroke-linejoin="miter" fill="none" stroke="#231f20" d="M 0 0 L 13.104 0 "/>
<path transform="matrix(1,0,0,-1,166.55997,664.32107)" stroke-width=".91" stroke-linecap="butt" stroke-miterlimit="22.926" stroke-linejoin="miter" fill="none" stroke="#231f20" d="M 0 0 L 0 32.76 "/>
<path transform="matrix(1,0,0,-1,153.45597,631.56106)" stroke-width=".91" stroke-linecap="butt" stroke-miterlimit="22.926" stroke-linejoin="miter" fill="none" stroke="#231f20" d="M 0 0 L 13.104 0 "/>
<text fill="#231f20" xml:space="preserve" transform="matrix(1 0 -0 1 0 842)" font-size="9.0999" font-family="TimesNewRomanPSMT"><tspan y="-294.3447" x="335.546 341.10603 345.3875 349.19126 353.1679 357.20826 361.7582 366.62666 371.4951 377.8095 382.35948 386.90943 389.1844 393.3958 397.94578 400.22074 404.7707">&#x0415;&#x043a;&#x0430;&#x0442;&#x0435;&#x0440;&#x0438;&#x043d;&#x0430;19.11.91</tspan><tspan y="-783.53079" x="203.98874 209.21208 213.36255 216.95702 221.82547 225.9459 230.48676 235.03672 241.60684 247.67649 251.63585 256.1858">&#x0411;&#x0435;&#x0437;&#x043f;&#x0430;&#x043b;&#x043e;&#x0432;&#x042f;&#x043a;&#x043e;&#x0432;</tspan><tspan y="-773.45266" x="203.98874 210.55887 214.73754 218.7779 223.64635 228.1963 232.49146 237.35991">&#x0418;&#x0432;&#x0430;&#x043d;&#x043e;&#x0432;&#x0438;&#x0447;</tspan></text>
<path transform="matrix(1,0,0,-1,173.112,61.538026)" stroke-width=".91" stroke-linecap="butt" stroke-miterlimit="22.926" stroke-linejoin="miter" fill="none" stroke="#231f20" d="M 0 0 L 6.552 0 "/>
<text fill="#231f20" xml:space="preserve" transform="matrix(1 0 -0 1 0 842)" font-size="9.0999" font-family="TimesNewRomanPSMT"><tspan y="-693.7557" x="343.5724 349.13243 353.201 357.83283 362.38279 366.80534 371.67378 378.13288 382.68284 387.2328 389.50776 394.0577 398.60768 400.88264 405.4326">&#x0415;&#x0432;&#x0434;&#x043e;&#x043a;&#x0438;&#x044f;27.02.81</tspan></text>
<path transform="matrix(1,0,0,-1,310.704,146.71399)" stroke-width=".91" stroke-linecap="butt" stroke-miterlimit="22.926" stroke-linejoin="miter" fill="none" stroke="#231f20" d="M 0 0 L 13.104 0 "/>
<text fill="#231f20" xml:space="preserve" transform="matrix(1 0 -0 1 0 842)" font-size="9.0999" font-family="TimesNewRomanPSMT"><tspan y="-418.9809" x="346.495 354.5848 358.62516 363.1751 368.04356 374.50538 379.05534 383.6053 385.88026 390.4302 394.98017 397.25514 401.80509">&#x041c;&#x0430;&#x0440;&#x0438;&#x044f;13.06.87</tspan><tspan y="-704.7605" x="62.561738 67.436557 71.9865 76.85495 80.89531 84.93567 91.5058 97.065837 102.96257 107.83102">&#x0422;&#x043e;&#x043d;&#x0435;&#x0435;&#x0432;&#x0415;&#x0444;&#x0438;&#x043c;</tspan><tspan y="-694.6824" x="62.561738 68.63137 72.58983 77.13978 81.31663 85.857479 89.897838 94.192989 99.06143">&#x042f;&#x043a;&#x043e;&#x0432;&#x043b;&#x0435;&#x0432;&#x0438;&#x0447;</tspan></text>
<path transform="matrix(1,0,0,-1,0,842)" stroke-width=".91" stroke-linecap="butt" stroke-miterlimit="22.926" stroke-linejoin="miter" fill="none" stroke="#231f20" d="M 179.664 722.475 L 284.496 722.475 L 284.496 676.61099 L 179.664 676.61099 Z "/>
<text fill="#231f20" xml:space="preserve" transform="matrix(1 0 -0 1 0 842)" font-size="9.0999" font-family="TimesNewRomanPSMT"><tspan y="-711.5632" x="196.7652 201.64002 206.18997 211.05843 215.09879 219.13915 225.70928 228.73955 236.44899 240.99895 245.5762 250.44466 254.99462 259.86308 264.7315">&#x0422;&#x043e;&#x043d;&#x0435;&#x0435;&#x0432;(&#x0416;&#x0443;&#x0447;&#x0438;&#x0445;&#x0438;&#x043d;)</tspan><tspan y="-701.48507" x="196.7652 203.33533 207.51399 211.55435 218.69779 224.25783 230.15456 235.02301 240.78325 245.3332 249.62836 254.49681">&#x0418;&#x0432;&#x0430;&#x043d;&#x0415;&#x0444;&#x0438;&#x043c;&#x043e;&#x0432;&#x0438;&#x0447;</tspan><tspan y="-691.4069" x="196.7652 199.79547 206.0016 211.76184 216.6303 220.71797 225.26793 230.13639 234.17675 238.4719 243.34035 247.9176">(&#x0414;&#x043c;&#x0438;&#x0442;&#x0440;&#x0438;&#x0435;&#x0432;&#x0438;&#x0447;)</tspan><tspan y="-681.3288" x="196.7652 201.68825 206.2382">~57</tspan></text>
<path transform="matrix(1,0,0,-1,140.352,140.16199)" stroke-width=".91" stroke-linecap="butt" stroke-miterlimit="22.926" stroke-linejoin="miter" fill="none" stroke="#231f20" d="M 0 0 L 13.104 0 "/>
<path transform="matrix(1,0,0,-1,140.352,172.92198)" stroke-width=".91" stroke-linecap="butt" stroke-miterlimit="22.926" stroke-linejoin="miter" fill="none" stroke="#231f20" d="M 0 0 L 13.104 0 "/>
<path transform="matrix(1,0,0,-1,153.45601,140.16199)" stroke-width=".91" stroke-linecap="butt" stroke-miterlimit="22.926" stroke-linejoin="miter" fill="none" stroke="#231f20" d="M 0 0 L 0 -32.76 "/>
<path transform="matrix(1,0,0,-1,166.56002,140.16199)" stroke-width=".91" stroke-linecap="butt" stroke-miterlimit="22.926" stroke-linejoin="miter" fill="none" stroke="#231f20" d="M 0 0 L 13.104 0 "/>
<path transform="matrix(1,0,0,-1,153.45601,153.26599)" stroke-width=".91" stroke-linecap="butt" stroke-miterlimit="22.926" stroke-linejoin="miter" fill="none" stroke="#231f20" d="M 0 0 L 13.104 0 "/>
<path transform="matrix(1,0,0,-1,166.56002,140.16199)" stroke-width=".91" stroke-linecap="butt" stroke-miterlimit="22.926" stroke-linejoin="miter" fill="none" stroke="#231f20" d="M 0 0 L 0 -111.384 "/>
<text fill="#231f20" xml:space="preserve" transform="matrix(1 0 -0 1 0 842)" font-size="9.0999" font-family="TimesNewRomanPSMT"><tspan y="-659.9539" x="199.1985 204.07332 208.62328 213.49173 217.53209 221.57245 225.74748 232.06282 238.63295 243.1829 247.22327 251.19992 256.06837 260.9368">&#x0422;&#x043e;&#x043d;&#x0435;&#x0435;&#x0432;&#x0430;&#x0418;&#x0443;&#x0441;&#x0442;&#x0438;&#x043d;&#x0430;</tspan><tspan y="-649.8758" x="199.1985 204.75855 210.65528 215.52373 221.28397 225.83393 230.12908 234.99753">&#x0415;&#x0444;&#x0438;&#x043c;&#x043e;&#x0432;&#x043d;&#x0430;</tspan></text>
<path transform="matrix(1,0,0,-1,166.56,186.026)" stroke-width=".91" stroke-linecap="butt" stroke-miterlimit="22.926" stroke-linejoin="miter" fill="none" stroke="#231f20" d="M 0 0 L 13.104 0 "/>
<text fill="#231f20" xml:space="preserve" transform="matrix(1 0 -0 1 0 842)" font-size="9.0999" font-family="TimesNewRomanPSMT"><tspan y="-594.2877" x="198.4386 202.99765 209.79528 213.38974 218.2582 223.12665 229.44289 232.47316 237.34798 241.89794 246.76639 250.80675 254.8471 259.02217 263.0625">&#x0417;&#x044e;&#x0437;&#x0438;&#x043d;&#x0430;(&#x0422;&#x043e;&#x043d;&#x0435;&#x0435;&#x0432;&#x0430;)</tspan><tspan y="-584.2096" x="198.4386 204.50824 208.5486 213.09856 219.4139 224.97394 230.87067 235.73912 241.49936 246.04932 250.34447 255.21292">&#x0412;&#x0435;&#x0440;&#x0430;&#x0415;&#x0444;&#x0438;&#x043c;&#x043e;&#x0432;&#x043d;&#x0430;</tspan></text>
<path transform="matrix(1,0,0,-1,166.56,251.54602)" stroke-width=".91" stroke-linecap="butt" stroke-miterlimit="22.926" stroke-linejoin="miter" fill="none" stroke="#231f20" d="M 0 0 L 13.104 0 "/>
<text fill="#231f20" xml:space="preserve" transform="matrix(1 0 -0 1 0 842)" font-size="9.0999" font-family="TimesNewRomanPSMT"><tspan y="-483.0501" x="59.0431 63.91791 68.467868 73.33631 77.37667 81.41703 87.98716 94.55729 99.425739 103.84829 108.716739 112.80532">&#x0422;&#x043e;&#x043d;&#x0435;&#x0435;&#x0432;&#x041d;&#x0438;&#x043a;&#x0438;&#x0442;&#x0430;</tspan><tspan y="-472.972" x="59.0431 65.61323 70.481678 75.113529 79.663478 83.703838 87.744197 92.039348 96.90779">&#x0410;&#x043d;&#x0434;&#x0440;&#x0435;&#x0435;&#x0432;&#x0438;&#x0447;</tspan><tspan y="-490.37739" x="203.83707 208.71189 213.26184 218.1303 222.17066 226.21102 232.78115 238.73067 242.70732 246.74768 251.61614 255.6565">&#x0422;&#x043e;&#x043d;&#x0435;&#x0435;&#x0432;&#x0421;&#x0442;&#x0435;&#x043f;&#x0430;&#x043d;</tspan><tspan y="-480.29927" x="203.83707 210.4072 215.27565 219.6982 224.56665 228.42592 232.97588 237.27103 242.13948">&#x041d;&#x0438;&#x043a;&#x0438;&#x0442;&#x043e;&#x0432;&#x0438;&#x0447;</tspan><tspan y="-470.22114" x="203.83707 208.76012 213.31008">~68</tspan></text>
<path transform="matrix(1,0,0,-1,297.6,435.002)" stroke-width=".91" stroke-linecap="butt" stroke-miterlimit="22.926" stroke-linejoin="miter" fill="none" stroke="#231f20" d="M 0 0 L 13.104 0 "/>
<path transform="matrix(1,0,0,-1,310.704,421.898)" stroke-width=".91" stroke-linecap="butt" stroke-miterlimit="22.926" stroke-linejoin="miter" fill="none" stroke="#231f20" d="M 0 0 L 0 -19.656 "/>
<path transform="matrix(1,0,0,-1,166.56002,362.93003)" stroke-width=".91" stroke-linecap="butt" stroke-miterlimit="22.926" stroke-linejoin="miter" fill="none" stroke="#231f20" d="M 0 0 L 13.104 0 "/>
<path transform="matrix(1,0,0,-1,310.704,421.898)" stroke-width=".91" stroke-linecap="butt" stroke-miterlimit="22.926" stroke-linejoin="miter" fill="none" stroke="#231f20" d="M 0 0 L 13.104 0 "/>
<path transform="matrix(1,0,0,-1,166.56002,362.93003)" stroke-width=".91" stroke-linecap="butt" stroke-miterlimit="22.926" stroke-linejoin="miter" fill="none" stroke="#231f20" d="M 0 0 L 0 -52.416 "/>
<text fill="#231f20" xml:space="preserve" transform="matrix(1 0 -0 1 0 842)" font-size="9.0999" font-family="TimesNewRomanPSMT"><tspan y="-431.2527" x="194.6474 199.68238 203.72274 208.27269 212.31305 217.1815 222.04996 226.91841 233.23284 236.2631 241.13793 245.68788 250.55634 254.5967 258.63706 262.8121 266.85246">&#x0413;&#x0430;&#x0440;&#x0430;&#x043d;&#x0438;&#x043d;&#x0430;(&#x0422;&#x043e;&#x043d;&#x0435;&#x0435;&#x0432;&#x0430;)</tspan><tspan y="-421.17457" x="194.6474 201.21753 206.08599 210.95444 217.26978 223.8399 228.70836 233.1309 237.99936 241.86136 246.41132 250.70647 255.57492">&#x0410;&#x043d;&#x043d;&#x0430;&#x041d;&#x0438;&#x043a;&#x0438;&#x0442;&#x043e;&#x0432;&#x043d;&#x0430;</tspan></text>
<text fill="#231f20" xml:space="preserve" transform="matrix(1 0 -0 1 0 842)" font-size="7.2798" font-family="TimesNewRomanPSMT"><tspan y="-412.7181" x="194.6474 198.2873 202.18199 204.00194 207.64183 211.28173 213.7059 217.41132 219.8355 223.47539 227.11528">&#x0443;&#x043f;.83(&#x0434;),88</tspan></text>
<path transform="matrix(1,0,0,-1,166.56,415.345)" stroke-width=".91" stroke-linecap="butt" stroke-miterlimit="22.926" stroke-linejoin="miter" fill="none" stroke="#231f20" d="M 0 0 L 13.104 0 "/>
<text fill="#231f20" xml:space="preserve" transform="matrix(1 0 -0 1 0 842)" font-size="9.0999" font-family="TimesNewRomanPSMT"><tspan y="-193.7053" x="51.6056 56.480417 61.030366 65.89881 69.93917 73.97953 78.154567 84.46899 87.49925 91.53961">&#x0422;&#x043e;&#x043d;&#x0435;&#x0435;&#x0432;&#x0430;(?)</tspan><tspan y="-183.62717" x="51.6056 57.165639 61.460794 65.07345 69.11381 73.982257 78.8507 85.31163 91.88176 96.42261 100.46297 104.658939 108.808498 112.848857 116.88921 121.184368 126.05281">&#x0415;&#x0432;&#x0433;&#x0435;&#x043d;&#x0438;&#x044f;&#x0410;&#x043b;&#x0435;&#x043a;&#x0441;&#x0435;&#x0435;&#x0432;&#x043d;&#x0430;</tspan><tspan y="-451.05506" x="59.098459 63.97327 68.523227 73.39167 77.43203 81.47239 85.64742 91.96276 100.052577 104.09293 108.64288 112.792438">&#x0422;&#x043e;&#x043d;&#x0435;&#x0435;&#x0432;&#x0430;&#x041c;&#x0430;&#x0440;&#x044c;&#x044f;</tspan><tspan y="-440.97694" x="59.098459 65.66859 70.53703 75.168888 79.718837 83.75919 87.79955 92.0947 96.96315">&#x0410;&#x043d;&#x0434;&#x0440;&#x0435;&#x0435;&#x0432;&#x043d;&#x0430;</tspan></text>
<text fill="#231f20" xml:space="preserve" transform="matrix(1 0 -0 1 0 842)" font-size="7.2798" font-family="TimesNewRomanPSMT"><tspan y="-432.5203" x="59.0983 62.73893 66.63435 70.274257 73.914157">&#x0443;&#x043f;.88</tspan></text>
<path transform="matrix(1,0,0,-1,22.416,362.929)" stroke-width=".91" stroke-linecap="butt" stroke-miterlimit="22.926" stroke-linejoin="miter" fill="none" stroke="#231f20" d="M 0 0 L 13.104 0 "/>
<path transform="matrix(1,0,0,-1,22.416,362.929)" stroke-width=".91" stroke-linecap="butt" stroke-miterlimit="22.926" stroke-linejoin="miter" fill="none" stroke="#231f20" d="M 0 0 L 0 -32.76 L 13.104 -32.76 "/>
<text fill="#231f20" xml:space="preserve" transform="matrix(1 0 -0 1 0 842)" font-size="9.0999" font-family="TimesNewRomanPSMT"><tspan y="-669.6356" x="48.9136 55.228025 62.937459 67.48741 72.06466 76.933109 81.483058 86.3515 91.21995">?&#x0416;&#x0443;&#x0447;&#x0438;&#x0445;&#x0438;&#x043d;&#x0430;</tspan></text>
<path transform="matrix(1,0,0,-1,284.496,94.29797)" stroke-width=".91" stroke-linecap="butt" stroke-miterlimit="22.926" stroke-linejoin="miter" fill="none" stroke="#231f20" d="M 0 0 L 13.104 0 "/>
<path transform="matrix(1,0,0,-1,284.496,146.71398)" stroke-width=".91" stroke-linecap="butt" stroke-miterlimit="22.926" stroke-linejoin="miter" fill="none" stroke="#231f20" d="M 0 0 L 13.104 0 "/>
<path transform="matrix(1,0,0,-1,310.704,87.74597)" stroke-width=".91" stroke-linecap="butt" stroke-miterlimit="22.926" stroke-linejoin="miter" fill="none" stroke="#231f20" d="M 0 0 L 0 -58.968 "/>
<path transform="matrix(1,0,0,-1,310.704,107.40197)" stroke-width=".91" stroke-linecap="butt" stroke-miterlimit="22.926" stroke-linejoin="miter" fill="none" stroke="#231f20" d="M 0 0 L 13.104 0 "/>
<path transform="matrix(1,0,0,-1,297.6,120.50597)" stroke-width=".91" stroke-linecap="butt" stroke-miterlimit="22.926" stroke-linejoin="miter" fill="none" stroke="#231f20" d="M 0 0 L 13.104 0 "/>
<path transform="matrix(1,0,0,-1,310.704,127.05797)" stroke-width=".91" stroke-linecap="butt" stroke-miterlimit="22.926" stroke-linejoin="miter" fill="none" stroke="#231f20" d="M 0 0 L 13.104 0 "/>
<path transform="matrix(1,0,0,-1,297.6,94.29797)" stroke-width=".91" stroke-linecap="butt" stroke-miterlimit="22.926" stroke-linejoin="miter" fill="none" stroke="#231f20" d="M 0 0 L 0 -52.416 "/>
<text fill="#231f20" xml:space="preserve" transform="matrix(1 0 -0 1 0 842)" font-size="9.0999" font-family="TimesNewRomanPSMT"><tspan y="-733.0886" x="346.0828 352.15245 356.1109 360.66087 367.23283 371.78279 376.33274 378.6077 383.15766 387.7076 389.98258 394.53254">&#x042f;&#x043a;&#x043e;&#x0432;25.04.85</tspan><tspan y="-713.8205" x="329.56285 336.75178 340.67109 345.30293 349.85289 356.676 361.22596 365.7759 368.05088 372.60084 377.1508 379.42576 383.9757 388.52568 391.55595 396.1059 400.65586 402.93083 407.48078 412.03074 414.3057 418.85566">&#x0424;&#x0435;&#x0434;&#x043e;&#x0440;04.06.86-12.02.88</tspan><tspan y="-391.2536" x="194.16724 199.20221 203.24257 207.79253 211.83289 216.70134 221.5698 228.71323 235.28336 239.8242 243.86457 248.05962 252.20917 256.2495 261.11796 265.7498">&#x0413;&#x0430;&#x0440;&#x0430;&#x043d;&#x0438;&#x043d;&#x0410;&#x043b;&#x0435;&#x043a;&#x0441;&#x0430;&#x043d;&#x0434;&#x0440;</tspan><tspan y="-381.17549" x="194.16724 199.72728 205.62401 210.49246 216.2527 220.80266 225.09781 229.96627">&#x0415;&#x0444;&#x0438;&#x043c;&#x043e;&#x0432;&#x0438;&#x0447;</tspan></text>
<path transform="matrix(1,0,0,-1,284.496,415.346)" stroke-width=".91" stroke-linecap="butt" stroke-miterlimit="22.926" stroke-linejoin="miter" fill="none" stroke="#231f20" d="M 0 0 L 13.104 0 "/>
<path transform="matrix(1,0,0,-1,284.496,454.65803)" stroke-width=".91" stroke-linecap="butt" stroke-miterlimit="22.926" stroke-linejoin="miter" fill="none" stroke="#231f20" d="M 0 0 L 13.104 0 "/>
<path transform="matrix(1,0,0,-1,297.6,415.346)" stroke-width=".91" stroke-linecap="butt" stroke-miterlimit="22.926" stroke-linejoin="miter" fill="none" stroke="#231f20" d="M 0 0 L 0 -39.312 "/>
<text fill="#231f20" xml:space="preserve" transform="matrix(.000036630486 -1 1 .000036630486 0 842)" font-size="8.1899" font-family="TimesNewRomanPSMT"><tspan y="294.9582" x="393.2385 397.33345 401.42839 403.47587 407.5708 411.66575">30.10.</tspan><tspan y="294.95817" x="413.71324">8</tspan><tspan y="294.9582" x="417.80818">3</tspan></text>
<text fill="#231f20" xml:space="preserve" transform="matrix(1 0 -0 1 0 842)" font-size="9.0999" font-family="TimesNewRomanPSMT"><tspan y="-227.3761" x="39.8832 44.75802 49.30797 54.176416 58.21677 62.257127 68.827259 71.85752 78.17194 83.20692 87.24728 91.797229 95.837589 100.70603 105.57448 110.442928">&#x0422;&#x043e;&#x043d;&#x0435;&#x0435;&#x0432;(?&#x0413;&#x0430;&#x0440;&#x0430;&#x043d;&#x0438;&#x043d;)</tspan><tspan y="-217.29796" x="39.8832 44.571474 49.12142 53.98987 57.497884 62.047834 66.597789 71.46623 78.60966 84.67929 89.54774 94.41618 98.96613 103.83458 108.46643 113.01638 117.88483 122.43478 126.72993 131.59838">&#x0413;&#x0440;&#x0438;&#x0433;&#x043e;&#x0440;&#x0438;&#x0439;&#x0421;&#x043f;&#x0438;&#x0440;&#x0438;&#x0434;&#x043e;&#x043d;&#x043e;&#x0432;&#x0438;&#x0447;</tspan></text>
<path transform="matrix(1,0,0,-1,140.352,362.93)" stroke-width=".91" stroke-linecap="butt" stroke-miterlimit="22.926" stroke-linejoin="miter" fill="none" stroke="#231f20" d="M 0 0 L 13.104 0 L 13.104 -26.208 L 26.208 -26.208 "/>
<path transform="matrix(1,0,0,-1,179.664,637.133)" stroke-width=".91" stroke-linecap="butt" stroke-miterlimit="22.926" stroke-linejoin="miter" fill="none" stroke="#231f20" d="M 0 0 L 104.832 0 L 104.832 -13.104 L 0 -13.104 Z "/>
<path transform="matrix(1,0,0,-1,323.80799,538.853)" stroke-width=".91" stroke-linecap="butt" stroke-miterlimit="22.926" stroke-linejoin="miter" fill="none" stroke="#231f20" d="M 0 0 L 104.832 0 L 104.832 -13.104 L 0 -13.104 Z "/>
<path transform="matrix(1,0,0,-1,179.66399,499.54103)" stroke-width=".91" stroke-linecap="butt" stroke-miterlimit="22.926" stroke-linejoin="miter" fill="none" stroke="#231f20" d="M 0 0 L 104.832 0 L 104.832 -26.208 L 0 -26.208 Z "/>
<path transform="matrix(1,0,0,-1,35.51999,571.61306)" stroke-width=".91" stroke-linecap="butt" stroke-miterlimit="22.926" stroke-linejoin="miter" fill="none" stroke="#231f20" d="M 0 0 L 104.832 0 L 104.832 -26.208 L 0 -26.208 Z "/>
<path transform="matrix(1,0,0,-1,179.66399,571.61306)" stroke-width=".91" stroke-linecap="butt" stroke-miterlimit="22.926" stroke-linejoin="miter" fill="none" stroke="#231f20" d="M 0 0 L 104.832 0 L 104.832 -26.208 L 0 -26.208 Z "/>
<path transform="matrix(1,0,0,-1,35.51999,604.37307)" stroke-width=".91" stroke-linecap="butt" stroke-miterlimit="22.926" stroke-linejoin="miter" fill="none" stroke="#231f20" d="M 0 0 L 104.832 0 L 104.832 -26.208 L 0 -26.208 Z "/>
<path transform="matrix(1,0,0,-1,35.51999,637.13308)" stroke-width=".91" stroke-linecap="butt" stroke-miterlimit="22.926" stroke-linejoin="miter" fill="none" stroke="#231f20" d="M 0 0 L 104.832 0 L 104.832 -26.208 L 0 -26.208 Z "/>
<path transform="matrix(1,0,0,-1,179.66399,604.37307)" stroke-width=".91" stroke-linecap="butt" stroke-miterlimit="22.926" stroke-linejoin="miter" fill="none" stroke="#231f20" d="M 0 0 L 104.832 0 L 104.832 -26.208 L 0 -26.208 Z "/>
<path transform="matrix(1,0,0,-1,179.66399,532.301)" stroke-width=".91" stroke-linecap="butt" stroke-miterlimit="22.926" stroke-linejoin="miter" fill="none" stroke="#231f20" d="M 0 0 L 104.832 0 L 104.832 -32.76 L 0 -32.76 Z "/>
<path transform="matrix(1,0,0,-1,0,842)" stroke-width=".91" stroke-linecap="butt" stroke-dasharray="1.8201,.91005" stroke-miterlimit="22.926" stroke-linejoin="miter" fill="none" stroke="#231f20" d="M 140.352 256.303 L 166.56 256.303 "/>
<text fill="#231f20" xml:space="preserve" transform="matrix(1 0 -0 1 0 842)" font-size="9.0999" font-family="TimesNewRomanPSMT"><tspan y="-176.5509" x="196.4928 202.80722 208.87686 212.91722 217.46718 221.64221 225.68257 230.23253 236.54514 241.0951 245.64505 247.92003 252.13147 256.68144 258.9564 263.50636">?&#x0412;&#x0430;&#x0440;&#x0432;&#x0430;&#x0440;&#x0430;01.11.79</tspan></text>
<path transform="matrix(1,0,0,-1,166.56,664.321)" stroke-width=".91" stroke-linecap="butt" stroke-miterlimit="22.926" stroke-linejoin="miter" fill="none" stroke="#231f20" d="M 0 0 L 13.104 0 "/>
<path transform="matrix(1,0,0,-1,179.664,656.789)" stroke-width=".91" stroke-linecap="butt" stroke-miterlimit="22.926" stroke-linejoin="miter" fill="none" stroke="#231f20" d="M 0 0 L 104.832 0 L 104.832 -13.104 L 0 -13.104 Z "/>
<text fill="#231f20" xml:space="preserve" transform="matrix(1 0 -0 1 0 842)" font-size="9.0999" font-family="TimesNewRomanPSMT"><tspan y="-199.3594" x="385.9318 390.8066 395.35658 400.225 404.26536 408.3057 414.87583 421.44596 426.3144 430.73695 435.60539 439.69398 446.00929 451.04335 455.08369 459.37886 463.9288 468.79725 473.3381 477.88807 482.18324 487.05168">&#x0422;&#x043e;&#x043d;&#x0435;&#x0435;&#x0432;&#x041d;&#x0438;&#x043a;&#x0438;&#x0442;&#x0430;&#x0413;&#x0430;&#x0432;&#x0440;&#x0438;&#x043b;&#x043e;&#x0432;&#x0438;&#x0447;</tspan><tspan y="-189.28127" x="385.9318 390.8066 395.35658 400.225 404.26536 408.3057 414.87583 421.44596 425.62373 429.66407 436.80747 443.3776 447.55537 451.5957 456.46415 461.0141 465.30928 470.1777 477.03266 481.5826 486.13258 490.68254 495.23249">&#x0422;&#x043e;&#x043d;&#x0435;&#x0435;&#x0432;&#x0418;&#x0432;&#x0430;&#x043d;&#x0418;&#x0432;&#x0430;&#x043d;&#x043e;&#x0432;&#x0438;&#x0447;1879-</tspan><tspan y="-169.12499" x="385.9318 390.8066 395.35658 400.225 404.26536 408.3057 414.87583 421.44596 425.62373 429.66407 436.80747 443.3776 447.41795 451.59483 456.13569 460.68565 464.9808 469.84925 476.7042 481.25416 485.8041 490.35408 494.90403">&#x0422;&#x043e;&#x043d;&#x0435;&#x0435;&#x0432;&#x0418;&#x0432;&#x0430;&#x043d;&#x041f;&#x0430;&#x0432;&#x043b;&#x043e;&#x0432;&#x0438;&#x0447;1873-</tspan><tspan y="-159.04685" x="385.9318 390.8066 395.35658 400.225 404.26536 408.3057 414.87583 420.20747 425.0759 430.83613 435.38609 441.2828 445.32316 452.46656 459.03669 463.21357 467.2539 472.12236 476.6723 480.96748 485.8359 492.69087 497.2408 501.79078 506.34074 510.8907">&#x0422;&#x043e;&#x043d;&#x0435;&#x0435;&#x0432;&#x0422;&#x0438;&#x043c;&#x043e;&#x0444;&#x0435;&#x0439;&#x0418;&#x0432;&#x0430;&#x043d;&#x043e;&#x0432;&#x0438;&#x0447;1896-</tspan><tspan y="-148.9687" x="385.9318 390.8066 395.35658 400.225 404.26536 408.3057 414.87583 420.82536 424.802 428.84236 433.7108 437.75114 444.89454 449.58189 454.13185 459.00028 462.50828 467.05824 471.6082 475.75776 479.7981 484.09327 488.9617 495.81483 500.36479 504.91474 509.12617">&#x0422;&#x043e;&#x043d;&#x0435;&#x0435;&#x0432;&#x0421;&#x0442;&#x0435;&#x043f;&#x0430;&#x043d;&#x0413;&#x0440;&#x0438;&#x0433;&#x043e;&#x0440;&#x044c;&#x0435;&#x0432;&#x0438;&#x0447;1911</tspan><tspan y="-128.81243" x="385.9318 392.0997 396.13917 401.00669 407.1209">&#x0436;&#x0435;&#x043d;&#x044b;:</tspan><tspan y="-118.73428" x="385.9318 390.8066 395.35658 400.225 404.26536 408.3057 412.48075 418.79606 425.36619 429.16993 433.25669 437.3762 441.91706 446.06663 452.52754 457.09568 461.13603 465.68598 469.72633 473.76667 478.6351 484.39533 488.94529 493.24046 498.1089">&#x0422;&#x043e;&#x043d;&#x0435;&#x0435;&#x0432;&#x0430;&#x041d;&#x0430;&#x0442;&#x0430;&#x043b;&#x044c;&#x044f;&#x0413;&#x0435;&#x0440;&#x0430;&#x0441;&#x0438;&#x043c;&#x043e;&#x0432;&#x043d;&#x0430;</tspan><tspan y="-108.65614" x="385.9318 390.8066 395.35658 400.225 404.26536 408.3057 412.48075 418.79606 425.36619 429.40653 433.9474 437.98774 441.59675 445.6371 452.098 457.65803 461.7248 466.35664 470.9066 475.32914 480.19758 485.9578 490.50776 494.80293 499.67137">&#x0422;&#x043e;&#x043d;&#x0435;&#x0435;&#x0432;&#x0430;&#x041f;&#x0435;&#x043b;&#x0430;&#x0433;&#x0435;&#x044f;&#x0415;&#x0432;&#x0434;&#x043e;&#x043a;&#x0438;&#x043c;&#x043e;&#x0432;&#x043d;&#x0430;</tspan><tspan y="-179.20404" x="385.9318 390.8066 395.35658 400.225 404.26536 408.3057 414.87583 421.44596 425.62373 429.66407 436.80747 443.3776 447.55537 451.5957 456.46415 461.0141 465.30928 470.1777 481.9557 486.50566 491.0556 494.08589 498.63584 503.1858 505.46076 510.0107 514.56069 516.83566 521.38558">&#x0422;&#x043e;&#x043d;&#x0435;&#x0435;&#x0432;&#x0418;&#x0432;&#x0430;&#x043d;&#x0418;&#x0432;&#x0430;&#x043d;&#x043e;&#x0432;&#x0438;&#x0447;15-26.08.87</tspan><tspan y="-138.89057" x="385.9318 390.8066 395.35658 400.225 404.26536 408.3057 414.87583 421.44596 425.9959 430.54588 434.50434 439.0543 444.95103 449.81947 456.96287 461.87953 466.42948 470.97944 475.129 479.31495 484.18339 488.73335 493.0285 497.89695">&#x0422;&#x043e;&#x043d;&#x0435;&#x0435;&#x0432;&#x041f;&#x0440;&#x043e;&#x043a;&#x043e;&#x0444;&#x0438;&#x0439;&#x0413;&#x0443;&#x0440;&#x044c;&#x044f;&#x043d;&#x043e;&#x0432;&#x0438;&#x0447;</tspan><tspan y="-179.20404" x="477.03547">~</tspan><tspan y="-138.89057" x="504.7565 509.67955 514.2295">~61</tspan></text>
<path transform="matrix(1,0,0,-1,179.664,47.453004)" stroke-width=".91" stroke-linecap="butt" stroke-miterlimit="22.926" stroke-linejoin="miter" fill="none" stroke="#231f20" d="M 0 0 L 104.832 0 L 104.832 -26.208 L 0 -26.208 Z "/>
<path transform="matrix(1,0,0,-1,323.80799,139.181)" stroke-width=".91" stroke-linecap="butt" stroke-miterlimit="22.926" stroke-linejoin="miter" fill="none" stroke="#231f20" d="M 0 0 L 104.832 0 L 104.832 -13.104 L 0 -13.104 Z "/>
<path transform="matrix(1,0,0,-1,323.80799,99.869)" stroke-width=".91" stroke-linecap="butt" stroke-miterlimit="22.926" stroke-linejoin="miter" fill="none" stroke="#231f20" d="M 0 0 L 104.832 0 L 104.832 -13.104 L 0 -13.104 Z "/>
<text fill="#231f20" xml:space="preserve" transform="matrix(1 0 -0 1 0 842)" font-size="9.0999" font-family="TimesNewRomanPSMT"><tspan y="-752.3878" x="192.7677 197.64252 202.19248 207.06093 211.10129 215.14165 219.31668 225.6311 228.66138 233.88472 238.15076 242.19112 247.05957 251.1791 255.71994 260.2699 264.44679 268.48713">&#x0422;&#x043e;&#x043d;&#x0435;&#x0435;&#x0432;&#x0430;(&#x0411;&#x0435;&#x0441;&#x043f;&#x0430;&#x043b;&#x043e;&#x0432;&#x0430;)</tspan><tspan y="-742.3097" x="192.7677 199.33783 203.06879 207.61875 212.4872 217.35565 222.2241 227.09256 233.41426 236.44454 242.00458 246.07314 250.70499 255.25495 259.6775 264.54594 268.73188">&#x0410;&#x0433;&#x0440;&#x0438;&#x043f;&#x0438;&#x043d;&#x0430;(&#x0415;&#x0432;&#x0434;&#x043e;&#x043a;&#x0438;&#x044f;)</tspan><tspan y="-732.23159" x="192.7677 199.33783 203.5165 207.55686 212.42531 216.97527 221.27042 226.13887">&#x0418;&#x0432;&#x0430;&#x043d;&#x043e;&#x0432;&#x043d;&#x0430;</tspan></text>
<path transform="matrix(1,0,0,-1,35.52,126.07703)" stroke-width=".91" stroke-linecap="butt" stroke-miterlimit="22.926" stroke-linejoin="miter" fill="none" stroke="#231f20" d="M 0 0 L 104.832 0 L 104.832 -26.208 L 0 -26.208 Z "/>
<path transform="matrix(1,0,0,-1,179.664,204.70102)" stroke-width=".91" stroke-linecap="butt" stroke-miterlimit="22.926" stroke-linejoin="miter" fill="none" stroke="#231f20" d="M 0 0 L 104.832 0 L 104.832 -26.208 L 0 -26.208 Z "/>
<text fill="#231f20" xml:space="preserve" transform="matrix(1 0 -0 1 0 842)" font-size="9.0999" font-family="TimesNewRomanPSMT"><tspan y="-626.1368" x="194.9882 201.55834 205.5987 210.14865 216.04538 220.08574 224.9542 229.50415 236.07428 242.14392 246.18428 250.22464 255.0931 259.63395 264.50239">&#x041f;&#x0430;&#x0440;&#x0444;&#x0435;&#x043d;&#x043e;&#x0432;&#x0412;&#x0430;&#x0441;&#x0438;&#x043b;&#x0438;&#x0439;</tspan><tspan y="-616.05868" x="194.9882 201.05785 205.0982 209.13857 214.00702 218.54787 222.69742 226.73778 231.03293 235.90139">&#x0412;&#x0430;&#x0441;&#x0438;&#x043b;&#x044c;&#x0435;&#x0432;&#x0438;&#x0447;</tspan></text>
<path transform="matrix(1,0,0,-1,284.496,179.474)" stroke-width=".91" stroke-linecap="butt" stroke-miterlimit="22.926" stroke-linejoin="miter" fill="none" stroke="#231f20" d="M 0 0 L 13.104 0 "/>
<path transform="matrix(1,0,0,-1,284.496,218.786)" stroke-width=".91" stroke-linecap="butt" stroke-miterlimit="22.926" stroke-linejoin="miter" fill="none" stroke="#231f20" d="M 0 0 L 13.104 0 "/>
<path transform="matrix(1,0,0,-1,310.704,179.474)" stroke-width=".91" stroke-linecap="butt" stroke-miterlimit="22.926" stroke-linejoin="miter" fill="none" stroke="#231f20" d="M 0 0 L 0 -26.208 "/>
<path transform="matrix(1,0,0,-1,310.704,179.474)" stroke-width=".91" stroke-linecap="butt" stroke-miterlimit="22.926" stroke-linejoin="miter" fill="none" stroke="#231f20" d="M 0 0 L 13.104 0 "/>
<path transform="matrix(1,0,0,-1,297.6,205.682)" stroke-width=".91" stroke-linecap="butt" stroke-miterlimit="22.926" stroke-linejoin="miter" fill="none" stroke="#231f20" d="M 0 0 L 13.104 0 "/>
<path transform="matrix(1,0,0,-1,297.6,179.474)" stroke-width=".91" stroke-linecap="butt" stroke-miterlimit="22.926" stroke-linejoin="miter" fill="none" stroke="#231f20" d="M 0 0 L 0 -39.312 "/>
<text fill="#231f20" xml:space="preserve" transform="matrix(1 0 -0 1 0 842)" font-size="9.0999" font-family="TimesNewRomanPSMT"><tspan y="-660.5005" x="343.2538 348.67008 353.21095 357.3605 361.54646 366.4149 371.28334 377.74699 382.29695 386.8469 389.12187 393.6718 398.22178 400.49674 405.0467">&#x0423;&#x043b;&#x044c;&#x044f;&#x043d;&#x0438;&#x044f;18.12.87</tspan></text>
<path transform="matrix(1,0,0,-1,323.808,171.94098)" stroke-width=".91" stroke-linecap="butt" stroke-miterlimit="22.926" stroke-linejoin="miter" fill="none" stroke="#231f20" d="M 0 0 L 104.832 0 L 104.832 -13.104 L 0 -13.104 Z "/>
<path transform="matrix(1,0,0,-1,35.52002,158.83698)" stroke-width=".91" stroke-linecap="butt" stroke-miterlimit="22.926" stroke-linejoin="miter" fill="none" stroke="#231f20" d="M 0 0 L 104.832 0 L 104.832 -26.208 L 0 -26.208 Z "/>
<path transform="matrix(1,0,0,-1,323.808,119.52498)" stroke-width=".91" stroke-linecap="butt" stroke-miterlimit="22.926" stroke-linejoin="miter" fill="none" stroke="#231f20" d="M 0 0 L 104.832 0 L 104.832 -13.104 L 0 -13.104 Z "/>
<path transform="matrix(1,0,0,-1,179.66402,80.21298)" stroke-width=".91" stroke-linecap="butt" stroke-miterlimit="22.926" stroke-linejoin="miter" fill="none" stroke="#231f20" d="M 0 0 L 104.832 0 L 104.832 -32.76 L 0 -32.76 Z "/>
<path transform="matrix(1,0,0,-1,173.11202,94.29698)" stroke-width=".91" stroke-linecap="butt" stroke-miterlimit="22.926" stroke-linejoin="miter" fill="none" stroke="#231f20" d="M 0 0 L 6.552 0 "/>
<path transform="matrix(1,0,0,-1,173.11202,28.776986)" stroke-width=".91" stroke-linecap="butt" stroke-miterlimit="22.926" stroke-linejoin="miter" fill="none" stroke="#231f20" d="M 0 0 L 0 -65.52 "/>
<path transform="matrix(1,0,0,-1,310.704,87.74498)" stroke-width=".91" stroke-linecap="butt" stroke-miterlimit="22.926" stroke-linejoin="miter" fill="none" stroke="#231f20" d="M 0 0 L 13.104 0 "/>
<text fill="#231f20" xml:space="preserve" transform="matrix(1 0 -0 1 0 842)" font-size="9.0999" font-family="TimesNewRomanPSMT"><tspan y="-753.1324" x="347.0037 354.19264 358.11195 362.74378 367.29374 374.11686 378.6668 383.21678 385.49174 390.0417 394.59165 396.8666 401.41658">&#x0424;&#x0435;&#x0434;&#x043e;&#x0440;15.04.88</tspan></text>
<path transform="matrix(1,0,0,-1,0,842)" stroke-width=".91" stroke-linecap="butt" stroke-miterlimit="22.926" stroke-linejoin="miter" fill="none" stroke="#231f20" d="M 323.808 761.787 L 428.64 761.787 L 428.64 748.683 L 323.808 748.683 Z "/>
<text fill="#231f20" xml:space="preserve" transform="matrix(1 0 -0 1 0 842)" font-size="9.0999" font-family="TimesNewRomanPSMT"><tspan y="-816.2911" x="203.9892 209.21254 213.47858 217.51894 222.38739 226.50691 231.04776 235.59772 242.16785 246.7369 250.77725 255.32721 259.36756 263.4079 268.27635">&#x0411;&#x0435;&#x0441;&#x043f;&#x0430;&#x043b;&#x043e;&#x0432;&#x0413;&#x0435;&#x0440;&#x0430;&#x0441;&#x0438;&#x043c;</tspan><tspan y="-806.21298" x="203.9892 210.55933 214.73799 218.77835 223.6468 228.19676 232.49192 237.36037">&#x0418;&#x0432;&#x0430;&#x043d;&#x043e;&#x0432;&#x0438;&#x0447;</tspan></text>
<path transform="matrix(1,0,0,-1,173.112,28.778016)" stroke-width=".91" stroke-linecap="butt" stroke-miterlimit="22.926" stroke-linejoin="miter" fill="none" stroke="#231f20" d="M 0 0 L 6.552 0 "/>
<path transform="matrix(1,0,0,-1,179.664,14.6940159)" stroke-width=".91" stroke-linecap="butt" stroke-miterlimit="22.926" stroke-linejoin="miter" fill="none" stroke="#231f20" d="M 0 0 L 104.832 0 L 104.832 -26.208 L 0 -26.208 Z "/>
<path transform="matrix(1,0,0,-1,179.664,171.94202)" stroke-width=".91" stroke-linecap="butt" stroke-miterlimit="22.926" stroke-linejoin="miter" fill="none" stroke="#231f20" d="M 0 0 L 104.832 0 L 104.832 -26.208 L 0 -26.208 Z "/>
<path transform="matrix(1,0,0,-1,179.664,237.462)" stroke-width=".91" stroke-linecap="butt" stroke-miterlimit="22.926" stroke-linejoin="miter" fill="none" stroke="#231f20" d="M 0 0 L 104.832 0 L 104.832 -26.208 L 0 -26.208 Z "/>
<path transform="matrix(1,0,0,-1,179.664,302.982)" stroke-width=".91" stroke-linecap="butt" stroke-miterlimit="22.926" stroke-linejoin="miter" fill="none" stroke="#231f20" d="M 0 0 L 104.832 0 L 104.832 -32.76 L 0 -32.76 Z "/>
<text fill="#231f20" xml:space="preserve" transform="matrix(1 0 -0 1 0 842)" font-size="9.0999" font-family="TimesNewRomanPSMT"><tspan y="-529.6201" x="187.4745 192.34932 196.89928 201.76773 205.80809 209.84845 214.02349 220.3379 223.36818 231.458 235.49835 239.78076 243.82112 248.37108 253.23954 260.24647 265.1149 269.98335 274.02369">&#x0422;&#x043e;&#x043d;&#x0435;&#x0435;&#x0432;&#x0430;(&#x041c;&#x0430;&#x043a;&#x0430;&#x0440;&#x0438;&#x0448;&#x0438;&#x043d;&#x0430;)</tspan><tspan y="-519.542" x="187.4745 194.04463 198.08499 202.62584 206.6662 210.27704 214.3174 220.77834 226.33838 230.40512 235.03697 239.58693 244.00948 248.87793 254.63817 259.1881 263.48329 268.3517">&#x041f;&#x0435;&#x043b;&#x0430;&#x0433;&#x0435;&#x044f;&#x0415;&#x0432;&#x0434;&#x043e;&#x043a;&#x0438;&#x043c;&#x043e;&#x0432;&#x043d;&#x0430;</tspan><tspan y="-509.46388" x="187.4745 192.39756 196.94751">~69</tspan><tspan y="-521.9535" x="50.99237 59.082185 63.12254 67.40495 71.44531 75.99526 80.86371 87.870639 92.73908">&#x041c;&#x0430;&#x043a;&#x0430;&#x0440;&#x0438;&#x0448;&#x0438;&#x043d;</tspan><tspan y="-511.87538" x="50.99237 56.55241 60.620977 65.25282 69.80277 74.22533 79.09377 87.12899 93.69912 97.873249 101.913608 106.78205 111.332 115.62715 120.4956">&#x0415;&#x0432;&#x0434;&#x043e;&#x043a;&#x0438;&#x043c;&#x0418;&#x0432;&#x0430;&#x043d;&#x043e;&#x0432;&#x0438;&#x0447;</tspan></text>
<path transform="matrix(1,0,0,-1,140.352,317.06599)" stroke-width=".91" stroke-linecap="butt" stroke-miterlimit="22.926" stroke-linejoin="miter" fill="none" stroke="#231f20" d="M 0 0 L 39.312 0 "/>
<path transform="matrix(1,0,0,-1,284.496,317.06599)" stroke-width=".91" stroke-linecap="butt" stroke-miterlimit="22.926" stroke-linejoin="miter" fill="none" stroke="#231f20" d="M 0 0 L 13.104 0 "/>
<path transform="matrix(1,0,0,-1,284.496,356.378)" stroke-width=".91" stroke-linecap="butt" stroke-miterlimit="22.926" stroke-linejoin="miter" fill="none" stroke="#231f20" d="M 0 0 L 13.104 0 "/>
<path transform="matrix(1,0,0,-1,297.6,317.06599)" stroke-width=".91" stroke-linecap="butt" stroke-miterlimit="22.926" stroke-linejoin="miter" fill="none" stroke="#231f20" d="M 0 0 L 0 -39.312 "/>
<text fill="#231f20" xml:space="preserve" transform="matrix(.000036630486 -1 1 .000036630486 0 842)" font-size="8.1899" font-family="TimesNewRomanPSMT"><tspan y="294.9546" x="491.5183 495.61326 499.7082 501.75569 505.85063 509.94557">01.02.</tspan><tspan y="294.95457" x="511.99305">8</tspan><tspan y="294.9546" x="516.088">8</tspan></text>
<path transform="matrix(1,0,0,-1,179.664,342.293)" stroke-width=".91" stroke-linecap="butt" stroke-miterlimit="22.926" stroke-linejoin="miter" fill="none" stroke="#231f20" d="M 0 0 L 104.832 0 L 104.832 -32.76 L 0 -32.76 Z "/>
<path transform="matrix(1,0,0,-1,35.520006,348.845)" stroke-width=".91" stroke-linecap="butt" stroke-miterlimit="22.926" stroke-linejoin="miter" fill="none" stroke="#231f20" d="M 0 0 L 104.832 0 L 104.832 -26.208 L 0 -26.208 Z "/>
<path transform="matrix(1,0,0,-1,35.520006,309.533)" stroke-width=".91" stroke-linecap="butt" stroke-miterlimit="22.926" stroke-linejoin="miter" fill="none" stroke="#231f20" d="M 0 0 L 104.832 0 L 104.832 -26.208 L 0 -26.208 Z "/>
<path transform="matrix(1,0,0,-1,35.520006,381.60499)" stroke-width=".91" stroke-linecap="butt" stroke-miterlimit="22.926" stroke-linejoin="miter" fill="none" stroke="#231f20" d="M 0 0 L 104.832 0 L 104.832 -32.76 L 0 -32.76 Z "/>
<path transform="matrix(1,0,0,-1,179.664,401.261)" stroke-width=".91" stroke-linecap="butt" stroke-miterlimit="22.926" stroke-linejoin="miter" fill="none" stroke="#231f20" d="M 0 0 L 104.832 0 L 104.832 -32.76 L 0 -32.76 Z "/>
<path transform="matrix(1,0,0,-1,166.56,389.137)" stroke-width=".91" stroke-linecap="butt" stroke-miterlimit="22.926" stroke-linejoin="miter" fill="none" stroke="#231f20" d="M 0 0 L 13.104 0 "/>
<text fill="#231f20" xml:space="preserve" transform="matrix(1 0 -0 1 0 842)" font-size="9.0999" font-family="TimesNewRomanPSMT"><tspan y="-450.8367" x="199.11 205.68013 209.48572 213.57248 217.692 222.23285 226.3824 232.84334 237.3933 241.94326 244.21823 248.76819 253.31815 255.59313 260.14308">&#x041d;&#x0430;&#x0442;&#x0430;&#x043b;&#x044c;&#x044f;09.08.79</tspan></text>
<path transform="matrix(1,0,0,-1,179.664,381.605)" stroke-width=".91" stroke-linecap="butt" stroke-miterlimit="22.926" stroke-linejoin="miter" fill="none" stroke="#231f20" d="M 0 0 L 104.832 0 L 104.832 -13.104 L 0 -13.104 Z "/>
<path transform="matrix(1,0,0,-1,179.664,440.573)" stroke-width=".91" stroke-linecap="butt" stroke-miterlimit="22.926" stroke-linejoin="miter" fill="none" stroke="#231f20" d="M 0 0 L 104.832 0 L 104.832 -26.208 L 0 -26.208 Z "/>
<path transform="matrix(1,0,0,-1,323.80799,414.365)" stroke-width=".91" stroke-linecap="butt" stroke-miterlimit="22.926" stroke-linejoin="miter" fill="none" stroke="#231f20" d="M 0 0 L 104.832 0 L 104.832 -13.104 L 0 -13.104 Z "/>
<text fill="#231f20" xml:space="preserve" transform="matrix(1 0 -0 1 0 842)" font-size="9.0999" font-family="TimesNewRomanPSMT"><tspan y="-399.3249" x="349.9681 356.53825 360.57859 364.66535 371.49028 375.7017 380.25166 382.5266 387.07658 391.62654 393.9015 398.45146">&#x041f;&#x0435;&#x0442;&#x0440;11.07.88</tspan></text>
<path transform="matrix(1,0,0,-1,310.704,441.553)" stroke-width=".91" stroke-linecap="butt" stroke-miterlimit="22.926" stroke-linejoin="miter" fill="none" stroke="#231f20" d="M 0 0 L 13.104 0 "/>
<path transform="matrix(1,0,0,-1,323.808,434.021)" stroke-width=".91" stroke-linecap="butt" stroke-miterlimit="22.926" stroke-linejoin="miter" fill="none" stroke="#231f20" d="M 0 0 L 104.832 0 L 104.832 -13.104 L 0 -13.104 Z "/>
<path transform="matrix(1,0,0,-1,454.84803,87.746)" stroke-width=".91" stroke-linecap="butt" stroke-miterlimit="22.926" stroke-linejoin="miter" fill="none" stroke="#231f20" d="M 0 0 L 13.104 0 "/>
<text fill="#231f20" xml:space="preserve" transform="matrix(1 0 -0 1 0 842)" font-size="9.0999" font-family="TimesNewRomanPSMT"><tspan y="-765.6383" x="490.5741 495.4489 499.99888 504.8673 508.90766 512.948 519.5181 527.6079 532.4764 536.908 540.94839 545.81686">&#x0422;&#x043e;&#x043d;&#x0435;&#x0435;&#x0432;&#x041c;&#x0438;&#x0445;&#x0430;&#x0438;&#x043b;</tspan><tspan y="-755.5602" x="490.5741 497.76304 501.68235 506.31419 510.86415 515.41409 519.964 524.25918 529.1276">&#x0424;&#x0435;&#x0434;&#x043e;&#x0440;&#x043e;&#x0432;&#x0438;&#x0447;</tspan><tspan y="-745.48208" x="490.5741 495.12406 499.674 504.22398 508.77394 511.8042 516.3541 520.90408 523.179 527.72897 532.2789 534.55386 539.10379 543.6537 548.2036">1912-20.03.1943</tspan></text>
<path transform="matrix(1,0,0,-1,467.951,67.10901)" stroke-width=".91" stroke-linecap="butt" stroke-miterlimit="22.926" stroke-linejoin="miter" fill="none" stroke="#231f20" d="M 0 0 L 104.832 0 L 104.832 -32.76 L 0 -32.76 Z "/>
<path transform="matrix(1,0,0,-1,428.63899,54.98501)" stroke-width=".91" stroke-linecap="butt" stroke-miterlimit="22.926" stroke-linejoin="miter" fill="none" stroke="#231f20" d="M 0 0 L 13.104 0 "/>
<path transform="matrix(1,0,0,-1,428.63899,87.74501)" stroke-width=".91" stroke-linecap="butt" stroke-miterlimit="22.926" stroke-linejoin="miter" fill="none" stroke="#231f20" d="M 0 0 L 13.104 0 "/>
<path transform="matrix(1,0,0,-1,454.847,41.881013)" stroke-width=".91" stroke-linecap="butt" stroke-miterlimit="22.926" stroke-linejoin="miter" fill="none" stroke="#231f20" d="M 0 0 L 0 -45.864 "/>
<path transform="matrix(1,0,0,-1,441.74299,74.64101)" stroke-width=".91" stroke-linecap="butt" stroke-miterlimit="22.926" stroke-linejoin="miter" fill="none" stroke="#231f20" d="M 0 0 L 13.104 0 "/>
<path transform="matrix(1,0,0,-1,441.74299,54.98501)" stroke-width=".91" stroke-linecap="butt" stroke-miterlimit="22.926" stroke-linejoin="miter" fill="none" stroke="#231f20" d="M 0 0 L 0 -32.76 "/>
<text fill="#231f20" xml:space="preserve" transform="matrix(1 0 -0 1 0 842)" font-size="9.0999" font-family="TimesNewRomanPSMT"><tspan y="-789.0167" x="330.8763 337.19075 342.75077 347.30073 352.16917 356.2095 360.24986 364.42308">?&#x0422;&#x043e;&#x043d;&#x0435;&#x0435;&#x0432;&#x0430;</tspan><tspan y="-778.9386" x="330.8763 337.44645 342.31489 346.35523 350.39558 354.48234 358.52268 362.56303 367.43147 373.89237 381.0813 385.94975 390.4906 395.35905 400.22749 405.09593 409.64588 413.94105 418.80949">&#x0410;&#x043d;&#x0430;&#x0441;&#x0442;&#x0430;&#x0441;&#x0438;&#x044f;&#x0424;&#x0438;&#x043b;&#x0438;&#x043f;&#x043f;&#x043e;&#x0432;&#x043d;&#x0430;</tspan><tspan y="-789.0167" x="370.73753 373.7678 379.32783 383.86869 387.90904 391.63999 396.50843 401.37687 405.4172">(&#x0415;&#x043b;&#x0430;&#x0433;&#x0438;&#x043d;&#x0430;)</tspan></text>
<path transform="matrix(1,0,0,-1,0,842)" stroke-width=".91" stroke-linecap="butt" stroke-miterlimit="22.926" stroke-linejoin="miter" fill="none" stroke="#231f20" d="M 323.808 801.099 L 428.64 801.099 L 428.64 768.339 L 323.808 768.339 Z "/>
<text fill="#231f20" xml:space="preserve" transform="matrix(1 0 -0 1 0 842)" font-size="9.0999" font-family="TimesNewRomanPSMT"><tspan y="-804.9502" x="490.5741 495.4489 499.99888 504.8673 508.90766 512.948 519.5181 525.0782 528.5826 533.1325">&#x0422;&#x043e;&#x043d;&#x0435;&#x0435;&#x0432;&#x0415;&#x0433;&#x043e;&#x0440;</tspan><tspan y="-794.8721" x="490.5741 497.76304 501.68235 506.31419 510.86415 515.41409 519.964 524.25918 529.1276">&#x0424;&#x0435;&#x0434;&#x043e;&#x0440;&#x043e;&#x0432;&#x0438;&#x0447;</tspan><tspan y="-784.79397" x="504.22395 511.80418 516.3541 523.179 527.72897 548.2028 490.5741 495.12406 499.674 508.77394 520.9041 532.279 534.55398 539.1039 543.6538">713121191-..194</tspan></text>
<path transform="matrix(1,0,0,-1,467.951,27.796998)" stroke-width=".91" stroke-linecap="butt" stroke-miterlimit="22.926" stroke-linejoin="miter" fill="none" stroke="#231f20" d="M 0 0 L 104.832 0 L 104.832 -32.76 L 0 -32.76 Z "/>
<path transform="matrix(1,0,0,-1,454.847,41.880998)" stroke-width=".91" stroke-linecap="butt" stroke-miterlimit="22.926" stroke-linejoin="miter" fill="none" stroke="#231f20" d="M 0 0 L 13.104 0 "/>
</g>
</svg>
