<?xml version="1.0" encoding="UTF-8" standalone="no"?>
<!DOCTYPE svg PUBLIC "-//W3C//DTD SVG 1.1//EN" "http://www.w3.org/Graphics/SVG/1.1/DTD/svg11.dtd">
<svg xmlns="http://www.w3.org/2000/svg" xmlns:xlink="http://www.w3.org/1999/xlink" version="1.1" width="595.22pt" height="842pt" viewBox="0 0 595.22 842">
<g enable-background="new">
<text fill="#231f20" xml:space="preserve" transform="matrix(1 0 -0 1 0 842)" font-size="9.8999" font-family="TimesNewRomanPSMT"><tspan y="-420.6631" x="165.3128 171.91605 179.53897 184.83542 189.78537 196.9331 204.75403 209.02286 214.0619 219.01186 226.43679 232.23714 237.53359 242.10735 247.0573 252.35375 257.30369 261.97645 267.2729">&#x042f;&#x0448;&#x043d;&#x043e;&#x0432;&#x0424;&#x0435;&#x0434;&#x043e;&#x0440;&#x0422;&#x0438;&#x0445;&#x043e;&#x043d;&#x043e;&#x0432;&#x0438;&#x0447;</tspan><tspan y="-409.69895" x="165.3128 170.66866 175.6186 180.56856 185.51851 190.46846 193.76512 199.12097 204.07093 209.02088 213.97083">~1860-~1948</tspan><tspan y="-398.7348" x="165.3128 168.60947 175.25627 180.29532 185.24527 189.64083 195.90746 200.8574 205.53017 210.18709 214.58264 220.35428 224.26474 228.52863 233.82508 238.77503 243.72498 248.27893 253.31798 258.2679 262.87336 267.8233">(&#x0410;&#x0431;&#x0440;&#x0430;&#x043c;&#x043e;&#x0432;&#x043a;&#x0430;)&#x0437;&#x0430;&#x043f;.&#x0440;&#x044f;&#x0434;&#x043e;&#x0432;&#x043e;&#x0439;</tspan></text>
<path transform="matrix(1,0,0,-1,276.216,434.156)" stroke-width=".99" stroke-linecap="butt" stroke-miterlimit="22.926" stroke-linejoin="miter" fill="none" stroke="#231f20" d="M 0 0 L 14.256 0 "/>
<path transform="matrix(1,0,0,-1,276.216,491.18)" stroke-width=".99" stroke-linecap="butt" stroke-miterlimit="22.926" stroke-linejoin="miter" fill="none" stroke="#231f20" d="M 0 0 L 14.256 0 "/>
<path transform="matrix(1,0,0,-1,290.47203,434.156)" stroke-width=".99" stroke-linecap="butt" stroke-miterlimit="22.926" stroke-linejoin="miter" fill="none" stroke="#231f20" d="M 0 0 L 0 -57.024 "/>
<path transform="matrix(1,0,0,-1,162.16802,411.70503)" stroke-width=".99" stroke-linecap="butt" stroke-miterlimit="22.926" stroke-linejoin="miter" fill="none" stroke="#231f20" d="M 0 0 L 114.048 0 L 114.048 -49.896 L 0 -49.896 Z "/>
<path transform="matrix(1,0,0,-1,162.16802,468.729)" stroke-width=".99" stroke-linecap="butt" stroke-miterlimit="22.926" stroke-linejoin="miter" fill="none" stroke="#231f20" d="M 0 0 L 114.048 0 L 114.048 -49.896 L 0 -49.896 Z "/>
<text fill="#231f20" xml:space="preserve" transform="matrix(1 0 -0 1 0 842)" font-size="9.8999" font-family="TimesNewRomanPSMT"><tspan y="-351.4264" x="180.1135 186.71674 194.33966 199.63611 204.58606 209.1321 216.00164 219.2983 226.44603 231.39598 236.21822 240.54448 245.84093 250.79088 255.33692 259.73249">&#x042f;&#x0448;&#x043d;&#x043e;&#x0432;&#x0430;(&#x041f;&#x043e;&#x0440;&#x0442;&#x043d;&#x043e;&#x0432;&#x0430;)</tspan><tspan y="-340.46226" x="180.1135 186.71674 191.66669 198.08182 202.59618 209.6251 216.77285 222.06929 227.10834 232.05829 236.45384 240.8494 245.52216 250.8186">&#x0421;&#x043e;&#x0444;&#x044c;&#x044f;&#x0410;&#x043d;&#x0434;&#x0440;&#x0435;&#x0435;&#x0432;&#x043d;&#x0430;</tspan></text>
<path transform="matrix(1,0,0,-1,0,842)" stroke-width=".99" stroke-linecap="butt" stroke-miterlimit="22.926" stroke-linejoin="miter" fill="none" stroke="#231f20" d="M 162.168 487.319 L 276.216 487.319 L 276.216 437.423 L 162.168 437.423 Z "/>
<text fill="#231f20" xml:space="preserve" transform="matrix(1 0 -0 1 0 842)" font-size="9.8999" font-family="TimesNewRomanPSMT"><tspan y="-476.5867" x="185.4216 192.02484 199.64777 204.94422 209.89417 217.0419 223.64514 228.0407 232.43625 237.7327 242.67275 247.9692">&#x042f;&#x0448;&#x043d;&#x043e;&#x0432;&#x0412;&#x0430;&#x0441;&#x0438;&#x043b;&#x0438;&#x0439;</tspan><tspan y="-465.62257" x="185.4216 191.22295 196.5194 201.09316 206.0431 211.33956 216.2895 220.96227 226.25872">&#x0422;&#x0438;&#x0445;&#x043e;&#x043d;&#x043e;&#x0432;&#x0438;&#x0447;</tspan><tspan y="-443.69429" x="185.4216 188.71826 195.36507 200.40412 205.35407 209.74962 216.01625 220.9662 225.63896 230.29589 234.69144">(&#x0410;&#x0431;&#x0440;&#x0430;&#x043c;&#x043e;&#x0432;&#x043a;&#x0430;)</tspan></text>
<path transform="matrix(1,0,0,-1,147.912,377.132)" stroke-width=".99" stroke-linecap="butt" stroke-miterlimit="22.926" stroke-linejoin="miter" fill="none" stroke="#231f20" d="M 0 0 L 14.256 0 "/>
<path transform="matrix(1,0,0,-1,147.912,320.108)" stroke-width=".99" stroke-linecap="butt" stroke-miterlimit="22.926" stroke-linejoin="miter" fill="none" stroke="#231f20" d="M 0 0 L 0 -256.608 "/>
<path transform="matrix(1,0,0,-1,147.912,434.156)" stroke-width=".99" stroke-linecap="butt" stroke-miterlimit="22.926" stroke-linejoin="miter" fill="none" stroke="#231f20" d="M 0 0 L 14.256 0 "/>
<path transform="matrix(1,0,0,-1,259.009,504.944)" stroke-width=".99" stroke-linecap="butt" stroke-miterlimit="22.926" stroke-linejoin="miter" fill="none" stroke="#231f20" d="M 0 0 L 3.951 0 "/>
<path transform="matrix(1,0,0,-1,259.009,512.973)" stroke-width=".99" stroke-linecap="butt" stroke-miterlimit="22.926" stroke-linejoin="miter" fill="none" stroke="#231f20" d="M 0 0 L 3.951 0 "/>
<path transform="matrix(1,0,0,-1,262.96,508.959)" stroke-width=".99" stroke-linecap="butt" stroke-miterlimit="22.926" stroke-linejoin="miter" fill="none" stroke="#231f20" d="M 0 0 L 3.951 0 "/>
<path transform="matrix(1,0,0,-1,262.96,504.945)" stroke-width=".99" stroke-linecap="butt" stroke-miterlimit="22.926" stroke-linejoin="miter" fill="none" stroke="#231f20" d="M 0 0 L 0 -8.029 "/>
<path transform="matrix(1,0,0,-1,266.974,504.945)" stroke-width=".99" stroke-linecap="butt" stroke-miterlimit="22.926" stroke-linejoin="miter" fill="none" stroke="#231f20" d="M 0 0 L 0 -8.029 "/>
<path transform="matrix(1,0,0,-1,267.037,504.945)" stroke-width=".99" stroke-linecap="butt" stroke-miterlimit="22.926" stroke-linejoin="miter" fill="none" stroke="#231f20" d="M 0 0 L 3.951 0 "/>
<path transform="matrix(1,0,0,-1,267.037,512.974)" stroke-width=".99" stroke-linecap="butt" stroke-miterlimit="22.926" stroke-linejoin="miter" fill="none" stroke="#231f20" d="M 0 0 L 3.951 0 "/>
<path transform="matrix(1,0,0,-1,119.399997,377.133)" stroke-width=".99" stroke-linecap="butt" stroke-miterlimit="22.926" stroke-linejoin="miter" fill="none" stroke="#231f20" d="M 0 0 L 14.256 0 "/>
<path transform="matrix(1,0,0,-1,119.399997,427.029)" stroke-width=".99" stroke-linecap="butt" stroke-miterlimit="22.926" stroke-linejoin="miter" fill="none" stroke="#231f20" d="M 0 0 L 14.256 0 "/>
<path transform="matrix(1,0,0,-1,133.65599,377.133)" stroke-width=".99" stroke-linecap="butt" stroke-miterlimit="22.926" stroke-linejoin="miter" fill="none" stroke="#231f20" d="M 0 0 L 0 -49.896 "/>
<path transform="matrix(1,0,0,-1,133.65599,405.645)" stroke-width=".99" stroke-linecap="butt" stroke-miterlimit="22.926" stroke-linejoin="miter" fill="none" stroke="#231f20" d="M 0 0 L 14.256 0 "/>
<path transform="matrix(1,0,0,-1,5.3519899,354.68299)" stroke-width=".99" stroke-linecap="butt" stroke-miterlimit="22.926" stroke-linejoin="miter" fill="none" stroke="#231f20" d="M 0 0 L 114.048 0 L 114.048 -49.896 L 0 -49.896 Z "/>
<text fill="#231f20" xml:space="preserve" transform="matrix(1 0 -0 1 0 842)" font-size="9.8999" font-family="TimesNewRomanPSMT"><tspan y="-476.5982" x="33.7587 40.361936 47.98486 53.281309 58.23126 65.37898 71.18428 76.48073 81.05448 86.00443">&#x042f;&#x0448;&#x043d;&#x043e;&#x0432;&#x0422;&#x0438;&#x0445;&#x043e;&#x043d;</tspan><tspan y="-465.63407" x="33.7587 40.481725 44.87728 51.143918 55.539476 60.835924 65.78587 70.458629 75.75507">&#x0421;&#x0435;&#x043c;&#x0435;&#x043d;&#x043e;&#x0432;&#x0438;&#x0447;</tspan><tspan y="-454.66993" x="33.7587 38.708654 43.658605 48.608556 53.558507 56.85517 61.805124 66.75507 69.23005 74.18 79.12995 81.60493 86.55488">1826-28.04.97</tspan><tspan y="-443.70579" x="33.7587 37.055368 43.70216 48.74121 53.691164 58.08672 64.353359 69.30331 73.97606 78.63297 83.02853">(&#x0410;&#x0431;&#x0440;&#x0430;&#x043c;&#x043e;&#x0432;&#x043a;&#x0430;)</tspan></text>
<path transform="matrix(1,0,0,-1,5.352,411.705)" stroke-width=".99" stroke-linecap="butt" stroke-miterlimit="22.926" stroke-linejoin="miter" fill="none" stroke="#231f20" d="M 0 0 L 114.048 0 L 114.048 -28.512 L 0 -28.512 Z "/>
<path transform="matrix(1,0,0,-1,162.168,297.65699)" stroke-width=".99" stroke-linecap="butt" stroke-miterlimit="22.926" stroke-linejoin="miter" fill="none" stroke="#231f20" d="M 0 0 L 114.048 0 L 114.048 -49.896 L 0 -49.896 Z "/>
<text fill="#231f20" xml:space="preserve" transform="matrix(1 0 -0 1 0 842)" font-size="9.8999" font-family="TimesNewRomanPSMT"><tspan y="-533.6106" x="185.4216 192.02484 199.64777 204.94422 209.89417 217.0419 224.18964 228.58519 233.0362">&#x042f;&#x0448;&#x043d;&#x043e;&#x0432;&#x041f;&#x0435;&#x0442;&#x0440;</tspan><tspan y="-522.6465" x="185.4216 191.22295 196.5194 201.09316 206.0431 211.33956 216.2895 220.96227 226.25872">&#x0422;&#x0438;&#x0445;&#x043e;&#x043d;&#x043e;&#x0432;&#x0438;&#x0447;</tspan><tspan y="-500.7182" x="185.4216 188.71826 195.36507 200.40412 205.35407 209.74962 216.01625 220.9662 225.63896 230.29589 234.69144">(&#x0410;&#x0431;&#x0440;&#x0430;&#x043c;&#x043e;&#x0432;&#x043a;&#x0430;)</tspan></text>
<path transform="matrix(1,0,0,-1,147.912,320.10798)" stroke-width=".99" stroke-linecap="butt" stroke-miterlimit="22.926" stroke-linejoin="miter" fill="none" stroke="#231f20" d="M 0 0 L 14.256 0 "/>
<path transform="matrix(1,0,0,-1,162.168,262.01799)" stroke-width=".99" stroke-linecap="butt" stroke-miterlimit="22.926" stroke-linejoin="miter" fill="none" stroke="#231f20" d="M 0 0 L 114.048 0 L 114.048 -28.512 L 0 -28.512 Z "/>
<text fill="#231f20" xml:space="preserve" transform="matrix(1 0 -0 1 0 842)" font-size="9.8999" font-family="TimesNewRomanPSMT"><tspan y="-568.8302" x="176.6471 183.25034 190.87326 196.16971 201.11966 205.6657 212.53524 215.8319 222.30446 226.70001 230.61048 235.00603 240.30248 245.59893 249.99448 254.53855 258.9341">&#x042f;&#x0448;&#x043d;&#x043e;&#x0432;&#x0430;(&#x041a;&#x0430;&#x0437;&#x0430;&#x043d;&#x0446;&#x0435;&#x0432;&#x0430;)</tspan><tspan y="-557.8661" x="176.6471 182.69594 187.12319 192.16223 197.11219 201.92354 207.21999 214.24892 221.39665 225.7922 230.23925 235.1892 240.13915 244.8119 250.10836">&#x0415;&#x0432;&#x0434;&#x043e;&#x043a;&#x0438;&#x044f;&#x041f;&#x0435;&#x0442;&#x0440;&#x043e;&#x0432;&#x043d;&#x0430;</tspan></text>
<path transform="matrix(1,0,0,-1,276.216,277.34004)" stroke-width=".99" stroke-linecap="butt" stroke-miterlimit="22.926" stroke-linejoin="miter" fill="none" stroke="#231f20" d="M 0 0 L 14.256 0 "/>
<path transform="matrix(1,0,0,-1,276.216,320.10804)" stroke-width=".99" stroke-linecap="butt" stroke-miterlimit="22.926" stroke-linejoin="miter" fill="none" stroke="#231f20" d="M 0 0 L 14.256 0 "/>
<path transform="matrix(1,0,0,-1,290.47203,277.34004)" stroke-width=".99" stroke-linecap="butt" stroke-miterlimit="22.926" stroke-linejoin="miter" fill="none" stroke="#231f20" d="M 0 0 L 0 -42.768 "/>
<path transform="matrix(1,0,0,-1,162.16802,226.37703)" stroke-width=".99" stroke-linecap="butt" stroke-miterlimit="22.926" stroke-linejoin="miter" fill="none" stroke="#231f20" d="M 0 0 L 114.048 0 L 114.048 -28.512 L 0 -28.512 Z "/>
<text fill="#231f20" xml:space="preserve" transform="matrix(1 0 -0 1 0 842)" font-size="9.8999" font-family="TimesNewRomanPSMT"><tspan y="-604.4701" x="176.6471 183.25034 190.87326 196.16971 201.11966 205.6657 212.53524 215.8319 222.30446 226.70001 230.61048 235.00603 240.30248 245.59893 249.99448 254.53855 258.9341">&#x042f;&#x0448;&#x043d;&#x043e;&#x0432;&#x0430;(&#x041a;&#x0430;&#x0437;&#x0430;&#x043d;&#x0446;&#x0435;&#x0432;&#x0430;)</tspan><tspan y="-593.506" x="176.6471 183.79483 189.09128 194.38773 201.25826 208.40599 212.80155 217.25354 222.20349 227.15345 231.8262 237.12265">&#x0410;&#x043d;&#x043d;&#x0430;&#x041f;&#x0435;&#x0442;&#x0440;&#x043e;&#x0432;&#x043d;&#x0430;</tspan><tspan y="-661.4945" x="176.6471 183.11966 187.51522 191.42568 195.82123 201.11768 206.41413 210.80968">&#x041a;&#x0430;&#x0437;&#x0430;&#x043d;&#x0446;&#x0435;&#x0432;</tspan><tspan y="-650.5304" x="176.6471 183.79483 188.34087 192.73642 200.50785 207.65558 212.05113 216.49916 221.44911 226.39907 231.07183 236.36827">&#x0418;&#x0432;&#x0430;&#x043d;&#x041f;&#x0435;&#x0442;&#x0440;&#x043e;&#x0432;&#x0438;&#x0447;</tspan><tspan y="-639.5663" x="176.6471 182.00295 186.9529 191.90285 196.8528">~1845</tspan></text>
<path transform="matrix(1,0,0,-1,162.168,169.354)" stroke-width=".99" stroke-linecap="butt" stroke-miterlimit="22.926" stroke-linejoin="miter" fill="none" stroke="#231f20" d="M 0 0 L 114.048 0 L 114.048 -49.896 L 0 -49.896 Z "/>
<path transform="matrix(1,0,0,-1,162.168,133.714)" stroke-width=".99" stroke-linecap="butt" stroke-miterlimit="22.926" stroke-linejoin="miter" fill="none" stroke="#231f20" d="M 0 0 L 114.048 0 L 114.048 -28.512 L 0 -28.512 Z "/>
<text fill="#231f20" xml:space="preserve" transform="matrix(1 0 -0 1 0 842)" font-size="9.8999" font-family="TimesNewRomanPSMT"><tspan y="-697.0936" x="176.5088 182.98137 187.37693 191.28739 195.68294 200.97939 206.27584 210.67139 215.21546 222.08499 225.38166 230.23557 235.18552 240.13547 244.79535 249.7453 255.04175 259.9917 264.66447">&#x041a;&#x0430;&#x0437;&#x0430;&#x043d;&#x0446;&#x0435;&#x0432;&#x0430;(&#x0413;&#x043e;&#x0440;&#x0431;&#x0443;&#x043d;&#x043e;&#x0432;)</tspan><tspan y="-686.1295" x="176.5088 183.65654 187.7155 193.01195 198.3084 205.33733 212.48506 216.88062 221.33557 226.28553 231.23548 235.90824 241.20468">&#x0410;&#x0433;&#x043d;&#x0438;&#x044f;&#x041f;&#x0435;&#x0442;&#x0440;&#x043e;&#x0432;&#x043d;&#x0430;</tspan></text>
<path transform="matrix(1,0,0,-1,276.216,149.03601)" stroke-width=".99" stroke-linecap="butt" stroke-miterlimit="22.926" stroke-linejoin="miter" fill="none" stroke="#231f20" d="M 0 0 L 14.256 0 "/>
<path transform="matrix(1,0,0,-1,276.216,191.80402)" stroke-width=".99" stroke-linecap="butt" stroke-miterlimit="22.926" stroke-linejoin="miter" fill="none" stroke="#231f20" d="M 0 0 L 14.256 0 "/>
<path transform="matrix(1,0,0,-1,290.47203,149.03601)" stroke-width=".99" stroke-linecap="butt" stroke-miterlimit="22.926" stroke-linejoin="miter" fill="none" stroke="#231f20" d="M 0 0 L 0 -42.768 "/>
<text fill="#231f20" xml:space="preserve" transform="matrix(.000033670794 -1 1 .000033670794 0 842)" font-size="8.9098" font-family="TimesNewRomanPSMT"><tspan y="287.06724" x="661.3707 665.8256 670.2805">190</tspan><tspan y="287.06727" x="674.7354">2</tspan></text>
<text fill="#231f20" xml:space="preserve" transform="matrix(1 0 -0 1 0 842)" font-size="9.8999" font-family="TimesNewRomanPSMT"><tspan y="-577.0577" x="29.884 36.356557 40.752115 44.662576 49.058134 54.35458 59.651029 64.046588">&#x041a;&#x0430;&#x0437;&#x0430;&#x043d;&#x0446;&#x0435;&#x0432;</tspan><tspan y="-566.09359" x="29.884 37.03173 41.427289 45.87432 53.299249 59.90248 64.20894 69.15889 73.70294 78.64299 83.03854 87.711299 93.007747">&#x041f;&#x0435;&#x0442;&#x0440;&#x042f;&#x043a;&#x043e;&#x0432;&#x043b;&#x0435;&#x0432;&#x0438;&#x0447;</tspan><tspan y="-555.12948" x="29.884 33.180669 38.13062 43.08057 45.555547 50.505498 55.45545 62.881364 77.73122 81.027889 85.97784 90.92779 95.867839 100.26339 104.589649 57.93042">-03.09.9(78&#x043b;&#x0435;&#x0442;)1</tspan></text>
<text fill="#f8abad" xml:space="preserve" transform="matrix(1 0 -0 1 0 842)" font-size="9.8999" font-family="TimesNewRomanPSMT"><tspan y="-555.12948" x="67.83032 72.78027">00</tspan></text>
<path transform="matrix(1,0,0,-1,5.352,247.76203)" stroke-width=".99" stroke-linecap="butt" stroke-miterlimit="22.926" stroke-linejoin="miter" fill="none" stroke="#231f20" d="M 0 0 L 114.048 0 L 114.048 -49.896 L 0 -49.896 Z "/>
<path transform="matrix(1,0,0,-1,119.399997,227.44503)" stroke-width=".99" stroke-linecap="butt" stroke-miterlimit="22.926" stroke-linejoin="miter" fill="none" stroke="#231f20" d="M 0 0 L 14.256 0 "/>
<path transform="matrix(1,0,0,-1,119.399997,270.213)" stroke-width=".99" stroke-linecap="butt" stroke-miterlimit="22.926" stroke-linejoin="miter" fill="none" stroke="#231f20" d="M 0 0 L 14.256 0 "/>
<path transform="matrix(1,0,0,-1,133.65599,227.445)" stroke-width=".99" stroke-linecap="butt" stroke-miterlimit="22.926" stroke-linejoin="miter" fill="none" stroke="#231f20" d="M 0 0 L 0 -42.768 "/>
<path transform="matrix(1,0,0,-1,147.91199,241.701)" stroke-width=".99" stroke-linecap="butt" stroke-miterlimit="22.926" stroke-linejoin="miter" fill="none" stroke="#231f20" d="M 0 0 L 14.256 0 "/>
<path transform="matrix(1,0,0,-1,147.91199,113.397)" stroke-width=".99" stroke-linecap="butt" stroke-miterlimit="22.926" stroke-linejoin="miter" fill="none" stroke="#231f20" d="M 0 0 L 0 -163.944 "/>
<path transform="matrix(1,0,0,-1,147.91199,277.341)" stroke-width=".99" stroke-linecap="butt" stroke-miterlimit="22.926" stroke-linejoin="miter" fill="none" stroke="#231f20" d="M 0 0 L 14.256 0 "/>
<path transform="matrix(1,0,0,-1,147.91199,191.805)" stroke-width=".99" stroke-linecap="butt" stroke-miterlimit="22.926" stroke-linejoin="miter" fill="none" stroke="#231f20" d="M 0 0 L 14.256 0 "/>
<path transform="matrix(1,0,0,-1,133.65599,248.829)" stroke-width=".99" stroke-linecap="butt" stroke-miterlimit="22.926" stroke-linejoin="miter" fill="none" stroke="#231f20" d="M 0 0 L 14.256 0 "/>
<path transform="matrix(1,0,0,-1,5.3519899,212.12299)" stroke-width=".99" stroke-linecap="butt" stroke-miterlimit="22.926" stroke-linejoin="miter" fill="none" stroke="#231f20" d="M 0 0 L 114.048 0 L 114.048 -28.512 L 0 -28.512 Z "/>
<text fill="#231f20" xml:space="preserve" transform="matrix(1 0 -0 1 0 842)" font-size="9.8999" font-family="TimesNewRomanPSMT"><tspan y="-518.9343" x="326.335 333.48274 338.77919 343.08958 347.90885 352.8489 357.24449 365.01689 369.96684 374.91679 377.39176 382.3417 387.29167 389.76664 394.71659">&#x041d;&#x0438;&#x043a;&#x043e;&#x043b;&#x0430;&#x0439;02.12.97</tspan></text>
<path transform="matrix(1,0,0,-1,318.984,311.914)" stroke-width=".99" stroke-linecap="butt" stroke-miterlimit="22.926" stroke-linejoin="miter" fill="none" stroke="#231f20" d="M 0 0 L 114.048 0 L 114.048 -14.256 L 0 -14.256 Z "/>
<path transform="matrix(1,0,0,-1,318.984,333.298)" stroke-width=".99" stroke-linecap="butt" stroke-miterlimit="22.926" stroke-linejoin="miter" fill="none" stroke="#231f20" d="M 0 0 L 114.048 0 L 114.048 -14.256 L 0 -14.256 Z "/>
<text fill="#231f20" xml:space="preserve" transform="matrix(1 0 -0 1 0 842)" font-size="9.8999" font-family="TimesNewRomanPSMT"><tspan y="-497.5502" x="326.335 332.44523 337.39518 342.69163 347.0872 351.53425 355.9298 361.22627 365.55253 370.84898 378.62437 383.5743 388.52427 390.99925 395.9492 400.89915 403.3741 408.32408">&#x041a;&#x043e;&#x043d;&#x0441;&#x0442;&#x0430;&#x043d;&#x0442;&#x0438;&#x043d;20.05.00</tspan><tspan y="-476.1664" x="326.335 335.13603 339.27616 343.7222 348.67216 353.6221 358.91856 365.79008 370.74003 375.68998 378.16496 383.1149 388.06486 390.53984 395.48979">&#x041c;&#x0430;&#x0442;&#x0440;&#x043e;&#x043d;&#x0430;18.07.02</tspan></text>
<path transform="matrix(1,0,0,-1,318.984,354.681)" stroke-width=".99" stroke-linecap="butt" stroke-miterlimit="22.926" stroke-linejoin="miter" fill="none" stroke="#231f20" d="M 0 0 L 114.048 0 L 114.048 -14.256 L 0 -14.256 Z "/>
<path transform="matrix(1,0,0,-1,304.728,341.491)" stroke-width=".99" stroke-linecap="butt" stroke-miterlimit="22.926" stroke-linejoin="miter" fill="none" stroke="#231f20" d="M 0 0 L 14.256 0 "/>
<path transform="matrix(1,0,0,-1,304.729,34.987)" stroke-width=".99" stroke-linecap="butt" stroke-miterlimit="22.926" stroke-linejoin="miter" fill="none" stroke="#231f20" d="M 0 0 L 0 -327.888 "/>
<path transform="matrix(1,0,0,-1,304.728,362.875)" stroke-width=".99" stroke-linecap="butt" stroke-miterlimit="22.926" stroke-linejoin="miter" fill="none" stroke="#231f20" d="M 0 0 L 14.256 0 "/>
<path transform="matrix(1,0,0,-1,290.472,305.851)" stroke-width=".99" stroke-linecap="butt" stroke-miterlimit="22.926" stroke-linejoin="miter" fill="none" stroke="#231f20" d="M 0 0 L 14.256 0 "/>
<path transform="matrix(1,0,0,-1,304.728,320.10704)" stroke-width=".99" stroke-linecap="butt" stroke-miterlimit="22.926" stroke-linejoin="miter" fill="none" stroke="#231f20" d="M 0 0 L 14.256 0 "/>
<path transform="matrix(1,0,0,-1,162.168,525.752)" stroke-width=".99" stroke-linecap="butt" stroke-miterlimit="22.926" stroke-linejoin="miter" fill="none" stroke="#231f20" d="M 0 0 L 114.048 0 L 114.048 -28.512 L 0 -28.512 Z "/>
<text fill="#231f20" xml:space="preserve" transform="matrix(1 0 -0 1 0 842)" font-size="9.8999" font-family="TimesNewRomanPSMT"><tspan y="-304.1035" x="184.6793 191.28255 198.90547 204.20192 209.15187 216.2996 223.05135 228.0013 232.95125 237.9012 244.31633 248.71189">&#x042f;&#x0448;&#x043d;&#x043e;&#x0432;&#x0414;&#x043e;&#x0440;&#x043e;&#x0444;&#x0435;&#x0439;</tspan><tspan y="-293.13935" x="184.6793 190.48065 195.7771 200.35086 205.30081 210.59726 215.54721 220.21997 225.51642">&#x0422;&#x0438;&#x0445;&#x043e;&#x043d;&#x043e;&#x0432;&#x0438;&#x0447;</tspan></text>
<path transform="matrix(1,0,0,-1,0,842)" stroke-width=".99" stroke-linecap="butt" stroke-miterlimit="22.926" stroke-linejoin="miter" fill="none" stroke="#231f20" d="M 162.168 280.607 L 276.216 280.607 L 276.216 252.095 L 162.168 252.095 Z "/>
<text fill="#231f20" xml:space="preserve" transform="matrix(1 0 -0 1 0 842)" font-size="9.8999" font-family="TimesNewRomanPSMT"><tspan y="-268.4636" x="184.6793 191.28255 198.90547 204.20192 209.15187 216.2996 223.02759 227.42314 232.3731 236.30237 240.69792">&#x042f;&#x0448;&#x043d;&#x043e;&#x0432;&#x0421;&#x0435;&#x0440;&#x0433;&#x0435;&#x0439;</tspan><tspan y="-257.49946" x="184.6793 190.48065 195.7771 200.35086 205.30081 210.59726 215.54721 220.21997 225.51642">&#x0422;&#x0438;&#x0445;&#x043e;&#x043d;&#x043e;&#x0432;&#x0438;&#x0447;</tspan></text>
<path transform="matrix(1,0,0,-1,147.912,541.076)" stroke-width=".99" stroke-linecap="butt" stroke-miterlimit="22.926" stroke-linejoin="miter" fill="none" stroke="#231f20" d="M 0 0 L 14.256 0 "/>
<path transform="matrix(1,0,0,-1,147.912,576.716)" stroke-width=".99" stroke-linecap="butt" stroke-miterlimit="22.926" stroke-linejoin="miter" fill="none" stroke="#231f20" d="M 0 0 L 14.256 0 "/>
<path transform="matrix(1,0,0,-1,260.86,449.635)" stroke-width=".99" stroke-linecap="butt" stroke-miterlimit="22.926" stroke-linejoin="miter" fill="none" stroke="#231f20" d="M 0 0 L 3.951 0 "/>
<path transform="matrix(1,0,0,-1,260.86,457.664)" stroke-width=".99" stroke-linecap="butt" stroke-miterlimit="22.926" stroke-linejoin="miter" fill="none" stroke="#231f20" d="M 0 0 L 3.951 0 "/>
<path transform="matrix(1,0,0,-1,264.81098,453.65)" stroke-width=".99" stroke-linecap="butt" stroke-miterlimit="22.926" stroke-linejoin="miter" fill="none" stroke="#231f20" d="M 0 0 L 3.951 0 "/>
<path transform="matrix(1,0,0,-1,264.81098,449.636)" stroke-width=".99" stroke-linecap="butt" stroke-miterlimit="22.926" stroke-linejoin="miter" fill="none" stroke="#231f20" d="M 0 0 L 0 -8.029 "/>
<path transform="matrix(1,0,0,-1,268.82499,449.636)" stroke-width=".99" stroke-linecap="butt" stroke-miterlimit="22.926" stroke-linejoin="miter" fill="none" stroke="#231f20" d="M 0 0 L 0 -8.029 "/>
<path transform="matrix(1,0,0,-1,268.88798,449.636)" stroke-width=".99" stroke-linecap="butt" stroke-miterlimit="22.926" stroke-linejoin="miter" fill="none" stroke="#231f20" d="M 0 0 L 3.951 0 "/>
<path transform="matrix(1,0,0,-1,268.88798,457.66499)" stroke-width=".99" stroke-linecap="butt" stroke-miterlimit="22.926" stroke-linejoin="miter" fill="none" stroke="#231f20" d="M 0 0 L 3.951 0 "/>
<text fill="#231f20" xml:space="preserve" transform="matrix(1 0 -0 1 0 842)" font-size="9.8999" font-family="TimesNewRomanPSMT"><tspan y="-540.3182" x="326.335 333.058 337.45359 342.40354 346.3328 350.72837 358.50077 363.4507 368.40068 370.87565 375.8256 380.77555 383.25053 388.20048">&#x0421;&#x0435;&#x0440;&#x0433;&#x0435;&#x0439;28.08.04</tspan></text>
<path transform="matrix(1,0,0,-1,318.984,290.53004)" stroke-width=".99" stroke-linecap="butt" stroke-miterlimit="22.926" stroke-linejoin="miter" fill="none" stroke="#231f20" d="M 0 0 L 114.048 0 L 114.048 -14.256 L 0 -14.256 Z "/>
<path transform="matrix(1,0,0,-1,304.728,298.72404)" stroke-width=".99" stroke-linecap="butt" stroke-miterlimit="22.926" stroke-linejoin="miter" fill="none" stroke="#231f20" d="M 0 0 L 14.256 0 "/>
<path transform="matrix(1,0,0,-1,304.728,263.08406)" stroke-width=".99" stroke-linecap="butt" stroke-miterlimit="22.926" stroke-linejoin="miter" fill="none" stroke="#231f20" d="M 0 0 L 14.256 0 "/>
<path transform="matrix(1,0,0,-1,318.984,254.89005)" stroke-width=".99" stroke-linecap="butt" stroke-miterlimit="22.926" stroke-linejoin="miter" fill="none" stroke="#231f20" d="M 0 0 L 114.048 0 L 114.048 -28.512 L 0 -28.512 Z "/>
<text fill="#231f20" xml:space="preserve" transform="matrix(1 0 -0 1 0 842)" font-size="9.8999" font-family="TimesNewRomanPSMT"><tspan y="-575.9582" x="333.463 340.06626 347.68919 352.98564 357.93559 362.48164">&#x042f;&#x0448;&#x043d;&#x043e;&#x0432;&#x0430;</tspan><tspan y="-564.9941" x="333.463 339.26435 343.40254 347.7288 352.24314 356.7971 362.09355 368.96409 376.11183 380.5074 384.9554 389.90538 394.85533 399.52809 404.82453">&#x0422;&#x0430;&#x0442;&#x044c;&#x044f;&#x043d;&#x0430;&#x041f;&#x0435;&#x0442;&#x0440;&#x043e;&#x0432;&#x043d;&#x0430;</tspan></text>
<path transform="matrix(1,0,0,-1,304.728,220.31598)" stroke-width=".99" stroke-linecap="butt" stroke-miterlimit="22.926" stroke-linejoin="miter" fill="none" stroke="#231f20" d="M 0 0 L 14.256 0 "/>
<text fill="#231f20" xml:space="preserve" transform="matrix(1 0 -0 1 0 842)" font-size="9.8999" font-family="TimesNewRomanPSMT"><tspan y="-618.7261" x="333.463 340.06626 347.68919 352.98564 357.93559 365.0833 370.057 374.45259 379.40254 384.35249 388.41145 393.7079">&#x042f;&#x0448;&#x043d;&#x043e;&#x0432;&#x0413;&#x0435;&#x043e;&#x0440;&#x0433;&#x0438;&#x0439;</tspan><tspan y="-607.76199" x="333.463 336.75968 342.8085 346.62196 351.5719 356.52186 362.2935 369.44123 373.8368 378.28385 383.2338 388.18376 392.8565 398.15296">(&#x0415;&#x0433;&#x043e;&#x0440;)&#x041f;&#x0435;&#x0442;&#x0440;&#x043e;&#x0432;&#x0438;&#x0447;</tspan><tspan y="-596.79788" x="333.463 338.81886 343.7688 348.71876 353.6687">~1885</tspan></text>
<path transform="matrix(1,0,0,-1,0,842)" stroke-width=".99" stroke-linecap="butt" stroke-miterlimit="22.926" stroke-linejoin="miter" fill="none" stroke="#231f20" d="M 318.984 665.518 L 433.032 665.518 L 433.032 637.006 L 318.984 637.006 Z "/>
<text fill="#231f20" xml:space="preserve" transform="matrix(1 0 -0 1 0 842)" font-size="9.8999" font-family="TimesNewRomanPSMT"><tspan y="-654.3661" x="333.463 340.06626 347.68919 352.98564 357.93559 362.48164 372.64787 378.3175 382.71308 387.66304 391.92594 396.8759 402.17234 407.46879">&#x042f;&#x0448;&#x043d;&#x043e;&#x0432;&#x0430;&#x0422;&#x0435;&#x0440;&#x0435;&#x0445;&#x0438;&#x043d;&#x0430;</tspan><tspan y="-643.402" x="333.463 340.61076 345.9072 351.20365 358.0742 364.82594 371.09257 376.389 380.84199 385.79194 391.08839 395.48396 400.1567 405.45317">&#x0410;&#x043d;&#x043d;&#x0430;&#x0414;&#x043c;&#x0438;&#x0442;&#x0440;&#x0438;&#x0435;&#x0432;&#x043d;&#x0430;</tspan><tspan y="-654.3661" x="369.35017 411.8643">()</tspan></text>
<path transform="matrix(1,0,0,-1,433.031,184.67603)" stroke-width=".99" stroke-linecap="butt" stroke-miterlimit="22.926" stroke-linejoin="miter" fill="none" stroke="#231f20" d="M 0 0 L 14.256 0 "/>
<path transform="matrix(1,0,0,-1,433.031,227.44403)" stroke-width=".99" stroke-linecap="butt" stroke-miterlimit="22.926" stroke-linejoin="miter" fill="none" stroke="#231f20" d="M 0 0 L 14.256 0 "/>
<path transform="matrix(1,0,0,-1,447.28703,184.67603)" stroke-width=".99" stroke-linecap="butt" stroke-miterlimit="22.926" stroke-linejoin="miter" fill="none" stroke="#231f20" d="M 0 0 L 0 -42.768 "/>
<text fill="#231f20" xml:space="preserve" transform="matrix(.000033670794 -1 1 .000033670794 0 842)" font-size="8.9098" font-family="TimesNewRomanPSMT"><tspan y="443.8844" x="620.65438 625.10928 629.56417 631.7916 636.2465 640.7014 642.9289 647.3838">08.10.04</tspan></text>
<path transform="matrix(1,0,0,-1,0,842)" stroke-width=".99" stroke-linecap="butt" stroke-miterlimit="22.926" stroke-linejoin="miter" fill="none" stroke="#231f20" d="M 318.984 701.158 L 433.032 701.158 L 433.032 672.646 L 318.984 672.646 Z "/>
<text fill="#231f20" xml:space="preserve" transform="matrix(1 0 -0 1 0 842)" font-size="9.8999" font-family="TimesNewRomanPSMT"><tspan y="-690.0061" x="327.2585 333.86177 341.48469 346.78114 351.73109 358.88279 362.17945">&#x042f;&#x0448;&#x043d;&#x043e;&#x0432;()</tspan><tspan y="-679.042" x="327.2585 333.05986 337.19804 341.5243 346.03865 350.5926 355.88905 362.75959 369.36283 374.3029 378.69847 383.73753 389.03398 395.3006 400.59706 405.547 410.49696 415.1697 420.46617">&#x0422;&#x0430;&#x0442;&#x044c;&#x044f;&#x043d;&#x0430;&#x0412;&#x043b;&#x0430;&#x0434;&#x0438;&#x043c;&#x0438;&#x0440;&#x043e;&#x0432;&#x043d;&#x0430;</tspan></text>
<path transform="matrix(1,0,0,-1,0,842)" stroke-width=".99" stroke-linecap="butt" stroke-miterlimit="22.926" stroke-linejoin="miter" fill="none" stroke="#231f20" d="M 318.984 736.798 L 433.032 736.798 L 433.032 708.28598 L 318.984 708.28598 Z "/>
<text fill="#231f20" xml:space="preserve" transform="matrix(1 0 -0 1 0 842)" font-size="9.8999" font-family="TimesNewRomanPSMT"><tspan y="-725.646" x="333.463 340.06626 347.68919 352.98564 357.93559 365.0833 371.81129 376.20686 381.1568 385.08607 389.48164">&#x042f;&#x0448;&#x043d;&#x043e;&#x0432;&#x0421;&#x0435;&#x0440;&#x0433;&#x0435;&#x0439;</tspan><tspan y="-714.6819" x="333.463 340.61076 345.00633 349.45338 354.40333 359.35328 364.02604 369.32249">&#x041f;&#x0435;&#x0442;&#x0440;&#x043e;&#x0432;&#x0438;&#x0447;</tspan></text>
<path transform="matrix(1,0,0,-1,433.031,113.395999)" stroke-width=".99" stroke-linecap="butt" stroke-miterlimit="22.926" stroke-linejoin="miter" fill="none" stroke="#231f20" d="M 0 0 L 14.256 0 "/>
<path transform="matrix(1,0,0,-1,433.031,156.164)" stroke-width=".99" stroke-linecap="butt" stroke-miterlimit="22.926" stroke-linejoin="miter" fill="none" stroke="#231f20" d="M 0 0 L 14.256 0 "/>
<path transform="matrix(1,0,0,-1,447.28703,113.395999)" stroke-width=".99" stroke-linecap="butt" stroke-miterlimit="22.926" stroke-linejoin="miter" fill="none" stroke="#231f20" d="M 0 0 L 0 -42.768 "/>
<path transform="matrix(1,0,0,-1,461.54304,113.395999)" stroke-width=".99" stroke-linecap="butt" stroke-miterlimit="22.926" stroke-linejoin="miter" fill="none" stroke="#231f20" d="M 0 0 L 0 -21.384 "/>
<path transform="matrix(1,0,0,-1,461.54304,113.395999)" stroke-width=".99" stroke-linecap="butt" stroke-miterlimit="22.926" stroke-linejoin="miter" fill="none" stroke="#231f20" d="M 0 0 L 14.256 0 "/>
<path transform="matrix(1,0,0,-1,447.28703,127.65199)" stroke-width=".99" stroke-linecap="butt" stroke-miterlimit="22.926" stroke-linejoin="miter" fill="none" stroke="#231f20" d="M 0 0 L 14.256 0 "/>
<path transform="matrix(1,0,0,-1,475.799,105.201999)" stroke-width=".99" stroke-linecap="butt" stroke-miterlimit="22.926" stroke-linejoin="miter" fill="none" stroke="#231f20" d="M 0 0 L 114.048 0 L 114.048 -14.256 L 0 -14.256 Z "/>
<text fill="#231f20" xml:space="preserve" transform="matrix(1 0 -0 1 0 842)" font-size="9.8999" font-family="TimesNewRomanPSMT"><tspan y="-725.646" x="483.1508 490.29853 495.59498 500.89143 507.76594 512.7159 517.66586 520.1408 525.09078 530.0407 532.5157 537.46566">&#x0410;&#x043d;&#x043d;&#x0430;10.01.97</tspan></text>
<path transform="matrix(1,0,0,-1,461.544,134.78003)" stroke-width=".99" stroke-linecap="butt" stroke-miterlimit="22.926" stroke-linejoin="miter" fill="none" stroke="#231f20" d="M 0 0 L 14.256 0 "/>
<path transform="matrix(1,0,0,-1,475.80003,126.58603)" stroke-width=".99" stroke-linecap="butt" stroke-miterlimit="22.926" stroke-linejoin="miter" fill="none" stroke="#231f20" d="M 0 0 L 114.048 0 L 114.048 -14.256 L 0 -14.256 Z "/>
<text fill="#231f20" xml:space="preserve" transform="matrix(1 0 -0 1 0 842)" font-size="9.8999" font-family="TimesNewRomanPSMT"><tspan y="-704.262" x="483.1508 490.29853 495.2386 499.75294 503.8119 510.6854 515.6353 520.58529 523.06027 528.0102 532.96017 535.4351 540.3851">&#x041e;&#x043b;&#x044c;&#x0433;&#x0430;09.07.99</tspan></text>
<path transform="matrix(1,0,0,-1,304.728,120.52399)" stroke-width=".99" stroke-linecap="butt" stroke-miterlimit="22.926" stroke-linejoin="miter" fill="none" stroke="#231f20" d="M 0 0 L 14.256 0 "/>
<text fill="#231f20" xml:space="preserve" transform="matrix(1 0 -0 1 0 842)" font-size="9.8999" font-family="TimesNewRomanPSMT"><tspan y="-768.4139" x="333.463 340.06626 347.68919 352.98564 357.93559 362.48164 369.3512 372.64787 379.2511 384.19117 388.58674 392.9823 397.93226 402.47434 406.8699">&#x042f;&#x0448;&#x043d;&#x043e;&#x0432;&#x0430;(&#x0412;&#x043b;&#x0430;&#x0441;&#x043e;&#x0432;&#x0430;)</tspan><tspan y="-757.44979" x="333.463 342.26405 346.6596 351.60957 356.906 363.93495 371.08268 375.63169 380.02726 385.3237 390.27366 394.9464 400.24287">&#x041c;&#x0430;&#x0440;&#x0438;&#x044f;&#x0418;&#x0432;&#x0430;&#x043d;&#x043e;&#x0432;&#x043d;&#x0430;</tspan><tspan y="-811.1825" x="333.463 340.06626 347.68919 352.98564 357.93559 365.0833 372.23106 377.1711 381.56669 386.13548 390.64985 395.0454 400.34187 405.38093">&#x042f;&#x0448;&#x043d;&#x043e;&#x0432;&#x0410;&#x043b;&#x0435;&#x043a;&#x0441;&#x0430;&#x043d;&#x0434;&#x0440;</tspan><tspan y="-800.2184" x="333.463 340.61076 345.00633 349.45338 354.40333 359.35328 364.02604 369.32249">&#x041f;&#x0435;&#x0442;&#x0440;&#x043e;&#x0432;&#x0438;&#x0447;</tspan><tspan y="-789.2543" x="338.81886 343.7688 348.71876 353.6687 333.463">1881~</tspan></text>
<path transform="matrix(1,0,0,-1,433.031,34.989015)" stroke-width=".99" stroke-linecap="butt" stroke-miterlimit="22.926" stroke-linejoin="miter" fill="none" stroke="#231f20" d="M 0 0 L 14.256 0 "/>
<path transform="matrix(1,0,0,-1,433.031,77.75702)" stroke-width=".99" stroke-linecap="butt" stroke-miterlimit="22.926" stroke-linejoin="miter" fill="none" stroke="#231f20" d="M 0 0 L 14.256 0 "/>
<path transform="matrix(1,0,0,-1,447.28703,34.989019)" stroke-width=".99" stroke-linecap="butt" stroke-miterlimit="22.926" stroke-linejoin="miter" fill="none" stroke="#231f20" d="M 0 0 L 0 -42.768 "/>
<path transform="matrix(1,0,0,-1,318.98304,62.434019)" stroke-width=".99" stroke-linecap="butt" stroke-miterlimit="22.926" stroke-linejoin="miter" fill="none" stroke="#231f20" d="M 0 0 L 114.048 0 L 114.048 -35.64 L 0 -35.64 Z "/>
<path transform="matrix(1,0,0,-1,318.98304,19.666016)" stroke-width=".99" stroke-linecap="butt" stroke-miterlimit="22.926" stroke-linejoin="miter" fill="none" stroke="#231f20" d="M 0 0 L 114.048 0 L 114.048 -35.64 L 0 -35.64 Z "/>
<text fill="#231f20" xml:space="preserve" transform="matrix(.000033670794 -1 1 .000033670794 0 842)" font-size="8.9098" font-family="TimesNewRomanPSMT"><tspan y="443.87937" x="770.3422 774.7971 779.252 781.4795 785.9344 790.3893 792.61679 797.07168">17.01.00</tspan></text>
<path transform="matrix(1,0,0,-1,304.728,34.987977)" stroke-width=".99" stroke-linecap="butt" stroke-miterlimit="22.926" stroke-linejoin="miter" fill="none" stroke="#231f20" d="M 0 0 L 14.256 0 "/>
<path transform="matrix(1,0,0,-1,162.168,62.433977)" stroke-width=".99" stroke-linecap="butt" stroke-miterlimit="22.926" stroke-linejoin="miter" fill="none" stroke="#231f20" d="M 0 0 L 114.048 0 L 114.048 -28.512 L 0 -28.512 Z "/>
<text fill="#231f20" xml:space="preserve" transform="matrix(1 0 -0 1 0 842)" font-size="9.8999" font-family="TimesNewRomanPSMT"><tspan y="-768.4139" x="176.6471 183.25034 188.19039 192.58594 196.98149 201.93144 209.07918 216.22692 220.77295 225.1685">&#x0412;&#x043b;&#x0430;&#x0441;&#x043e;&#x0432;&#x0418;&#x0432;&#x0430;&#x043d;</tspan><tspan y="-757.44979" x="176.6471 183.39884 187.79439 193.09084 198.38729 203.32733 208.27729 212.95005 218.24649">&#x0414;&#x0430;&#x043d;&#x0438;&#x043b;&#x043e;&#x0432;&#x0438;&#x0447;</tspan></text>
<path transform="matrix(1,0,0,-1,297.6,84.88397)" stroke-width=".99" stroke-linecap="butt" stroke-miterlimit="22.926" stroke-linejoin="miter" fill="none" stroke="#231f20" d="M 0 0 C 0 3.936 3.192 7.128 7.128 7.128 C 11.064 7.128 14.256 3.936 14.256 0 "/>
<path transform="matrix(1,0,0,-1,276.216,84.88397)" stroke-width=".99" stroke-linecap="butt" stroke-miterlimit="22.926" stroke-linejoin="miter" fill="none" stroke="#231f20" d="M 0 0 L 21.384 0 "/>
<path transform="matrix(1,0,0,-1,311.85603,84.88397)" stroke-width=".99" stroke-linecap="butt" stroke-miterlimit="22.926" stroke-linejoin="miter" fill="none" stroke="#231f20" d="M 0 0 L 7.128 0 "/>
<path transform="matrix(1,0,0,-1,260.86003,242.92298)" stroke-width=".99" stroke-linecap="butt" stroke-miterlimit="22.926" stroke-linejoin="miter" fill="none" stroke="#231f20" d="M 0 0 L 3.951 0 "/>
<path transform="matrix(1,0,0,-1,260.86003,250.95198)" stroke-width=".99" stroke-linecap="butt" stroke-miterlimit="22.926" stroke-linejoin="miter" fill="none" stroke="#231f20" d="M 0 0 L 3.951 0 "/>
<path transform="matrix(1,0,0,-1,264.811,246.93799)" stroke-width=".99" stroke-linecap="butt" stroke-miterlimit="22.926" stroke-linejoin="miter" fill="none" stroke="#231f20" d="M 0 0 L 3.951 0 "/>
<path transform="matrix(1,0,0,-1,264.811,242.92398)" stroke-width=".99" stroke-linecap="butt" stroke-miterlimit="22.926" stroke-linejoin="miter" fill="none" stroke="#231f20" d="M 0 0 L 0 -8.029 "/>
<path transform="matrix(1,0,0,-1,268.825,242.92398)" stroke-width=".99" stroke-linecap="butt" stroke-miterlimit="22.926" stroke-linejoin="miter" fill="none" stroke="#231f20" d="M 0 0 L 0 -8.029 "/>
<path transform="matrix(1,0,0,-1,268.888,242.92398)" stroke-width=".99" stroke-linecap="butt" stroke-miterlimit="22.926" stroke-linejoin="miter" fill="none" stroke="#231f20" d="M 0 0 L 3.951 0 "/>
<path transform="matrix(1,0,0,-1,268.888,250.95299)" stroke-width=".99" stroke-linecap="butt" stroke-miterlimit="22.926" stroke-linejoin="miter" fill="none" stroke="#231f20" d="M 0 0 L 3.951 0 "/>
<path transform="matrix(1,0,0,-1,162.16699,98.07498)" stroke-width=".99" stroke-linecap="butt" stroke-miterlimit="22.926" stroke-linejoin="miter" fill="none" stroke="#231f20" d="M 0 0 L 114.048 0 L 114.048 -28.512 L 0 -28.512 Z "/>
<text fill="#231f20" xml:space="preserve" transform="matrix(1 0 -0 1 0 842)" font-size="9.8999" font-family="TimesNewRomanPSMT"><tspan y="-732.7336" x="176.5088 182.98137 187.37693 191.28739 195.68294 200.97939 206.27584 210.67139 215.21546">&#x041a;&#x0430;&#x0437;&#x0430;&#x043d;&#x0446;&#x0435;&#x0432;&#x0430;</tspan><tspan y="-721.7695" x="176.5088 182.31015 186.4483 190.77457 195.28893 199.84288 205.13933 212.00986 219.1576 223.55315 228.00118 232.95113 237.90108 242.57384 247.87029">&#x0422;&#x0430;&#x0442;&#x044c;&#x044f;&#x043d;&#x0430;&#x041f;&#x0435;&#x0442;&#x0440;&#x043e;&#x0432;&#x043d;&#x0430;</tspan></text>
<path transform="matrix(1,0,0,-1,147.912,113.395999)" stroke-width=".99" stroke-linecap="butt" stroke-miterlimit="22.926" stroke-linejoin="miter" fill="none" stroke="#231f20" d="M 0 0 L 14.256 0 "/>
<path transform="matrix(1,0,0,-1,318.984,212.121)" stroke-width=".99" stroke-linecap="butt" stroke-miterlimit="22.926" stroke-linejoin="miter" fill="none" stroke="#231f20" d="M 0 0 L 114.048 0 L 114.048 -35.64 L 0 -35.64 Z "/>
</g>
</svg>
